<svg width="1330pt" height="987pt"
 viewBox="0.00 0.00 1330.00 987.00" xmlns="http://www.w3.org/2000/svg" xmlns:xlink="http://www.w3.org/1999/xlink">
<g id="graph0" class="graph" transform="scale(1 1) rotate(0) translate(4 983)">
<title>Perl</title>
<polygon fill="#ffffff" stroke="transparent" points="-4,4 -4,-983 1326,-983 1326,4 -4,4"/>
<!-- study -->
<g id="node1" class="node">
<title>study</title>
<path fill="none" stroke="#000000" d="M251,-.5C251,-.5 470,-.5 470,-.5 476,-.5 482,-6.5 482,-12.5 482,-12.5 482,-218.5 482,-218.5 482,-224.5 476,-230.5 470,-230.5 470,-230.5 251,-230.5 251,-230.5 245,-230.5 239,-224.5 239,-218.5 239,-218.5 239,-12.5 239,-12.5 239,-6.5 245,-.5 251,-.5"/>
<text text-anchor="middle" x="267" y="-111.8" font-family="Times,serif" font-size="14.00" fill="#000000">study</text>
<polyline fill="none" stroke="#000000" points="295,-.5 295,-230.5 "/>
<text text-anchor="middle" x="305.5" y="-111.8" font-family="Times,serif" font-size="14.00" fill="#000000"> </text>
<polyline fill="none" stroke="#000000" points="316,-.5 316,-230.5 "/>
<text text-anchor="middle" x="388.5" y="-215.3" font-family="Times,serif" font-size="14.00" fill="#000000">acl</text>
<polyline fill="none" stroke="#000000" points="316,-207.5 461,-207.5 "/>
<text text-anchor="middle" x="388.5" y="-192.3" font-family="Times,serif" font-size="14.00" fill="#000000">consent</text>
<polyline fill="none" stroke="#000000" points="316,-184.5 461,-184.5 "/>
<text text-anchor="middle" x="388.5" y="-169.3" font-family="Times,serif" font-size="14.00" fill="#000000">consent_number</text>
<polyline fill="none" stroke="#000000" points="316,-161.5 461,-161.5 "/>
<text text-anchor="middle" x="388.5" y="-146.3" font-family="Times,serif" font-size="14.00" fill="#000000">external_url</text>
<polyline fill="none" stroke="#000000" points="316,-138.5 461,-138.5 "/>
<text text-anchor="middle" x="388.5" y="-123.3" font-family="Times,serif" font-size="14.00" fill="#000000">phs_accession</text>
<polyline fill="none" stroke="#000000" points="316,-115.5 461,-115.5 "/>
<text text-anchor="middle" x="388.5" y="-100.3" font-family="Times,serif" font-size="14.00" fill="#000000">study_acronym</text>
<polyline fill="none" stroke="#000000" points="316,-92.5 461,-92.5 "/>
<text text-anchor="middle" x="388.5" y="-77.3" font-family="Times,serif" font-size="14.00" fill="#000000">study_description</text>
<polyline fill="none" stroke="#000000" points="316,-69.5 461,-69.5 "/>
<text text-anchor="middle" x="388.5" y="-54.3" font-family="Times,serif" font-size="14.00" fill="#000000">study_id</text>
<polyline fill="none" stroke="#000000" points="316,-46.5 461,-46.5 "/>
<text text-anchor="middle" x="388.5" y="-31.3" font-family="Times,serif" font-size="14.00" fill="#000000">study_name</text>
<polyline fill="none" stroke="#000000" points="316,-23.5 461,-23.5 "/>
<text text-anchor="middle" x="388.5" y="-8.3" font-family="Times,serif" font-size="14.00" fill="#000000">study_short_title</text>
<polyline fill="none" stroke="#000000" points="461,-.5 461,-230.5 "/>
<text text-anchor="middle" x="471.5" y="-111.8" font-family="Times,serif" font-size="14.00" fill="#000000"> </text>
</g>
<!-- survival -->
<g id="node2" class="node">
<title>survival</title>
<path fill="none" stroke="#000000" d="M542,-714C542,-714 903,-714 903,-714 909,-714 915,-720 915,-726 915,-726 915,-840 915,-840 915,-846 909,-852 903,-852 903,-852 542,-852 542,-852 536,-852 530,-846 530,-840 530,-840 530,-726 530,-726 530,-720 536,-714 542,-714"/>
<text text-anchor="middle" x="567" y="-779.3" font-family="Times,serif" font-size="14.00" fill="#000000">survival</text>
<polyline fill="none" stroke="#000000" points="604,-714 604,-852 "/>
<text text-anchor="middle" x="614.5" y="-779.3" font-family="Times,serif" font-size="14.00" fill="#000000"> </text>
<polyline fill="none" stroke="#000000" points="625,-714 625,-852 "/>
<text text-anchor="middle" x="759.5" y="-836.8" font-family="Times,serif" font-size="14.00" fill="#000000">age_at_event_free_survival_status</text>
<polyline fill="none" stroke="#000000" points="625,-829 894,-829 "/>
<text text-anchor="middle" x="759.5" y="-813.8" font-family="Times,serif" font-size="14.00" fill="#000000">age_at_last_known_survival_status</text>
<polyline fill="none" stroke="#000000" points="625,-806 894,-806 "/>
<text text-anchor="middle" x="759.5" y="-790.8" font-family="Times,serif" font-size="14.00" fill="#000000">event_free_survival_status</text>
<polyline fill="none" stroke="#000000" points="625,-783 894,-783 "/>
<text text-anchor="middle" x="759.5" y="-767.8" font-family="Times,serif" font-size="14.00" fill="#000000">first_event</text>
<polyline fill="none" stroke="#000000" points="625,-760 894,-760 "/>
<text text-anchor="middle" x="759.5" y="-744.8" font-family="Times,serif" font-size="14.00" fill="#000000">last_known_survival_status</text>
<polyline fill="none" stroke="#000000" points="625,-737 894,-737 "/>
<text text-anchor="middle" x="759.5" y="-721.8" font-family="Times,serif" font-size="14.00" fill="#000000">survival_id</text>
<polyline fill="none" stroke="#000000" points="894,-714 894,-852 "/>
<text text-anchor="middle" x="904.5" y="-779.3" font-family="Times,serif" font-size="14.00" fill="#000000"> </text>
</g>
<!-- participant -->
<g id="node6" class="node">
<title>participant</title>
<path fill="none" stroke="#000000" d="M499.5,-351.5C499.5,-351.5 803.5,-351.5 803.5,-351.5 809.5,-351.5 815.5,-357.5 815.5,-363.5 815.5,-363.5 815.5,-454.5 815.5,-454.5 815.5,-460.5 809.5,-466.5 803.5,-466.5 803.5,-466.5 499.5,-466.5 499.5,-466.5 493.5,-466.5 487.5,-460.5 487.5,-454.5 487.5,-454.5 487.5,-363.5 487.5,-363.5 487.5,-357.5 493.5,-351.5 499.5,-351.5"/>
<text text-anchor="middle" x="535.5" y="-405.3" font-family="Times,serif" font-size="14.00" fill="#000000">participant</text>
<polyline fill="none" stroke="#000000" points="583.5,-351.5 583.5,-466.5 "/>
<text text-anchor="middle" x="594" y="-405.3" font-family="Times,serif" font-size="14.00" fill="#000000"> </text>
<polyline fill="none" stroke="#000000" points="604.5,-351.5 604.5,-466.5 "/>
<text text-anchor="middle" x="699.5" y="-451.3" font-family="Times,serif" font-size="14.00" fill="#000000">alternate_participant_id</text>
<polyline fill="none" stroke="#000000" points="604.5,-443.5 794.5,-443.5 "/>
<text text-anchor="middle" x="699.5" y="-428.3" font-family="Times,serif" font-size="14.00" fill="#000000">ethnicity</text>
<polyline fill="none" stroke="#000000" points="604.5,-420.5 794.5,-420.5 "/>
<text text-anchor="middle" x="699.5" y="-405.3" font-family="Times,serif" font-size="14.00" fill="#000000">gender</text>
<polyline fill="none" stroke="#000000" points="604.5,-397.5 794.5,-397.5 "/>
<text text-anchor="middle" x="699.5" y="-382.3" font-family="Times,serif" font-size="14.00" fill="#000000">participant_id</text>
<polyline fill="none" stroke="#000000" points="604.5,-374.5 794.5,-374.5 "/>
<text text-anchor="middle" x="699.5" y="-359.3" font-family="Times,serif" font-size="14.00" fill="#000000">race</text>
<polyline fill="none" stroke="#000000" points="794.5,-351.5 794.5,-466.5 "/>
<text text-anchor="middle" x="805" y="-405.3" font-family="Times,serif" font-size="14.00" fill="#000000"> </text>
</g>
<!-- survival&#45;&gt;participant -->
<g id="edge5" class="edge">
<title>survival&#45;&gt;participant</title>
<path fill="none" stroke="#000000" d="M709.3948,-713.9668C696.551,-646.3111 677.0971,-543.8353 664.3439,-476.6567"/>
<polygon fill="#000000" stroke="#000000" points="667.7384,-475.7712 662.4347,-466.5995 660.8612,-477.0769 667.7384,-475.7712"/>
<text text-anchor="middle" x="721" y="-557.8" font-family="Times,serif" font-size="14.00" fill="#000000">of_survival</text>
</g>
<!-- reference_file -->
<g id="node3" class="node">
<title>reference_file</title>
<path fill="none" stroke="#000000" d="M12,-282.5C12,-282.5 313,-282.5 313,-282.5 319,-282.5 325,-288.5 325,-294.5 325,-294.5 325,-523.5 325,-523.5 325,-529.5 319,-535.5 313,-535.5 313,-535.5 12,-535.5 12,-535.5 6,-535.5 0,-529.5 0,-523.5 0,-523.5 0,-294.5 0,-294.5 0,-288.5 6,-282.5 12,-282.5"/>
<text text-anchor="middle" x="58" y="-405.3" font-family="Times,serif" font-size="14.00" fill="#000000">reference_file</text>
<polyline fill="none" stroke="#000000" points="116,-282.5 116,-535.5 "/>
<text text-anchor="middle" x="126.5" y="-405.3" font-family="Times,serif" font-size="14.00" fill="#000000"> </text>
<polyline fill="none" stroke="#000000" points="137,-282.5 137,-535.5 "/>
<text text-anchor="middle" x="220.5" y="-520.3" font-family="Times,serif" font-size="14.00" fill="#000000">checksum_algorithm</text>
<polyline fill="none" stroke="#000000" points="137,-512.5 304,-512.5 "/>
<text text-anchor="middle" x="220.5" y="-497.3" font-family="Times,serif" font-size="14.00" fill="#000000">checksum_value</text>
<polyline fill="none" stroke="#000000" points="137,-489.5 304,-489.5 "/>
<text text-anchor="middle" x="220.5" y="-474.3" font-family="Times,serif" font-size="14.00" fill="#000000">dcf_indexd_guid</text>
<polyline fill="none" stroke="#000000" points="137,-466.5 304,-466.5 "/>
<text text-anchor="middle" x="220.5" y="-451.3" font-family="Times,serif" font-size="14.00" fill="#000000">file_category</text>
<polyline fill="none" stroke="#000000" points="137,-443.5 304,-443.5 "/>
<text text-anchor="middle" x="220.5" y="-428.3" font-family="Times,serif" font-size="14.00" fill="#000000">file_description</text>
<polyline fill="none" stroke="#000000" points="137,-420.5 304,-420.5 "/>
<text text-anchor="middle" x="220.5" y="-405.3" font-family="Times,serif" font-size="14.00" fill="#000000">file_name</text>
<polyline fill="none" stroke="#000000" points="137,-397.5 304,-397.5 "/>
<text text-anchor="middle" x="220.5" y="-382.3" font-family="Times,serif" font-size="14.00" fill="#000000">file_size</text>
<polyline fill="none" stroke="#000000" points="137,-374.5 304,-374.5 "/>
<text text-anchor="middle" x="220.5" y="-359.3" font-family="Times,serif" font-size="14.00" fill="#000000">file_type</text>
<polyline fill="none" stroke="#000000" points="137,-351.5 304,-351.5 "/>
<text text-anchor="middle" x="220.5" y="-336.3" font-family="Times,serif" font-size="14.00" fill="#000000">md5sum</text>
<polyline fill="none" stroke="#000000" points="137,-328.5 304,-328.5 "/>
<text text-anchor="middle" x="220.5" y="-313.3" font-family="Times,serif" font-size="14.00" fill="#000000">reference_file_id</text>
<polyline fill="none" stroke="#000000" points="137,-305.5 304,-305.5 "/>
<text text-anchor="middle" x="220.5" y="-290.3" font-family="Times,serif" font-size="14.00" fill="#000000">reference_file_url</text>
<polyline fill="none" stroke="#000000" points="304,-282.5 304,-535.5 "/>
<text text-anchor="middle" x="314.5" y="-405.3" font-family="Times,serif" font-size="14.00" fill="#000000"> </text>
</g>
<!-- reference_file&#45;&gt;study -->
<g id="edge4" class="edge">
<title>reference_file&#45;&gt;study</title>
<path fill="none" stroke="#000000" d="M206.4973,-282.4496C212.2628,-270.8062 218.5967,-259.467 225.5,-249 227.8479,-245.4401 230.3032,-241.899 232.8492,-238.384"/>
<polygon fill="#000000" stroke="#000000" points="235.7592,-240.337 238.9464,-230.2329 230.1538,-236.1441 235.7592,-240.337"/>
<text text-anchor="middle" x="286" y="-252.8" font-family="Times,serif" font-size="14.00" fill="#000000">of_reference_file</text>
</g>
<!-- sample -->
<g id="node4" class="node">
<title>sample</title>
<path fill="none" stroke="#000000" d="M149,-587.5C149,-587.5 500,-587.5 500,-587.5 506,-587.5 512,-593.5 512,-599.5 512,-599.5 512,-966.5 512,-966.5 512,-972.5 506,-978.5 500,-978.5 500,-978.5 149,-978.5 149,-978.5 143,-978.5 137,-972.5 137,-966.5 137,-966.5 137,-599.5 137,-599.5 137,-593.5 143,-587.5 149,-587.5"/>
<text text-anchor="middle" x="171" y="-779.3" font-family="Times,serif" font-size="14.00" fill="#000000">sample</text>
<polyline fill="none" stroke="#000000" points="205,-587.5 205,-978.5 "/>
<text text-anchor="middle" x="215.5" y="-779.3" font-family="Times,serif" font-size="14.00" fill="#000000"> </text>
<polyline fill="none" stroke="#000000" points="226,-587.5 226,-978.5 "/>
<text text-anchor="middle" x="358.5" y="-963.3" font-family="Times,serif" font-size="14.00" fill="#000000">age_at_last_known_disease_status</text>
<polyline fill="none" stroke="#000000" points="226,-955.5 491,-955.5 "/>
<text text-anchor="middle" x="358.5" y="-940.3" font-family="Times,serif" font-size="14.00" fill="#000000">alternate_sample_id</text>
<polyline fill="none" stroke="#000000" points="226,-932.5 491,-932.5 "/>
<text text-anchor="middle" x="358.5" y="-917.3" font-family="Times,serif" font-size="14.00" fill="#000000">anatomic_site</text>
<polyline fill="none" stroke="#000000" points="226,-909.5 491,-909.5 "/>
<text text-anchor="middle" x="358.5" y="-894.3" font-family="Times,serif" font-size="14.00" fill="#000000">diagnosis_finer_resolution</text>
<polyline fill="none" stroke="#000000" points="226,-886.5 491,-886.5 "/>
<text text-anchor="middle" x="358.5" y="-871.3" font-family="Times,serif" font-size="14.00" fill="#000000">diagnosis_icd_cm</text>
<polyline fill="none" stroke="#000000" points="226,-863.5 491,-863.5 "/>
<text text-anchor="middle" x="358.5" y="-848.3" font-family="Times,serif" font-size="14.00" fill="#000000">diagnosis_icd_o</text>
<polyline fill="none" stroke="#000000" points="226,-840.5 491,-840.5 "/>
<text text-anchor="middle" x="358.5" y="-825.3" font-family="Times,serif" font-size="14.00" fill="#000000">last_known_disease_status</text>
<polyline fill="none" stroke="#000000" points="226,-817.5 491,-817.5 "/>
<text text-anchor="middle" x="358.5" y="-802.3" font-family="Times,serif" font-size="14.00" fill="#000000">participant_age_at_collection</text>
<polyline fill="none" stroke="#000000" points="226,-794.5 491,-794.5 "/>
<text text-anchor="middle" x="358.5" y="-779.3" font-family="Times,serif" font-size="14.00" fill="#000000">sample_description</text>
<polyline fill="none" stroke="#000000" points="226,-771.5 491,-771.5 "/>
<text text-anchor="middle" x="358.5" y="-756.3" font-family="Times,serif" font-size="14.00" fill="#000000">sample_id</text>
<polyline fill="none" stroke="#000000" points="226,-748.5 491,-748.5 "/>
<text text-anchor="middle" x="358.5" y="-733.3" font-family="Times,serif" font-size="14.00" fill="#000000">sample_tumor_status</text>
<polyline fill="none" stroke="#000000" points="226,-725.5 491,-725.5 "/>
<text text-anchor="middle" x="358.5" y="-710.3" font-family="Times,serif" font-size="14.00" fill="#000000">toronto_childhood_cancer_staging</text>
<polyline fill="none" stroke="#000000" points="226,-702.5 491,-702.5 "/>
<text text-anchor="middle" x="358.5" y="-687.3" font-family="Times,serif" font-size="14.00" fill="#000000">tumor_classification</text>
<polyline fill="none" stroke="#000000" points="226,-679.5 491,-679.5 "/>
<text text-anchor="middle" x="358.5" y="-664.3" font-family="Times,serif" font-size="14.00" fill="#000000">tumor_grade</text>
<polyline fill="none" stroke="#000000" points="226,-656.5 491,-656.5 "/>
<text text-anchor="middle" x="358.5" y="-641.3" font-family="Times,serif" font-size="14.00" fill="#000000">tumor_stage_clinical_m</text>
<polyline fill="none" stroke="#000000" points="226,-633.5 491,-633.5 "/>
<text text-anchor="middle" x="358.5" y="-618.3" font-family="Times,serif" font-size="14.00" fill="#000000">tumor_stage_clinical_n</text>
<polyline fill="none" stroke="#000000" points="226,-610.5 491,-610.5 "/>
<text text-anchor="middle" x="358.5" y="-595.3" font-family="Times,serif" font-size="14.00" fill="#000000">tumor_stage_clinical_t</text>
<polyline fill="none" stroke="#000000" points="491,-587.5 491,-978.5 "/>
<text text-anchor="middle" x="501.5" y="-779.3" font-family="Times,serif" font-size="14.00" fill="#000000"> </text>
</g>
<!-- sample&#45;&gt;study -->
<g id="edge2" class="edge">
<title>sample&#45;&gt;study</title>
<path fill="none" stroke="#000000" d="M335.0579,-587.2382C341.0894,-475.4049 348.4739,-338.4836 353.7305,-241.0184"/>
<polygon fill="#000000" stroke="#000000" points="357.2367,-240.9958 354.2804,-230.8218 350.2468,-240.6188 357.2367,-240.9958"/>
<text text-anchor="middle" x="388" y="-405.3" font-family="Times,serif" font-size="14.00" fill="#000000">of_sample</text>
</g>
<!-- sample&#45;&gt;participant -->
<g id="edge3" class="edge">
<title>sample&#45;&gt;participant</title>
<path fill="none" stroke="#000000" d="M495.6616,-587.2372C531.2753,-546.5047 566.4032,-506.3278 594.2666,-474.4596"/>
<polygon fill="#000000" stroke="#000000" points="597.2425,-476.3733 601.1899,-466.5412 591.9727,-471.7658 597.2425,-476.3733"/>
<text text-anchor="middle" x="554" y="-557.8" font-family="Times,serif" font-size="14.00" fill="#000000">of_sample</text>
</g>
<!-- diagnosis -->
<g id="node5" class="node">
<title>diagnosis</title>
<path fill="none" stroke="#000000" d="M945,-622C945,-622 1310,-622 1310,-622 1316,-622 1322,-628 1322,-634 1322,-634 1322,-932 1322,-932 1322,-938 1316,-944 1310,-944 1310,-944 945,-944 945,-944 939,-944 933,-938 933,-932 933,-932 933,-634 933,-634 933,-628 939,-622 945,-622"/>
<text text-anchor="middle" x="975" y="-779.3" font-family="Times,serif" font-size="14.00" fill="#000000">diagnosis</text>
<polyline fill="none" stroke="#000000" points="1017,-622 1017,-944 "/>
<text text-anchor="middle" x="1027.5" y="-779.3" font-family="Times,serif" font-size="14.00" fill="#000000"> </text>
<polyline fill="none" stroke="#000000" points="1038,-622 1038,-944 "/>
<text text-anchor="middle" x="1169.5" y="-928.8" font-family="Times,serif" font-size="14.00" fill="#000000">age_at_diagnosis</text>
<polyline fill="none" stroke="#000000" points="1038,-921 1301,-921 "/>
<text text-anchor="middle" x="1169.5" y="-905.8" font-family="Times,serif" font-size="14.00" fill="#000000">anatomic_site</text>
<polyline fill="none" stroke="#000000" points="1038,-898 1301,-898 "/>
<text text-anchor="middle" x="1169.5" y="-882.8" font-family="Times,serif" font-size="14.00" fill="#000000">diagnosis_basis</text>
<polyline fill="none" stroke="#000000" points="1038,-875 1301,-875 "/>
<text text-anchor="middle" x="1169.5" y="-859.8" font-family="Times,serif" font-size="14.00" fill="#000000">diagnosis_classification</text>
<polyline fill="none" stroke="#000000" points="1038,-852 1301,-852 "/>
<text text-anchor="middle" x="1169.5" y="-836.8" font-family="Times,serif" font-size="14.00" fill="#000000">diagnosis_classification_system</text>
<polyline fill="none" stroke="#000000" points="1038,-829 1301,-829 "/>
<text text-anchor="middle" x="1169.5" y="-813.8" font-family="Times,serif" font-size="14.00" fill="#000000">diagnosis_comment</text>
<polyline fill="none" stroke="#000000" points="1038,-806 1301,-806 "/>
<text text-anchor="middle" x="1169.5" y="-790.8" font-family="Times,serif" font-size="14.00" fill="#000000">diagnosis_id</text>
<polyline fill="none" stroke="#000000" points="1038,-783 1301,-783 "/>
<text text-anchor="middle" x="1169.5" y="-767.8" font-family="Times,serif" font-size="14.00" fill="#000000">diagnosis_verification_status</text>
<polyline fill="none" stroke="#000000" points="1038,-760 1301,-760 "/>
<text text-anchor="middle" x="1169.5" y="-744.8" font-family="Times,serif" font-size="14.00" fill="#000000">disease_phase</text>
<polyline fill="none" stroke="#000000" points="1038,-737 1301,-737 "/>
<text text-anchor="middle" x="1169.5" y="-721.8" font-family="Times,serif" font-size="14.00" fill="#000000">toronto_childhood_cancer_staging</text>
<polyline fill="none" stroke="#000000" points="1038,-714 1301,-714 "/>
<text text-anchor="middle" x="1169.5" y="-698.8" font-family="Times,serif" font-size="14.00" fill="#000000">tumor_grade</text>
<polyline fill="none" stroke="#000000" points="1038,-691 1301,-691 "/>
<text text-anchor="middle" x="1169.5" y="-675.8" font-family="Times,serif" font-size="14.00" fill="#000000">tumor_stage_clinical_m</text>
<polyline fill="none" stroke="#000000" points="1038,-668 1301,-668 "/>
<text text-anchor="middle" x="1169.5" y="-652.8" font-family="Times,serif" font-size="14.00" fill="#000000">tumor_stage_clinical_n</text>
<polyline fill="none" stroke="#000000" points="1038,-645 1301,-645 "/>
<text text-anchor="middle" x="1169.5" y="-629.8" font-family="Times,serif" font-size="14.00" fill="#000000">tumor_stage_clinical_t</text>
<polyline fill="none" stroke="#000000" points="1301,-622 1301,-944 "/>
<text text-anchor="middle" x="1311.5" y="-779.3" font-family="Times,serif" font-size="14.00" fill="#000000"> </text>
</g>
<!-- diagnosis&#45;&gt;participant -->
<g id="edge1" class="edge">
<title>diagnosis&#45;&gt;participant</title>
<path fill="none" stroke="#000000" d="M965.9728,-621.8888C952.2205,-609.7664 938.2927,-597.9908 924.5,-587 872.1048,-545.2484 809.7741,-504.0391 757.908,-471.8026"/>
<polygon fill="#000000" stroke="#000000" points="759.6917,-468.7905 749.3466,-466.5037 756.0077,-474.7427 759.6917,-468.7905"/>
<text text-anchor="middle" x="941" y="-557.8" font-family="Times,serif" font-size="14.00" fill="#000000">of_diagnosis</text>
</g>
<!-- participant&#45;&gt;study -->
<g id="edge6" class="edge">
<title>participant&#45;&gt;study</title>
<path fill="none" stroke="#000000" d="M594.355,-351.364C562.2555,-318.9888 520.9223,-277.3005 481.9556,-237.999"/>
<polygon fill="#000000" stroke="#000000" points="484.2362,-235.3281 474.7099,-230.6911 479.2653,-240.2567 484.2362,-235.3281"/>
<text text-anchor="middle" x="557" y="-252.8" font-family="Times,serif" font-size="14.00" fill="#000000">of_participant</text>
</g>
</g>
</svg>
