<svg width="1371pt" height="1033pt"
 viewBox="0.00 0.00 1371.00 1033.00" xmlns="http://www.w3.org/2000/svg" xmlns:xlink="http://www.w3.org/1999/xlink">
<g id="graph0" class="graph" transform="scale(1 1) rotate(0) translate(4 1029)">
<title>Perl</title>
<polygon fill="#ffffff" stroke="transparent" points="-4,4 -4,-1029 1367,-1029 1367,4 -4,4"/>
<!-- diagnosis -->
<g id="node1" class="node">
<title>diagnosis</title>
<path fill="none" stroke="#000000" d="M12,-633.5C12,-633.5 377,-633.5 377,-633.5 383,-633.5 389,-639.5 389,-645.5 389,-645.5 389,-966.5 389,-966.5 389,-972.5 383,-978.5 377,-978.5 377,-978.5 12,-978.5 12,-978.5 6,-978.5 0,-972.5 0,-966.5 0,-966.5 0,-645.5 0,-645.5 0,-639.5 6,-633.5 12,-633.5"/>
<text text-anchor="middle" x="42" y="-802.3" font-family="Times,serif" font-size="14.00" fill="#000000">diagnosis</text>
<polyline fill="none" stroke="#000000" points="84,-633.5 84,-978.5 "/>
<text text-anchor="middle" x="94.5" y="-802.3" font-family="Times,serif" font-size="14.00" fill="#000000"> </text>
<polyline fill="none" stroke="#000000" points="105,-633.5 105,-978.5 "/>
<text text-anchor="middle" x="236.5" y="-963.3" font-family="Times,serif" font-size="14.00" fill="#000000">age_at_diagnosis</text>
<polyline fill="none" stroke="#000000" points="105,-955.5 368,-955.5 "/>
<text text-anchor="middle" x="236.5" y="-940.3" font-family="Times,serif" font-size="14.00" fill="#000000">anatomic_site</text>
<polyline fill="none" stroke="#000000" points="105,-932.5 368,-932.5 "/>
<text text-anchor="middle" x="236.5" y="-917.3" font-family="Times,serif" font-size="14.00" fill="#000000">diagnosis_basis</text>
<polyline fill="none" stroke="#000000" points="105,-909.5 368,-909.5 "/>
<text text-anchor="middle" x="236.5" y="-894.3" font-family="Times,serif" font-size="14.00" fill="#000000">diagnosis_classification</text>
<polyline fill="none" stroke="#000000" points="105,-886.5 368,-886.5 "/>
<text text-anchor="middle" x="236.5" y="-871.3" font-family="Times,serif" font-size="14.00" fill="#000000">diagnosis_classification_system</text>
<polyline fill="none" stroke="#000000" points="105,-863.5 368,-863.5 "/>
<text text-anchor="middle" x="236.5" y="-848.3" font-family="Times,serif" font-size="14.00" fill="#000000">diagnosis_comment</text>
<polyline fill="none" stroke="#000000" points="105,-840.5 368,-840.5 "/>
<text text-anchor="middle" x="236.5" y="-825.3" font-family="Times,serif" font-size="14.00" fill="#000000">diagnosis_id</text>
<polyline fill="none" stroke="#000000" points="105,-817.5 368,-817.5 "/>
<text text-anchor="middle" x="236.5" y="-802.3" font-family="Times,serif" font-size="14.00" fill="#000000">diagnosis_verification_status</text>
<polyline fill="none" stroke="#000000" points="105,-794.5 368,-794.5 "/>
<text text-anchor="middle" x="236.5" y="-779.3" font-family="Times,serif" font-size="14.00" fill="#000000">disease_phase</text>
<polyline fill="none" stroke="#000000" points="105,-771.5 368,-771.5 "/>
<text text-anchor="middle" x="236.5" y="-756.3" font-family="Times,serif" font-size="14.00" fill="#000000">toronto_childhood_cancer_staging</text>
<polyline fill="none" stroke="#000000" points="105,-748.5 368,-748.5 "/>
<text text-anchor="middle" x="236.5" y="-733.3" font-family="Times,serif" font-size="14.00" fill="#000000">tumor_classification</text>
<polyline fill="none" stroke="#000000" points="105,-725.5 368,-725.5 "/>
<text text-anchor="middle" x="236.5" y="-710.3" font-family="Times,serif" font-size="14.00" fill="#000000">tumor_grade</text>
<polyline fill="none" stroke="#000000" points="105,-702.5 368,-702.5 "/>
<text text-anchor="middle" x="236.5" y="-687.3" font-family="Times,serif" font-size="14.00" fill="#000000">tumor_stage_clinical_m</text>
<polyline fill="none" stroke="#000000" points="105,-679.5 368,-679.5 "/>
<text text-anchor="middle" x="236.5" y="-664.3" font-family="Times,serif" font-size="14.00" fill="#000000">tumor_stage_clinical_n</text>
<polyline fill="none" stroke="#000000" points="105,-656.5 368,-656.5 "/>
<text text-anchor="middle" x="236.5" y="-641.3" font-family="Times,serif" font-size="14.00" fill="#000000">tumor_stage_clinical_t</text>
<polyline fill="none" stroke="#000000" points="368,-633.5 368,-978.5 "/>
<text text-anchor="middle" x="378.5" y="-802.3" font-family="Times,serif" font-size="14.00" fill="#000000"> </text>
</g>
<!-- participant -->
<g id="node3" class="node">
<title>participant</title>
<path fill="none" stroke="#000000" d="M546.5,-351.5C546.5,-351.5 850.5,-351.5 850.5,-351.5 856.5,-351.5 862.5,-357.5 862.5,-363.5 862.5,-363.5 862.5,-454.5 862.5,-454.5 862.5,-460.5 856.5,-466.5 850.5,-466.5 850.5,-466.5 546.5,-466.5 546.5,-466.5 540.5,-466.5 534.5,-460.5 534.5,-454.5 534.5,-454.5 534.5,-363.5 534.5,-363.5 534.5,-357.5 540.5,-351.5 546.5,-351.5"/>
<text text-anchor="middle" x="582.5" y="-405.3" font-family="Times,serif" font-size="14.00" fill="#000000">participant</text>
<polyline fill="none" stroke="#000000" points="630.5,-351.5 630.5,-466.5 "/>
<text text-anchor="middle" x="641" y="-405.3" font-family="Times,serif" font-size="14.00" fill="#000000"> </text>
<polyline fill="none" stroke="#000000" points="651.5,-351.5 651.5,-466.5 "/>
<text text-anchor="middle" x="746.5" y="-451.3" font-family="Times,serif" font-size="14.00" fill="#000000">alternate_participant_id</text>
<polyline fill="none" stroke="#000000" points="651.5,-443.5 841.5,-443.5 "/>
<text text-anchor="middle" x="746.5" y="-428.3" font-family="Times,serif" font-size="14.00" fill="#000000">ethnicity</text>
<polyline fill="none" stroke="#000000" points="651.5,-420.5 841.5,-420.5 "/>
<text text-anchor="middle" x="746.5" y="-405.3" font-family="Times,serif" font-size="14.00" fill="#000000">participant_id</text>
<polyline fill="none" stroke="#000000" points="651.5,-397.5 841.5,-397.5 "/>
<text text-anchor="middle" x="746.5" y="-382.3" font-family="Times,serif" font-size="14.00" fill="#000000">race</text>
<polyline fill="none" stroke="#000000" points="651.5,-374.5 841.5,-374.5 "/>
<text text-anchor="middle" x="746.5" y="-359.3" font-family="Times,serif" font-size="14.00" fill="#000000">sex_at_birth</text>
<polyline fill="none" stroke="#000000" points="841.5,-351.5 841.5,-466.5 "/>
<text text-anchor="middle" x="852" y="-405.3" font-family="Times,serif" font-size="14.00" fill="#000000"> </text>
</g>
<!-- diagnosis&#45;&gt;participant -->
<g id="edge2" class="edge">
<title>diagnosis&#45;&gt;participant</title>
<path fill="none" stroke="#000000" d="M345.3308,-633.3649C362.2952,-617.0061 379.8448,-601.2383 397.5,-587 451.8901,-543.1364 518.2138,-502.7354 574.7473,-471.5493"/>
<polygon fill="#000000" stroke="#000000" points="576.6462,-474.4998 583.7332,-466.6242 573.2817,-468.3614 576.6462,-474.4998"/>
<text text-anchor="middle" x="480" y="-557.8" font-family="Times,serif" font-size="14.00" fill="#000000">of_diagnosis</text>
</g>
<!-- sample -->
<g id="node2" class="node">
<title>sample</title>
<path fill="none" stroke="#000000" d="M822,-587.5C822,-587.5 1173,-587.5 1173,-587.5 1179,-587.5 1185,-593.5 1185,-599.5 1185,-599.5 1185,-1012.5 1185,-1012.5 1185,-1018.5 1179,-1024.5 1173,-1024.5 1173,-1024.5 822,-1024.5 822,-1024.5 816,-1024.5 810,-1018.5 810,-1012.5 810,-1012.5 810,-599.5 810,-599.5 810,-593.5 816,-587.5 822,-587.5"/>
<text text-anchor="middle" x="844" y="-802.3" font-family="Times,serif" font-size="14.00" fill="#000000">sample</text>
<polyline fill="none" stroke="#000000" points="878,-587.5 878,-1024.5 "/>
<text text-anchor="middle" x="888.5" y="-802.3" font-family="Times,serif" font-size="14.00" fill="#000000"> </text>
<polyline fill="none" stroke="#000000" points="899,-587.5 899,-1024.5 "/>
<text text-anchor="middle" x="1031.5" y="-1009.3" font-family="Times,serif" font-size="14.00" fill="#000000">age_at_last_known_disease_status</text>
<polyline fill="none" stroke="#000000" points="899,-1001.5 1164,-1001.5 "/>
<text text-anchor="middle" x="1031.5" y="-986.3" font-family="Times,serif" font-size="14.00" fill="#000000">alternate_sample_id</text>
<polyline fill="none" stroke="#000000" points="899,-978.5 1164,-978.5 "/>
<text text-anchor="middle" x="1031.5" y="-963.3" font-family="Times,serif" font-size="14.00" fill="#000000">anatomic_site</text>
<polyline fill="none" stroke="#000000" points="899,-955.5 1164,-955.5 "/>
<text text-anchor="middle" x="1031.5" y="-940.3" font-family="Times,serif" font-size="14.00" fill="#000000">diagnosis_basis</text>
<polyline fill="none" stroke="#000000" points="899,-932.5 1164,-932.5 "/>
<text text-anchor="middle" x="1031.5" y="-917.3" font-family="Times,serif" font-size="14.00" fill="#000000">diagnosis_classification</text>
<polyline fill="none" stroke="#000000" points="899,-909.5 1164,-909.5 "/>
<text text-anchor="middle" x="1031.5" y="-894.3" font-family="Times,serif" font-size="14.00" fill="#000000">diagnosis_classification_system</text>
<polyline fill="none" stroke="#000000" points="899,-886.5 1164,-886.5 "/>
<text text-anchor="middle" x="1031.5" y="-871.3" font-family="Times,serif" font-size="14.00" fill="#000000">diagnosis_comment</text>
<polyline fill="none" stroke="#000000" points="899,-863.5 1164,-863.5 "/>
<text text-anchor="middle" x="1031.5" y="-848.3" font-family="Times,serif" font-size="14.00" fill="#000000">diagnosis_verification_status</text>
<polyline fill="none" stroke="#000000" points="899,-840.5 1164,-840.5 "/>
<text text-anchor="middle" x="1031.5" y="-825.3" font-family="Times,serif" font-size="14.00" fill="#000000">last_known_disease_status</text>
<polyline fill="none" stroke="#000000" points="899,-817.5 1164,-817.5 "/>
<text text-anchor="middle" x="1031.5" y="-802.3" font-family="Times,serif" font-size="14.00" fill="#000000">participant_age_at_collection</text>
<polyline fill="none" stroke="#000000" points="899,-794.5 1164,-794.5 "/>
<text text-anchor="middle" x="1031.5" y="-779.3" font-family="Times,serif" font-size="14.00" fill="#000000">sample_description</text>
<polyline fill="none" stroke="#000000" points="899,-771.5 1164,-771.5 "/>
<text text-anchor="middle" x="1031.5" y="-756.3" font-family="Times,serif" font-size="14.00" fill="#000000">sample_id</text>
<polyline fill="none" stroke="#000000" points="899,-748.5 1164,-748.5 "/>
<text text-anchor="middle" x="1031.5" y="-733.3" font-family="Times,serif" font-size="14.00" fill="#000000">sample_tumor_status</text>
<polyline fill="none" stroke="#000000" points="899,-725.5 1164,-725.5 "/>
<text text-anchor="middle" x="1031.5" y="-710.3" font-family="Times,serif" font-size="14.00" fill="#000000">toronto_childhood_cancer_staging</text>
<polyline fill="none" stroke="#000000" points="899,-702.5 1164,-702.5 "/>
<text text-anchor="middle" x="1031.5" y="-687.3" font-family="Times,serif" font-size="14.00" fill="#000000">tumor_classification</text>
<polyline fill="none" stroke="#000000" points="899,-679.5 1164,-679.5 "/>
<text text-anchor="middle" x="1031.5" y="-664.3" font-family="Times,serif" font-size="14.00" fill="#000000">tumor_grade</text>
<polyline fill="none" stroke="#000000" points="899,-656.5 1164,-656.5 "/>
<text text-anchor="middle" x="1031.5" y="-641.3" font-family="Times,serif" font-size="14.00" fill="#000000">tumor_stage_clinical_m</text>
<polyline fill="none" stroke="#000000" points="899,-633.5 1164,-633.5 "/>
<text text-anchor="middle" x="1031.5" y="-618.3" font-family="Times,serif" font-size="14.00" fill="#000000">tumor_stage_clinical_n</text>
<polyline fill="none" stroke="#000000" points="899,-610.5 1164,-610.5 "/>
<text text-anchor="middle" x="1031.5" y="-595.3" font-family="Times,serif" font-size="14.00" fill="#000000">tumor_stage_clinical_t</text>
<polyline fill="none" stroke="#000000" points="1164,-587.5 1164,-1024.5 "/>
<text text-anchor="middle" x="1174.5" y="-802.3" font-family="Times,serif" font-size="14.00" fill="#000000"> </text>
</g>
<!-- sample&#45;&gt;participant -->
<g id="edge5" class="edge">
<title>sample&#45;&gt;participant</title>
<path fill="none" stroke="#000000" d="M832.9123,-587.4671C802.0557,-546.497 772.0652,-506.6769 748.2712,-475.0842"/>
<polygon fill="#000000" stroke="#000000" points="750.8565,-472.6991 742.0446,-466.8168 745.265,-476.9104 750.8565,-472.6991"/>
<text text-anchor="middle" x="848" y="-557.8" font-family="Times,serif" font-size="14.00" fill="#000000">of_sample</text>
</g>
<!-- study -->
<g id="node4" class="node">
<title>study</title>
<path fill="none" stroke="#000000" d="M838,-.5C838,-.5 1057,-.5 1057,-.5 1063,-.5 1069,-6.5 1069,-12.5 1069,-12.5 1069,-218.5 1069,-218.5 1069,-224.5 1063,-230.5 1057,-230.5 1057,-230.5 838,-230.5 838,-230.5 832,-230.5 826,-224.5 826,-218.5 826,-218.5 826,-12.5 826,-12.5 826,-6.5 832,-.5 838,-.5"/>
<text text-anchor="middle" x="854" y="-111.8" font-family="Times,serif" font-size="14.00" fill="#000000">study</text>
<polyline fill="none" stroke="#000000" points="882,-.5 882,-230.5 "/>
<text text-anchor="middle" x="892.5" y="-111.8" font-family="Times,serif" font-size="14.00" fill="#000000"> </text>
<polyline fill="none" stroke="#000000" points="903,-.5 903,-230.5 "/>
<text text-anchor="middle" x="975.5" y="-215.3" font-family="Times,serif" font-size="14.00" fill="#000000">acl</text>
<polyline fill="none" stroke="#000000" points="903,-207.5 1048,-207.5 "/>
<text text-anchor="middle" x="975.5" y="-192.3" font-family="Times,serif" font-size="14.00" fill="#000000">consent</text>
<polyline fill="none" stroke="#000000" points="903,-184.5 1048,-184.5 "/>
<text text-anchor="middle" x="975.5" y="-169.3" font-family="Times,serif" font-size="14.00" fill="#000000">consent_number</text>
<polyline fill="none" stroke="#000000" points="903,-161.5 1048,-161.5 "/>
<text text-anchor="middle" x="975.5" y="-146.3" font-family="Times,serif" font-size="14.00" fill="#000000">external_url</text>
<polyline fill="none" stroke="#000000" points="903,-138.5 1048,-138.5 "/>
<text text-anchor="middle" x="975.5" y="-123.3" font-family="Times,serif" font-size="14.00" fill="#000000">phs_accession</text>
<polyline fill="none" stroke="#000000" points="903,-115.5 1048,-115.5 "/>
<text text-anchor="middle" x="975.5" y="-100.3" font-family="Times,serif" font-size="14.00" fill="#000000">study_acronym</text>
<polyline fill="none" stroke="#000000" points="903,-92.5 1048,-92.5 "/>
<text text-anchor="middle" x="975.5" y="-77.3" font-family="Times,serif" font-size="14.00" fill="#000000">study_description</text>
<polyline fill="none" stroke="#000000" points="903,-69.5 1048,-69.5 "/>
<text text-anchor="middle" x="975.5" y="-54.3" font-family="Times,serif" font-size="14.00" fill="#000000">study_id</text>
<polyline fill="none" stroke="#000000" points="903,-46.5 1048,-46.5 "/>
<text text-anchor="middle" x="975.5" y="-31.3" font-family="Times,serif" font-size="14.00" fill="#000000">study_name</text>
<polyline fill="none" stroke="#000000" points="903,-23.5 1048,-23.5 "/>
<text text-anchor="middle" x="975.5" y="-8.3" font-family="Times,serif" font-size="14.00" fill="#000000">study_short_title</text>
<polyline fill="none" stroke="#000000" points="1048,-.5 1048,-230.5 "/>
<text text-anchor="middle" x="1058.5" y="-111.8" font-family="Times,serif" font-size="14.00" fill="#000000"> </text>
</g>
<!-- sample&#45;&gt;study -->
<g id="edge6" class="edge">
<title>sample&#45;&gt;study</title>
<path fill="none" stroke="#000000" d="M961.8662,-587.4585C959.7803,-570.0795 957.9466,-552.7691 956.5,-536 947.9668,-437.0799 945.9593,-324.6127 945.9527,-240.896"/>
<polygon fill="#000000" stroke="#000000" points="949.4526,-240.8351 945.9615,-230.832 942.4526,-240.8289 949.4526,-240.8351"/>
<text text-anchor="middle" x="993" y="-405.3" font-family="Times,serif" font-size="14.00" fill="#000000">of_sample</text>
</g>
<!-- participant&#45;&gt;study -->
<g id="edge1" class="edge">
<title>participant&#45;&gt;study</title>
<path fill="none" stroke="#000000" d="M746.3734,-351.4459C771.8484,-320.9189 803.766,-282.8289 832.5,-249 835.4195,-245.5628 838.3841,-242.0788 841.379,-238.5647"/>
<polygon fill="#000000" stroke="#000000" points="844.1499,-240.7094 847.9778,-230.8303 838.8247,-236.1661 844.1499,-240.7094"/>
<text text-anchor="middle" x="883" y="-252.8" font-family="Times,serif" font-size="14.00" fill="#000000">of_participant</text>
</g>
<!-- reference_file -->
<g id="node5" class="node">
<title>reference_file</title>
<path fill="none" stroke="#000000" d="M1050,-282.5C1050,-282.5 1351,-282.5 1351,-282.5 1357,-282.5 1363,-288.5 1363,-294.5 1363,-294.5 1363,-523.5 1363,-523.5 1363,-529.5 1357,-535.5 1351,-535.5 1351,-535.5 1050,-535.5 1050,-535.5 1044,-535.5 1038,-529.5 1038,-523.5 1038,-523.5 1038,-294.5 1038,-294.5 1038,-288.5 1044,-282.5 1050,-282.5"/>
<text text-anchor="middle" x="1096" y="-405.3" font-family="Times,serif" font-size="14.00" fill="#000000">reference_file</text>
<polyline fill="none" stroke="#000000" points="1154,-282.5 1154,-535.5 "/>
<text text-anchor="middle" x="1164.5" y="-405.3" font-family="Times,serif" font-size="14.00" fill="#000000"> </text>
<polyline fill="none" stroke="#000000" points="1175,-282.5 1175,-535.5 "/>
<text text-anchor="middle" x="1258.5" y="-520.3" font-family="Times,serif" font-size="14.00" fill="#000000">checksum_algorithm</text>
<polyline fill="none" stroke="#000000" points="1175,-512.5 1342,-512.5 "/>
<text text-anchor="middle" x="1258.5" y="-497.3" font-family="Times,serif" font-size="14.00" fill="#000000">checksum_value</text>
<polyline fill="none" stroke="#000000" points="1175,-489.5 1342,-489.5 "/>
<text text-anchor="middle" x="1258.5" y="-474.3" font-family="Times,serif" font-size="14.00" fill="#000000">dcf_indexd_guid</text>
<polyline fill="none" stroke="#000000" points="1175,-466.5 1342,-466.5 "/>
<text text-anchor="middle" x="1258.5" y="-451.3" font-family="Times,serif" font-size="14.00" fill="#000000">file_category</text>
<polyline fill="none" stroke="#000000" points="1175,-443.5 1342,-443.5 "/>
<text text-anchor="middle" x="1258.5" y="-428.3" font-family="Times,serif" font-size="14.00" fill="#000000">file_description</text>
<polyline fill="none" stroke="#000000" points="1175,-420.5 1342,-420.5 "/>
<text text-anchor="middle" x="1258.5" y="-405.3" font-family="Times,serif" font-size="14.00" fill="#000000">file_name</text>
<polyline fill="none" stroke="#000000" points="1175,-397.5 1342,-397.5 "/>
<text text-anchor="middle" x="1258.5" y="-382.3" font-family="Times,serif" font-size="14.00" fill="#000000">file_size</text>
<polyline fill="none" stroke="#000000" points="1175,-374.5 1342,-374.5 "/>
<text text-anchor="middle" x="1258.5" y="-359.3" font-family="Times,serif" font-size="14.00" fill="#000000">file_type</text>
<polyline fill="none" stroke="#000000" points="1175,-351.5 1342,-351.5 "/>
<text text-anchor="middle" x="1258.5" y="-336.3" font-family="Times,serif" font-size="14.00" fill="#000000">md5sum</text>
<polyline fill="none" stroke="#000000" points="1175,-328.5 1342,-328.5 "/>
<text text-anchor="middle" x="1258.5" y="-313.3" font-family="Times,serif" font-size="14.00" fill="#000000">reference_file_id</text>
<polyline fill="none" stroke="#000000" points="1175,-305.5 1342,-305.5 "/>
<text text-anchor="middle" x="1258.5" y="-290.3" font-family="Times,serif" font-size="14.00" fill="#000000">reference_file_url</text>
<polyline fill="none" stroke="#000000" points="1342,-282.5 1342,-535.5 "/>
<text text-anchor="middle" x="1352.5" y="-405.3" font-family="Times,serif" font-size="14.00" fill="#000000"> </text>
</g>
<!-- reference_file&#45;&gt;study -->
<g id="edge3" class="edge">
<title>reference_file&#45;&gt;study</title>
<path fill="none" stroke="#000000" d="M1091.3695,-282.4C1078.7281,-267.735 1065.8507,-252.7962 1053.2555,-238.1847"/>
<polygon fill="#000000" stroke="#000000" points="1055.8776,-235.866 1046.6974,-230.5768 1050.5756,-240.4364 1055.8776,-235.866"/>
<text text-anchor="middle" x="1134" y="-252.8" font-family="Times,serif" font-size="14.00" fill="#000000">of_reference_file</text>
</g>
<!-- survival -->
<g id="node6" class="node">
<title>survival</title>
<path fill="none" stroke="#000000" d="M419,-737C419,-737 780,-737 780,-737 786,-737 792,-743 792,-749 792,-749 792,-863 792,-863 792,-869 786,-875 780,-875 780,-875 419,-875 419,-875 413,-875 407,-869 407,-863 407,-863 407,-749 407,-749 407,-743 413,-737 419,-737"/>
<text text-anchor="middle" x="444" y="-802.3" font-family="Times,serif" font-size="14.00" fill="#000000">survival</text>
<polyline fill="none" stroke="#000000" points="481,-737 481,-875 "/>
<text text-anchor="middle" x="491.5" y="-802.3" font-family="Times,serif" font-size="14.00" fill="#000000"> </text>
<polyline fill="none" stroke="#000000" points="502,-737 502,-875 "/>
<text text-anchor="middle" x="636.5" y="-859.8" font-family="Times,serif" font-size="14.00" fill="#000000">age_at_event_free_survival_status</text>
<polyline fill="none" stroke="#000000" points="502,-852 771,-852 "/>
<text text-anchor="middle" x="636.5" y="-836.8" font-family="Times,serif" font-size="14.00" fill="#000000">age_at_last_known_survival_status</text>
<polyline fill="none" stroke="#000000" points="502,-829 771,-829 "/>
<text text-anchor="middle" x="636.5" y="-813.8" font-family="Times,serif" font-size="14.00" fill="#000000">event_free_survival_status</text>
<polyline fill="none" stroke="#000000" points="502,-806 771,-806 "/>
<text text-anchor="middle" x="636.5" y="-790.8" font-family="Times,serif" font-size="14.00" fill="#000000">first_event</text>
<polyline fill="none" stroke="#000000" points="502,-783 771,-783 "/>
<text text-anchor="middle" x="636.5" y="-767.8" font-family="Times,serif" font-size="14.00" fill="#000000">last_known_survival_status</text>
<polyline fill="none" stroke="#000000" points="502,-760 771,-760 "/>
<text text-anchor="middle" x="636.5" y="-744.8" font-family="Times,serif" font-size="14.00" fill="#000000">survival_id</text>
<polyline fill="none" stroke="#000000" points="771,-737 771,-875 "/>
<text text-anchor="middle" x="781.5" y="-802.3" font-family="Times,serif" font-size="14.00" fill="#000000"> </text>
</g>
<!-- survival&#45;&gt;participant -->
<g id="edge4" class="edge">
<title>survival&#45;&gt;participant</title>
<path fill="none" stroke="#000000" d="M616.7445,-736.8479C634.972,-663.7536 663.535,-549.2132 681.6224,-476.681"/>
<polygon fill="#000000" stroke="#000000" points="685.0792,-477.2836 684.1029,-466.7338 678.2872,-475.5898 685.0792,-477.2836"/>
<text text-anchor="middle" x="700" y="-557.8" font-family="Times,serif" font-size="14.00" fill="#000000">of_survival</text>
</g>
</g>
</svg>
