<svg width="1759pt" height="1108pt"
 viewBox="0.00 0.00 1759.00 1108.00" xmlns="http://www.w3.org/2000/svg" xmlns:xlink="http://www.w3.org/1999/xlink">
<g id="graph0" class="graph" transform="scale(1 1) rotate(0) translate(4 1104)">
<title>Perl</title>
<polygon fill="#ffffff" stroke="transparent" points="-4,4 -4,-1104 1755,-1104 1755,4 -4,4"/>
<!-- sample -->
<g id="node1" class="node">
<title>sample</title>
<path fill="none" stroke="#000000" d="M159.5,-541.5C159.5,-541.5 473.5,-541.5 473.5,-541.5 479.5,-541.5 485.5,-547.5 485.5,-553.5 485.5,-553.5 485.5,-690.5 485.5,-690.5 485.5,-696.5 479.5,-702.5 473.5,-702.5 473.5,-702.5 159.5,-702.5 159.5,-702.5 153.5,-702.5 147.5,-696.5 147.5,-690.5 147.5,-690.5 147.5,-553.5 147.5,-553.5 147.5,-547.5 153.5,-541.5 159.5,-541.5"/>
<text text-anchor="middle" x="181.5" y="-618.3" font-family="Times,serif" font-size="14.00" fill="#000000">sample</text>
<polyline fill="none" stroke="#000000" points="215.5,-541.5 215.5,-702.5 "/>
<text text-anchor="middle" x="226" y="-618.3" font-family="Times,serif" font-size="14.00" fill="#000000"> </text>
<polyline fill="none" stroke="#000000" points="236.5,-541.5 236.5,-702.5 "/>
<text text-anchor="middle" x="350.5" y="-687.3" font-family="Times,serif" font-size="14.00" fill="#000000">anatomic_site</text>
<polyline fill="none" stroke="#000000" points="236.5,-679.5 464.5,-679.5 "/>
<text text-anchor="middle" x="350.5" y="-664.3" font-family="Times,serif" font-size="14.00" fill="#000000">id</text>
<polyline fill="none" stroke="#000000" points="236.5,-656.5 464.5,-656.5 "/>
<text text-anchor="middle" x="350.5" y="-641.3" font-family="Times,serif" font-size="14.00" fill="#000000">participant_age_at_collection</text>
<polyline fill="none" stroke="#000000" points="236.5,-633.5 464.5,-633.5 "/>
<text text-anchor="middle" x="350.5" y="-618.3" font-family="Times,serif" font-size="14.00" fill="#000000">sample_description</text>
<polyline fill="none" stroke="#000000" points="236.5,-610.5 464.5,-610.5 "/>
<text text-anchor="middle" x="350.5" y="-595.3" font-family="Times,serif" font-size="14.00" fill="#000000">sample_id</text>
<polyline fill="none" stroke="#000000" points="236.5,-587.5 464.5,-587.5 "/>
<text text-anchor="middle" x="350.5" y="-572.3" font-family="Times,serif" font-size="14.00" fill="#000000">sample_tumor_status</text>
<polyline fill="none" stroke="#000000" points="236.5,-564.5 464.5,-564.5 "/>
<text text-anchor="middle" x="350.5" y="-549.3" font-family="Times,serif" font-size="14.00" fill="#000000">tumor_classification</text>
<polyline fill="none" stroke="#000000" points="464.5,-541.5 464.5,-702.5 "/>
<text text-anchor="middle" x="475" y="-618.3" font-family="Times,serif" font-size="14.00" fill="#000000"> </text>
</g>
<!-- participant -->
<g id="node3" class="node">
<title>participant</title>
<path fill="none" stroke="#000000" d="M567,-328.5C567,-328.5 798,-328.5 798,-328.5 804,-328.5 810,-334.5 810,-340.5 810,-340.5 810,-431.5 810,-431.5 810,-437.5 804,-443.5 798,-443.5 798,-443.5 567,-443.5 567,-443.5 561,-443.5 555,-437.5 555,-431.5 555,-431.5 555,-340.5 555,-340.5 555,-334.5 561,-328.5 567,-328.5"/>
<text text-anchor="middle" x="603" y="-382.3" font-family="Times,serif" font-size="14.00" fill="#000000">participant</text>
<polyline fill="none" stroke="#000000" points="651,-328.5 651,-443.5 "/>
<text text-anchor="middle" x="661.5" y="-382.3" font-family="Times,serif" font-size="14.00" fill="#000000"> </text>
<polyline fill="none" stroke="#000000" points="672,-328.5 672,-443.5 "/>
<text text-anchor="middle" x="730.5" y="-428.3" font-family="Times,serif" font-size="14.00" fill="#000000">ethnicity</text>
<polyline fill="none" stroke="#000000" points="672,-420.5 789,-420.5 "/>
<text text-anchor="middle" x="730.5" y="-405.3" font-family="Times,serif" font-size="14.00" fill="#000000">id</text>
<polyline fill="none" stroke="#000000" points="672,-397.5 789,-397.5 "/>
<text text-anchor="middle" x="730.5" y="-382.3" font-family="Times,serif" font-size="14.00" fill="#000000">participant_id</text>
<polyline fill="none" stroke="#000000" points="672,-374.5 789,-374.5 "/>
<text text-anchor="middle" x="730.5" y="-359.3" font-family="Times,serif" font-size="14.00" fill="#000000">race</text>
<polyline fill="none" stroke="#000000" points="672,-351.5 789,-351.5 "/>
<text text-anchor="middle" x="730.5" y="-336.3" font-family="Times,serif" font-size="14.00" fill="#000000">sex_at_birth</text>
<polyline fill="none" stroke="#000000" points="789,-328.5 789,-443.5 "/>
<text text-anchor="middle" x="799.5" y="-382.3" font-family="Times,serif" font-size="14.00" fill="#000000"> </text>
</g>
<!-- sample&#45;&gt;participant -->
<g id="edge7" class="edge">
<title>sample&#45;&gt;participant</title>
<path fill="none" stroke="#000000" d="M393.1765,-541.4301C406.3757,-529.5031 420.4011,-517.9101 434.5,-508 468.6082,-484.0255 508.1316,-462.2713 545.4653,-443.9921"/>
<polygon fill="#000000" stroke="#000000" points="547.4306,-446.9292 554.9051,-439.4205 544.3794,-440.6292 547.4306,-446.9292"/>
<text text-anchor="middle" x="471" y="-511.8" font-family="Times,serif" font-size="14.00" fill="#000000">of_sample</text>
</g>
<!-- study -->
<g id="node6" class="node">
<title>study</title>
<path fill="none" stroke="#000000" d="M228,-.5C228,-.5 447,-.5 447,-.5 453,-.5 459,-6.5 459,-12.5 459,-12.5 459,-218.5 459,-218.5 459,-224.5 453,-230.5 447,-230.5 447,-230.5 228,-230.5 228,-230.5 222,-230.5 216,-224.5 216,-218.5 216,-218.5 216,-12.5 216,-12.5 216,-6.5 222,-.5 228,-.5"/>
<text text-anchor="middle" x="244" y="-111.8" font-family="Times,serif" font-size="14.00" fill="#000000">study</text>
<polyline fill="none" stroke="#000000" points="272,-.5 272,-230.5 "/>
<text text-anchor="middle" x="282.5" y="-111.8" font-family="Times,serif" font-size="14.00" fill="#000000"> </text>
<polyline fill="none" stroke="#000000" points="293,-.5 293,-230.5 "/>
<text text-anchor="middle" x="365.5" y="-215.3" font-family="Times,serif" font-size="14.00" fill="#000000">acl</text>
<polyline fill="none" stroke="#000000" points="293,-207.5 438,-207.5 "/>
<text text-anchor="middle" x="365.5" y="-192.3" font-family="Times,serif" font-size="14.00" fill="#000000">consent</text>
<polyline fill="none" stroke="#000000" points="293,-184.5 438,-184.5 "/>
<text text-anchor="middle" x="365.5" y="-169.3" font-family="Times,serif" font-size="14.00" fill="#000000">consent_number</text>
<polyline fill="none" stroke="#000000" points="293,-161.5 438,-161.5 "/>
<text text-anchor="middle" x="365.5" y="-146.3" font-family="Times,serif" font-size="14.00" fill="#000000">dbgap_accession</text>
<polyline fill="none" stroke="#000000" points="293,-138.5 438,-138.5 "/>
<text text-anchor="middle" x="365.5" y="-123.3" font-family="Times,serif" font-size="14.00" fill="#000000">external_url</text>
<polyline fill="none" stroke="#000000" points="293,-115.5 438,-115.5 "/>
<text text-anchor="middle" x="365.5" y="-100.3" font-family="Times,serif" font-size="14.00" fill="#000000">id</text>
<polyline fill="none" stroke="#000000" points="293,-92.5 438,-92.5 "/>
<text text-anchor="middle" x="365.5" y="-77.3" font-family="Times,serif" font-size="14.00" fill="#000000">study_acronym</text>
<polyline fill="none" stroke="#000000" points="293,-69.5 438,-69.5 "/>
<text text-anchor="middle" x="365.5" y="-54.3" font-family="Times,serif" font-size="14.00" fill="#000000">study_description</text>
<polyline fill="none" stroke="#000000" points="293,-46.5 438,-46.5 "/>
<text text-anchor="middle" x="365.5" y="-31.3" font-family="Times,serif" font-size="14.00" fill="#000000">study_id</text>
<polyline fill="none" stroke="#000000" points="293,-23.5 438,-23.5 "/>
<text text-anchor="middle" x="365.5" y="-8.3" font-family="Times,serif" font-size="14.00" fill="#000000">study_name</text>
<polyline fill="none" stroke="#000000" points="438,-.5 438,-230.5 "/>
<text text-anchor="middle" x="448.5" y="-111.8" font-family="Times,serif" font-size="14.00" fill="#000000"> </text>
</g>
<!-- sample&#45;&gt;study -->
<g id="edge8" class="edge">
<title>sample&#45;&gt;study</title>
<path fill="none" stroke="#000000" d="M319.8391,-541.4637C323.1944,-460.537 328.413,-334.6694 332.3087,-240.7103"/>
<polygon fill="#000000" stroke="#000000" points="335.8117,-240.7067 332.7291,-230.5703 328.8177,-240.4167 335.8117,-240.7067"/>
<text text-anchor="middle" x="367" y="-382.3" font-family="Times,serif" font-size="14.00" fill="#000000">of_sample</text>
</g>
<!-- treatment_response -->
<g id="node2" class="node">
<title>treatment_response</title>
<path fill="none" stroke="#000000" d="M1378,-553C1378,-553 1739,-553 1739,-553 1745,-553 1751,-559 1751,-565 1751,-565 1751,-679 1751,-679 1751,-685 1745,-691 1739,-691 1739,-691 1378,-691 1378,-691 1372,-691 1366,-685 1366,-679 1366,-679 1366,-565 1366,-565 1366,-559 1372,-553 1378,-553"/>
<text text-anchor="middle" x="1446.5" y="-618.3" font-family="Times,serif" font-size="14.00" fill="#000000">treatment_response</text>
<polyline fill="none" stroke="#000000" points="1527,-553 1527,-691 "/>
<text text-anchor="middle" x="1537.5" y="-618.3" font-family="Times,serif" font-size="14.00" fill="#000000"> </text>
<polyline fill="none" stroke="#000000" points="1548,-553 1548,-691 "/>
<text text-anchor="middle" x="1639" y="-675.8" font-family="Times,serif" font-size="14.00" fill="#000000">age_at_response</text>
<polyline fill="none" stroke="#000000" points="1548,-668 1730,-668 "/>
<text text-anchor="middle" x="1639" y="-652.8" font-family="Times,serif" font-size="14.00" fill="#000000">id</text>
<polyline fill="none" stroke="#000000" points="1548,-645 1730,-645 "/>
<text text-anchor="middle" x="1639" y="-629.8" font-family="Times,serif" font-size="14.00" fill="#000000">response</text>
<polyline fill="none" stroke="#000000" points="1548,-622 1730,-622 "/>
<text text-anchor="middle" x="1639" y="-606.8" font-family="Times,serif" font-size="14.00" fill="#000000">response_category</text>
<polyline fill="none" stroke="#000000" points="1548,-599 1730,-599 "/>
<text text-anchor="middle" x="1639" y="-583.8" font-family="Times,serif" font-size="14.00" fill="#000000">response_system</text>
<polyline fill="none" stroke="#000000" points="1548,-576 1730,-576 "/>
<text text-anchor="middle" x="1639" y="-560.8" font-family="Times,serif" font-size="14.00" fill="#000000">treatment_response_id</text>
<polyline fill="none" stroke="#000000" points="1730,-553 1730,-691 "/>
<text text-anchor="middle" x="1740.5" y="-618.3" font-family="Times,serif" font-size="14.00" fill="#000000"> </text>
</g>
<!-- treatment_response&#45;&gt;participant -->
<g id="edge9" class="edge">
<title>treatment_response&#45;&gt;participant</title>
<path fill="none" stroke="#000000" d="M1393.0703,-552.965C1381.1082,-548.7045 1369.1653,-544.6648 1357.5,-541 1174.6681,-483.5615 957.8463,-437.5624 820.231,-411.0235"/>
<polygon fill="#000000" stroke="#000000" points="820.5309,-407.5171 810.0501,-409.0677 819.2103,-414.3914 820.5309,-407.5171"/>
<text text-anchor="middle" x="1368.5" y="-511.8" font-family="Times,serif" font-size="14.00" fill="#000000">of_treatment_response</text>
</g>
<!-- participant&#45;&gt;study -->
<g id="edge4" class="edge">
<title>participant&#45;&gt;study</title>
<path fill="none" stroke="#000000" d="M608.912,-328.3027C567.6708,-295.9673 515.0369,-254.6992 467.1171,-217.1273"/>
<polygon fill="#000000" stroke="#000000" points="469.1897,-214.3048 459.1606,-210.889 464.8706,-219.8135 469.1897,-214.3048"/>
<text text-anchor="middle" x="571" y="-252.8" font-family="Times,serif" font-size="14.00" fill="#000000">of_participant</text>
</g>
<!-- diagnosis -->
<g id="node4" class="node">
<title>diagnosis</title>
<path fill="none" stroke="#000000" d="M237,-754.5C237,-754.5 602,-754.5 602,-754.5 608,-754.5 614,-760.5 614,-766.5 614,-766.5 614,-1087.5 614,-1087.5 614,-1093.5 608,-1099.5 602,-1099.5 602,-1099.5 237,-1099.5 237,-1099.5 231,-1099.5 225,-1093.5 225,-1087.5 225,-1087.5 225,-766.5 225,-766.5 225,-760.5 231,-754.5 237,-754.5"/>
<text text-anchor="middle" x="267" y="-923.3" font-family="Times,serif" font-size="14.00" fill="#000000">diagnosis</text>
<polyline fill="none" stroke="#000000" points="309,-754.5 309,-1099.5 "/>
<text text-anchor="middle" x="319.5" y="-923.3" font-family="Times,serif" font-size="14.00" fill="#000000"> </text>
<polyline fill="none" stroke="#000000" points="330,-754.5 330,-1099.5 "/>
<text text-anchor="middle" x="461.5" y="-1084.3" font-family="Times,serif" font-size="14.00" fill="#000000">age_at_diagnosis</text>
<polyline fill="none" stroke="#000000" points="330,-1076.5 593,-1076.5 "/>
<text text-anchor="middle" x="461.5" y="-1061.3" font-family="Times,serif" font-size="14.00" fill="#000000">anatomic_site</text>
<polyline fill="none" stroke="#000000" points="330,-1053.5 593,-1053.5 "/>
<text text-anchor="middle" x="461.5" y="-1038.3" font-family="Times,serif" font-size="14.00" fill="#000000">diagnosis</text>
<polyline fill="none" stroke="#000000" points="330,-1030.5 593,-1030.5 "/>
<text text-anchor="middle" x="461.5" y="-1015.3" font-family="Times,serif" font-size="14.00" fill="#000000">diagnosis_basis</text>
<polyline fill="none" stroke="#000000" points="330,-1007.5 593,-1007.5 "/>
<text text-anchor="middle" x="461.5" y="-992.3" font-family="Times,serif" font-size="14.00" fill="#000000">diagnosis_classification_system</text>
<polyline fill="none" stroke="#000000" points="330,-984.5 593,-984.5 "/>
<text text-anchor="middle" x="461.5" y="-969.3" font-family="Times,serif" font-size="14.00" fill="#000000">diagnosis_comment</text>
<polyline fill="none" stroke="#000000" points="330,-961.5 593,-961.5 "/>
<text text-anchor="middle" x="461.5" y="-946.3" font-family="Times,serif" font-size="14.00" fill="#000000">diagnosis_id</text>
<polyline fill="none" stroke="#000000" points="330,-938.5 593,-938.5 "/>
<text text-anchor="middle" x="461.5" y="-923.3" font-family="Times,serif" font-size="14.00" fill="#000000">disease_phase</text>
<polyline fill="none" stroke="#000000" points="330,-915.5 593,-915.5 "/>
<text text-anchor="middle" x="461.5" y="-900.3" font-family="Times,serif" font-size="14.00" fill="#000000">id</text>
<polyline fill="none" stroke="#000000" points="330,-892.5 593,-892.5 "/>
<text text-anchor="middle" x="461.5" y="-877.3" font-family="Times,serif" font-size="14.00" fill="#000000">toronto_childhood_cancer_staging</text>
<polyline fill="none" stroke="#000000" points="330,-869.5 593,-869.5 "/>
<text text-anchor="middle" x="461.5" y="-854.3" font-family="Times,serif" font-size="14.00" fill="#000000">tumor_classification</text>
<polyline fill="none" stroke="#000000" points="330,-846.5 593,-846.5 "/>
<text text-anchor="middle" x="461.5" y="-831.3" font-family="Times,serif" font-size="14.00" fill="#000000">tumor_grade</text>
<polyline fill="none" stroke="#000000" points="330,-823.5 593,-823.5 "/>
<text text-anchor="middle" x="461.5" y="-808.3" font-family="Times,serif" font-size="14.00" fill="#000000">tumor_stage_clinical_m</text>
<polyline fill="none" stroke="#000000" points="330,-800.5 593,-800.5 "/>
<text text-anchor="middle" x="461.5" y="-785.3" font-family="Times,serif" font-size="14.00" fill="#000000">tumor_stage_clinical_n</text>
<polyline fill="none" stroke="#000000" points="330,-777.5 593,-777.5 "/>
<text text-anchor="middle" x="461.5" y="-762.3" font-family="Times,serif" font-size="14.00" fill="#000000">tumor_stage_clinical_t</text>
<polyline fill="none" stroke="#000000" points="593,-754.5 593,-1099.5 "/>
<text text-anchor="middle" x="603.5" y="-923.3" font-family="Times,serif" font-size="14.00" fill="#000000"> </text>
</g>
<!-- diagnosis&#45;&gt;sample -->
<g id="edge1" class="edge">
<title>diagnosis&#45;&gt;sample</title>
<path fill="none" stroke="#000000" d="M361.2279,-754.4468C356.3564,-740.0214 351.5671,-725.8396 347.0386,-712.4299"/>
<polygon fill="#000000" stroke="#000000" points="350.3054,-711.164 343.7898,-702.8095 343.6733,-713.4037 350.3054,-711.164"/>
<text text-anchor="middle" x="398" y="-724.8" font-family="Times,serif" font-size="14.00" fill="#000000">of_diagnosis</text>
</g>
<!-- diagnosis&#45;&gt;participant -->
<g id="edge2" class="edge">
<title>diagnosis&#45;&gt;participant</title>
<path fill="none" stroke="#000000" d="M479.3489,-754.2078C484.7148,-736.9811 489.8636,-719.6953 494.5,-703 514.2356,-631.9331 495.3241,-605.8279 530.5,-541 548.6554,-507.5403 576.1459,-476.355 602.779,-450.858"/>
<polygon fill="#000000" stroke="#000000" points="605.3745,-453.2216 610.2597,-443.8202 600.578,-448.1232 605.3745,-453.2216"/>
<text text-anchor="middle" x="575" y="-618.3" font-family="Times,serif" font-size="14.00" fill="#000000">of_diagnosis</text>
</g>
<!-- reference_file -->
<g id="node5" class="node">
<title>reference_file</title>
<path fill="none" stroke="#000000" d="M12,-282.5C12,-282.5 289,-282.5 289,-282.5 295,-282.5 301,-288.5 301,-294.5 301,-294.5 301,-477.5 301,-477.5 301,-483.5 295,-489.5 289,-489.5 289,-489.5 12,-489.5 12,-489.5 6,-489.5 0,-483.5 0,-477.5 0,-477.5 0,-294.5 0,-294.5 0,-288.5 6,-282.5 12,-282.5"/>
<text text-anchor="middle" x="58" y="-382.3" font-family="Times,serif" font-size="14.00" fill="#000000">reference_file</text>
<polyline fill="none" stroke="#000000" points="116,-282.5 116,-489.5 "/>
<text text-anchor="middle" x="126.5" y="-382.3" font-family="Times,serif" font-size="14.00" fill="#000000"> </text>
<polyline fill="none" stroke="#000000" points="137,-282.5 137,-489.5 "/>
<text text-anchor="middle" x="208.5" y="-474.3" font-family="Times,serif" font-size="14.00" fill="#000000">dcf_indexd_guid</text>
<polyline fill="none" stroke="#000000" points="137,-466.5 280,-466.5 "/>
<text text-anchor="middle" x="208.5" y="-451.3" font-family="Times,serif" font-size="14.00" fill="#000000">file_category</text>
<polyline fill="none" stroke="#000000" points="137,-443.5 280,-443.5 "/>
<text text-anchor="middle" x="208.5" y="-428.3" font-family="Times,serif" font-size="14.00" fill="#000000">file_description</text>
<polyline fill="none" stroke="#000000" points="137,-420.5 280,-420.5 "/>
<text text-anchor="middle" x="208.5" y="-405.3" font-family="Times,serif" font-size="14.00" fill="#000000">file_name</text>
<polyline fill="none" stroke="#000000" points="137,-397.5 280,-397.5 "/>
<text text-anchor="middle" x="208.5" y="-382.3" font-family="Times,serif" font-size="14.00" fill="#000000">file_size</text>
<polyline fill="none" stroke="#000000" points="137,-374.5 280,-374.5 "/>
<text text-anchor="middle" x="208.5" y="-359.3" font-family="Times,serif" font-size="14.00" fill="#000000">file_type</text>
<polyline fill="none" stroke="#000000" points="137,-351.5 280,-351.5 "/>
<text text-anchor="middle" x="208.5" y="-336.3" font-family="Times,serif" font-size="14.00" fill="#000000">md5sum</text>
<polyline fill="none" stroke="#000000" points="137,-328.5 280,-328.5 "/>
<text text-anchor="middle" x="208.5" y="-313.3" font-family="Times,serif" font-size="14.00" fill="#000000">reference_file_id</text>
<polyline fill="none" stroke="#000000" points="137,-305.5 280,-305.5 "/>
<text text-anchor="middle" x="208.5" y="-290.3" font-family="Times,serif" font-size="14.00" fill="#000000">reference_file_url</text>
<polyline fill="none" stroke="#000000" points="280,-282.5 280,-489.5 "/>
<text text-anchor="middle" x="290.5" y="-382.3" font-family="Times,serif" font-size="14.00" fill="#000000"> </text>
</g>
<!-- reference_file&#45;&gt;study -->
<g id="edge5" class="edge">
<title>reference_file&#45;&gt;study</title>
<path fill="none" stroke="#000000" d="M184.3443,-282.272C189.7244,-270.6824 195.7704,-259.3419 202.5,-249 204.8259,-245.4257 207.2614,-241.8716 209.7897,-238.345"/>
<polygon fill="#000000" stroke="#000000" points="212.7066,-240.2873 215.8491,-230.1692 207.0828,-236.1192 212.7066,-240.2873"/>
<text text-anchor="middle" x="263" y="-252.8" font-family="Times,serif" font-size="14.00" fill="#000000">of_reference_file</text>
</g>
<!-- treatment -->
<g id="node7" class="node">
<title>treatment</title>
<path fill="none" stroke="#000000" d="M640.5,-553C640.5,-553 932.5,-553 932.5,-553 938.5,-553 944.5,-559 944.5,-565 944.5,-565 944.5,-679 944.5,-679 944.5,-685 938.5,-691 932.5,-691 932.5,-691 640.5,-691 640.5,-691 634.5,-691 628.5,-685 628.5,-679 628.5,-679 628.5,-565 628.5,-565 628.5,-559 634.5,-553 640.5,-553"/>
<text text-anchor="middle" x="673" y="-618.3" font-family="Times,serif" font-size="14.00" fill="#000000">treatment</text>
<polyline fill="none" stroke="#000000" points="717.5,-553 717.5,-691 "/>
<text text-anchor="middle" x="728" y="-618.3" font-family="Times,serif" font-size="14.00" fill="#000000"> </text>
<polyline fill="none" stroke="#000000" points="738.5,-553 738.5,-691 "/>
<text text-anchor="middle" x="831" y="-675.8" font-family="Times,serif" font-size="14.00" fill="#000000">age_at_treatment_end</text>
<polyline fill="none" stroke="#000000" points="738.5,-668 923.5,-668 "/>
<text text-anchor="middle" x="831" y="-652.8" font-family="Times,serif" font-size="14.00" fill="#000000">age_at_treatment_start</text>
<polyline fill="none" stroke="#000000" points="738.5,-645 923.5,-645 "/>
<text text-anchor="middle" x="831" y="-629.8" font-family="Times,serif" font-size="14.00" fill="#000000">id</text>
<polyline fill="none" stroke="#000000" points="738.5,-622 923.5,-622 "/>
<text text-anchor="middle" x="831" y="-606.8" font-family="Times,serif" font-size="14.00" fill="#000000">treatment_agent</text>
<polyline fill="none" stroke="#000000" points="738.5,-599 923.5,-599 "/>
<text text-anchor="middle" x="831" y="-583.8" font-family="Times,serif" font-size="14.00" fill="#000000">treatment_id</text>
<polyline fill="none" stroke="#000000" points="738.5,-576 923.5,-576 "/>
<text text-anchor="middle" x="831" y="-560.8" font-family="Times,serif" font-size="14.00" fill="#000000">treatment_type</text>
<polyline fill="none" stroke="#000000" points="923.5,-553 923.5,-691 "/>
<text text-anchor="middle" x="934" y="-618.3" font-family="Times,serif" font-size="14.00" fill="#000000"> </text>
</g>
<!-- treatment&#45;&gt;participant -->
<g id="edge6" class="edge">
<title>treatment&#45;&gt;participant</title>
<path fill="none" stroke="#000000" d="M755.9993,-552.7868C742.1484,-521.3559 725.8274,-484.32 712.0879,-453.1418"/>
<polygon fill="#000000" stroke="#000000" points="715.1479,-451.4061 707.9124,-443.6666 708.7422,-454.2289 715.1479,-451.4061"/>
<text text-anchor="middle" x="788.5" y="-511.8" font-family="Times,serif" font-size="14.00" fill="#000000">of_treatment</text>
</g>
<!-- survival -->
<g id="node8" class="node">
<title>survival</title>
<path fill="none" stroke="#000000" d="M975,-541.5C975,-541.5 1336,-541.5 1336,-541.5 1342,-541.5 1348,-547.5 1348,-553.5 1348,-553.5 1348,-690.5 1348,-690.5 1348,-696.5 1342,-702.5 1336,-702.5 1336,-702.5 975,-702.5 975,-702.5 969,-702.5 963,-696.5 963,-690.5 963,-690.5 963,-553.5 963,-553.5 963,-547.5 969,-541.5 975,-541.5"/>
<text text-anchor="middle" x="1000" y="-618.3" font-family="Times,serif" font-size="14.00" fill="#000000">survival</text>
<polyline fill="none" stroke="#000000" points="1037,-541.5 1037,-702.5 "/>
<text text-anchor="middle" x="1047.5" y="-618.3" font-family="Times,serif" font-size="14.00" fill="#000000"> </text>
<polyline fill="none" stroke="#000000" points="1058,-541.5 1058,-702.5 "/>
<text text-anchor="middle" x="1192.5" y="-687.3" font-family="Times,serif" font-size="14.00" fill="#000000">age_at_event_free_survival_status</text>
<polyline fill="none" stroke="#000000" points="1058,-679.5 1327,-679.5 "/>
<text text-anchor="middle" x="1192.5" y="-664.3" font-family="Times,serif" font-size="14.00" fill="#000000">age_at_last_known_survival_status</text>
<polyline fill="none" stroke="#000000" points="1058,-656.5 1327,-656.5 "/>
<text text-anchor="middle" x="1192.5" y="-641.3" font-family="Times,serif" font-size="14.00" fill="#000000">event_free_survival_status</text>
<polyline fill="none" stroke="#000000" points="1058,-633.5 1327,-633.5 "/>
<text text-anchor="middle" x="1192.5" y="-618.3" font-family="Times,serif" font-size="14.00" fill="#000000">first_event</text>
<polyline fill="none" stroke="#000000" points="1058,-610.5 1327,-610.5 "/>
<text text-anchor="middle" x="1192.5" y="-595.3" font-family="Times,serif" font-size="14.00" fill="#000000">id</text>
<polyline fill="none" stroke="#000000" points="1058,-587.5 1327,-587.5 "/>
<text text-anchor="middle" x="1192.5" y="-572.3" font-family="Times,serif" font-size="14.00" fill="#000000">last_known_survival_status</text>
<polyline fill="none" stroke="#000000" points="1058,-564.5 1327,-564.5 "/>
<text text-anchor="middle" x="1192.5" y="-549.3" font-family="Times,serif" font-size="14.00" fill="#000000">survival_id</text>
<polyline fill="none" stroke="#000000" points="1327,-541.5 1327,-702.5 "/>
<text text-anchor="middle" x="1337.5" y="-618.3" font-family="Times,serif" font-size="14.00" fill="#000000"> </text>
</g>
<!-- survival&#45;&gt;participant -->
<g id="edge3" class="edge">
<title>survival&#45;&gt;participant</title>
<path fill="none" stroke="#000000" d="M994.0432,-541.4423C932.9476,-510.9591 864.3981,-476.7568 807.1877,-448.212"/>
<polygon fill="#000000" stroke="#000000" points="808.6167,-445.0136 798.106,-443.6808 805.4914,-451.2772 808.6167,-445.0136"/>
<text text-anchor="middle" x="987" y="-511.8" font-family="Times,serif" font-size="14.00" fill="#000000">of_survival</text>
</g>
</g>
</svg>
