<svg width="2298pt" height="1528pt"
 viewBox="0.00 0.00 2298.00 1528.00" xmlns="http://www.w3.org/2000/svg" xmlns:xlink="http://www.w3.org/1999/xlink">
<g id="graph0" class="graph" transform="scale(1 1) rotate(0) translate(4 1524)">
<title>Perl</title>
<polygon fill="#ffffff" stroke="transparent" points="-4,4 -4,-1524 2294,-1524 2294,4 -4,4"/>
<!-- study -->
<g id="node1" class="node">
<title>study</title>
<path fill="none" stroke="#000000" d="M325,-.5C325,-.5 544,-.5 544,-.5 550,-.5 556,-6.5 556,-12.5 556,-12.5 556,-149.5 556,-149.5 556,-155.5 550,-161.5 544,-161.5 544,-161.5 325,-161.5 325,-161.5 319,-161.5 313,-155.5 313,-149.5 313,-149.5 313,-12.5 313,-12.5 313,-6.5 319,-.5 325,-.5"/>
<text text-anchor="middle" x="341" y="-77.3" font-family="Times,serif" font-size="14.00" fill="#000000">study</text>
<polyline fill="none" stroke="#000000" points="369,-.5 369,-161.5 "/>
<text text-anchor="middle" x="379.5" y="-77.3" font-family="Times,serif" font-size="14.00" fill="#000000"> </text>
<polyline fill="none" stroke="#000000" points="390,-.5 390,-161.5 "/>
<text text-anchor="middle" x="462.5" y="-146.3" font-family="Times,serif" font-size="14.00" fill="#000000">dbgap_accession</text>
<polyline fill="none" stroke="#000000" points="390,-138.5 535,-138.5 "/>
<text text-anchor="middle" x="462.5" y="-123.3" font-family="Times,serif" font-size="14.00" fill="#000000">external_url</text>
<polyline fill="none" stroke="#000000" points="390,-115.5 535,-115.5 "/>
<text text-anchor="middle" x="462.5" y="-100.3" font-family="Times,serif" font-size="14.00" fill="#000000">id</text>
<polyline fill="none" stroke="#000000" points="390,-92.5 535,-92.5 "/>
<text text-anchor="middle" x="462.5" y="-77.3" font-family="Times,serif" font-size="14.00" fill="#000000">study_description</text>
<polyline fill="none" stroke="#000000" points="390,-69.5 535,-69.5 "/>
<text text-anchor="middle" x="462.5" y="-54.3" font-family="Times,serif" font-size="14.00" fill="#000000">study_id</text>
<polyline fill="none" stroke="#000000" points="390,-46.5 535,-46.5 "/>
<text text-anchor="middle" x="462.5" y="-31.3" font-family="Times,serif" font-size="14.00" fill="#000000">study_name</text>
<polyline fill="none" stroke="#000000" points="390,-23.5 535,-23.5 "/>
<text text-anchor="middle" x="462.5" y="-8.3" font-family="Times,serif" font-size="14.00" fill="#000000">study_status</text>
<polyline fill="none" stroke="#000000" points="535,-.5 535,-161.5 "/>
<text text-anchor="middle" x="545.5" y="-77.3" font-family="Times,serif" font-size="14.00" fill="#000000"> </text>
</g>
<!-- survival -->
<g id="node2" class="node">
<title>survival</title>
<path fill="none" stroke="#000000" d="M1917,-662.5C1917,-662.5 2278,-662.5 2278,-662.5 2284,-662.5 2290,-668.5 2290,-674.5 2290,-674.5 2290,-834.5 2290,-834.5 2290,-840.5 2284,-846.5 2278,-846.5 2278,-846.5 1917,-846.5 1917,-846.5 1911,-846.5 1905,-840.5 1905,-834.5 1905,-834.5 1905,-674.5 1905,-674.5 1905,-668.5 1911,-662.5 1917,-662.5"/>
<text text-anchor="middle" x="1942" y="-750.8" font-family="Times,serif" font-size="14.00" fill="#000000">survival</text>
<polyline fill="none" stroke="#000000" points="1979,-662.5 1979,-846.5 "/>
<text text-anchor="middle" x="1989.5" y="-750.8" font-family="Times,serif" font-size="14.00" fill="#000000"> </text>
<polyline fill="none" stroke="#000000" points="2000,-662.5 2000,-846.5 "/>
<text text-anchor="middle" x="2134.5" y="-831.3" font-family="Times,serif" font-size="14.00" fill="#000000">age_at_event_free_survival_status</text>
<polyline fill="none" stroke="#000000" points="2000,-823.5 2269,-823.5 "/>
<text text-anchor="middle" x="2134.5" y="-808.3" font-family="Times,serif" font-size="14.00" fill="#000000">age_at_last_known_survival_status</text>
<polyline fill="none" stroke="#000000" points="2000,-800.5 2269,-800.5 "/>
<text text-anchor="middle" x="2134.5" y="-785.3" font-family="Times,serif" font-size="14.00" fill="#000000">cause_of_death</text>
<polyline fill="none" stroke="#000000" points="2000,-777.5 2269,-777.5 "/>
<text text-anchor="middle" x="2134.5" y="-762.3" font-family="Times,serif" font-size="14.00" fill="#000000">event_free_survival_status</text>
<polyline fill="none" stroke="#000000" points="2000,-754.5 2269,-754.5 "/>
<text text-anchor="middle" x="2134.5" y="-739.3" font-family="Times,serif" font-size="14.00" fill="#000000">first_event</text>
<polyline fill="none" stroke="#000000" points="2000,-731.5 2269,-731.5 "/>
<text text-anchor="middle" x="2134.5" y="-716.3" font-family="Times,serif" font-size="14.00" fill="#000000">id</text>
<polyline fill="none" stroke="#000000" points="2000,-708.5 2269,-708.5 "/>
<text text-anchor="middle" x="2134.5" y="-693.3" font-family="Times,serif" font-size="14.00" fill="#000000">last_known_survival_status</text>
<polyline fill="none" stroke="#000000" points="2000,-685.5 2269,-685.5 "/>
<text text-anchor="middle" x="2134.5" y="-670.3" font-family="Times,serif" font-size="14.00" fill="#000000">survival_id</text>
<polyline fill="none" stroke="#000000" points="2269,-662.5 2269,-846.5 "/>
<text text-anchor="middle" x="2279.5" y="-750.8" font-family="Times,serif" font-size="14.00" fill="#000000"> </text>
</g>
<!-- participant -->
<g id="node4" class="node">
<title>participant</title>
<path fill="none" stroke="#000000" d="M739,-495.5C739,-495.5 970,-495.5 970,-495.5 976,-495.5 982,-501.5 982,-507.5 982,-507.5 982,-575.5 982,-575.5 982,-581.5 976,-587.5 970,-587.5 970,-587.5 739,-587.5 739,-587.5 733,-587.5 727,-581.5 727,-575.5 727,-575.5 727,-507.5 727,-507.5 727,-501.5 733,-495.5 739,-495.5"/>
<text text-anchor="middle" x="775" y="-537.8" font-family="Times,serif" font-size="14.00" fill="#000000">participant</text>
<polyline fill="none" stroke="#000000" points="823,-495.5 823,-587.5 "/>
<text text-anchor="middle" x="833.5" y="-537.8" font-family="Times,serif" font-size="14.00" fill="#000000"> </text>
<polyline fill="none" stroke="#000000" points="844,-495.5 844,-587.5 "/>
<text text-anchor="middle" x="902.5" y="-572.3" font-family="Times,serif" font-size="14.00" fill="#000000">id</text>
<polyline fill="none" stroke="#000000" points="844,-564.5 961,-564.5 "/>
<text text-anchor="middle" x="902.5" y="-549.3" font-family="Times,serif" font-size="14.00" fill="#000000">participant_id</text>
<polyline fill="none" stroke="#000000" points="844,-541.5 961,-541.5 "/>
<text text-anchor="middle" x="902.5" y="-526.3" font-family="Times,serif" font-size="14.00" fill="#000000">race</text>
<polyline fill="none" stroke="#000000" points="844,-518.5 961,-518.5 "/>
<text text-anchor="middle" x="902.5" y="-503.3" font-family="Times,serif" font-size="14.00" fill="#000000">sex_at_birth</text>
<polyline fill="none" stroke="#000000" points="961,-495.5 961,-587.5 "/>
<text text-anchor="middle" x="971.5" y="-537.8" font-family="Times,serif" font-size="14.00" fill="#000000"> </text>
</g>
<!-- survival&#45;&gt;participant -->
<g id="edge7" class="edge">
<title>survival&#45;&gt;participant</title>
<path fill="none" stroke="#000000" d="M1953.7763,-662.3395C1909.8529,-639.0943 1860.2369,-617.4882 1811.5,-606 1659.9537,-570.2777 1219.1627,-552.3272 992.5611,-545.2459"/>
<polygon fill="#000000" stroke="#000000" points="992.3701,-541.7384 982.2665,-544.9271 992.1533,-548.735 992.3701,-541.7384"/>
<text text-anchor="middle" x="1892" y="-609.8" font-family="Times,serif" font-size="14.00" fill="#000000">of_survival</text>
</g>
<!-- sample -->
<g id="node3" class="node">
<title>sample</title>
<path fill="none" stroke="#000000" d="M697.5,-651C697.5,-651 1011.5,-651 1011.5,-651 1017.5,-651 1023.5,-657 1023.5,-663 1023.5,-663 1023.5,-846 1023.5,-846 1023.5,-852 1017.5,-858 1011.5,-858 1011.5,-858 697.5,-858 697.5,-858 691.5,-858 685.5,-852 685.5,-846 685.5,-846 685.5,-663 685.5,-663 685.5,-657 691.5,-651 697.5,-651"/>
<text text-anchor="middle" x="719.5" y="-750.8" font-family="Times,serif" font-size="14.00" fill="#000000">sample</text>
<polyline fill="none" stroke="#000000" points="753.5,-651 753.5,-858 "/>
<text text-anchor="middle" x="764" y="-750.8" font-family="Times,serif" font-size="14.00" fill="#000000"> </text>
<polyline fill="none" stroke="#000000" points="774.5,-651 774.5,-858 "/>
<text text-anchor="middle" x="888.5" y="-842.8" font-family="Times,serif" font-size="14.00" fill="#000000">anatomic_site</text>
<polyline fill="none" stroke="#000000" points="774.5,-835 1002.5,-835 "/>
<text text-anchor="middle" x="888.5" y="-819.8" font-family="Times,serif" font-size="14.00" fill="#000000">id</text>
<polyline fill="none" stroke="#000000" points="774.5,-812 1002.5,-812 "/>
<text text-anchor="middle" x="888.5" y="-796.8" font-family="Times,serif" font-size="14.00" fill="#000000">participant_age_at_collection</text>
<polyline fill="none" stroke="#000000" points="774.5,-789 1002.5,-789 "/>
<text text-anchor="middle" x="888.5" y="-773.8" font-family="Times,serif" font-size="14.00" fill="#000000">percent_necrosis</text>
<polyline fill="none" stroke="#000000" points="774.5,-766 1002.5,-766 "/>
<text text-anchor="middle" x="888.5" y="-750.8" font-family="Times,serif" font-size="14.00" fill="#000000">percent_tumor</text>
<polyline fill="none" stroke="#000000" points="774.5,-743 1002.5,-743 "/>
<text text-anchor="middle" x="888.5" y="-727.8" font-family="Times,serif" font-size="14.00" fill="#000000">sample_description</text>
<polyline fill="none" stroke="#000000" points="774.5,-720 1002.5,-720 "/>
<text text-anchor="middle" x="888.5" y="-704.8" font-family="Times,serif" font-size="14.00" fill="#000000">sample_id</text>
<polyline fill="none" stroke="#000000" points="774.5,-697 1002.5,-697 "/>
<text text-anchor="middle" x="888.5" y="-681.8" font-family="Times,serif" font-size="14.00" fill="#000000">sample_tumor_status</text>
<polyline fill="none" stroke="#000000" points="774.5,-674 1002.5,-674 "/>
<text text-anchor="middle" x="888.5" y="-658.8" font-family="Times,serif" font-size="14.00" fill="#000000">tumor_classification</text>
<polyline fill="none" stroke="#000000" points="1002.5,-651 1002.5,-858 "/>
<text text-anchor="middle" x="1013" y="-750.8" font-family="Times,serif" font-size="14.00" fill="#000000"> </text>
</g>
<!-- sample&#45;&gt;participant -->
<g id="edge4" class="edge">
<title>sample&#45;&gt;participant</title>
<path fill="none" stroke="#000000" d="M854.5,-650.8078C854.5,-632.5822 854.5,-614.2469 854.5,-597.9389"/>
<polygon fill="#000000" stroke="#000000" points="858.0001,-597.5364 854.5,-587.5365 851.0001,-597.5365 858.0001,-597.5364"/>
<text text-anchor="middle" x="891" y="-609.8" font-family="Times,serif" font-size="14.00" fill="#000000">of_sample</text>
</g>
<!-- consent_group -->
<g id="node10" class="node">
<title>consent_group</title>
<path fill="none" stroke="#000000" d="M653,-271C653,-271 978,-271 978,-271 984,-271 990,-277 990,-283 990,-283 990,-374 990,-374 990,-380 984,-386 978,-386 978,-386 653,-386 653,-386 647,-386 641,-380 641,-374 641,-374 641,-283 641,-283 641,-277 647,-271 653,-271"/>
<text text-anchor="middle" x="702" y="-324.8" font-family="Times,serif" font-size="14.00" fill="#000000">consent_group</text>
<polyline fill="none" stroke="#000000" points="763,-271 763,-386 "/>
<text text-anchor="middle" x="773.5" y="-324.8" font-family="Times,serif" font-size="14.00" fill="#000000"> </text>
<polyline fill="none" stroke="#000000" points="784,-271 784,-386 "/>
<text text-anchor="middle" x="876.5" y="-370.8" font-family="Times,serif" font-size="14.00" fill="#000000">consent_group_id</text>
<polyline fill="none" stroke="#000000" points="784,-363 969,-363 "/>
<text text-anchor="middle" x="876.5" y="-347.8" font-family="Times,serif" font-size="14.00" fill="#000000">consent_group_name</text>
<polyline fill="none" stroke="#000000" points="784,-340 969,-340 "/>
<text text-anchor="middle" x="876.5" y="-324.8" font-family="Times,serif" font-size="14.00" fill="#000000">consent_group_number</text>
<polyline fill="none" stroke="#000000" points="784,-317 969,-317 "/>
<text text-anchor="middle" x="876.5" y="-301.8" font-family="Times,serif" font-size="14.00" fill="#000000">consent_group_suffix</text>
<polyline fill="none" stroke="#000000" points="784,-294 969,-294 "/>
<text text-anchor="middle" x="876.5" y="-278.8" font-family="Times,serif" font-size="14.00" fill="#000000">id</text>
<polyline fill="none" stroke="#000000" points="969,-271 969,-386 "/>
<text text-anchor="middle" x="979.5" y="-324.8" font-family="Times,serif" font-size="14.00" fill="#000000"> </text>
</g>
<!-- participant&#45;&gt;consent_group -->
<g id="edge11" class="edge">
<title>participant&#45;&gt;consent_group</title>
<path fill="none" stroke="#000000" d="M846.0376,-495.2822C840.7183,-466.2309 833.7652,-428.2563 827.8376,-395.8824"/>
<polygon fill="#000000" stroke="#000000" points="831.2778,-395.2373 826.0339,-386.0312 824.3922,-396.4981 831.2778,-395.2373"/>
<text text-anchor="middle" x="892" y="-465.8" font-family="Times,serif" font-size="14.00" fill="#000000">of_participant</text>
</g>
<!-- synonym -->
<g id="node5" class="node">
<title>synonym</title>
<path fill="none" stroke="#000000" d="M12,-674C12,-674 313,-674 313,-674 319,-674 325,-680 325,-686 325,-686 325,-823 325,-823 325,-829 319,-835 313,-835 313,-835 12,-835 12,-835 6,-835 0,-829 0,-823 0,-823 0,-686 0,-686 0,-680 6,-674 12,-674"/>
<text text-anchor="middle" x="40" y="-750.8" font-family="Times,serif" font-size="14.00" fill="#000000">synonym</text>
<polyline fill="none" stroke="#000000" points="80,-674 80,-835 "/>
<text text-anchor="middle" x="90.5" y="-750.8" font-family="Times,serif" font-size="14.00" fill="#000000"> </text>
<polyline fill="none" stroke="#000000" points="101,-674 101,-835 "/>
<text text-anchor="middle" x="202.5" y="-819.8" font-family="Times,serif" font-size="14.00" fill="#000000">associated_id</text>
<polyline fill="none" stroke="#000000" points="101,-812 304,-812 "/>
<text text-anchor="middle" x="202.5" y="-796.8" font-family="Times,serif" font-size="14.00" fill="#000000">data_location</text>
<polyline fill="none" stroke="#000000" points="101,-789 304,-789 "/>
<text text-anchor="middle" x="202.5" y="-773.8" font-family="Times,serif" font-size="14.00" fill="#000000">domain_category</text>
<polyline fill="none" stroke="#000000" points="101,-766 304,-766 "/>
<text text-anchor="middle" x="202.5" y="-750.8" font-family="Times,serif" font-size="14.00" fill="#000000">domain_description</text>
<polyline fill="none" stroke="#000000" points="101,-743 304,-743 "/>
<text text-anchor="middle" x="202.5" y="-727.8" font-family="Times,serif" font-size="14.00" fill="#000000">id</text>
<polyline fill="none" stroke="#000000" points="101,-720 304,-720 "/>
<text text-anchor="middle" x="202.5" y="-704.8" font-family="Times,serif" font-size="14.00" fill="#000000">repository_of_synonym_id</text>
<polyline fill="none" stroke="#000000" points="101,-697 304,-697 "/>
<text text-anchor="middle" x="202.5" y="-681.8" font-family="Times,serif" font-size="14.00" fill="#000000">synonym_id</text>
<polyline fill="none" stroke="#000000" points="304,-674 304,-835 "/>
<text text-anchor="middle" x="314.5" y="-750.8" font-family="Times,serif" font-size="14.00" fill="#000000"> </text>
</g>
<!-- synonym&#45;&gt;study -->
<g id="edge2" class="edge">
<title>synonym&#45;&gt;study</title>
<path fill="none" stroke="#000000" d="M162.8363,-673.6725C166.7615,-562.2505 186.6532,-358.731 274.5,-213 283.9901,-197.2567 296.0572,-182.5434 309.2964,-169.0754"/>
<polygon fill="#000000" stroke="#000000" points="312.0937,-171.233 316.7632,-161.7226 307.1821,-166.2453 312.0937,-171.233"/>
<text text-anchor="middle" x="228" y="-465.8" font-family="Times,serif" font-size="14.00" fill="#000000">of_synonym</text>
</g>
<!-- synonym&#45;&gt;participant -->
<g id="edge1" class="edge">
<title>synonym&#45;&gt;participant</title>
<path fill="none" stroke="#000000" d="M198.711,-673.7978C214.3217,-647.9933 235.1453,-621.998 261.5,-606 299.5439,-582.9064 553.877,-561.7442 716.8744,-550.3323"/>
<polygon fill="#000000" stroke="#000000" points="717.2567,-553.8143 726.9896,-549.6284 716.7707,-546.8312 717.2567,-553.8143"/>
<text text-anchor="middle" x="304" y="-609.8" font-family="Times,serif" font-size="14.00" fill="#000000">of_synonym</text>
</g>
<!-- laboratory_test -->
<g id="node6" class="node">
<title>laboratory_test</title>
<path fill="none" stroke="#000000" d="M211.5,-1094C211.5,-1094 543.5,-1094 543.5,-1094 549.5,-1094 555.5,-1100 555.5,-1106 555.5,-1106 555.5,-1335 555.5,-1335 555.5,-1341 549.5,-1347 543.5,-1347 543.5,-1347 211.5,-1347 211.5,-1347 205.5,-1347 199.5,-1341 199.5,-1335 199.5,-1335 199.5,-1106 199.5,-1106 199.5,-1100 205.5,-1094 211.5,-1094"/>
<text text-anchor="middle" x="262.5" y="-1216.8" font-family="Times,serif" font-size="14.00" fill="#000000">laboratory_test</text>
<polyline fill="none" stroke="#000000" points="325.5,-1094 325.5,-1347 "/>
<text text-anchor="middle" x="336" y="-1216.8" font-family="Times,serif" font-size="14.00" fill="#000000"> </text>
<polyline fill="none" stroke="#000000" points="346.5,-1094 346.5,-1347 "/>
<text text-anchor="middle" x="440.5" y="-1331.8" font-family="Times,serif" font-size="14.00" fill="#000000">age_at_laboratory_test</text>
<polyline fill="none" stroke="#000000" points="346.5,-1324 534.5,-1324 "/>
<text text-anchor="middle" x="440.5" y="-1308.8" font-family="Times,serif" font-size="14.00" fill="#000000">id</text>
<polyline fill="none" stroke="#000000" points="346.5,-1301 534.5,-1301 "/>
<text text-anchor="middle" x="440.5" y="-1285.8" font-family="Times,serif" font-size="14.00" fill="#000000">laboratory_test_id</text>
<polyline fill="none" stroke="#000000" points="346.5,-1278 534.5,-1278 "/>
<text text-anchor="middle" x="440.5" y="-1262.8" font-family="Times,serif" font-size="14.00" fill="#000000">laboratory_test_method</text>
<polyline fill="none" stroke="#000000" points="346.5,-1255 534.5,-1255 "/>
<text text-anchor="middle" x="440.5" y="-1239.8" font-family="Times,serif" font-size="14.00" fill="#000000">laboratory_test_name</text>
<polyline fill="none" stroke="#000000" points="346.5,-1232 534.5,-1232 "/>
<text text-anchor="middle" x="440.5" y="-1216.8" font-family="Times,serif" font-size="14.00" fill="#000000">sensitivity</text>
<polyline fill="none" stroke="#000000" points="346.5,-1209 534.5,-1209 "/>
<text text-anchor="middle" x="440.5" y="-1193.8" font-family="Times,serif" font-size="14.00" fill="#000000">specimen</text>
<polyline fill="none" stroke="#000000" points="346.5,-1186 534.5,-1186 "/>
<text text-anchor="middle" x="440.5" y="-1170.8" font-family="Times,serif" font-size="14.00" fill="#000000">test_result_modifier</text>
<polyline fill="none" stroke="#000000" points="346.5,-1163 534.5,-1163 "/>
<text text-anchor="middle" x="440.5" y="-1147.8" font-family="Times,serif" font-size="14.00" fill="#000000">test_result_numeric</text>
<polyline fill="none" stroke="#000000" points="346.5,-1140 534.5,-1140 "/>
<text text-anchor="middle" x="440.5" y="-1124.8" font-family="Times,serif" font-size="14.00" fill="#000000">test_result_text</text>
<polyline fill="none" stroke="#000000" points="346.5,-1117 534.5,-1117 "/>
<text text-anchor="middle" x="440.5" y="-1101.8" font-family="Times,serif" font-size="14.00" fill="#000000">test_result_unit</text>
<polyline fill="none" stroke="#000000" points="534.5,-1094 534.5,-1347 "/>
<text text-anchor="middle" x="545" y="-1216.8" font-family="Times,serif" font-size="14.00" fill="#000000"> </text>
</g>
<!-- laboratory_test&#45;&gt;sample -->
<g id="edge9" class="edge">
<title>laboratory_test&#45;&gt;sample</title>
<path fill="none" stroke="#000000" d="M447.7597,-1093.7604C483.6287,-1036.4771 530.9904,-970.6623 584.5,-921 617.352,-890.5101 633.2102,-893.2976 671.5,-870 675.1107,-867.803 678.7575,-865.5761 682.4302,-863.3261"/>
<polygon fill="#000000" stroke="#000000" points="684.3523,-866.2531 691.0421,-858.0375 680.6891,-860.2881 684.3523,-866.2531"/>
<text text-anchor="middle" x="700" y="-891.8" font-family="Times,serif" font-size="14.00" fill="#000000">of_laboratory_test</text>
</g>
<!-- laboratory_test&#45;&gt;participant -->
<g id="edge10" class="edge">
<title>laboratory_test&#45;&gt;participant</title>
<path fill="none" stroke="#000000" d="M366.324,-1093.982C353.4459,-933.4613 337.4221,-673.229 365.5,-639 409.2325,-585.687 587.9082,-560.9696 716.6386,-549.9037"/>
<polygon fill="#000000" stroke="#000000" points="717.3118,-553.3596 726.9836,-549.0344 716.7256,-546.3842 717.3118,-553.3596"/>
<text text-anchor="middle" x="431" y="-750.8" font-family="Times,serif" font-size="14.00" fill="#000000">of_laboratory_test</text>
</g>
<!-- genetic_analysis -->
<g id="node7" class="node">
<title>genetic_analysis</title>
<path fill="none" stroke="#000000" d="M605.5,-921.5C605.5,-921.5 989.5,-921.5 989.5,-921.5 995.5,-921.5 1001.5,-927.5 1001.5,-933.5 1001.5,-933.5 1001.5,-1507.5 1001.5,-1507.5 1001.5,-1513.5 995.5,-1519.5 989.5,-1519.5 989.5,-1519.5 605.5,-1519.5 605.5,-1519.5 599.5,-1519.5 593.5,-1513.5 593.5,-1507.5 593.5,-1507.5 593.5,-933.5 593.5,-933.5 593.5,-927.5 599.5,-921.5 605.5,-921.5"/>
<text text-anchor="middle" x="661" y="-1216.8" font-family="Times,serif" font-size="14.00" fill="#000000">genetic_analysis</text>
<polyline fill="none" stroke="#000000" points="728.5,-921.5 728.5,-1519.5 "/>
<text text-anchor="middle" x="739" y="-1216.8" font-family="Times,serif" font-size="14.00" fill="#000000"> </text>
<polyline fill="none" stroke="#000000" points="749.5,-921.5 749.5,-1519.5 "/>
<text text-anchor="middle" x="865" y="-1504.3" font-family="Times,serif" font-size="14.00" fill="#000000">age_at_genetic_analysis</text>
<polyline fill="none" stroke="#000000" points="749.5,-1496.5 980.5,-1496.5 "/>
<text text-anchor="middle" x="865" y="-1481.3" font-family="Times,serif" font-size="14.00" fill="#000000">allelic_ratio</text>
<polyline fill="none" stroke="#000000" points="749.5,-1473.5 980.5,-1473.5 "/>
<text text-anchor="middle" x="865" y="-1458.3" font-family="Times,serif" font-size="14.00" fill="#000000">alteration</text>
<polyline fill="none" stroke="#000000" points="749.5,-1450.5 980.5,-1450.5 "/>
<text text-anchor="middle" x="865" y="-1435.3" font-family="Times,serif" font-size="14.00" fill="#000000">alteration_effect</text>
<polyline fill="none" stroke="#000000" points="749.5,-1427.5 980.5,-1427.5 "/>
<text text-anchor="middle" x="865" y="-1412.3" font-family="Times,serif" font-size="14.00" fill="#000000">alteration_type</text>
<polyline fill="none" stroke="#000000" points="749.5,-1404.5 980.5,-1404.5 "/>
<text text-anchor="middle" x="865" y="-1389.3" font-family="Times,serif" font-size="14.00" fill="#000000">chromosome</text>
<polyline fill="none" stroke="#000000" points="749.5,-1381.5 980.5,-1381.5 "/>
<text text-anchor="middle" x="865" y="-1366.3" font-family="Times,serif" font-size="14.00" fill="#000000">cytoband</text>
<polyline fill="none" stroke="#000000" points="749.5,-1358.5 980.5,-1358.5 "/>
<text text-anchor="middle" x="865" y="-1343.3" font-family="Times,serif" font-size="14.00" fill="#000000">dna_index_numeric</text>
<polyline fill="none" stroke="#000000" points="749.5,-1335.5 980.5,-1335.5 "/>
<text text-anchor="middle" x="865" y="-1320.3" font-family="Times,serif" font-size="14.00" fill="#000000">exon</text>
<polyline fill="none" stroke="#000000" points="749.5,-1312.5 980.5,-1312.5 "/>
<text text-anchor="middle" x="865" y="-1297.3" font-family="Times,serif" font-size="14.00" fill="#000000">fusion_partner_exon</text>
<polyline fill="none" stroke="#000000" points="749.5,-1289.5 980.5,-1289.5 "/>
<text text-anchor="middle" x="865" y="-1274.3" font-family="Times,serif" font-size="14.00" fill="#000000">fusion_partner_gene</text>
<polyline fill="none" stroke="#000000" points="749.5,-1266.5 980.5,-1266.5 "/>
<text text-anchor="middle" x="865" y="-1251.3" font-family="Times,serif" font-size="14.00" fill="#000000">fusion_partner_transcript</text>
<polyline fill="none" stroke="#000000" points="749.5,-1243.5 980.5,-1243.5 "/>
<text text-anchor="middle" x="865" y="-1228.3" font-family="Times,serif" font-size="14.00" fill="#000000">gene_symbol</text>
<polyline fill="none" stroke="#000000" points="749.5,-1220.5 980.5,-1220.5 "/>
<text text-anchor="middle" x="865" y="-1205.3" font-family="Times,serif" font-size="14.00" fill="#000000">genetic_analysis_id</text>
<polyline fill="none" stroke="#000000" points="749.5,-1197.5 980.5,-1197.5 "/>
<text text-anchor="middle" x="865" y="-1182.3" font-family="Times,serif" font-size="14.00" fill="#000000">genomic_source_category</text>
<polyline fill="none" stroke="#000000" points="749.5,-1174.5 980.5,-1174.5 "/>
<text text-anchor="middle" x="865" y="-1159.3" font-family="Times,serif" font-size="14.00" fill="#000000">hgvs_coding</text>
<polyline fill="none" stroke="#000000" points="749.5,-1151.5 980.5,-1151.5 "/>
<text text-anchor="middle" x="865" y="-1136.3" font-family="Times,serif" font-size="14.00" fill="#000000">hgvs_genome</text>
<polyline fill="none" stroke="#000000" points="749.5,-1128.5 980.5,-1128.5 "/>
<text text-anchor="middle" x="865" y="-1113.3" font-family="Times,serif" font-size="14.00" fill="#000000">hgvs_protein</text>
<polyline fill="none" stroke="#000000" points="749.5,-1105.5 980.5,-1105.5 "/>
<text text-anchor="middle" x="865" y="-1090.3" font-family="Times,serif" font-size="14.00" fill="#000000">id</text>
<polyline fill="none" stroke="#000000" points="749.5,-1082.5 980.5,-1082.5 "/>
<text text-anchor="middle" x="865" y="-1067.3" font-family="Times,serif" font-size="14.00" fill="#000000">iscn</text>
<polyline fill="none" stroke="#000000" points="749.5,-1059.5 980.5,-1059.5 "/>
<text text-anchor="middle" x="865" y="-1044.3" font-family="Times,serif" font-size="14.00" fill="#000000">method</text>
<polyline fill="none" stroke="#000000" points="749.5,-1036.5 980.5,-1036.5 "/>
<text text-anchor="middle" x="865" y="-1021.3" font-family="Times,serif" font-size="14.00" fill="#000000">reference_genome</text>
<polyline fill="none" stroke="#000000" points="749.5,-1013.5 980.5,-1013.5 "/>
<text text-anchor="middle" x="865" y="-998.3" font-family="Times,serif" font-size="14.00" fill="#000000">reported_significance</text>
<polyline fill="none" stroke="#000000" points="749.5,-990.5 980.5,-990.5 "/>
<text text-anchor="middle" x="865" y="-975.3" font-family="Times,serif" font-size="14.00" fill="#000000">reported_significance_system</text>
<polyline fill="none" stroke="#000000" points="749.5,-967.5 980.5,-967.5 "/>
<text text-anchor="middle" x="865" y="-952.3" font-family="Times,serif" font-size="14.00" fill="#000000">result</text>
<polyline fill="none" stroke="#000000" points="749.5,-944.5 980.5,-944.5 "/>
<text text-anchor="middle" x="865" y="-929.3" font-family="Times,serif" font-size="14.00" fill="#000000">+ 6 properties</text>
<polyline fill="none" stroke="#000000" points="980.5,-921.5 980.5,-1519.5 "/>
<text text-anchor="middle" x="991" y="-1216.8" font-family="Times,serif" font-size="14.00" fill="#000000"> </text>
</g>
<!-- genetic_analysis&#45;&gt;sample -->
<g id="edge5" class="edge">
<title>genetic_analysis&#45;&gt;sample</title>
<path fill="none" stroke="#000000" d="M834.0827,-921.4205C836.3269,-903.0727 838.4983,-885.3209 840.5345,-868.6741"/>
<polygon fill="#000000" stroke="#000000" points="844.0442,-868.8075 841.7843,-858.4565 837.096,-867.9575 844.0442,-868.8075"/>
<text text-anchor="middle" x="907.5" y="-891.8" font-family="Times,serif" font-size="14.00" fill="#000000">of_genetic_analysis</text>
</g>
<!-- genetic_analysis&#45;&gt;participant -->
<g id="edge6" class="edge">
<title>genetic_analysis&#45;&gt;participant</title>
<path fill="none" stroke="#000000" d="M593.4818,-957.6699C563.3214,-916.3593 540.7963,-882.9629 536.5,-870 504.2012,-772.5463 475.4645,-721.5537 536.5,-639 558.9231,-608.6716 641.2681,-583.907 716.5408,-566.9255"/>
<polygon fill="#000000" stroke="#000000" points="717.627,-570.2696 726.6307,-564.6854 716.1098,-563.436 717.627,-570.2696"/>
<text text-anchor="middle" x="606.5" y="-750.8" font-family="Times,serif" font-size="14.00" fill="#000000">of_genetic_analysis</text>
</g>
<!-- reference_file -->
<g id="node8" class="node">
<title>reference_file</title>
<path fill="none" stroke="#000000" d="M296,-213.5C296,-213.5 573,-213.5 573,-213.5 579,-213.5 585,-219.5 585,-225.5 585,-225.5 585,-431.5 585,-431.5 585,-437.5 579,-443.5 573,-443.5 573,-443.5 296,-443.5 296,-443.5 290,-443.5 284,-437.5 284,-431.5 284,-431.5 284,-225.5 284,-225.5 284,-219.5 290,-213.5 296,-213.5"/>
<text text-anchor="middle" x="342" y="-324.8" font-family="Times,serif" font-size="14.00" fill="#000000">reference_file</text>
<polyline fill="none" stroke="#000000" points="400,-213.5 400,-443.5 "/>
<text text-anchor="middle" x="410.5" y="-324.8" font-family="Times,serif" font-size="14.00" fill="#000000"> </text>
<polyline fill="none" stroke="#000000" points="421,-213.5 421,-443.5 "/>
<text text-anchor="middle" x="492.5" y="-428.3" font-family="Times,serif" font-size="14.00" fill="#000000">dcf_indexd_guid</text>
<polyline fill="none" stroke="#000000" points="421,-420.5 564,-420.5 "/>
<text text-anchor="middle" x="492.5" y="-405.3" font-family="Times,serif" font-size="14.00" fill="#000000">file_category</text>
<polyline fill="none" stroke="#000000" points="421,-397.5 564,-397.5 "/>
<text text-anchor="middle" x="492.5" y="-382.3" font-family="Times,serif" font-size="14.00" fill="#000000">file_description</text>
<polyline fill="none" stroke="#000000" points="421,-374.5 564,-374.5 "/>
<text text-anchor="middle" x="492.5" y="-359.3" font-family="Times,serif" font-size="14.00" fill="#000000">file_name</text>
<polyline fill="none" stroke="#000000" points="421,-351.5 564,-351.5 "/>
<text text-anchor="middle" x="492.5" y="-336.3" font-family="Times,serif" font-size="14.00" fill="#000000">file_size</text>
<polyline fill="none" stroke="#000000" points="421,-328.5 564,-328.5 "/>
<text text-anchor="middle" x="492.5" y="-313.3" font-family="Times,serif" font-size="14.00" fill="#000000">file_type</text>
<polyline fill="none" stroke="#000000" points="421,-305.5 564,-305.5 "/>
<text text-anchor="middle" x="492.5" y="-290.3" font-family="Times,serif" font-size="14.00" fill="#000000">id</text>
<polyline fill="none" stroke="#000000" points="421,-282.5 564,-282.5 "/>
<text text-anchor="middle" x="492.5" y="-267.3" font-family="Times,serif" font-size="14.00" fill="#000000">md5sum</text>
<polyline fill="none" stroke="#000000" points="421,-259.5 564,-259.5 "/>
<text text-anchor="middle" x="492.5" y="-244.3" font-family="Times,serif" font-size="14.00" fill="#000000">reference_file_id</text>
<polyline fill="none" stroke="#000000" points="421,-236.5 564,-236.5 "/>
<text text-anchor="middle" x="492.5" y="-221.3" font-family="Times,serif" font-size="14.00" fill="#000000">reference_file_url</text>
<polyline fill="none" stroke="#000000" points="564,-213.5 564,-443.5 "/>
<text text-anchor="middle" x="574.5" y="-324.8" font-family="Times,serif" font-size="14.00" fill="#000000"> </text>
</g>
<!-- reference_file&#45;&gt;study -->
<g id="edge3" class="edge">
<title>reference_file&#45;&gt;study</title>
<path fill="none" stroke="#000000" d="M434.5,-213.4448C434.5,-199.4621 434.5,-185.3307 434.5,-171.7693"/>
<polygon fill="#000000" stroke="#000000" points="438.0001,-171.5218 434.5,-161.5218 431.0001,-171.5219 438.0001,-171.5218"/>
<text text-anchor="middle" x="495" y="-183.8" font-family="Times,serif" font-size="14.00" fill="#000000">of_reference_file</text>
</g>
<!-- treatment -->
<g id="node9" class="node">
<title>treatment</title>
<path fill="none" stroke="#000000" d="M1053.5,-639.5C1053.5,-639.5 1345.5,-639.5 1345.5,-639.5 1351.5,-639.5 1357.5,-645.5 1357.5,-651.5 1357.5,-651.5 1357.5,-857.5 1357.5,-857.5 1357.5,-863.5 1351.5,-869.5 1345.5,-869.5 1345.5,-869.5 1053.5,-869.5 1053.5,-869.5 1047.5,-869.5 1041.5,-863.5 1041.5,-857.5 1041.5,-857.5 1041.5,-651.5 1041.5,-651.5 1041.5,-645.5 1047.5,-639.5 1053.5,-639.5"/>
<text text-anchor="middle" x="1086" y="-750.8" font-family="Times,serif" font-size="14.00" fill="#000000">treatment</text>
<polyline fill="none" stroke="#000000" points="1130.5,-639.5 1130.5,-869.5 "/>
<text text-anchor="middle" x="1141" y="-750.8" font-family="Times,serif" font-size="14.00" fill="#000000"> </text>
<polyline fill="none" stroke="#000000" points="1151.5,-639.5 1151.5,-869.5 "/>
<text text-anchor="middle" x="1244" y="-854.3" font-family="Times,serif" font-size="14.00" fill="#000000">age_at_treatment_end</text>
<polyline fill="none" stroke="#000000" points="1151.5,-846.5 1336.5,-846.5 "/>
<text text-anchor="middle" x="1244" y="-831.3" font-family="Times,serif" font-size="14.00" fill="#000000">age_at_treatment_start</text>
<polyline fill="none" stroke="#000000" points="1151.5,-823.5 1336.5,-823.5 "/>
<text text-anchor="middle" x="1244" y="-808.3" font-family="Times,serif" font-size="14.00" fill="#000000">dose</text>
<polyline fill="none" stroke="#000000" points="1151.5,-800.5 1336.5,-800.5 "/>
<text text-anchor="middle" x="1244" y="-785.3" font-family="Times,serif" font-size="14.00" fill="#000000">dose_frequency</text>
<polyline fill="none" stroke="#000000" points="1151.5,-777.5 1336.5,-777.5 "/>
<text text-anchor="middle" x="1244" y="-762.3" font-family="Times,serif" font-size="14.00" fill="#000000">dose_route</text>
<polyline fill="none" stroke="#000000" points="1151.5,-754.5 1336.5,-754.5 "/>
<text text-anchor="middle" x="1244" y="-739.3" font-family="Times,serif" font-size="14.00" fill="#000000">dose_unit</text>
<polyline fill="none" stroke="#000000" points="1151.5,-731.5 1336.5,-731.5 "/>
<text text-anchor="middle" x="1244" y="-716.3" font-family="Times,serif" font-size="14.00" fill="#000000">id</text>
<polyline fill="none" stroke="#000000" points="1151.5,-708.5 1336.5,-708.5 "/>
<text text-anchor="middle" x="1244" y="-693.3" font-family="Times,serif" font-size="14.00" fill="#000000">treatment_agent</text>
<polyline fill="none" stroke="#000000" points="1151.5,-685.5 1336.5,-685.5 "/>
<text text-anchor="middle" x="1244" y="-670.3" font-family="Times,serif" font-size="14.00" fill="#000000">treatment_id</text>
<polyline fill="none" stroke="#000000" points="1151.5,-662.5 1336.5,-662.5 "/>
<text text-anchor="middle" x="1244" y="-647.3" font-family="Times,serif" font-size="14.00" fill="#000000">treatment_type</text>
<polyline fill="none" stroke="#000000" points="1336.5,-639.5 1336.5,-869.5 "/>
<text text-anchor="middle" x="1347" y="-750.8" font-family="Times,serif" font-size="14.00" fill="#000000"> </text>
</g>
<!-- treatment&#45;&gt;participant -->
<g id="edge14" class="edge">
<title>treatment&#45;&gt;participant</title>
<path fill="none" stroke="#000000" d="M1041.0989,-644.3587C1038.2177,-642.547 1035.3496,-640.7593 1032.5,-639 1006.7756,-623.1184 978.2997,-606.9302 951.8063,-592.4249"/>
<polygon fill="#000000" stroke="#000000" points="953.36,-589.2856 942.9045,-587.5731 950.01,-595.432 953.36,-589.2856"/>
<text text-anchor="middle" x="1045.5" y="-609.8" font-family="Times,serif" font-size="14.00" fill="#000000">of_treatment</text>
</g>
<!-- consent_group&#45;&gt;study -->
<g id="edge15" class="edge">
<title>consent_group&#45;&gt;study</title>
<path fill="none" stroke="#000000" d="M726.6533,-270.7846C678.4386,-239.4641 617.9378,-200.1624 564.5171,-165.4599"/>
<polygon fill="#000000" stroke="#000000" points="566.2998,-162.4444 556.0072,-159.9318 562.4865,-168.3145 566.2998,-162.4444"/>
<text text-anchor="middle" x="665" y="-183.8" font-family="Times,serif" font-size="14.00" fill="#000000">of_consent_group</text>
</g>
<!-- treatment_response -->
<g id="node11" class="node">
<title>treatment_response</title>
<path fill="none" stroke="#000000" d="M1388,-685.5C1388,-685.5 1749,-685.5 1749,-685.5 1755,-685.5 1761,-691.5 1761,-697.5 1761,-697.5 1761,-811.5 1761,-811.5 1761,-817.5 1755,-823.5 1749,-823.5 1749,-823.5 1388,-823.5 1388,-823.5 1382,-823.5 1376,-817.5 1376,-811.5 1376,-811.5 1376,-697.5 1376,-697.5 1376,-691.5 1382,-685.5 1388,-685.5"/>
<text text-anchor="middle" x="1456.5" y="-750.8" font-family="Times,serif" font-size="14.00" fill="#000000">treatment_response</text>
<polyline fill="none" stroke="#000000" points="1537,-685.5 1537,-823.5 "/>
<text text-anchor="middle" x="1547.5" y="-750.8" font-family="Times,serif" font-size="14.00" fill="#000000"> </text>
<polyline fill="none" stroke="#000000" points="1558,-685.5 1558,-823.5 "/>
<text text-anchor="middle" x="1649" y="-808.3" font-family="Times,serif" font-size="14.00" fill="#000000">age_at_response</text>
<polyline fill="none" stroke="#000000" points="1558,-800.5 1740,-800.5 "/>
<text text-anchor="middle" x="1649" y="-785.3" font-family="Times,serif" font-size="14.00" fill="#000000">id</text>
<polyline fill="none" stroke="#000000" points="1558,-777.5 1740,-777.5 "/>
<text text-anchor="middle" x="1649" y="-762.3" font-family="Times,serif" font-size="14.00" fill="#000000">response</text>
<polyline fill="none" stroke="#000000" points="1558,-754.5 1740,-754.5 "/>
<text text-anchor="middle" x="1649" y="-739.3" font-family="Times,serif" font-size="14.00" fill="#000000">response_category</text>
<polyline fill="none" stroke="#000000" points="1558,-731.5 1740,-731.5 "/>
<text text-anchor="middle" x="1649" y="-716.3" font-family="Times,serif" font-size="14.00" fill="#000000">response_system</text>
<polyline fill="none" stroke="#000000" points="1558,-708.5 1740,-708.5 "/>
<text text-anchor="middle" x="1649" y="-693.3" font-family="Times,serif" font-size="14.00" fill="#000000">treatment_response_id</text>
<polyline fill="none" stroke="#000000" points="1740,-685.5 1740,-823.5 "/>
<text text-anchor="middle" x="1750.5" y="-750.8" font-family="Times,serif" font-size="14.00" fill="#000000"> </text>
</g>
<!-- treatment_response&#45;&gt;participant -->
<g id="edge8" class="edge">
<title>treatment_response&#45;&gt;participant</title>
<path fill="none" stroke="#000000" d="M1462.9502,-685.4204C1432.7749,-668.1196 1399.1848,-651.0716 1366.5,-639 1244.081,-593.7864 1097.0949,-568.5717 992.0765,-555.1724"/>
<polygon fill="#000000" stroke="#000000" points="992.405,-551.6863 982.0467,-553.9123 991.5324,-558.6317 992.405,-551.6863"/>
<text text-anchor="middle" x="1395.5" y="-609.8" font-family="Times,serif" font-size="14.00" fill="#000000">of_treatment_response</text>
</g>
<!-- diagnosis -->
<g id="node12" class="node">
<title>diagnosis</title>
<path fill="none" stroke="#000000" d="M1385,-1013.5C1385,-1013.5 1750,-1013.5 1750,-1013.5 1756,-1013.5 1762,-1019.5 1762,-1025.5 1762,-1025.5 1762,-1415.5 1762,-1415.5 1762,-1421.5 1756,-1427.5 1750,-1427.5 1750,-1427.5 1385,-1427.5 1385,-1427.5 1379,-1427.5 1373,-1421.5 1373,-1415.5 1373,-1415.5 1373,-1025.5 1373,-1025.5 1373,-1019.5 1379,-1013.5 1385,-1013.5"/>
<text text-anchor="middle" x="1415" y="-1216.8" font-family="Times,serif" font-size="14.00" fill="#000000">diagnosis</text>
<polyline fill="none" stroke="#000000" points="1457,-1013.5 1457,-1427.5 "/>
<text text-anchor="middle" x="1467.5" y="-1216.8" font-family="Times,serif" font-size="14.00" fill="#000000"> </text>
<polyline fill="none" stroke="#000000" points="1478,-1013.5 1478,-1427.5 "/>
<text text-anchor="middle" x="1609.5" y="-1412.3" font-family="Times,serif" font-size="14.00" fill="#000000">age_at_diagnosis</text>
<polyline fill="none" stroke="#000000" points="1478,-1404.5 1741,-1404.5 "/>
<text text-anchor="middle" x="1609.5" y="-1389.3" font-family="Times,serif" font-size="14.00" fill="#000000">anatomic_site</text>
<polyline fill="none" stroke="#000000" points="1478,-1381.5 1741,-1381.5 "/>
<text text-anchor="middle" x="1609.5" y="-1366.3" font-family="Times,serif" font-size="14.00" fill="#000000">diagnosis</text>
<polyline fill="none" stroke="#000000" points="1478,-1358.5 1741,-1358.5 "/>
<text text-anchor="middle" x="1609.5" y="-1343.3" font-family="Times,serif" font-size="14.00" fill="#000000">diagnosis_basis</text>
<polyline fill="none" stroke="#000000" points="1478,-1335.5 1741,-1335.5 "/>
<text text-anchor="middle" x="1609.5" y="-1320.3" font-family="Times,serif" font-size="14.00" fill="#000000">diagnosis_category</text>
<polyline fill="none" stroke="#000000" points="1478,-1312.5 1741,-1312.5 "/>
<text text-anchor="middle" x="1609.5" y="-1297.3" font-family="Times,serif" font-size="14.00" fill="#000000">diagnosis_classification_system</text>
<polyline fill="none" stroke="#000000" points="1478,-1289.5 1741,-1289.5 "/>
<text text-anchor="middle" x="1609.5" y="-1274.3" font-family="Times,serif" font-size="14.00" fill="#000000">diagnosis_comment</text>
<polyline fill="none" stroke="#000000" points="1478,-1266.5 1741,-1266.5 "/>
<text text-anchor="middle" x="1609.5" y="-1251.3" font-family="Times,serif" font-size="14.00" fill="#000000">diagnosis_id</text>
<polyline fill="none" stroke="#000000" points="1478,-1243.5 1741,-1243.5 "/>
<text text-anchor="middle" x="1609.5" y="-1228.3" font-family="Times,serif" font-size="14.00" fill="#000000">disease_phase</text>
<polyline fill="none" stroke="#000000" points="1478,-1220.5 1741,-1220.5 "/>
<text text-anchor="middle" x="1609.5" y="-1205.3" font-family="Times,serif" font-size="14.00" fill="#000000">id</text>
<polyline fill="none" stroke="#000000" points="1478,-1197.5 1741,-1197.5 "/>
<text text-anchor="middle" x="1609.5" y="-1182.3" font-family="Times,serif" font-size="14.00" fill="#000000">laterality</text>
<polyline fill="none" stroke="#000000" points="1478,-1174.5 1741,-1174.5 "/>
<text text-anchor="middle" x="1609.5" y="-1159.3" font-family="Times,serif" font-size="14.00" fill="#000000">toronto_childhood_cancer_staging</text>
<polyline fill="none" stroke="#000000" points="1478,-1151.5 1741,-1151.5 "/>
<text text-anchor="middle" x="1609.5" y="-1136.3" font-family="Times,serif" font-size="14.00" fill="#000000">tumor_classification</text>
<polyline fill="none" stroke="#000000" points="1478,-1128.5 1741,-1128.5 "/>
<text text-anchor="middle" x="1609.5" y="-1113.3" font-family="Times,serif" font-size="14.00" fill="#000000">tumor_grade</text>
<polyline fill="none" stroke="#000000" points="1478,-1105.5 1741,-1105.5 "/>
<text text-anchor="middle" x="1609.5" y="-1090.3" font-family="Times,serif" font-size="14.00" fill="#000000">tumor_stage_clinical_m</text>
<polyline fill="none" stroke="#000000" points="1478,-1082.5 1741,-1082.5 "/>
<text text-anchor="middle" x="1609.5" y="-1067.3" font-family="Times,serif" font-size="14.00" fill="#000000">tumor_stage_clinical_n</text>
<polyline fill="none" stroke="#000000" points="1478,-1059.5 1741,-1059.5 "/>
<text text-anchor="middle" x="1609.5" y="-1044.3" font-family="Times,serif" font-size="14.00" fill="#000000">tumor_stage_clinical_t</text>
<polyline fill="none" stroke="#000000" points="1478,-1036.5 1741,-1036.5 "/>
<text text-anchor="middle" x="1609.5" y="-1021.3" font-family="Times,serif" font-size="14.00" fill="#000000">year_of_diagnosis</text>
<polyline fill="none" stroke="#000000" points="1741,-1013.5 1741,-1427.5 "/>
<text text-anchor="middle" x="1751.5" y="-1216.8" font-family="Times,serif" font-size="14.00" fill="#000000"> </text>
</g>
<!-- diagnosis&#45;&gt;sample -->
<g id="edge12" class="edge">
<title>diagnosis&#45;&gt;sample</title>
<path fill="none" stroke="#000000" d="M1372.6696,-1093.1635C1262.6737,-1021.2727 1126.6264,-932.3554 1021.5383,-863.6723"/>
<polygon fill="#000000" stroke="#000000" points="1023.3554,-860.6787 1013.0698,-858.1375 1019.5257,-866.5382 1023.3554,-860.6787"/>
<text text-anchor="middle" x="1109" y="-891.8" font-family="Times,serif" font-size="14.00" fill="#000000">of_diagnosis</text>
</g>
<!-- diagnosis&#45;&gt;participant -->
<g id="edge13" class="edge">
<title>diagnosis&#45;&gt;participant</title>
<path fill="none" stroke="#000000" d="M1710.999,-1013.3594C1735.5573,-968.0133 1757.3625,-918.8961 1770.5,-870 1783.8199,-820.4249 1804.6697,-677.3085 1770.5,-639 1719.7322,-582.0829 1236.0081,-555.8524 992.7571,-546.1796"/>
<polygon fill="#000000" stroke="#000000" points="992.556,-542.669 982.4261,-545.773 992.2807,-549.6636 992.556,-542.669"/>
<text text-anchor="middle" x="1833" y="-750.8" font-family="Times,serif" font-size="14.00" fill="#000000">of_diagnosis</text>
</g>
</g>
</svg>
