<svg width="1012pt" height="1010pt"
 viewBox="0.00 0.00 1012.00 1010.00" xmlns="http://www.w3.org/2000/svg" xmlns:xlink="http://www.w3.org/1999/xlink">
<g id="graph0" class="graph" transform="scale(1 1) rotate(0) translate(4 1006)">
<title>Perl</title>
<polygon fill="#ffffff" stroke="transparent" points="-4,4 -4,-1006 1008,-1006 1008,4 -4,4"/>
<!-- participant -->
<g id="node1" class="node">
<title>participant</title>
<path fill="none" stroke="#000000" d="M290.5,-363C290.5,-363 594.5,-363 594.5,-363 600.5,-363 606.5,-369 606.5,-375 606.5,-375 606.5,-466 606.5,-466 606.5,-472 600.5,-478 594.5,-478 594.5,-478 290.5,-478 290.5,-478 284.5,-478 278.5,-472 278.5,-466 278.5,-466 278.5,-375 278.5,-375 278.5,-369 284.5,-363 290.5,-363"/>
<text text-anchor="middle" x="326.5" y="-416.8" font-family="Times,serif" font-size="14.00" fill="#000000">participant</text>
<polyline fill="none" stroke="#000000" points="374.5,-363 374.5,-478 "/>
<text text-anchor="middle" x="385" y="-416.8" font-family="Times,serif" font-size="14.00" fill="#000000"> </text>
<polyline fill="none" stroke="#000000" points="395.5,-363 395.5,-478 "/>
<text text-anchor="middle" x="490.5" y="-462.8" font-family="Times,serif" font-size="14.00" fill="#000000">alternate_participant_id</text>
<polyline fill="none" stroke="#000000" points="395.5,-455 585.5,-455 "/>
<text text-anchor="middle" x="490.5" y="-439.8" font-family="Times,serif" font-size="14.00" fill="#000000">ethnicity</text>
<polyline fill="none" stroke="#000000" points="395.5,-432 585.5,-432 "/>
<text text-anchor="middle" x="490.5" y="-416.8" font-family="Times,serif" font-size="14.00" fill="#000000">gender</text>
<polyline fill="none" stroke="#000000" points="395.5,-409 585.5,-409 "/>
<text text-anchor="middle" x="490.5" y="-393.8" font-family="Times,serif" font-size="14.00" fill="#000000">participant_id</text>
<polyline fill="none" stroke="#000000" points="395.5,-386 585.5,-386 "/>
<text text-anchor="middle" x="490.5" y="-370.8" font-family="Times,serif" font-size="14.00" fill="#000000">race</text>
<polyline fill="none" stroke="#000000" points="585.5,-363 585.5,-478 "/>
<text text-anchor="middle" x="596" y="-416.8" font-family="Times,serif" font-size="14.00" fill="#000000"> </text>
</g>
<!-- study -->
<g id="node3" class="node">
<title>study</title>
<path fill="none" stroke="#000000" d="M333,-.5C333,-.5 552,-.5 552,-.5 558,-.5 564,-6.5 564,-12.5 564,-12.5 564,-218.5 564,-218.5 564,-224.5 558,-230.5 552,-230.5 552,-230.5 333,-230.5 333,-230.5 327,-230.5 321,-224.5 321,-218.5 321,-218.5 321,-12.5 321,-12.5 321,-6.5 327,-.5 333,-.5"/>
<text text-anchor="middle" x="349" y="-111.8" font-family="Times,serif" font-size="14.00" fill="#000000">study</text>
<polyline fill="none" stroke="#000000" points="377,-.5 377,-230.5 "/>
<text text-anchor="middle" x="387.5" y="-111.8" font-family="Times,serif" font-size="14.00" fill="#000000"> </text>
<polyline fill="none" stroke="#000000" points="398,-.5 398,-230.5 "/>
<text text-anchor="middle" x="470.5" y="-215.3" font-family="Times,serif" font-size="14.00" fill="#000000">acl</text>
<polyline fill="none" stroke="#000000" points="398,-207.5 543,-207.5 "/>
<text text-anchor="middle" x="470.5" y="-192.3" font-family="Times,serif" font-size="14.00" fill="#000000">consent</text>
<polyline fill="none" stroke="#000000" points="398,-184.5 543,-184.5 "/>
<text text-anchor="middle" x="470.5" y="-169.3" font-family="Times,serif" font-size="14.00" fill="#000000">consent_number</text>
<polyline fill="none" stroke="#000000" points="398,-161.5 543,-161.5 "/>
<text text-anchor="middle" x="470.5" y="-146.3" font-family="Times,serif" font-size="14.00" fill="#000000">external_url</text>
<polyline fill="none" stroke="#000000" points="398,-138.5 543,-138.5 "/>
<text text-anchor="middle" x="470.5" y="-123.3" font-family="Times,serif" font-size="14.00" fill="#000000">phs_accession</text>
<polyline fill="none" stroke="#000000" points="398,-115.5 543,-115.5 "/>
<text text-anchor="middle" x="470.5" y="-100.3" font-family="Times,serif" font-size="14.00" fill="#000000">study_acronym</text>
<polyline fill="none" stroke="#000000" points="398,-92.5 543,-92.5 "/>
<text text-anchor="middle" x="470.5" y="-77.3" font-family="Times,serif" font-size="14.00" fill="#000000">study_description</text>
<polyline fill="none" stroke="#000000" points="398,-69.5 543,-69.5 "/>
<text text-anchor="middle" x="470.5" y="-54.3" font-family="Times,serif" font-size="14.00" fill="#000000">study_id</text>
<polyline fill="none" stroke="#000000" points="398,-46.5 543,-46.5 "/>
<text text-anchor="middle" x="470.5" y="-31.3" font-family="Times,serif" font-size="14.00" fill="#000000">study_name</text>
<polyline fill="none" stroke="#000000" points="398,-23.5 543,-23.5 "/>
<text text-anchor="middle" x="470.5" y="-8.3" font-family="Times,serif" font-size="14.00" fill="#000000">study_short_title</text>
<polyline fill="none" stroke="#000000" points="543,-.5 543,-230.5 "/>
<text text-anchor="middle" x="553.5" y="-111.8" font-family="Times,serif" font-size="14.00" fill="#000000"> </text>
</g>
<!-- participant&#45;&gt;study -->
<g id="edge5" class="edge">
<title>participant&#45;&gt;study</title>
<path fill="none" stroke="#000000" d="M442.5,-362.7733C442.5,-328.3185 442.5,-283.1703 442.5,-240.8937"/>
<polygon fill="#000000" stroke="#000000" points="446.0001,-240.7883 442.5,-230.7883 439.0001,-240.7884 446.0001,-240.7883"/>
<text text-anchor="middle" x="493" y="-252.8" font-family="Times,serif" font-size="14.00" fill="#000000">of_participant</text>
</g>
<!-- sample -->
<g id="node2" class="node">
<title>sample</title>
<path fill="none" stroke="#000000" d="M12,-610.5C12,-610.5 363,-610.5 363,-610.5 369,-610.5 375,-616.5 375,-622.5 375,-622.5 375,-989.5 375,-989.5 375,-995.5 369,-1001.5 363,-1001.5 363,-1001.5 12,-1001.5 12,-1001.5 6,-1001.5 0,-995.5 0,-989.5 0,-989.5 0,-622.5 0,-622.5 0,-616.5 6,-610.5 12,-610.5"/>
<text text-anchor="middle" x="34" y="-802.3" font-family="Times,serif" font-size="14.00" fill="#000000">sample</text>
<polyline fill="none" stroke="#000000" points="68,-610.5 68,-1001.5 "/>
<text text-anchor="middle" x="78.5" y="-802.3" font-family="Times,serif" font-size="14.00" fill="#000000"> </text>
<polyline fill="none" stroke="#000000" points="89,-610.5 89,-1001.5 "/>
<text text-anchor="middle" x="221.5" y="-986.3" font-family="Times,serif" font-size="14.00" fill="#000000">age_at_last_known_disease_status</text>
<polyline fill="none" stroke="#000000" points="89,-978.5 354,-978.5 "/>
<text text-anchor="middle" x="221.5" y="-963.3" font-family="Times,serif" font-size="14.00" fill="#000000">alternate_sample_id</text>
<polyline fill="none" stroke="#000000" points="89,-955.5 354,-955.5 "/>
<text text-anchor="middle" x="221.5" y="-940.3" font-family="Times,serif" font-size="14.00" fill="#000000">anatomic_site</text>
<polyline fill="none" stroke="#000000" points="89,-932.5 354,-932.5 "/>
<text text-anchor="middle" x="221.5" y="-917.3" font-family="Times,serif" font-size="14.00" fill="#000000">diagnosis_finer_resolution</text>
<polyline fill="none" stroke="#000000" points="89,-909.5 354,-909.5 "/>
<text text-anchor="middle" x="221.5" y="-894.3" font-family="Times,serif" font-size="14.00" fill="#000000">diagnosis_icd_cm</text>
<polyline fill="none" stroke="#000000" points="89,-886.5 354,-886.5 "/>
<text text-anchor="middle" x="221.5" y="-871.3" font-family="Times,serif" font-size="14.00" fill="#000000">diagnosis_icd_o</text>
<polyline fill="none" stroke="#000000" points="89,-863.5 354,-863.5 "/>
<text text-anchor="middle" x="221.5" y="-848.3" font-family="Times,serif" font-size="14.00" fill="#000000">last_known_disease_status</text>
<polyline fill="none" stroke="#000000" points="89,-840.5 354,-840.5 "/>
<text text-anchor="middle" x="221.5" y="-825.3" font-family="Times,serif" font-size="14.00" fill="#000000">participant_age_at_collection</text>
<polyline fill="none" stroke="#000000" points="89,-817.5 354,-817.5 "/>
<text text-anchor="middle" x="221.5" y="-802.3" font-family="Times,serif" font-size="14.00" fill="#000000">sample_description</text>
<polyline fill="none" stroke="#000000" points="89,-794.5 354,-794.5 "/>
<text text-anchor="middle" x="221.5" y="-779.3" font-family="Times,serif" font-size="14.00" fill="#000000">sample_id</text>
<polyline fill="none" stroke="#000000" points="89,-771.5 354,-771.5 "/>
<text text-anchor="middle" x="221.5" y="-756.3" font-family="Times,serif" font-size="14.00" fill="#000000">sample_tumor_status</text>
<polyline fill="none" stroke="#000000" points="89,-748.5 354,-748.5 "/>
<text text-anchor="middle" x="221.5" y="-733.3" font-family="Times,serif" font-size="14.00" fill="#000000">toronto_childhood_cancer_staging</text>
<polyline fill="none" stroke="#000000" points="89,-725.5 354,-725.5 "/>
<text text-anchor="middle" x="221.5" y="-710.3" font-family="Times,serif" font-size="14.00" fill="#000000">tumor_classification</text>
<polyline fill="none" stroke="#000000" points="89,-702.5 354,-702.5 "/>
<text text-anchor="middle" x="221.5" y="-687.3" font-family="Times,serif" font-size="14.00" fill="#000000">tumor_grade</text>
<polyline fill="none" stroke="#000000" points="89,-679.5 354,-679.5 "/>
<text text-anchor="middle" x="221.5" y="-664.3" font-family="Times,serif" font-size="14.00" fill="#000000">tumor_stage_clinical_m</text>
<polyline fill="none" stroke="#000000" points="89,-656.5 354,-656.5 "/>
<text text-anchor="middle" x="221.5" y="-641.3" font-family="Times,serif" font-size="14.00" fill="#000000">tumor_stage_clinical_n</text>
<polyline fill="none" stroke="#000000" points="89,-633.5 354,-633.5 "/>
<text text-anchor="middle" x="221.5" y="-618.3" font-family="Times,serif" font-size="14.00" fill="#000000">tumor_stage_clinical_t</text>
<polyline fill="none" stroke="#000000" points="354,-610.5 354,-1001.5 "/>
<text text-anchor="middle" x="364.5" y="-802.3" font-family="Times,serif" font-size="14.00" fill="#000000"> </text>
</g>
<!-- sample&#45;&gt;participant -->
<g id="edge3" class="edge">
<title>sample&#45;&gt;participant</title>
<path fill="none" stroke="#000000" d="M316.8676,-610.4266C346.4173,-565.7545 375.8331,-521.2846 398.7645,-486.6178"/>
<polygon fill="#000000" stroke="#000000" points="401.853,-488.2926 404.4509,-478.0212 396.0147,-484.4307 401.853,-488.2926"/>
<text text-anchor="middle" x="375" y="-580.8" font-family="Times,serif" font-size="14.00" fill="#000000">of_sample</text>
</g>
<!-- sample&#45;&gt;study -->
<g id="edge4" class="edge">
<title>sample&#45;&gt;study</title>
<path fill="none" stroke="#000000" d="M149.2839,-610.2188C138.9833,-506.7328 142.8671,-381.0004 196.5,-282 221.9479,-235.0259 267.0832,-198.8044 311.8052,-172.3253"/>
<polygon fill="#000000" stroke="#000000" points="313.8339,-175.1953 320.7382,-167.1591 310.3294,-169.1357 313.8339,-175.1953"/>
<text text-anchor="middle" x="233" y="-416.8" font-family="Times,serif" font-size="14.00" fill="#000000">of_sample</text>
</g>
<!-- reference_file -->
<g id="node4" class="node">
<title>reference_file</title>
<path fill="none" stroke="#000000" d="M637,-282.5C637,-282.5 992,-282.5 992,-282.5 998,-282.5 1004,-288.5 1004,-294.5 1004,-294.5 1004,-546.5 1004,-546.5 1004,-552.5 998,-558.5 992,-558.5 992,-558.5 637,-558.5 637,-558.5 631,-558.5 625,-552.5 625,-546.5 625,-546.5 625,-294.5 625,-294.5 625,-288.5 631,-282.5 637,-282.5"/>
<text text-anchor="middle" x="683" y="-416.8" font-family="Times,serif" font-size="14.00" fill="#000000">reference_file</text>
<polyline fill="none" stroke="#000000" points="741,-282.5 741,-558.5 "/>
<text text-anchor="middle" x="751.5" y="-416.8" font-family="Times,serif" font-size="14.00" fill="#000000"> </text>
<polyline fill="none" stroke="#000000" points="762,-282.5 762,-558.5 "/>
<text text-anchor="middle" x="872.5" y="-543.3" font-family="Times,serif" font-size="14.00" fill="#000000">checksum_algorithm</text>
<polyline fill="none" stroke="#000000" points="762,-535.5 983,-535.5 "/>
<text text-anchor="middle" x="872.5" y="-520.3" font-family="Times,serif" font-size="14.00" fill="#000000">checksum_value</text>
<polyline fill="none" stroke="#000000" points="762,-512.5 983,-512.5 "/>
<text text-anchor="middle" x="872.5" y="-497.3" font-family="Times,serif" font-size="14.00" fill="#000000">dcf_indexd_guid</text>
<polyline fill="none" stroke="#000000" points="762,-489.5 983,-489.5 "/>
<text text-anchor="middle" x="872.5" y="-474.3" font-family="Times,serif" font-size="14.00" fill="#000000">file_description</text>
<polyline fill="none" stroke="#000000" points="762,-466.5 983,-466.5 "/>
<text text-anchor="middle" x="872.5" y="-451.3" font-family="Times,serif" font-size="14.00" fill="#000000">file_name</text>
<polyline fill="none" stroke="#000000" points="762,-443.5 983,-443.5 "/>
<text text-anchor="middle" x="872.5" y="-428.3" font-family="Times,serif" font-size="14.00" fill="#000000">file_size</text>
<polyline fill="none" stroke="#000000" points="762,-420.5 983,-420.5 "/>
<text text-anchor="middle" x="872.5" y="-405.3" font-family="Times,serif" font-size="14.00" fill="#000000">file_type</text>
<polyline fill="none" stroke="#000000" points="762,-397.5 983,-397.5 "/>
<text text-anchor="middle" x="872.5" y="-382.3" font-family="Times,serif" font-size="14.00" fill="#000000">mapping_documentation_url</text>
<polyline fill="none" stroke="#000000" points="762,-374.5 983,-374.5 "/>
<text text-anchor="middle" x="872.5" y="-359.3" font-family="Times,serif" font-size="14.00" fill="#000000">md5sum</text>
<polyline fill="none" stroke="#000000" points="762,-351.5 983,-351.5 "/>
<text text-anchor="middle" x="872.5" y="-336.3" font-family="Times,serif" font-size="14.00" fill="#000000">reference_file_id</text>
<polyline fill="none" stroke="#000000" points="762,-328.5 983,-328.5 "/>
<text text-anchor="middle" x="872.5" y="-313.3" font-family="Times,serif" font-size="14.00" fill="#000000">source_code_url</text>
<polyline fill="none" stroke="#000000" points="762,-305.5 983,-305.5 "/>
<text text-anchor="middle" x="872.5" y="-290.3" font-family="Times,serif" font-size="14.00" fill="#000000">source_file_url</text>
<polyline fill="none" stroke="#000000" points="983,-282.5 983,-558.5 "/>
<text text-anchor="middle" x="993.5" y="-416.8" font-family="Times,serif" font-size="14.00" fill="#000000"> </text>
</g>
<!-- reference_file&#45;&gt;study -->
<g id="edge1" class="edge">
<title>reference_file&#45;&gt;study</title>
<path fill="none" stroke="#000000" d="M645.9148,-282.2783C621.1302,-261.9576 595.9295,-241.2957 572.0939,-221.753"/>
<polygon fill="#000000" stroke="#000000" points="574.0176,-218.8043 564.0654,-215.1705 569.5794,-224.2175 574.0176,-218.8043"/>
<text text-anchor="middle" x="677" y="-252.8" font-family="Times,serif" font-size="14.00" fill="#000000">of_reference_file</text>
</g>
<!-- diagnosis -->
<g id="node5" class="node">
<title>diagnosis</title>
<path fill="none" stroke="#000000" d="M405,-633.5C405,-633.5 772,-633.5 772,-633.5 778,-633.5 784,-639.5 784,-645.5 784,-645.5 784,-966.5 784,-966.5 784,-972.5 778,-978.5 772,-978.5 772,-978.5 405,-978.5 405,-978.5 399,-978.5 393,-972.5 393,-966.5 393,-966.5 393,-645.5 393,-645.5 393,-639.5 399,-633.5 405,-633.5"/>
<text text-anchor="middle" x="435" y="-802.3" font-family="Times,serif" font-size="14.00" fill="#000000">diagnosis</text>
<polyline fill="none" stroke="#000000" points="477,-633.5 477,-978.5 "/>
<text text-anchor="middle" x="487.5" y="-802.3" font-family="Times,serif" font-size="14.00" fill="#000000"> </text>
<polyline fill="none" stroke="#000000" points="498,-633.5 498,-978.5 "/>
<text text-anchor="middle" x="630.5" y="-963.3" font-family="Times,serif" font-size="14.00" fill="#000000">age_at_diagnosis</text>
<polyline fill="none" stroke="#000000" points="498,-955.5 763,-955.5 "/>
<text text-anchor="middle" x="630.5" y="-940.3" font-family="Times,serif" font-size="14.00" fill="#000000">age_at_last_known_disease_status</text>
<polyline fill="none" stroke="#000000" points="498,-932.5 763,-932.5 "/>
<text text-anchor="middle" x="630.5" y="-917.3" font-family="Times,serif" font-size="14.00" fill="#000000">age_at_recurrence</text>
<polyline fill="none" stroke="#000000" points="498,-909.5 763,-909.5 "/>
<text text-anchor="middle" x="630.5" y="-894.3" font-family="Times,serif" font-size="14.00" fill="#000000">anatomic_site</text>
<polyline fill="none" stroke="#000000" points="498,-886.5 763,-886.5 "/>
<text text-anchor="middle" x="630.5" y="-871.3" font-family="Times,serif" font-size="14.00" fill="#000000">diagnosis_finer_resolution</text>
<polyline fill="none" stroke="#000000" points="498,-863.5 763,-863.5 "/>
<text text-anchor="middle" x="630.5" y="-848.3" font-family="Times,serif" font-size="14.00" fill="#000000">diagnosis_icd_cm</text>
<polyline fill="none" stroke="#000000" points="498,-840.5 763,-840.5 "/>
<text text-anchor="middle" x="630.5" y="-825.3" font-family="Times,serif" font-size="14.00" fill="#000000">diagnosis_icd_o</text>
<polyline fill="none" stroke="#000000" points="498,-817.5 763,-817.5 "/>
<text text-anchor="middle" x="630.5" y="-802.3" font-family="Times,serif" font-size="14.00" fill="#000000">diagnosis_id</text>
<polyline fill="none" stroke="#000000" points="498,-794.5 763,-794.5 "/>
<text text-anchor="middle" x="630.5" y="-779.3" font-family="Times,serif" font-size="14.00" fill="#000000">disease_phase</text>
<polyline fill="none" stroke="#000000" points="498,-771.5 763,-771.5 "/>
<text text-anchor="middle" x="630.5" y="-756.3" font-family="Times,serif" font-size="14.00" fill="#000000">last_known_disease_status</text>
<polyline fill="none" stroke="#000000" points="498,-748.5 763,-748.5 "/>
<text text-anchor="middle" x="630.5" y="-733.3" font-family="Times,serif" font-size="14.00" fill="#000000">toronto_childhood_cancer_staging</text>
<polyline fill="none" stroke="#000000" points="498,-725.5 763,-725.5 "/>
<text text-anchor="middle" x="630.5" y="-710.3" font-family="Times,serif" font-size="14.00" fill="#000000">tumor_grade</text>
<polyline fill="none" stroke="#000000" points="498,-702.5 763,-702.5 "/>
<text text-anchor="middle" x="630.5" y="-687.3" font-family="Times,serif" font-size="14.00" fill="#000000">tumor_stage_clinical_m</text>
<polyline fill="none" stroke="#000000" points="498,-679.5 763,-679.5 "/>
<text text-anchor="middle" x="630.5" y="-664.3" font-family="Times,serif" font-size="14.00" fill="#000000">tumor_stage_clinical_n</text>
<polyline fill="none" stroke="#000000" points="498,-656.5 763,-656.5 "/>
<text text-anchor="middle" x="630.5" y="-641.3" font-family="Times,serif" font-size="14.00" fill="#000000">tumor_stage_clinical_t</text>
<polyline fill="none" stroke="#000000" points="763,-633.5 763,-978.5 "/>
<text text-anchor="middle" x="773.5" y="-802.3" font-family="Times,serif" font-size="14.00" fill="#000000"> </text>
</g>
<!-- diagnosis&#45;&gt;participant -->
<g id="edge2" class="edge">
<title>diagnosis&#45;&gt;participant</title>
<path fill="none" stroke="#000000" d="M523.0801,-633.2646C503.5548,-581.7099 483.2983,-528.2244 467.9793,-487.7759"/>
<polygon fill="#000000" stroke="#000000" points="471.2081,-486.419 464.3931,-478.3069 464.6619,-488.8983 471.2081,-486.419"/>
<text text-anchor="middle" x="552" y="-580.8" font-family="Times,serif" font-size="14.00" fill="#000000">of_diagnosis</text>
</g>
</g>
</svg>
