<svg width="2350pt" height="1528pt"
 viewBox="0.00 0.00 2349.50 1528.00" xmlns="http://www.w3.org/2000/svg" xmlns:xlink="http://www.w3.org/1999/xlink">
<g id="graph0" class="graph" transform="scale(1 1) rotate(0) translate(4 1524)">
<title>Perl</title>
<polygon fill="#ffffff" stroke="transparent" points="-4,4 -4,-1524 2345.5,-1524 2345.5,4 -4,4"/>
<!-- genetic_analysis -->
<g id="node1" class="node">
<title>genetic_analysis</title>
<path fill="none" stroke="#000000" d="M1901.5,-921.5C1901.5,-921.5 2285.5,-921.5 2285.5,-921.5 2291.5,-921.5 2297.5,-927.5 2297.5,-933.5 2297.5,-933.5 2297.5,-1507.5 2297.5,-1507.5 2297.5,-1513.5 2291.5,-1519.5 2285.5,-1519.5 2285.5,-1519.5 1901.5,-1519.5 1901.5,-1519.5 1895.5,-1519.5 1889.5,-1513.5 1889.5,-1507.5 1889.5,-1507.5 1889.5,-933.5 1889.5,-933.5 1889.5,-927.5 1895.5,-921.5 1901.5,-921.5"/>
<text text-anchor="middle" x="1957" y="-1216.8" font-family="Times,serif" font-size="14.00" fill="#000000">genetic_analysis</text>
<polyline fill="none" stroke="#000000" points="2024.5,-921.5 2024.5,-1519.5 "/>
<text text-anchor="middle" x="2035" y="-1216.8" font-family="Times,serif" font-size="14.00" fill="#000000"> </text>
<polyline fill="none" stroke="#000000" points="2045.5,-921.5 2045.5,-1519.5 "/>
<text text-anchor="middle" x="2161" y="-1504.3" font-family="Times,serif" font-size="14.00" fill="#000000">age_at_genetic_analysis</text>
<polyline fill="none" stroke="#000000" points="2045.5,-1496.5 2276.5,-1496.5 "/>
<text text-anchor="middle" x="2161" y="-1481.3" font-family="Times,serif" font-size="14.00" fill="#000000">allelic_ratio</text>
<polyline fill="none" stroke="#000000" points="2045.5,-1473.5 2276.5,-1473.5 "/>
<text text-anchor="middle" x="2161" y="-1458.3" font-family="Times,serif" font-size="14.00" fill="#000000">alteration</text>
<polyline fill="none" stroke="#000000" points="2045.5,-1450.5 2276.5,-1450.5 "/>
<text text-anchor="middle" x="2161" y="-1435.3" font-family="Times,serif" font-size="14.00" fill="#000000">alteration_effect</text>
<polyline fill="none" stroke="#000000" points="2045.5,-1427.5 2276.5,-1427.5 "/>
<text text-anchor="middle" x="2161" y="-1412.3" font-family="Times,serif" font-size="14.00" fill="#000000">alteration_type</text>
<polyline fill="none" stroke="#000000" points="2045.5,-1404.5 2276.5,-1404.5 "/>
<text text-anchor="middle" x="2161" y="-1389.3" font-family="Times,serif" font-size="14.00" fill="#000000">chromosome</text>
<polyline fill="none" stroke="#000000" points="2045.5,-1381.5 2276.5,-1381.5 "/>
<text text-anchor="middle" x="2161" y="-1366.3" font-family="Times,serif" font-size="14.00" fill="#000000">cytoband</text>
<polyline fill="none" stroke="#000000" points="2045.5,-1358.5 2276.5,-1358.5 "/>
<text text-anchor="middle" x="2161" y="-1343.3" font-family="Times,serif" font-size="14.00" fill="#000000">dna_index_numeric</text>
<polyline fill="none" stroke="#000000" points="2045.5,-1335.5 2276.5,-1335.5 "/>
<text text-anchor="middle" x="2161" y="-1320.3" font-family="Times,serif" font-size="14.00" fill="#000000">exon</text>
<polyline fill="none" stroke="#000000" points="2045.5,-1312.5 2276.5,-1312.5 "/>
<text text-anchor="middle" x="2161" y="-1297.3" font-family="Times,serif" font-size="14.00" fill="#000000">fusion_partner_exon</text>
<polyline fill="none" stroke="#000000" points="2045.5,-1289.5 2276.5,-1289.5 "/>
<text text-anchor="middle" x="2161" y="-1274.3" font-family="Times,serif" font-size="14.00" fill="#000000">fusion_partner_gene</text>
<polyline fill="none" stroke="#000000" points="2045.5,-1266.5 2276.5,-1266.5 "/>
<text text-anchor="middle" x="2161" y="-1251.3" font-family="Times,serif" font-size="14.00" fill="#000000">fusion_partner_transcript</text>
<polyline fill="none" stroke="#000000" points="2045.5,-1243.5 2276.5,-1243.5 "/>
<text text-anchor="middle" x="2161" y="-1228.3" font-family="Times,serif" font-size="14.00" fill="#000000">gene_symbol</text>
<polyline fill="none" stroke="#000000" points="2045.5,-1220.5 2276.5,-1220.5 "/>
<text text-anchor="middle" x="2161" y="-1205.3" font-family="Times,serif" font-size="14.00" fill="#000000">genetic_analysis_id</text>
<polyline fill="none" stroke="#000000" points="2045.5,-1197.5 2276.5,-1197.5 "/>
<text text-anchor="middle" x="2161" y="-1182.3" font-family="Times,serif" font-size="14.00" fill="#000000">genomic_source_category</text>
<polyline fill="none" stroke="#000000" points="2045.5,-1174.5 2276.5,-1174.5 "/>
<text text-anchor="middle" x="2161" y="-1159.3" font-family="Times,serif" font-size="14.00" fill="#000000">hgvs_coding</text>
<polyline fill="none" stroke="#000000" points="2045.5,-1151.5 2276.5,-1151.5 "/>
<text text-anchor="middle" x="2161" y="-1136.3" font-family="Times,serif" font-size="14.00" fill="#000000">hgvs_genome</text>
<polyline fill="none" stroke="#000000" points="2045.5,-1128.5 2276.5,-1128.5 "/>
<text text-anchor="middle" x="2161" y="-1113.3" font-family="Times,serif" font-size="14.00" fill="#000000">hgvs_protein</text>
<polyline fill="none" stroke="#000000" points="2045.5,-1105.5 2276.5,-1105.5 "/>
<text text-anchor="middle" x="2161" y="-1090.3" font-family="Times,serif" font-size="14.00" fill="#000000">id</text>
<polyline fill="none" stroke="#000000" points="2045.5,-1082.5 2276.5,-1082.5 "/>
<text text-anchor="middle" x="2161" y="-1067.3" font-family="Times,serif" font-size="14.00" fill="#000000">iscn</text>
<polyline fill="none" stroke="#000000" points="2045.5,-1059.5 2276.5,-1059.5 "/>
<text text-anchor="middle" x="2161" y="-1044.3" font-family="Times,serif" font-size="14.00" fill="#000000">method</text>
<polyline fill="none" stroke="#000000" points="2045.5,-1036.5 2276.5,-1036.5 "/>
<text text-anchor="middle" x="2161" y="-1021.3" font-family="Times,serif" font-size="14.00" fill="#000000">reference_genome</text>
<polyline fill="none" stroke="#000000" points="2045.5,-1013.5 2276.5,-1013.5 "/>
<text text-anchor="middle" x="2161" y="-998.3" font-family="Times,serif" font-size="14.00" fill="#000000">reported_significance</text>
<polyline fill="none" stroke="#000000" points="2045.5,-990.5 2276.5,-990.5 "/>
<text text-anchor="middle" x="2161" y="-975.3" font-family="Times,serif" font-size="14.00" fill="#000000">reported_significance_system</text>
<polyline fill="none" stroke="#000000" points="2045.5,-967.5 2276.5,-967.5 "/>
<text text-anchor="middle" x="2161" y="-952.3" font-family="Times,serif" font-size="14.00" fill="#000000">result</text>
<polyline fill="none" stroke="#000000" points="2045.5,-944.5 2276.5,-944.5 "/>
<text text-anchor="middle" x="2161" y="-929.3" font-family="Times,serif" font-size="14.00" fill="#000000">+ 6 properties</text>
<polyline fill="none" stroke="#000000" points="2276.5,-921.5 2276.5,-1519.5 "/>
<text text-anchor="middle" x="2287" y="-1216.8" font-family="Times,serif" font-size="14.00" fill="#000000"> </text>
</g>
<!-- participant -->
<g id="node3" class="node">
<title>participant</title>
<path fill="none" stroke="#000000" d="M866,-495.5C866,-495.5 1097,-495.5 1097,-495.5 1103,-495.5 1109,-501.5 1109,-507.5 1109,-507.5 1109,-575.5 1109,-575.5 1109,-581.5 1103,-587.5 1097,-587.5 1097,-587.5 866,-587.5 866,-587.5 860,-587.5 854,-581.5 854,-575.5 854,-575.5 854,-507.5 854,-507.5 854,-501.5 860,-495.5 866,-495.5"/>
<text text-anchor="middle" x="902" y="-537.8" font-family="Times,serif" font-size="14.00" fill="#000000">participant</text>
<polyline fill="none" stroke="#000000" points="950,-495.5 950,-587.5 "/>
<text text-anchor="middle" x="960.5" y="-537.8" font-family="Times,serif" font-size="14.00" fill="#000000"> </text>
<polyline fill="none" stroke="#000000" points="971,-495.5 971,-587.5 "/>
<text text-anchor="middle" x="1029.5" y="-572.3" font-family="Times,serif" font-size="14.00" fill="#000000">id</text>
<polyline fill="none" stroke="#000000" points="971,-564.5 1088,-564.5 "/>
<text text-anchor="middle" x="1029.5" y="-549.3" font-family="Times,serif" font-size="14.00" fill="#000000">participant_id</text>
<polyline fill="none" stroke="#000000" points="971,-541.5 1088,-541.5 "/>
<text text-anchor="middle" x="1029.5" y="-526.3" font-family="Times,serif" font-size="14.00" fill="#000000">race</text>
<polyline fill="none" stroke="#000000" points="971,-518.5 1088,-518.5 "/>
<text text-anchor="middle" x="1029.5" y="-503.3" font-family="Times,serif" font-size="14.00" fill="#000000">sex_at_birth</text>
<polyline fill="none" stroke="#000000" points="1088,-495.5 1088,-587.5 "/>
<text text-anchor="middle" x="1098.5" y="-537.8" font-family="Times,serif" font-size="14.00" fill="#000000"> </text>
</g>
<!-- genetic_analysis&#45;&gt;participant -->
<g id="edge2" class="edge">
<title>genetic_analysis&#45;&gt;participant</title>
<path fill="none" stroke="#000000" d="M2195.6987,-921.1778C2210.6296,-821.0588 2202.7079,-715.5776 2136.5,-639 2071.119,-563.3789 1411.3695,-546.4096 1119.3357,-542.6017"/>
<polygon fill="#000000" stroke="#000000" points="1119.1476,-539.0991 1109.1039,-542.4717 1119.0586,-546.0985 1119.1476,-539.0991"/>
<text text-anchor="middle" x="2271.5" y="-750.8" font-family="Times,serif" font-size="14.00" fill="#000000">of_genetic_analysis</text>
</g>
<!-- sample -->
<g id="node7" class="node">
<title>sample</title>
<path fill="none" stroke="#000000" d="M479.5,-651C479.5,-651 793.5,-651 793.5,-651 799.5,-651 805.5,-657 805.5,-663 805.5,-663 805.5,-846 805.5,-846 805.5,-852 799.5,-858 793.5,-858 793.5,-858 479.5,-858 479.5,-858 473.5,-858 467.5,-852 467.5,-846 467.5,-846 467.5,-663 467.5,-663 467.5,-657 473.5,-651 479.5,-651"/>
<text text-anchor="middle" x="501.5" y="-750.8" font-family="Times,serif" font-size="14.00" fill="#000000">sample</text>
<polyline fill="none" stroke="#000000" points="535.5,-651 535.5,-858 "/>
<text text-anchor="middle" x="546" y="-750.8" font-family="Times,serif" font-size="14.00" fill="#000000"> </text>
<polyline fill="none" stroke="#000000" points="556.5,-651 556.5,-858 "/>
<text text-anchor="middle" x="670.5" y="-842.8" font-family="Times,serif" font-size="14.00" fill="#000000">anatomic_site</text>
<polyline fill="none" stroke="#000000" points="556.5,-835 784.5,-835 "/>
<text text-anchor="middle" x="670.5" y="-819.8" font-family="Times,serif" font-size="14.00" fill="#000000">id</text>
<polyline fill="none" stroke="#000000" points="556.5,-812 784.5,-812 "/>
<text text-anchor="middle" x="670.5" y="-796.8" font-family="Times,serif" font-size="14.00" fill="#000000">participant_age_at_collection</text>
<polyline fill="none" stroke="#000000" points="556.5,-789 784.5,-789 "/>
<text text-anchor="middle" x="670.5" y="-773.8" font-family="Times,serif" font-size="14.00" fill="#000000">percent_necrosis</text>
<polyline fill="none" stroke="#000000" points="556.5,-766 784.5,-766 "/>
<text text-anchor="middle" x="670.5" y="-750.8" font-family="Times,serif" font-size="14.00" fill="#000000">percent_tumor</text>
<polyline fill="none" stroke="#000000" points="556.5,-743 784.5,-743 "/>
<text text-anchor="middle" x="670.5" y="-727.8" font-family="Times,serif" font-size="14.00" fill="#000000">sample_description</text>
<polyline fill="none" stroke="#000000" points="556.5,-720 784.5,-720 "/>
<text text-anchor="middle" x="670.5" y="-704.8" font-family="Times,serif" font-size="14.00" fill="#000000">sample_id</text>
<polyline fill="none" stroke="#000000" points="556.5,-697 784.5,-697 "/>
<text text-anchor="middle" x="670.5" y="-681.8" font-family="Times,serif" font-size="14.00" fill="#000000">sample_tumor_status</text>
<polyline fill="none" stroke="#000000" points="556.5,-674 784.5,-674 "/>
<text text-anchor="middle" x="670.5" y="-658.8" font-family="Times,serif" font-size="14.00" fill="#000000">tumor_classification</text>
<polyline fill="none" stroke="#000000" points="784.5,-651 784.5,-858 "/>
<text text-anchor="middle" x="795" y="-750.8" font-family="Times,serif" font-size="14.00" fill="#000000"> </text>
</g>
<!-- genetic_analysis&#45;&gt;sample -->
<g id="edge3" class="edge">
<title>genetic_analysis&#45;&gt;sample</title>
<path fill="none" stroke="#000000" d="M1889.3328,-1109.4793C1757.2608,-1043.0777 1579.4216,-963.5699 1412.5,-921 1347.8826,-904.5207 877.5803,-891.6299 814.5,-870 807.7321,-867.6793 800.9666,-865.046 794.2421,-862.1608"/>
<polygon fill="#000000" stroke="#000000" points="795.6592,-858.9605 785.1013,-858.076 792.8032,-865.3514 795.6592,-858.9605"/>
<text text-anchor="middle" x="1262.5" y="-891.8" font-family="Times,serif" font-size="14.00" fill="#000000">of_genetic_analysis</text>
</g>
<!-- laboratory_test -->
<g id="node2" class="node">
<title>laboratory_test</title>
<path fill="none" stroke="#000000" d="M1059.5,-1094C1059.5,-1094 1391.5,-1094 1391.5,-1094 1397.5,-1094 1403.5,-1100 1403.5,-1106 1403.5,-1106 1403.5,-1335 1403.5,-1335 1403.5,-1341 1397.5,-1347 1391.5,-1347 1391.5,-1347 1059.5,-1347 1059.5,-1347 1053.5,-1347 1047.5,-1341 1047.5,-1335 1047.5,-1335 1047.5,-1106 1047.5,-1106 1047.5,-1100 1053.5,-1094 1059.5,-1094"/>
<text text-anchor="middle" x="1110.5" y="-1216.8" font-family="Times,serif" font-size="14.00" fill="#000000">laboratory_test</text>
<polyline fill="none" stroke="#000000" points="1173.5,-1094 1173.5,-1347 "/>
<text text-anchor="middle" x="1184" y="-1216.8" font-family="Times,serif" font-size="14.00" fill="#000000"> </text>
<polyline fill="none" stroke="#000000" points="1194.5,-1094 1194.5,-1347 "/>
<text text-anchor="middle" x="1288.5" y="-1331.8" font-family="Times,serif" font-size="14.00" fill="#000000">age_at_laboratory_test</text>
<polyline fill="none" stroke="#000000" points="1194.5,-1324 1382.5,-1324 "/>
<text text-anchor="middle" x="1288.5" y="-1308.8" font-family="Times,serif" font-size="14.00" fill="#000000">id</text>
<polyline fill="none" stroke="#000000" points="1194.5,-1301 1382.5,-1301 "/>
<text text-anchor="middle" x="1288.5" y="-1285.8" font-family="Times,serif" font-size="14.00" fill="#000000">laboratory_test_id</text>
<polyline fill="none" stroke="#000000" points="1194.5,-1278 1382.5,-1278 "/>
<text text-anchor="middle" x="1288.5" y="-1262.8" font-family="Times,serif" font-size="14.00" fill="#000000">laboratory_test_method</text>
<polyline fill="none" stroke="#000000" points="1194.5,-1255 1382.5,-1255 "/>
<text text-anchor="middle" x="1288.5" y="-1239.8" font-family="Times,serif" font-size="14.00" fill="#000000">laboratory_test_name</text>
<polyline fill="none" stroke="#000000" points="1194.5,-1232 1382.5,-1232 "/>
<text text-anchor="middle" x="1288.5" y="-1216.8" font-family="Times,serif" font-size="14.00" fill="#000000">sensitivity</text>
<polyline fill="none" stroke="#000000" points="1194.5,-1209 1382.5,-1209 "/>
<text text-anchor="middle" x="1288.5" y="-1193.8" font-family="Times,serif" font-size="14.00" fill="#000000">specimen</text>
<polyline fill="none" stroke="#000000" points="1194.5,-1186 1382.5,-1186 "/>
<text text-anchor="middle" x="1288.5" y="-1170.8" font-family="Times,serif" font-size="14.00" fill="#000000">test_result_modifier</text>
<polyline fill="none" stroke="#000000" points="1194.5,-1163 1382.5,-1163 "/>
<text text-anchor="middle" x="1288.5" y="-1147.8" font-family="Times,serif" font-size="14.00" fill="#000000">test_result_numeric</text>
<polyline fill="none" stroke="#000000" points="1194.5,-1140 1382.5,-1140 "/>
<text text-anchor="middle" x="1288.5" y="-1124.8" font-family="Times,serif" font-size="14.00" fill="#000000">test_result_text</text>
<polyline fill="none" stroke="#000000" points="1194.5,-1117 1382.5,-1117 "/>
<text text-anchor="middle" x="1288.5" y="-1101.8" font-family="Times,serif" font-size="14.00" fill="#000000">test_result_unit</text>
<polyline fill="none" stroke="#000000" points="1382.5,-1094 1382.5,-1347 "/>
<text text-anchor="middle" x="1393" y="-1216.8" font-family="Times,serif" font-size="14.00" fill="#000000"> </text>
</g>
<!-- laboratory_test&#45;&gt;participant -->
<g id="edge14" class="edge">
<title>laboratory_test&#45;&gt;participant</title>
<path fill="none" stroke="#000000" d="M1403.5919,-1140.7329C1614.4606,-1045.4454 1939.3803,-895.6211 1955.5,-870 2010.1727,-783.1016 2024.386,-715.126 1955.5,-639 1900.4694,-578.1857 1374.5738,-553.6469 1119.2513,-545.2557"/>
<polygon fill="#000000" stroke="#000000" points="1119.2733,-541.7546 1109.1648,-544.9279 1119.0459,-548.7509 1119.2733,-541.7546"/>
<text text-anchor="middle" x="2067" y="-750.8" font-family="Times,serif" font-size="14.00" fill="#000000">of_laboratory_test</text>
</g>
<!-- laboratory_test&#45;&gt;sample -->
<g id="edge15" class="edge">
<title>laboratory_test&#45;&gt;sample</title>
<path fill="none" stroke="#000000" d="M1065.3312,-1093.779C974.6527,-1022.0367 862.3497,-933.1859 775.4178,-864.4078"/>
<polygon fill="#000000" stroke="#000000" points="777.3657,-861.486 767.3517,-858.0262 773.0225,-866.9757 777.3657,-861.486"/>
<text text-anchor="middle" x="877" y="-891.8" font-family="Times,serif" font-size="14.00" fill="#000000">of_laboratory_test</text>
</g>
<!-- consent_group -->
<g id="node4" class="node">
<title>consent_group</title>
<path fill="none" stroke="#000000" d="M708,-271C708,-271 1033,-271 1033,-271 1039,-271 1045,-277 1045,-283 1045,-283 1045,-374 1045,-374 1045,-380 1039,-386 1033,-386 1033,-386 708,-386 708,-386 702,-386 696,-380 696,-374 696,-374 696,-283 696,-283 696,-277 702,-271 708,-271"/>
<text text-anchor="middle" x="757" y="-324.8" font-family="Times,serif" font-size="14.00" fill="#000000">consent_group</text>
<polyline fill="none" stroke="#000000" points="818,-271 818,-386 "/>
<text text-anchor="middle" x="828.5" y="-324.8" font-family="Times,serif" font-size="14.00" fill="#000000"> </text>
<polyline fill="none" stroke="#000000" points="839,-271 839,-386 "/>
<text text-anchor="middle" x="931.5" y="-370.8" font-family="Times,serif" font-size="14.00" fill="#000000">consent_group_id</text>
<polyline fill="none" stroke="#000000" points="839,-363 1024,-363 "/>
<text text-anchor="middle" x="931.5" y="-347.8" font-family="Times,serif" font-size="14.00" fill="#000000">consent_group_name</text>
<polyline fill="none" stroke="#000000" points="839,-340 1024,-340 "/>
<text text-anchor="middle" x="931.5" y="-324.8" font-family="Times,serif" font-size="14.00" fill="#000000">consent_group_number</text>
<polyline fill="none" stroke="#000000" points="839,-317 1024,-317 "/>
<text text-anchor="middle" x="931.5" y="-301.8" font-family="Times,serif" font-size="14.00" fill="#000000">consent_group_suffix</text>
<polyline fill="none" stroke="#000000" points="839,-294 1024,-294 "/>
<text text-anchor="middle" x="931.5" y="-278.8" font-family="Times,serif" font-size="14.00" fill="#000000">id</text>
<polyline fill="none" stroke="#000000" points="1024,-271 1024,-386 "/>
<text text-anchor="middle" x="1034.5" y="-324.8" font-family="Times,serif" font-size="14.00" fill="#000000"> </text>
</g>
<!-- participant&#45;&gt;consent_group -->
<g id="edge1" class="edge">
<title>participant&#45;&gt;consent_group</title>
<path fill="none" stroke="#000000" d="M957.4147,-495.2822C942.1447,-465.9804 922.1441,-427.6009 905.1791,-395.0464"/>
<polygon fill="#000000" stroke="#000000" points="908.2063,-393.2818 900.4811,-386.0312 901.9987,-396.5168 908.2063,-393.2818"/>
<text text-anchor="middle" x="997" y="-465.8" font-family="Times,serif" font-size="14.00" fill="#000000">of_participant</text>
</g>
<!-- study -->
<g id="node10" class="node">
<title>study</title>
<path fill="none" stroke="#000000" d="M302,-.5C302,-.5 521,-.5 521,-.5 527,-.5 533,-6.5 533,-12.5 533,-12.5 533,-149.5 533,-149.5 533,-155.5 527,-161.5 521,-161.5 521,-161.5 302,-161.5 302,-161.5 296,-161.5 290,-155.5 290,-149.5 290,-149.5 290,-12.5 290,-12.5 290,-6.5 296,-.5 302,-.5"/>
<text text-anchor="middle" x="318" y="-77.3" font-family="Times,serif" font-size="14.00" fill="#000000">study</text>
<polyline fill="none" stroke="#000000" points="346,-.5 346,-161.5 "/>
<text text-anchor="middle" x="356.5" y="-77.3" font-family="Times,serif" font-size="14.00" fill="#000000"> </text>
<polyline fill="none" stroke="#000000" points="367,-.5 367,-161.5 "/>
<text text-anchor="middle" x="439.5" y="-146.3" font-family="Times,serif" font-size="14.00" fill="#000000">dbgap_accession</text>
<polyline fill="none" stroke="#000000" points="367,-138.5 512,-138.5 "/>
<text text-anchor="middle" x="439.5" y="-123.3" font-family="Times,serif" font-size="14.00" fill="#000000">external_url</text>
<polyline fill="none" stroke="#000000" points="367,-115.5 512,-115.5 "/>
<text text-anchor="middle" x="439.5" y="-100.3" font-family="Times,serif" font-size="14.00" fill="#000000">id</text>
<polyline fill="none" stroke="#000000" points="367,-92.5 512,-92.5 "/>
<text text-anchor="middle" x="439.5" y="-77.3" font-family="Times,serif" font-size="14.00" fill="#000000">study_description</text>
<polyline fill="none" stroke="#000000" points="367,-69.5 512,-69.5 "/>
<text text-anchor="middle" x="439.5" y="-54.3" font-family="Times,serif" font-size="14.00" fill="#000000">study_id</text>
<polyline fill="none" stroke="#000000" points="367,-46.5 512,-46.5 "/>
<text text-anchor="middle" x="439.5" y="-31.3" font-family="Times,serif" font-size="14.00" fill="#000000">study_name</text>
<polyline fill="none" stroke="#000000" points="367,-23.5 512,-23.5 "/>
<text text-anchor="middle" x="439.5" y="-8.3" font-family="Times,serif" font-size="14.00" fill="#000000">study_status</text>
<polyline fill="none" stroke="#000000" points="512,-.5 512,-161.5 "/>
<text text-anchor="middle" x="522.5" y="-77.3" font-family="Times,serif" font-size="14.00" fill="#000000"> </text>
</g>
<!-- consent_group&#45;&gt;study -->
<g id="edge6" class="edge">
<title>consent_group&#45;&gt;study</title>
<path fill="none" stroke="#000000" d="M763.7535,-270.9406C697.5854,-235.2617 612.1271,-189.1813 541.9551,-151.3435"/>
<polygon fill="#000000" stroke="#000000" points="543.5011,-148.2007 533.038,-146.5352 540.1788,-154.3621 543.5011,-148.2007"/>
<text text-anchor="middle" x="678" y="-183.8" font-family="Times,serif" font-size="14.00" fill="#000000">of_consent_group</text>
</g>
<!-- reference_file -->
<g id="node5" class="node">
<title>reference_file</title>
<path fill="none" stroke="#000000" d="M273,-213.5C273,-213.5 550,-213.5 550,-213.5 556,-213.5 562,-219.5 562,-225.5 562,-225.5 562,-431.5 562,-431.5 562,-437.5 556,-443.5 550,-443.5 550,-443.5 273,-443.5 273,-443.5 267,-443.5 261,-437.5 261,-431.5 261,-431.5 261,-225.5 261,-225.5 261,-219.5 267,-213.5 273,-213.5"/>
<text text-anchor="middle" x="319" y="-324.8" font-family="Times,serif" font-size="14.00" fill="#000000">reference_file</text>
<polyline fill="none" stroke="#000000" points="377,-213.5 377,-443.5 "/>
<text text-anchor="middle" x="387.5" y="-324.8" font-family="Times,serif" font-size="14.00" fill="#000000"> </text>
<polyline fill="none" stroke="#000000" points="398,-213.5 398,-443.5 "/>
<text text-anchor="middle" x="469.5" y="-428.3" font-family="Times,serif" font-size="14.00" fill="#000000">dcf_indexd_guid</text>
<polyline fill="none" stroke="#000000" points="398,-420.5 541,-420.5 "/>
<text text-anchor="middle" x="469.5" y="-405.3" font-family="Times,serif" font-size="14.00" fill="#000000">file_category</text>
<polyline fill="none" stroke="#000000" points="398,-397.5 541,-397.5 "/>
<text text-anchor="middle" x="469.5" y="-382.3" font-family="Times,serif" font-size="14.00" fill="#000000">file_description</text>
<polyline fill="none" stroke="#000000" points="398,-374.5 541,-374.5 "/>
<text text-anchor="middle" x="469.5" y="-359.3" font-family="Times,serif" font-size="14.00" fill="#000000">file_name</text>
<polyline fill="none" stroke="#000000" points="398,-351.5 541,-351.5 "/>
<text text-anchor="middle" x="469.5" y="-336.3" font-family="Times,serif" font-size="14.00" fill="#000000">file_size</text>
<polyline fill="none" stroke="#000000" points="398,-328.5 541,-328.5 "/>
<text text-anchor="middle" x="469.5" y="-313.3" font-family="Times,serif" font-size="14.00" fill="#000000">file_type</text>
<polyline fill="none" stroke="#000000" points="398,-305.5 541,-305.5 "/>
<text text-anchor="middle" x="469.5" y="-290.3" font-family="Times,serif" font-size="14.00" fill="#000000">id</text>
<polyline fill="none" stroke="#000000" points="398,-282.5 541,-282.5 "/>
<text text-anchor="middle" x="469.5" y="-267.3" font-family="Times,serif" font-size="14.00" fill="#000000">md5sum</text>
<polyline fill="none" stroke="#000000" points="398,-259.5 541,-259.5 "/>
<text text-anchor="middle" x="469.5" y="-244.3" font-family="Times,serif" font-size="14.00" fill="#000000">reference_file_id</text>
<polyline fill="none" stroke="#000000" points="398,-236.5 541,-236.5 "/>
<text text-anchor="middle" x="469.5" y="-221.3" font-family="Times,serif" font-size="14.00" fill="#000000">reference_file_url</text>
<polyline fill="none" stroke="#000000" points="541,-213.5 541,-443.5 "/>
<text text-anchor="middle" x="551.5" y="-324.8" font-family="Times,serif" font-size="14.00" fill="#000000"> </text>
</g>
<!-- reference_file&#45;&gt;study -->
<g id="edge5" class="edge">
<title>reference_file&#45;&gt;study</title>
<path fill="none" stroke="#000000" d="M411.5,-213.4448C411.5,-199.4621 411.5,-185.3307 411.5,-171.7693"/>
<polygon fill="#000000" stroke="#000000" points="415.0001,-171.5218 411.5,-161.5218 408.0001,-171.5219 415.0001,-171.5218"/>
<text text-anchor="middle" x="472" y="-183.8" font-family="Times,serif" font-size="14.00" fill="#000000">of_reference_file</text>
</g>
<!-- treatment -->
<g id="node6" class="node">
<title>treatment</title>
<path fill="none" stroke="#000000" d="M835.5,-639.5C835.5,-639.5 1127.5,-639.5 1127.5,-639.5 1133.5,-639.5 1139.5,-645.5 1139.5,-651.5 1139.5,-651.5 1139.5,-857.5 1139.5,-857.5 1139.5,-863.5 1133.5,-869.5 1127.5,-869.5 1127.5,-869.5 835.5,-869.5 835.5,-869.5 829.5,-869.5 823.5,-863.5 823.5,-857.5 823.5,-857.5 823.5,-651.5 823.5,-651.5 823.5,-645.5 829.5,-639.5 835.5,-639.5"/>
<text text-anchor="middle" x="868" y="-750.8" font-family="Times,serif" font-size="14.00" fill="#000000">treatment</text>
<polyline fill="none" stroke="#000000" points="912.5,-639.5 912.5,-869.5 "/>
<text text-anchor="middle" x="923" y="-750.8" font-family="Times,serif" font-size="14.00" fill="#000000"> </text>
<polyline fill="none" stroke="#000000" points="933.5,-639.5 933.5,-869.5 "/>
<text text-anchor="middle" x="1026" y="-854.3" font-family="Times,serif" font-size="14.00" fill="#000000">age_at_treatment_end</text>
<polyline fill="none" stroke="#000000" points="933.5,-846.5 1118.5,-846.5 "/>
<text text-anchor="middle" x="1026" y="-831.3" font-family="Times,serif" font-size="14.00" fill="#000000">age_at_treatment_start</text>
<polyline fill="none" stroke="#000000" points="933.5,-823.5 1118.5,-823.5 "/>
<text text-anchor="middle" x="1026" y="-808.3" font-family="Times,serif" font-size="14.00" fill="#000000">dose</text>
<polyline fill="none" stroke="#000000" points="933.5,-800.5 1118.5,-800.5 "/>
<text text-anchor="middle" x="1026" y="-785.3" font-family="Times,serif" font-size="14.00" fill="#000000">dose_frequency</text>
<polyline fill="none" stroke="#000000" points="933.5,-777.5 1118.5,-777.5 "/>
<text text-anchor="middle" x="1026" y="-762.3" font-family="Times,serif" font-size="14.00" fill="#000000">dose_route</text>
<polyline fill="none" stroke="#000000" points="933.5,-754.5 1118.5,-754.5 "/>
<text text-anchor="middle" x="1026" y="-739.3" font-family="Times,serif" font-size="14.00" fill="#000000">dose_unit</text>
<polyline fill="none" stroke="#000000" points="933.5,-731.5 1118.5,-731.5 "/>
<text text-anchor="middle" x="1026" y="-716.3" font-family="Times,serif" font-size="14.00" fill="#000000">id</text>
<polyline fill="none" stroke="#000000" points="933.5,-708.5 1118.5,-708.5 "/>
<text text-anchor="middle" x="1026" y="-693.3" font-family="Times,serif" font-size="14.00" fill="#000000">treatment_agent</text>
<polyline fill="none" stroke="#000000" points="933.5,-685.5 1118.5,-685.5 "/>
<text text-anchor="middle" x="1026" y="-670.3" font-family="Times,serif" font-size="14.00" fill="#000000">treatment_id</text>
<polyline fill="none" stroke="#000000" points="933.5,-662.5 1118.5,-662.5 "/>
<text text-anchor="middle" x="1026" y="-647.3" font-family="Times,serif" font-size="14.00" fill="#000000">treatment_type</text>
<polyline fill="none" stroke="#000000" points="1118.5,-639.5 1118.5,-869.5 "/>
<text text-anchor="middle" x="1129" y="-750.8" font-family="Times,serif" font-size="14.00" fill="#000000"> </text>
</g>
<!-- treatment&#45;&gt;participant -->
<g id="edge10" class="edge">
<title>treatment&#45;&gt;participant</title>
<path fill="none" stroke="#000000" d="M981.5,-639.2724C981.5,-624.8861 981.5,-610.7136 981.5,-597.8145"/>
<polygon fill="#000000" stroke="#000000" points="985.0001,-597.7629 981.5,-587.7629 978.0001,-597.763 985.0001,-597.7629"/>
<text text-anchor="middle" x="1028.5" y="-609.8" font-family="Times,serif" font-size="14.00" fill="#000000">of_treatment</text>
</g>
<!-- sample&#45;&gt;participant -->
<g id="edge4" class="edge">
<title>sample&#45;&gt;participant</title>
<path fill="none" stroke="#000000" d="M795.4162,-650.8553C801.8471,-646.8286 808.2266,-642.8636 814.5,-639 839.4319,-623.6449 866.7593,-607.4357 891.9562,-592.7365"/>
<polygon fill="#000000" stroke="#000000" points="893.8911,-595.6601 900.7724,-587.6041 890.3693,-589.6105 893.8911,-595.6601"/>
<text text-anchor="middle" x="906" y="-609.8" font-family="Times,serif" font-size="14.00" fill="#000000">of_sample</text>
</g>
<!-- synonym -->
<g id="node8" class="node">
<title>synonym</title>
<path fill="none" stroke="#000000" d="M12,-674C12,-674 313,-674 313,-674 319,-674 325,-680 325,-686 325,-686 325,-823 325,-823 325,-829 319,-835 313,-835 313,-835 12,-835 12,-835 6,-835 0,-829 0,-823 0,-823 0,-686 0,-686 0,-680 6,-674 12,-674"/>
<text text-anchor="middle" x="40" y="-750.8" font-family="Times,serif" font-size="14.00" fill="#000000">synonym</text>
<polyline fill="none" stroke="#000000" points="80,-674 80,-835 "/>
<text text-anchor="middle" x="90.5" y="-750.8" font-family="Times,serif" font-size="14.00" fill="#000000"> </text>
<polyline fill="none" stroke="#000000" points="101,-674 101,-835 "/>
<text text-anchor="middle" x="202.5" y="-819.8" font-family="Times,serif" font-size="14.00" fill="#000000">associated_id</text>
<polyline fill="none" stroke="#000000" points="101,-812 304,-812 "/>
<text text-anchor="middle" x="202.5" y="-796.8" font-family="Times,serif" font-size="14.00" fill="#000000">data_location</text>
<polyline fill="none" stroke="#000000" points="101,-789 304,-789 "/>
<text text-anchor="middle" x="202.5" y="-773.8" font-family="Times,serif" font-size="14.00" fill="#000000">domain_category</text>
<polyline fill="none" stroke="#000000" points="101,-766 304,-766 "/>
<text text-anchor="middle" x="202.5" y="-750.8" font-family="Times,serif" font-size="14.00" fill="#000000">domain_description</text>
<polyline fill="none" stroke="#000000" points="101,-743 304,-743 "/>
<text text-anchor="middle" x="202.5" y="-727.8" font-family="Times,serif" font-size="14.00" fill="#000000">id</text>
<polyline fill="none" stroke="#000000" points="101,-720 304,-720 "/>
<text text-anchor="middle" x="202.5" y="-704.8" font-family="Times,serif" font-size="14.00" fill="#000000">repository_of_synonym_id</text>
<polyline fill="none" stroke="#000000" points="101,-697 304,-697 "/>
<text text-anchor="middle" x="202.5" y="-681.8" font-family="Times,serif" font-size="14.00" fill="#000000">synonym_id</text>
<polyline fill="none" stroke="#000000" points="304,-674 304,-835 "/>
<text text-anchor="middle" x="314.5" y="-750.8" font-family="Times,serif" font-size="14.00" fill="#000000"> </text>
</g>
<!-- synonym&#45;&gt;participant -->
<g id="edge13" class="edge">
<title>synonym&#45;&gt;participant</title>
<path fill="none" stroke="#000000" d="M198.3072,-673.9057C213.9279,-647.9473 234.8613,-621.826 261.5,-606 310.2175,-577.057 648.5667,-556.8487 843.6246,-547.4565"/>
<polygon fill="#000000" stroke="#000000" points="843.8454,-550.95 853.6668,-546.9764 843.511,-543.958 843.8454,-550.95"/>
<text text-anchor="middle" x="304" y="-609.8" font-family="Times,serif" font-size="14.00" fill="#000000">of_synonym</text>
</g>
<!-- synonym&#45;&gt;study -->
<g id="edge12" class="edge">
<title>synonym&#45;&gt;study</title>
<path fill="none" stroke="#000000" d="M158.6831,-673.8579C157.0354,-562.6523 167.3068,-359.3841 251.5,-213 260.5892,-197.1969 272.3406,-182.482 285.3458,-169.0429"/>
<polygon fill="#000000" stroke="#000000" points="288.0873,-171.2516 292.691,-161.7092 283.1414,-166.2979 288.0873,-171.2516"/>
<text text-anchor="middle" x="215" y="-465.8" font-family="Times,serif" font-size="14.00" fill="#000000">of_synonym</text>
</g>
<!-- treatment_response -->
<g id="node9" class="node">
<title>treatment_response</title>
<path fill="none" stroke="#000000" d="M1170,-685.5C1170,-685.5 1531,-685.5 1531,-685.5 1537,-685.5 1543,-691.5 1543,-697.5 1543,-697.5 1543,-811.5 1543,-811.5 1543,-817.5 1537,-823.5 1531,-823.5 1531,-823.5 1170,-823.5 1170,-823.5 1164,-823.5 1158,-817.5 1158,-811.5 1158,-811.5 1158,-697.5 1158,-697.5 1158,-691.5 1164,-685.5 1170,-685.5"/>
<text text-anchor="middle" x="1238.5" y="-750.8" font-family="Times,serif" font-size="14.00" fill="#000000">treatment_response</text>
<polyline fill="none" stroke="#000000" points="1319,-685.5 1319,-823.5 "/>
<text text-anchor="middle" x="1329.5" y="-750.8" font-family="Times,serif" font-size="14.00" fill="#000000"> </text>
<polyline fill="none" stroke="#000000" points="1340,-685.5 1340,-823.5 "/>
<text text-anchor="middle" x="1431" y="-808.3" font-family="Times,serif" font-size="14.00" fill="#000000">age_at_response</text>
<polyline fill="none" stroke="#000000" points="1340,-800.5 1522,-800.5 "/>
<text text-anchor="middle" x="1431" y="-785.3" font-family="Times,serif" font-size="14.00" fill="#000000">id</text>
<polyline fill="none" stroke="#000000" points="1340,-777.5 1522,-777.5 "/>
<text text-anchor="middle" x="1431" y="-762.3" font-family="Times,serif" font-size="14.00" fill="#000000">response</text>
<polyline fill="none" stroke="#000000" points="1340,-754.5 1522,-754.5 "/>
<text text-anchor="middle" x="1431" y="-739.3" font-family="Times,serif" font-size="14.00" fill="#000000">response_category</text>
<polyline fill="none" stroke="#000000" points="1340,-731.5 1522,-731.5 "/>
<text text-anchor="middle" x="1431" y="-716.3" font-family="Times,serif" font-size="14.00" fill="#000000">response_system</text>
<polyline fill="none" stroke="#000000" points="1340,-708.5 1522,-708.5 "/>
<text text-anchor="middle" x="1431" y="-693.3" font-family="Times,serif" font-size="14.00" fill="#000000">treatment_response_id</text>
<polyline fill="none" stroke="#000000" points="1522,-685.5 1522,-823.5 "/>
<text text-anchor="middle" x="1532.5" y="-750.8" font-family="Times,serif" font-size="14.00" fill="#000000"> </text>
</g>
<!-- treatment_response&#45;&gt;participant -->
<g id="edge11" class="edge">
<title>treatment_response&#45;&gt;participant</title>
<path fill="none" stroke="#000000" d="M1230.9511,-685.4921C1178.6347,-655.2932 1118.3313,-620.4839 1070.1221,-592.6558"/>
<polygon fill="#000000" stroke="#000000" points="1071.6762,-589.5117 1061.2657,-587.5436 1068.1767,-595.5742 1071.6762,-589.5117"/>
<text text-anchor="middle" x="1194.5" y="-609.8" font-family="Times,serif" font-size="14.00" fill="#000000">of_treatment_response</text>
</g>
<!-- diagnosis -->
<g id="node11" class="node">
<title>diagnosis</title>
<path fill="none" stroke="#000000" d="M295,-1013.5C295,-1013.5 660,-1013.5 660,-1013.5 666,-1013.5 672,-1019.5 672,-1025.5 672,-1025.5 672,-1415.5 672,-1415.5 672,-1421.5 666,-1427.5 660,-1427.5 660,-1427.5 295,-1427.5 295,-1427.5 289,-1427.5 283,-1421.5 283,-1415.5 283,-1415.5 283,-1025.5 283,-1025.5 283,-1019.5 289,-1013.5 295,-1013.5"/>
<text text-anchor="middle" x="325" y="-1216.8" font-family="Times,serif" font-size="14.00" fill="#000000">diagnosis</text>
<polyline fill="none" stroke="#000000" points="367,-1013.5 367,-1427.5 "/>
<text text-anchor="middle" x="377.5" y="-1216.8" font-family="Times,serif" font-size="14.00" fill="#000000"> </text>
<polyline fill="none" stroke="#000000" points="388,-1013.5 388,-1427.5 "/>
<text text-anchor="middle" x="519.5" y="-1412.3" font-family="Times,serif" font-size="14.00" fill="#000000">age_at_diagnosis</text>
<polyline fill="none" stroke="#000000" points="388,-1404.5 651,-1404.5 "/>
<text text-anchor="middle" x="519.5" y="-1389.3" font-family="Times,serif" font-size="14.00" fill="#000000">anatomic_site</text>
<polyline fill="none" stroke="#000000" points="388,-1381.5 651,-1381.5 "/>
<text text-anchor="middle" x="519.5" y="-1366.3" font-family="Times,serif" font-size="14.00" fill="#000000">diagnosis</text>
<polyline fill="none" stroke="#000000" points="388,-1358.5 651,-1358.5 "/>
<text text-anchor="middle" x="519.5" y="-1343.3" font-family="Times,serif" font-size="14.00" fill="#000000">diagnosis_basis</text>
<polyline fill="none" stroke="#000000" points="388,-1335.5 651,-1335.5 "/>
<text text-anchor="middle" x="519.5" y="-1320.3" font-family="Times,serif" font-size="14.00" fill="#000000">diagnosis_category</text>
<polyline fill="none" stroke="#000000" points="388,-1312.5 651,-1312.5 "/>
<text text-anchor="middle" x="519.5" y="-1297.3" font-family="Times,serif" font-size="14.00" fill="#000000">diagnosis_classification_system</text>
<polyline fill="none" stroke="#000000" points="388,-1289.5 651,-1289.5 "/>
<text text-anchor="middle" x="519.5" y="-1274.3" font-family="Times,serif" font-size="14.00" fill="#000000">diagnosis_comment</text>
<polyline fill="none" stroke="#000000" points="388,-1266.5 651,-1266.5 "/>
<text text-anchor="middle" x="519.5" y="-1251.3" font-family="Times,serif" font-size="14.00" fill="#000000">diagnosis_id</text>
<polyline fill="none" stroke="#000000" points="388,-1243.5 651,-1243.5 "/>
<text text-anchor="middle" x="519.5" y="-1228.3" font-family="Times,serif" font-size="14.00" fill="#000000">disease_phase</text>
<polyline fill="none" stroke="#000000" points="388,-1220.5 651,-1220.5 "/>
<text text-anchor="middle" x="519.5" y="-1205.3" font-family="Times,serif" font-size="14.00" fill="#000000">id</text>
<polyline fill="none" stroke="#000000" points="388,-1197.5 651,-1197.5 "/>
<text text-anchor="middle" x="519.5" y="-1182.3" font-family="Times,serif" font-size="14.00" fill="#000000">laterality</text>
<polyline fill="none" stroke="#000000" points="388,-1174.5 651,-1174.5 "/>
<text text-anchor="middle" x="519.5" y="-1159.3" font-family="Times,serif" font-size="14.00" fill="#000000">toronto_childhood_cancer_staging</text>
<polyline fill="none" stroke="#000000" points="388,-1151.5 651,-1151.5 "/>
<text text-anchor="middle" x="519.5" y="-1136.3" font-family="Times,serif" font-size="14.00" fill="#000000">tumor_classification</text>
<polyline fill="none" stroke="#000000" points="388,-1128.5 651,-1128.5 "/>
<text text-anchor="middle" x="519.5" y="-1113.3" font-family="Times,serif" font-size="14.00" fill="#000000">tumor_grade</text>
<polyline fill="none" stroke="#000000" points="388,-1105.5 651,-1105.5 "/>
<text text-anchor="middle" x="519.5" y="-1090.3" font-family="Times,serif" font-size="14.00" fill="#000000">tumor_stage_clinical_m</text>
<polyline fill="none" stroke="#000000" points="388,-1082.5 651,-1082.5 "/>
<text text-anchor="middle" x="519.5" y="-1067.3" font-family="Times,serif" font-size="14.00" fill="#000000">tumor_stage_clinical_n</text>
<polyline fill="none" stroke="#000000" points="388,-1059.5 651,-1059.5 "/>
<text text-anchor="middle" x="519.5" y="-1044.3" font-family="Times,serif" font-size="14.00" fill="#000000">tumor_stage_clinical_t</text>
<polyline fill="none" stroke="#000000" points="388,-1036.5 651,-1036.5 "/>
<text text-anchor="middle" x="519.5" y="-1021.3" font-family="Times,serif" font-size="14.00" fill="#000000">year_of_diagnosis</text>
<polyline fill="none" stroke="#000000" points="651,-1013.5 651,-1427.5 "/>
<text text-anchor="middle" x="661.5" y="-1216.8" font-family="Times,serif" font-size="14.00" fill="#000000"> </text>
</g>
<!-- diagnosis&#45;&gt;participant -->
<g id="edge9" class="edge">
<title>diagnosis&#45;&gt;participant</title>
<path fill="none" stroke="#000000" d="M405.0933,-1013.2689C361.1282,-869.7474 321.8447,-694.8484 369.5,-639 399.9491,-603.316 672.9441,-571.0013 843.8829,-554.0264"/>
<polygon fill="#000000" stroke="#000000" points="844.3664,-557.4958 853.9742,-553.0303 843.6787,-550.5297 844.3664,-557.4958"/>
<text text-anchor="middle" x="414" y="-750.8" font-family="Times,serif" font-size="14.00" fill="#000000">of_diagnosis</text>
</g>
<!-- diagnosis&#45;&gt;sample -->
<g id="edge8" class="edge">
<title>diagnosis&#45;&gt;sample</title>
<path fill="none" stroke="#000000" d="M548.1657,-1013.3918C565.2423,-963.3434 582.8694,-911.6815 597.8428,-867.7971"/>
<polygon fill="#000000" stroke="#000000" points="601.1779,-868.8609 601.0947,-858.2664 594.5529,-866.6004 601.1779,-868.8609"/>
<text text-anchor="middle" x="635" y="-891.8" font-family="Times,serif" font-size="14.00" fill="#000000">of_diagnosis</text>
</g>
<!-- survival -->
<g id="node12" class="node">
<title>survival</title>
<path fill="none" stroke="#000000" d="M1573,-662.5C1573,-662.5 1934,-662.5 1934,-662.5 1940,-662.5 1946,-668.5 1946,-674.5 1946,-674.5 1946,-834.5 1946,-834.5 1946,-840.5 1940,-846.5 1934,-846.5 1934,-846.5 1573,-846.5 1573,-846.5 1567,-846.5 1561,-840.5 1561,-834.5 1561,-834.5 1561,-674.5 1561,-674.5 1561,-668.5 1567,-662.5 1573,-662.5"/>
<text text-anchor="middle" x="1598" y="-750.8" font-family="Times,serif" font-size="14.00" fill="#000000">survival</text>
<polyline fill="none" stroke="#000000" points="1635,-662.5 1635,-846.5 "/>
<text text-anchor="middle" x="1645.5" y="-750.8" font-family="Times,serif" font-size="14.00" fill="#000000"> </text>
<polyline fill="none" stroke="#000000" points="1656,-662.5 1656,-846.5 "/>
<text text-anchor="middle" x="1790.5" y="-831.3" font-family="Times,serif" font-size="14.00" fill="#000000">age_at_event_free_survival_status</text>
<polyline fill="none" stroke="#000000" points="1656,-823.5 1925,-823.5 "/>
<text text-anchor="middle" x="1790.5" y="-808.3" font-family="Times,serif" font-size="14.00" fill="#000000">age_at_last_known_survival_status</text>
<polyline fill="none" stroke="#000000" points="1656,-800.5 1925,-800.5 "/>
<text text-anchor="middle" x="1790.5" y="-785.3" font-family="Times,serif" font-size="14.00" fill="#000000">cause_of_death</text>
<polyline fill="none" stroke="#000000" points="1656,-777.5 1925,-777.5 "/>
<text text-anchor="middle" x="1790.5" y="-762.3" font-family="Times,serif" font-size="14.00" fill="#000000">event_free_survival_status</text>
<polyline fill="none" stroke="#000000" points="1656,-754.5 1925,-754.5 "/>
<text text-anchor="middle" x="1790.5" y="-739.3" font-family="Times,serif" font-size="14.00" fill="#000000">first_event</text>
<polyline fill="none" stroke="#000000" points="1656,-731.5 1925,-731.5 "/>
<text text-anchor="middle" x="1790.5" y="-716.3" font-family="Times,serif" font-size="14.00" fill="#000000">id</text>
<polyline fill="none" stroke="#000000" points="1656,-708.5 1925,-708.5 "/>
<text text-anchor="middle" x="1790.5" y="-693.3" font-family="Times,serif" font-size="14.00" fill="#000000">last_known_survival_status</text>
<polyline fill="none" stroke="#000000" points="1656,-685.5 1925,-685.5 "/>
<text text-anchor="middle" x="1790.5" y="-670.3" font-family="Times,serif" font-size="14.00" fill="#000000">survival_id</text>
<polyline fill="none" stroke="#000000" points="1925,-662.5 1925,-846.5 "/>
<text text-anchor="middle" x="1935.5" y="-750.8" font-family="Times,serif" font-size="14.00" fill="#000000"> </text>
</g>
<!-- survival&#45;&gt;participant -->
<g id="edge7" class="edge">
<title>survival&#45;&gt;participant</title>
<path fill="none" stroke="#000000" d="M1606.7697,-662.471C1588.9136,-653.6025 1570.5832,-645.5055 1552.5,-639 1409.8634,-587.6859 1237.2398,-562.9975 1119.391,-551.3702"/>
<polygon fill="#000000" stroke="#000000" points="1119.519,-547.8663 1109.2283,-550.3865 1118.8445,-554.8338 1119.519,-547.8663"/>
<text text-anchor="middle" x="1532" y="-609.8" font-family="Times,serif" font-size="14.00" fill="#000000">of_survival</text>
</g>
</g>
</svg>
