<svg width="1191pt" height="918pt"
 viewBox="0.00 0.00 1191.00 918.00" xmlns="http://www.w3.org/2000/svg" xmlns:xlink="http://www.w3.org/1999/xlink">
<g id="graph0" class="graph" transform="scale(1 1) rotate(0) translate(4 914)">
<title>Perl</title>
<polygon fill="#ffffff" stroke="transparent" points="-4,4 -4,-914 1187,-914 1187,4 -4,4"/>
<!-- study -->
<g id="node1" class="node">
<title>study</title>
<path fill="none" stroke="#000000" d="M580,-.5C580,-.5 799,-.5 799,-.5 805,-.5 811,-6.5 811,-12.5 811,-12.5 811,-218.5 811,-218.5 811,-224.5 805,-230.5 799,-230.5 799,-230.5 580,-230.5 580,-230.5 574,-230.5 568,-224.5 568,-218.5 568,-218.5 568,-12.5 568,-12.5 568,-6.5 574,-.5 580,-.5"/>
<text text-anchor="middle" x="596" y="-111.8" font-family="Times,serif" font-size="14.00" fill="#000000">study</text>
<polyline fill="none" stroke="#000000" points="624,-.5 624,-230.5 "/>
<text text-anchor="middle" x="634.5" y="-111.8" font-family="Times,serif" font-size="14.00" fill="#000000"> </text>
<polyline fill="none" stroke="#000000" points="645,-.5 645,-230.5 "/>
<text text-anchor="middle" x="717.5" y="-215.3" font-family="Times,serif" font-size="14.00" fill="#000000">acl</text>
<polyline fill="none" stroke="#000000" points="645,-207.5 790,-207.5 "/>
<text text-anchor="middle" x="717.5" y="-192.3" font-family="Times,serif" font-size="14.00" fill="#000000">consent</text>
<polyline fill="none" stroke="#000000" points="645,-184.5 790,-184.5 "/>
<text text-anchor="middle" x="717.5" y="-169.3" font-family="Times,serif" font-size="14.00" fill="#000000">consent_number</text>
<polyline fill="none" stroke="#000000" points="645,-161.5 790,-161.5 "/>
<text text-anchor="middle" x="717.5" y="-146.3" font-family="Times,serif" font-size="14.00" fill="#000000">external_url</text>
<polyline fill="none" stroke="#000000" points="645,-138.5 790,-138.5 "/>
<text text-anchor="middle" x="717.5" y="-123.3" font-family="Times,serif" font-size="14.00" fill="#000000">phs_accession</text>
<polyline fill="none" stroke="#000000" points="645,-115.5 790,-115.5 "/>
<text text-anchor="middle" x="717.5" y="-100.3" font-family="Times,serif" font-size="14.00" fill="#000000">study_acronym</text>
<polyline fill="none" stroke="#000000" points="645,-92.5 790,-92.5 "/>
<text text-anchor="middle" x="717.5" y="-77.3" font-family="Times,serif" font-size="14.00" fill="#000000">study_description</text>
<polyline fill="none" stroke="#000000" points="645,-69.5 790,-69.5 "/>
<text text-anchor="middle" x="717.5" y="-54.3" font-family="Times,serif" font-size="14.00" fill="#000000">study_id</text>
<polyline fill="none" stroke="#000000" points="645,-46.5 790,-46.5 "/>
<text text-anchor="middle" x="717.5" y="-31.3" font-family="Times,serif" font-size="14.00" fill="#000000">study_name</text>
<polyline fill="none" stroke="#000000" points="645,-23.5 790,-23.5 "/>
<text text-anchor="middle" x="717.5" y="-8.3" font-family="Times,serif" font-size="14.00" fill="#000000">study_short_title</text>
<polyline fill="none" stroke="#000000" points="790,-.5 790,-230.5 "/>
<text text-anchor="middle" x="800.5" y="-111.8" font-family="Times,serif" font-size="14.00" fill="#000000"> </text>
</g>
<!-- reference_file -->
<g id="node2" class="node">
<title>reference_file</title>
<path fill="none" stroke="#000000" d="M255,-282.5C255,-282.5 532,-282.5 532,-282.5 538,-282.5 544,-288.5 544,-294.5 544,-294.5 544,-477.5 544,-477.5 544,-483.5 538,-489.5 532,-489.5 532,-489.5 255,-489.5 255,-489.5 249,-489.5 243,-483.5 243,-477.5 243,-477.5 243,-294.5 243,-294.5 243,-288.5 249,-282.5 255,-282.5"/>
<text text-anchor="middle" x="301" y="-382.3" font-family="Times,serif" font-size="14.00" fill="#000000">reference_file</text>
<polyline fill="none" stroke="#000000" points="359,-282.5 359,-489.5 "/>
<text text-anchor="middle" x="369.5" y="-382.3" font-family="Times,serif" font-size="14.00" fill="#000000"> </text>
<polyline fill="none" stroke="#000000" points="380,-282.5 380,-489.5 "/>
<text text-anchor="middle" x="451.5" y="-474.3" font-family="Times,serif" font-size="14.00" fill="#000000">dcf_indexd_guid</text>
<polyline fill="none" stroke="#000000" points="380,-466.5 523,-466.5 "/>
<text text-anchor="middle" x="451.5" y="-451.3" font-family="Times,serif" font-size="14.00" fill="#000000">file_category</text>
<polyline fill="none" stroke="#000000" points="380,-443.5 523,-443.5 "/>
<text text-anchor="middle" x="451.5" y="-428.3" font-family="Times,serif" font-size="14.00" fill="#000000">file_description</text>
<polyline fill="none" stroke="#000000" points="380,-420.5 523,-420.5 "/>
<text text-anchor="middle" x="451.5" y="-405.3" font-family="Times,serif" font-size="14.00" fill="#000000">file_name</text>
<polyline fill="none" stroke="#000000" points="380,-397.5 523,-397.5 "/>
<text text-anchor="middle" x="451.5" y="-382.3" font-family="Times,serif" font-size="14.00" fill="#000000">file_size</text>
<polyline fill="none" stroke="#000000" points="380,-374.5 523,-374.5 "/>
<text text-anchor="middle" x="451.5" y="-359.3" font-family="Times,serif" font-size="14.00" fill="#000000">file_type</text>
<polyline fill="none" stroke="#000000" points="380,-351.5 523,-351.5 "/>
<text text-anchor="middle" x="451.5" y="-336.3" font-family="Times,serif" font-size="14.00" fill="#000000">md5sum</text>
<polyline fill="none" stroke="#000000" points="380,-328.5 523,-328.5 "/>
<text text-anchor="middle" x="451.5" y="-313.3" font-family="Times,serif" font-size="14.00" fill="#000000">reference_file_id</text>
<polyline fill="none" stroke="#000000" points="380,-305.5 523,-305.5 "/>
<text text-anchor="middle" x="451.5" y="-290.3" font-family="Times,serif" font-size="14.00" fill="#000000">reference_file_url</text>
<polyline fill="none" stroke="#000000" points="523,-282.5 523,-489.5 "/>
<text text-anchor="middle" x="533.5" y="-382.3" font-family="Times,serif" font-size="14.00" fill="#000000"> </text>
</g>
<!-- reference_file&#45;&gt;study -->
<g id="edge6" class="edge">
<title>reference_file&#45;&gt;study</title>
<path fill="none" stroke="#000000" d="M507.0948,-282.1912C524.4987,-266.2867 542.5746,-249.768 560.2857,-233.5827"/>
<polygon fill="#000000" stroke="#000000" points="562.83,-235.9989 567.8508,-226.6693 558.1078,-230.8316 562.83,-235.9989"/>
<text text-anchor="middle" x="602" y="-252.8" font-family="Times,serif" font-size="14.00" fill="#000000">of_reference_file</text>
</g>
<!-- participant -->
<g id="node3" class="node">
<title>participant</title>
<path fill="none" stroke="#000000" d="M574,-340C574,-340 805,-340 805,-340 811,-340 817,-346 817,-352 817,-352 817,-420 817,-420 817,-426 811,-432 805,-432 805,-432 574,-432 574,-432 568,-432 562,-426 562,-420 562,-420 562,-352 562,-352 562,-346 568,-340 574,-340"/>
<text text-anchor="middle" x="610" y="-382.3" font-family="Times,serif" font-size="14.00" fill="#000000">participant</text>
<polyline fill="none" stroke="#000000" points="658,-340 658,-432 "/>
<text text-anchor="middle" x="668.5" y="-382.3" font-family="Times,serif" font-size="14.00" fill="#000000"> </text>
<polyline fill="none" stroke="#000000" points="679,-340 679,-432 "/>
<text text-anchor="middle" x="737.5" y="-416.8" font-family="Times,serif" font-size="14.00" fill="#000000">ethnicity</text>
<polyline fill="none" stroke="#000000" points="679,-409 796,-409 "/>
<text text-anchor="middle" x="737.5" y="-393.8" font-family="Times,serif" font-size="14.00" fill="#000000">participant_id</text>
<polyline fill="none" stroke="#000000" points="679,-386 796,-386 "/>
<text text-anchor="middle" x="737.5" y="-370.8" font-family="Times,serif" font-size="14.00" fill="#000000">race</text>
<polyline fill="none" stroke="#000000" points="679,-363 796,-363 "/>
<text text-anchor="middle" x="737.5" y="-347.8" font-family="Times,serif" font-size="14.00" fill="#000000">sex_at_birth</text>
<polyline fill="none" stroke="#000000" points="796,-340 796,-432 "/>
<text text-anchor="middle" x="806.5" y="-382.3" font-family="Times,serif" font-size="14.00" fill="#000000"> </text>
</g>
<!-- participant&#45;&gt;study -->
<g id="edge4" class="edge">
<title>participant&#45;&gt;study</title>
<path fill="none" stroke="#000000" d="M689.5,-339.8067C689.5,-312.4079 689.5,-276.2314 689.5,-240.9491"/>
<polygon fill="#000000" stroke="#000000" points="693.0001,-240.5361 689.5,-230.5362 686.0001,-240.5362 693.0001,-240.5361"/>
<text text-anchor="middle" x="740" y="-252.8" font-family="Times,serif" font-size="14.00" fill="#000000">of_participant</text>
</g>
<!-- survival -->
<g id="node4" class="node">
<title>survival</title>
<path fill="none" stroke="#000000" d="M12,-656.5C12,-656.5 373,-656.5 373,-656.5 379,-656.5 385,-662.5 385,-668.5 385,-668.5 385,-782.5 385,-782.5 385,-788.5 379,-794.5 373,-794.5 373,-794.5 12,-794.5 12,-794.5 6,-794.5 0,-788.5 0,-782.5 0,-782.5 0,-668.5 0,-668.5 0,-662.5 6,-656.5 12,-656.5"/>
<text text-anchor="middle" x="37" y="-721.8" font-family="Times,serif" font-size="14.00" fill="#000000">survival</text>
<polyline fill="none" stroke="#000000" points="74,-656.5 74,-794.5 "/>
<text text-anchor="middle" x="84.5" y="-721.8" font-family="Times,serif" font-size="14.00" fill="#000000"> </text>
<polyline fill="none" stroke="#000000" points="95,-656.5 95,-794.5 "/>
<text text-anchor="middle" x="229.5" y="-779.3" font-family="Times,serif" font-size="14.00" fill="#000000">age_at_event_free_survival_status</text>
<polyline fill="none" stroke="#000000" points="95,-771.5 364,-771.5 "/>
<text text-anchor="middle" x="229.5" y="-756.3" font-family="Times,serif" font-size="14.00" fill="#000000">age_at_last_known_survival_status</text>
<polyline fill="none" stroke="#000000" points="95,-748.5 364,-748.5 "/>
<text text-anchor="middle" x="229.5" y="-733.3" font-family="Times,serif" font-size="14.00" fill="#000000">event_free_survival_status</text>
<polyline fill="none" stroke="#000000" points="95,-725.5 364,-725.5 "/>
<text text-anchor="middle" x="229.5" y="-710.3" font-family="Times,serif" font-size="14.00" fill="#000000">first_event</text>
<polyline fill="none" stroke="#000000" points="95,-702.5 364,-702.5 "/>
<text text-anchor="middle" x="229.5" y="-687.3" font-family="Times,serif" font-size="14.00" fill="#000000">last_known_survival_status</text>
<polyline fill="none" stroke="#000000" points="95,-679.5 364,-679.5 "/>
<text text-anchor="middle" x="229.5" y="-664.3" font-family="Times,serif" font-size="14.00" fill="#000000">survival_id</text>
<polyline fill="none" stroke="#000000" points="364,-656.5 364,-794.5 "/>
<text text-anchor="middle" x="374.5" y="-721.8" font-family="Times,serif" font-size="14.00" fill="#000000"> </text>
</g>
<!-- survival&#45;&gt;participant -->
<g id="edge5" class="edge">
<title>survival&#45;&gt;participant</title>
<path fill="none" stroke="#000000" d="M253.6853,-656.101C290.8304,-617.5929 341.0804,-571.4679 393.5,-541 457.6621,-503.7069 486.6684,-524.2602 552.5,-490 579.3943,-476.0036 606.5049,-456.7509 629.43,-438.6127"/>
<polygon fill="#000000" stroke="#000000" points="631.7467,-441.2413 637.3571,-432.2539 627.3666,-435.781 631.7467,-441.2413"/>
<text text-anchor="middle" x="544" y="-511.8" font-family="Times,serif" font-size="14.00" fill="#000000">of_survival</text>
</g>
<!-- diagnosis -->
<g id="node5" class="node">
<title>diagnosis</title>
<path fill="none" stroke="#000000" d="M415,-553C415,-553 780,-553 780,-553 786,-553 792,-559 792,-565 792,-565 792,-886 792,-886 792,-892 786,-898 780,-898 780,-898 415,-898 415,-898 409,-898 403,-892 403,-886 403,-886 403,-565 403,-565 403,-559 409,-553 415,-553"/>
<text text-anchor="middle" x="445" y="-721.8" font-family="Times,serif" font-size="14.00" fill="#000000">diagnosis</text>
<polyline fill="none" stroke="#000000" points="487,-553 487,-898 "/>
<text text-anchor="middle" x="497.5" y="-721.8" font-family="Times,serif" font-size="14.00" fill="#000000"> </text>
<polyline fill="none" stroke="#000000" points="508,-553 508,-898 "/>
<text text-anchor="middle" x="639.5" y="-882.8" font-family="Times,serif" font-size="14.00" fill="#000000">age_at_diagnosis</text>
<polyline fill="none" stroke="#000000" points="508,-875 771,-875 "/>
<text text-anchor="middle" x="639.5" y="-859.8" font-family="Times,serif" font-size="14.00" fill="#000000">anatomic_site</text>
<polyline fill="none" stroke="#000000" points="508,-852 771,-852 "/>
<text text-anchor="middle" x="639.5" y="-836.8" font-family="Times,serif" font-size="14.00" fill="#000000">diagnosis_basis</text>
<polyline fill="none" stroke="#000000" points="508,-829 771,-829 "/>
<text text-anchor="middle" x="639.5" y="-813.8" font-family="Times,serif" font-size="14.00" fill="#000000">diagnosis_classification</text>
<polyline fill="none" stroke="#000000" points="508,-806 771,-806 "/>
<text text-anchor="middle" x="639.5" y="-790.8" font-family="Times,serif" font-size="14.00" fill="#000000">diagnosis_classification_system</text>
<polyline fill="none" stroke="#000000" points="508,-783 771,-783 "/>
<text text-anchor="middle" x="639.5" y="-767.8" font-family="Times,serif" font-size="14.00" fill="#000000">diagnosis_comment</text>
<polyline fill="none" stroke="#000000" points="508,-760 771,-760 "/>
<text text-anchor="middle" x="639.5" y="-744.8" font-family="Times,serif" font-size="14.00" fill="#000000">diagnosis_id</text>
<polyline fill="none" stroke="#000000" points="508,-737 771,-737 "/>
<text text-anchor="middle" x="639.5" y="-721.8" font-family="Times,serif" font-size="14.00" fill="#000000">diagnosis_verification_status</text>
<polyline fill="none" stroke="#000000" points="508,-714 771,-714 "/>
<text text-anchor="middle" x="639.5" y="-698.8" font-family="Times,serif" font-size="14.00" fill="#000000">disease_phase</text>
<polyline fill="none" stroke="#000000" points="508,-691 771,-691 "/>
<text text-anchor="middle" x="639.5" y="-675.8" font-family="Times,serif" font-size="14.00" fill="#000000">toronto_childhood_cancer_staging</text>
<polyline fill="none" stroke="#000000" points="508,-668 771,-668 "/>
<text text-anchor="middle" x="639.5" y="-652.8" font-family="Times,serif" font-size="14.00" fill="#000000">tumor_classification</text>
<polyline fill="none" stroke="#000000" points="508,-645 771,-645 "/>
<text text-anchor="middle" x="639.5" y="-629.8" font-family="Times,serif" font-size="14.00" fill="#000000">tumor_grade</text>
<polyline fill="none" stroke="#000000" points="508,-622 771,-622 "/>
<text text-anchor="middle" x="639.5" y="-606.8" font-family="Times,serif" font-size="14.00" fill="#000000">tumor_stage_clinical_m</text>
<polyline fill="none" stroke="#000000" points="508,-599 771,-599 "/>
<text text-anchor="middle" x="639.5" y="-583.8" font-family="Times,serif" font-size="14.00" fill="#000000">tumor_stage_clinical_n</text>
<polyline fill="none" stroke="#000000" points="508,-576 771,-576 "/>
<text text-anchor="middle" x="639.5" y="-560.8" font-family="Times,serif" font-size="14.00" fill="#000000">tumor_stage_clinical_t</text>
<polyline fill="none" stroke="#000000" points="771,-553 771,-898 "/>
<text text-anchor="middle" x="781.5" y="-721.8" font-family="Times,serif" font-size="14.00" fill="#000000"> </text>
</g>
<!-- diagnosis&#45;&gt;participant -->
<g id="edge3" class="edge">
<title>diagnosis&#45;&gt;participant</title>
<path fill="none" stroke="#000000" d="M644.3086,-552.7662C655.1562,-512.7361 665.9439,-472.9272 674.2576,-442.2477"/>
<polygon fill="#000000" stroke="#000000" points="677.7413,-442.7735 676.9787,-432.2062 670.985,-440.9426 677.7413,-442.7735"/>
<text text-anchor="middle" x="699" y="-511.8" font-family="Times,serif" font-size="14.00" fill="#000000">of_diagnosis</text>
</g>
<!-- sample -->
<g id="node6" class="node">
<title>sample</title>
<path fill="none" stroke="#000000" d="M822,-541.5C822,-541.5 1171,-541.5 1171,-541.5 1177,-541.5 1183,-547.5 1183,-553.5 1183,-553.5 1183,-897.5 1183,-897.5 1183,-903.5 1177,-909.5 1171,-909.5 1171,-909.5 822,-909.5 822,-909.5 816,-909.5 810,-903.5 810,-897.5 810,-897.5 810,-553.5 810,-553.5 810,-547.5 816,-541.5 822,-541.5"/>
<text text-anchor="middle" x="844" y="-721.8" font-family="Times,serif" font-size="14.00" fill="#000000">sample</text>
<polyline fill="none" stroke="#000000" points="878,-541.5 878,-909.5 "/>
<text text-anchor="middle" x="888.5" y="-721.8" font-family="Times,serif" font-size="14.00" fill="#000000"> </text>
<polyline fill="none" stroke="#000000" points="899,-541.5 899,-909.5 "/>
<text text-anchor="middle" x="1030.5" y="-894.3" font-family="Times,serif" font-size="14.00" fill="#000000">anatomic_site</text>
<polyline fill="none" stroke="#000000" points="899,-886.5 1162,-886.5 "/>
<text text-anchor="middle" x="1030.5" y="-871.3" font-family="Times,serif" font-size="14.00" fill="#000000">diagnosis_basis</text>
<polyline fill="none" stroke="#000000" points="899,-863.5 1162,-863.5 "/>
<text text-anchor="middle" x="1030.5" y="-848.3" font-family="Times,serif" font-size="14.00" fill="#000000">diagnosis_classification</text>
<polyline fill="none" stroke="#000000" points="899,-840.5 1162,-840.5 "/>
<text text-anchor="middle" x="1030.5" y="-825.3" font-family="Times,serif" font-size="14.00" fill="#000000">diagnosis_classification_system</text>
<polyline fill="none" stroke="#000000" points="899,-817.5 1162,-817.5 "/>
<text text-anchor="middle" x="1030.5" y="-802.3" font-family="Times,serif" font-size="14.00" fill="#000000">diagnosis_comment</text>
<polyline fill="none" stroke="#000000" points="899,-794.5 1162,-794.5 "/>
<text text-anchor="middle" x="1030.5" y="-779.3" font-family="Times,serif" font-size="14.00" fill="#000000">diagnosis_verification_status</text>
<polyline fill="none" stroke="#000000" points="899,-771.5 1162,-771.5 "/>
<text text-anchor="middle" x="1030.5" y="-756.3" font-family="Times,serif" font-size="14.00" fill="#000000">participant_age_at_collection</text>
<polyline fill="none" stroke="#000000" points="899,-748.5 1162,-748.5 "/>
<text text-anchor="middle" x="1030.5" y="-733.3" font-family="Times,serif" font-size="14.00" fill="#000000">sample_description</text>
<polyline fill="none" stroke="#000000" points="899,-725.5 1162,-725.5 "/>
<text text-anchor="middle" x="1030.5" y="-710.3" font-family="Times,serif" font-size="14.00" fill="#000000">sample_id</text>
<polyline fill="none" stroke="#000000" points="899,-702.5 1162,-702.5 "/>
<text text-anchor="middle" x="1030.5" y="-687.3" font-family="Times,serif" font-size="14.00" fill="#000000">sample_tumor_status</text>
<polyline fill="none" stroke="#000000" points="899,-679.5 1162,-679.5 "/>
<text text-anchor="middle" x="1030.5" y="-664.3" font-family="Times,serif" font-size="14.00" fill="#000000">toronto_childhood_cancer_staging</text>
<polyline fill="none" stroke="#000000" points="899,-656.5 1162,-656.5 "/>
<text text-anchor="middle" x="1030.5" y="-641.3" font-family="Times,serif" font-size="14.00" fill="#000000">tumor_classification</text>
<polyline fill="none" stroke="#000000" points="899,-633.5 1162,-633.5 "/>
<text text-anchor="middle" x="1030.5" y="-618.3" font-family="Times,serif" font-size="14.00" fill="#000000">tumor_grade</text>
<polyline fill="none" stroke="#000000" points="899,-610.5 1162,-610.5 "/>
<text text-anchor="middle" x="1030.5" y="-595.3" font-family="Times,serif" font-size="14.00" fill="#000000">tumor_stage_clinical_m</text>
<polyline fill="none" stroke="#000000" points="899,-587.5 1162,-587.5 "/>
<text text-anchor="middle" x="1030.5" y="-572.3" font-family="Times,serif" font-size="14.00" fill="#000000">tumor_stage_clinical_n</text>
<polyline fill="none" stroke="#000000" points="899,-564.5 1162,-564.5 "/>
<text text-anchor="middle" x="1030.5" y="-549.3" font-family="Times,serif" font-size="14.00" fill="#000000">tumor_stage_clinical_t</text>
<polyline fill="none" stroke="#000000" points="1162,-541.5 1162,-909.5 "/>
<text text-anchor="middle" x="1172.5" y="-721.8" font-family="Times,serif" font-size="14.00" fill="#000000"> </text>
</g>
<!-- sample&#45;&gt;study -->
<g id="edge2" class="edge">
<title>sample&#45;&gt;study</title>
<path fill="none" stroke="#000000" d="M940.1857,-541.2336C911.4213,-459.1184 872.5109,-362.8903 825.5,-282 817.1126,-267.5681 807.5051,-253.0972 797.3598,-239.0413"/>
<polygon fill="#000000" stroke="#000000" points="800.0651,-236.8117 791.3294,-230.8168 794.42,-240.9509 800.0651,-236.8117"/>
<text text-anchor="middle" x="957" y="-382.3" font-family="Times,serif" font-size="14.00" fill="#000000">of_sample</text>
</g>
<!-- sample&#45;&gt;participant -->
<g id="edge1" class="edge">
<title>sample&#45;&gt;participant</title>
<path fill="none" stroke="#000000" d="M829.9724,-541.3433C796.344,-504.1549 763.5556,-467.8953 738.1256,-439.7732"/>
<polygon fill="#000000" stroke="#000000" points="740.4567,-437.1328 731.1535,-432.0631 735.2647,-441.8278 740.4567,-437.1328"/>
<text text-anchor="middle" x="843" y="-511.8" font-family="Times,serif" font-size="14.00" fill="#000000">of_sample</text>
</g>
</g>
</svg>
