<svg width="2674pt" height="1269pt"
 viewBox="0.00 0.00 2673.50 1269.00" xmlns="http://www.w3.org/2000/svg" xmlns:xlink="http://www.w3.org/1999/xlink">
<g id="graph0" class="graph" transform="scale(1 1) rotate(0) translate(4 1265)">
<title>Perl</title>
<polygon fill="#ffffff" stroke="transparent" points="-4,4 -4,-1265 2669.5,-1265 2669.5,4 -4,4"/>
<!-- treatment -->
<g id="node1" class="node">
<title>treatment</title>
<path fill="none" stroke="#000000" d="M2361.5,-564.5C2361.5,-564.5 2653.5,-564.5 2653.5,-564.5 2659.5,-564.5 2665.5,-570.5 2665.5,-576.5 2665.5,-576.5 2665.5,-782.5 2665.5,-782.5 2665.5,-788.5 2659.5,-794.5 2653.5,-794.5 2653.5,-794.5 2361.5,-794.5 2361.5,-794.5 2355.5,-794.5 2349.5,-788.5 2349.5,-782.5 2349.5,-782.5 2349.5,-576.5 2349.5,-576.5 2349.5,-570.5 2355.5,-564.5 2361.5,-564.5"/>
<text text-anchor="middle" x="2394" y="-675.8" font-family="Times,serif" font-size="14.00" fill="#000000">treatment</text>
<polyline fill="none" stroke="#000000" points="2438.5,-564.5 2438.5,-794.5 "/>
<text text-anchor="middle" x="2449" y="-675.8" font-family="Times,serif" font-size="14.00" fill="#000000"> </text>
<polyline fill="none" stroke="#000000" points="2459.5,-564.5 2459.5,-794.5 "/>
<text text-anchor="middle" x="2552" y="-779.3" font-family="Times,serif" font-size="14.00" fill="#000000">age_at_treatment_end</text>
<polyline fill="none" stroke="#000000" points="2459.5,-771.5 2644.5,-771.5 "/>
<text text-anchor="middle" x="2552" y="-756.3" font-family="Times,serif" font-size="14.00" fill="#000000">age_at_treatment_start</text>
<polyline fill="none" stroke="#000000" points="2459.5,-748.5 2644.5,-748.5 "/>
<text text-anchor="middle" x="2552" y="-733.3" font-family="Times,serif" font-size="14.00" fill="#000000">dose</text>
<polyline fill="none" stroke="#000000" points="2459.5,-725.5 2644.5,-725.5 "/>
<text text-anchor="middle" x="2552" y="-710.3" font-family="Times,serif" font-size="14.00" fill="#000000">dose_frequency</text>
<polyline fill="none" stroke="#000000" points="2459.5,-702.5 2644.5,-702.5 "/>
<text text-anchor="middle" x="2552" y="-687.3" font-family="Times,serif" font-size="14.00" fill="#000000">dose_route</text>
<polyline fill="none" stroke="#000000" points="2459.5,-679.5 2644.5,-679.5 "/>
<text text-anchor="middle" x="2552" y="-664.3" font-family="Times,serif" font-size="14.00" fill="#000000">dose_unit</text>
<polyline fill="none" stroke="#000000" points="2459.5,-656.5 2644.5,-656.5 "/>
<text text-anchor="middle" x="2552" y="-641.3" font-family="Times,serif" font-size="14.00" fill="#000000">id</text>
<polyline fill="none" stroke="#000000" points="2459.5,-633.5 2644.5,-633.5 "/>
<text text-anchor="middle" x="2552" y="-618.3" font-family="Times,serif" font-size="14.00" fill="#000000">treatment_agent</text>
<polyline fill="none" stroke="#000000" points="2459.5,-610.5 2644.5,-610.5 "/>
<text text-anchor="middle" x="2552" y="-595.3" font-family="Times,serif" font-size="14.00" fill="#000000">treatment_id</text>
<polyline fill="none" stroke="#000000" points="2459.5,-587.5 2644.5,-587.5 "/>
<text text-anchor="middle" x="2552" y="-572.3" font-family="Times,serif" font-size="14.00" fill="#000000">treatment_type</text>
<polyline fill="none" stroke="#000000" points="2644.5,-564.5 2644.5,-794.5 "/>
<text text-anchor="middle" x="2655" y="-675.8" font-family="Times,serif" font-size="14.00" fill="#000000"> </text>
</g>
<!-- participant -->
<g id="node6" class="node">
<title>participant</title>
<path fill="none" stroke="#000000" d="M1005,-328.5C1005,-328.5 1236,-328.5 1236,-328.5 1242,-328.5 1248,-334.5 1248,-340.5 1248,-340.5 1248,-408.5 1248,-408.5 1248,-414.5 1242,-420.5 1236,-420.5 1236,-420.5 1005,-420.5 1005,-420.5 999,-420.5 993,-414.5 993,-408.5 993,-408.5 993,-340.5 993,-340.5 993,-334.5 999,-328.5 1005,-328.5"/>
<text text-anchor="middle" x="1041" y="-370.8" font-family="Times,serif" font-size="14.00" fill="#000000">participant</text>
<polyline fill="none" stroke="#000000" points="1089,-328.5 1089,-420.5 "/>
<text text-anchor="middle" x="1099.5" y="-370.8" font-family="Times,serif" font-size="14.00" fill="#000000"> </text>
<polyline fill="none" stroke="#000000" points="1110,-328.5 1110,-420.5 "/>
<text text-anchor="middle" x="1168.5" y="-405.3" font-family="Times,serif" font-size="14.00" fill="#000000">id</text>
<polyline fill="none" stroke="#000000" points="1110,-397.5 1227,-397.5 "/>
<text text-anchor="middle" x="1168.5" y="-382.3" font-family="Times,serif" font-size="14.00" fill="#000000">participant_id</text>
<polyline fill="none" stroke="#000000" points="1110,-374.5 1227,-374.5 "/>
<text text-anchor="middle" x="1168.5" y="-359.3" font-family="Times,serif" font-size="14.00" fill="#000000">race</text>
<polyline fill="none" stroke="#000000" points="1110,-351.5 1227,-351.5 "/>
<text text-anchor="middle" x="1168.5" y="-336.3" font-family="Times,serif" font-size="14.00" fill="#000000">sex_at_birth</text>
<polyline fill="none" stroke="#000000" points="1227,-328.5 1227,-420.5 "/>
<text text-anchor="middle" x="1237.5" y="-370.8" font-family="Times,serif" font-size="14.00" fill="#000000"> </text>
</g>
<!-- treatment&#45;&gt;participant -->
<g id="edge1" class="edge">
<title>treatment&#45;&gt;participant</title>
<path fill="none" stroke="#000000" d="M2382.8729,-564.302C2369.2095,-555.3679 2354.9834,-547.3641 2340.5,-541 2148.63,-456.6915 1534.9733,-403.8552 1258.2032,-383.7393"/>
<polygon fill="#000000" stroke="#000000" points="1258.3245,-380.239 1248.0981,-383.0085 1257.8195,-387.2208 1258.3245,-380.239"/>
<text text-anchor="middle" x="2334.5" y="-511.8" font-family="Times,serif" font-size="14.00" fill="#000000">of_treatment</text>
</g>
<!-- treatment_response -->
<g id="node2" class="node">
<title>treatment_response</title>
<path fill="none" stroke="#000000" d="M355,-610.5C355,-610.5 716,-610.5 716,-610.5 722,-610.5 728,-616.5 728,-622.5 728,-622.5 728,-736.5 728,-736.5 728,-742.5 722,-748.5 716,-748.5 716,-748.5 355,-748.5 355,-748.5 349,-748.5 343,-742.5 343,-736.5 343,-736.5 343,-622.5 343,-622.5 343,-616.5 349,-610.5 355,-610.5"/>
<text text-anchor="middle" x="423.5" y="-675.8" font-family="Times,serif" font-size="14.00" fill="#000000">treatment_response</text>
<polyline fill="none" stroke="#000000" points="504,-610.5 504,-748.5 "/>
<text text-anchor="middle" x="514.5" y="-675.8" font-family="Times,serif" font-size="14.00" fill="#000000"> </text>
<polyline fill="none" stroke="#000000" points="525,-610.5 525,-748.5 "/>
<text text-anchor="middle" x="616" y="-733.3" font-family="Times,serif" font-size="14.00" fill="#000000">age_at_response</text>
<polyline fill="none" stroke="#000000" points="525,-725.5 707,-725.5 "/>
<text text-anchor="middle" x="616" y="-710.3" font-family="Times,serif" font-size="14.00" fill="#000000">id</text>
<polyline fill="none" stroke="#000000" points="525,-702.5 707,-702.5 "/>
<text text-anchor="middle" x="616" y="-687.3" font-family="Times,serif" font-size="14.00" fill="#000000">response</text>
<polyline fill="none" stroke="#000000" points="525,-679.5 707,-679.5 "/>
<text text-anchor="middle" x="616" y="-664.3" font-family="Times,serif" font-size="14.00" fill="#000000">response_category</text>
<polyline fill="none" stroke="#000000" points="525,-656.5 707,-656.5 "/>
<text text-anchor="middle" x="616" y="-641.3" font-family="Times,serif" font-size="14.00" fill="#000000">response_system</text>
<polyline fill="none" stroke="#000000" points="525,-633.5 707,-633.5 "/>
<text text-anchor="middle" x="616" y="-618.3" font-family="Times,serif" font-size="14.00" fill="#000000">treatment_response_id</text>
<polyline fill="none" stroke="#000000" points="707,-610.5 707,-748.5 "/>
<text text-anchor="middle" x="717.5" y="-675.8" font-family="Times,serif" font-size="14.00" fill="#000000"> </text>
</g>
<!-- treatment_response&#45;&gt;participant -->
<g id="edge2" class="edge">
<title>treatment_response&#45;&gt;participant</title>
<path fill="none" stroke="#000000" d="M628.174,-610.476C661.727,-586.9743 700.4841,-561.4896 737.5,-541 818.4077,-496.2148 913.7657,-454.726 989.0918,-424.3658"/>
<polygon fill="#000000" stroke="#000000" points="990.6674,-427.5049 998.6442,-420.532 988.0601,-421.0086 990.6674,-427.5049"/>
<text text-anchor="middle" x="881.5" y="-511.8" font-family="Times,serif" font-size="14.00" fill="#000000">of_treatment_response</text>
</g>
<!-- reference_file -->
<g id="node3" class="node">
<title>reference_file</title>
<path fill="none" stroke="#000000" d="M418,-259.5C418,-259.5 695,-259.5 695,-259.5 701,-259.5 707,-265.5 707,-271.5 707,-271.5 707,-477.5 707,-477.5 707,-483.5 701,-489.5 695,-489.5 695,-489.5 418,-489.5 418,-489.5 412,-489.5 406,-483.5 406,-477.5 406,-477.5 406,-271.5 406,-271.5 406,-265.5 412,-259.5 418,-259.5"/>
<text text-anchor="middle" x="464" y="-370.8" font-family="Times,serif" font-size="14.00" fill="#000000">reference_file</text>
<polyline fill="none" stroke="#000000" points="522,-259.5 522,-489.5 "/>
<text text-anchor="middle" x="532.5" y="-370.8" font-family="Times,serif" font-size="14.00" fill="#000000"> </text>
<polyline fill="none" stroke="#000000" points="543,-259.5 543,-489.5 "/>
<text text-anchor="middle" x="614.5" y="-474.3" font-family="Times,serif" font-size="14.00" fill="#000000">dcf_indexd_guid</text>
<polyline fill="none" stroke="#000000" points="543,-466.5 686,-466.5 "/>
<text text-anchor="middle" x="614.5" y="-451.3" font-family="Times,serif" font-size="14.00" fill="#000000">file_category</text>
<polyline fill="none" stroke="#000000" points="543,-443.5 686,-443.5 "/>
<text text-anchor="middle" x="614.5" y="-428.3" font-family="Times,serif" font-size="14.00" fill="#000000">file_description</text>
<polyline fill="none" stroke="#000000" points="543,-420.5 686,-420.5 "/>
<text text-anchor="middle" x="614.5" y="-405.3" font-family="Times,serif" font-size="14.00" fill="#000000">file_name</text>
<polyline fill="none" stroke="#000000" points="543,-397.5 686,-397.5 "/>
<text text-anchor="middle" x="614.5" y="-382.3" font-family="Times,serif" font-size="14.00" fill="#000000">file_size</text>
<polyline fill="none" stroke="#000000" points="543,-374.5 686,-374.5 "/>
<text text-anchor="middle" x="614.5" y="-359.3" font-family="Times,serif" font-size="14.00" fill="#000000">file_type</text>
<polyline fill="none" stroke="#000000" points="543,-351.5 686,-351.5 "/>
<text text-anchor="middle" x="614.5" y="-336.3" font-family="Times,serif" font-size="14.00" fill="#000000">id</text>
<polyline fill="none" stroke="#000000" points="543,-328.5 686,-328.5 "/>
<text text-anchor="middle" x="614.5" y="-313.3" font-family="Times,serif" font-size="14.00" fill="#000000">md5sum</text>
<polyline fill="none" stroke="#000000" points="543,-305.5 686,-305.5 "/>
<text text-anchor="middle" x="614.5" y="-290.3" font-family="Times,serif" font-size="14.00" fill="#000000">reference_file_id</text>
<polyline fill="none" stroke="#000000" points="543,-282.5 686,-282.5 "/>
<text text-anchor="middle" x="614.5" y="-267.3" font-family="Times,serif" font-size="14.00" fill="#000000">reference_file_url</text>
<polyline fill="none" stroke="#000000" points="686,-259.5 686,-489.5 "/>
<text text-anchor="middle" x="696.5" y="-370.8" font-family="Times,serif" font-size="14.00" fill="#000000"> </text>
</g>
<!-- study -->
<g id="node4" class="node">
<title>study</title>
<path fill="none" stroke="#000000" d="M447,-.5C447,-.5 666,-.5 666,-.5 672,-.5 678,-6.5 678,-12.5 678,-12.5 678,-195.5 678,-195.5 678,-201.5 672,-207.5 666,-207.5 666,-207.5 447,-207.5 447,-207.5 441,-207.5 435,-201.5 435,-195.5 435,-195.5 435,-12.5 435,-12.5 435,-6.5 441,-.5 447,-.5"/>
<text text-anchor="middle" x="463" y="-100.3" font-family="Times,serif" font-size="14.00" fill="#000000">study</text>
<polyline fill="none" stroke="#000000" points="491,-.5 491,-207.5 "/>
<text text-anchor="middle" x="501.5" y="-100.3" font-family="Times,serif" font-size="14.00" fill="#000000"> </text>
<polyline fill="none" stroke="#000000" points="512,-.5 512,-207.5 "/>
<text text-anchor="middle" x="584.5" y="-192.3" font-family="Times,serif" font-size="14.00" fill="#000000">consent</text>
<polyline fill="none" stroke="#000000" points="512,-184.5 657,-184.5 "/>
<text text-anchor="middle" x="584.5" y="-169.3" font-family="Times,serif" font-size="14.00" fill="#000000">consent_number</text>
<polyline fill="none" stroke="#000000" points="512,-161.5 657,-161.5 "/>
<text text-anchor="middle" x="584.5" y="-146.3" font-family="Times,serif" font-size="14.00" fill="#000000">dbgap_accession</text>
<polyline fill="none" stroke="#000000" points="512,-138.5 657,-138.5 "/>
<text text-anchor="middle" x="584.5" y="-123.3" font-family="Times,serif" font-size="14.00" fill="#000000">external_url</text>
<polyline fill="none" stroke="#000000" points="512,-115.5 657,-115.5 "/>
<text text-anchor="middle" x="584.5" y="-100.3" font-family="Times,serif" font-size="14.00" fill="#000000">id</text>
<polyline fill="none" stroke="#000000" points="512,-92.5 657,-92.5 "/>
<text text-anchor="middle" x="584.5" y="-77.3" font-family="Times,serif" font-size="14.00" fill="#000000">study_description</text>
<polyline fill="none" stroke="#000000" points="512,-69.5 657,-69.5 "/>
<text text-anchor="middle" x="584.5" y="-54.3" font-family="Times,serif" font-size="14.00" fill="#000000">study_id</text>
<polyline fill="none" stroke="#000000" points="512,-46.5 657,-46.5 "/>
<text text-anchor="middle" x="584.5" y="-31.3" font-family="Times,serif" font-size="14.00" fill="#000000">study_name</text>
<polyline fill="none" stroke="#000000" points="512,-23.5 657,-23.5 "/>
<text text-anchor="middle" x="584.5" y="-8.3" font-family="Times,serif" font-size="14.00" fill="#000000">study_status</text>
<polyline fill="none" stroke="#000000" points="657,-.5 657,-207.5 "/>
<text text-anchor="middle" x="667.5" y="-100.3" font-family="Times,serif" font-size="14.00" fill="#000000"> </text>
</g>
<!-- reference_file&#45;&gt;study -->
<g id="edge9" class="edge">
<title>reference_file&#45;&gt;study</title>
<path fill="none" stroke="#000000" d="M556.5,-259.3914C556.5,-245.7556 556.5,-231.8403 556.5,-218.2169"/>
<polygon fill="#000000" stroke="#000000" points="560.0001,-217.8653 556.5,-207.8654 553.0001,-217.8654 560.0001,-217.8653"/>
<text text-anchor="middle" x="617" y="-229.8" font-family="Times,serif" font-size="14.00" fill="#000000">of_reference_file</text>
</g>
<!-- sample -->
<g id="node5" class="node">
<title>sample</title>
<path fill="none" stroke="#000000" d="M758.5,-599C758.5,-599 1072.5,-599 1072.5,-599 1078.5,-599 1084.5,-605 1084.5,-611 1084.5,-611 1084.5,-748 1084.5,-748 1084.5,-754 1078.5,-760 1072.5,-760 1072.5,-760 758.5,-760 758.5,-760 752.5,-760 746.5,-754 746.5,-748 746.5,-748 746.5,-611 746.5,-611 746.5,-605 752.5,-599 758.5,-599"/>
<text text-anchor="middle" x="780.5" y="-675.8" font-family="Times,serif" font-size="14.00" fill="#000000">sample</text>
<polyline fill="none" stroke="#000000" points="814.5,-599 814.5,-760 "/>
<text text-anchor="middle" x="825" y="-675.8" font-family="Times,serif" font-size="14.00" fill="#000000"> </text>
<polyline fill="none" stroke="#000000" points="835.5,-599 835.5,-760 "/>
<text text-anchor="middle" x="949.5" y="-744.8" font-family="Times,serif" font-size="14.00" fill="#000000">anatomic_site</text>
<polyline fill="none" stroke="#000000" points="835.5,-737 1063.5,-737 "/>
<text text-anchor="middle" x="949.5" y="-721.8" font-family="Times,serif" font-size="14.00" fill="#000000">id</text>
<polyline fill="none" stroke="#000000" points="835.5,-714 1063.5,-714 "/>
<text text-anchor="middle" x="949.5" y="-698.8" font-family="Times,serif" font-size="14.00" fill="#000000">participant_age_at_collection</text>
<polyline fill="none" stroke="#000000" points="835.5,-691 1063.5,-691 "/>
<text text-anchor="middle" x="949.5" y="-675.8" font-family="Times,serif" font-size="14.00" fill="#000000">sample_description</text>
<polyline fill="none" stroke="#000000" points="835.5,-668 1063.5,-668 "/>
<text text-anchor="middle" x="949.5" y="-652.8" font-family="Times,serif" font-size="14.00" fill="#000000">sample_id</text>
<polyline fill="none" stroke="#000000" points="835.5,-645 1063.5,-645 "/>
<text text-anchor="middle" x="949.5" y="-629.8" font-family="Times,serif" font-size="14.00" fill="#000000">sample_tumor_status</text>
<polyline fill="none" stroke="#000000" points="835.5,-622 1063.5,-622 "/>
<text text-anchor="middle" x="949.5" y="-606.8" font-family="Times,serif" font-size="14.00" fill="#000000">tumor_classification</text>
<polyline fill="none" stroke="#000000" points="1063.5,-599 1063.5,-760 "/>
<text text-anchor="middle" x="1074" y="-675.8" font-family="Times,serif" font-size="14.00" fill="#000000"> </text>
</g>
<!-- sample&#45;&gt;participant -->
<g id="edge3" class="edge">
<title>sample&#45;&gt;participant</title>
<path fill="none" stroke="#000000" d="M969.6295,-598.9659C1005.5883,-545.4661 1051.8526,-476.634 1083.6148,-429.378"/>
<polygon fill="#000000" stroke="#000000" points="1086.6974,-431.0658 1089.371,-420.8139 1080.8878,-427.161 1086.6974,-431.0658"/>
<text text-anchor="middle" x="1067" y="-511.8" font-family="Times,serif" font-size="14.00" fill="#000000">of_sample</text>
</g>
<!-- participant&#45;&gt;study -->
<g id="edge5" class="edge">
<title>participant&#45;&gt;study</title>
<path fill="none" stroke="#000000" d="M1024.5056,-328.4601C931.7132,-283.956 790.4191,-216.1899 687.3559,-166.7598"/>
<polygon fill="#000000" stroke="#000000" points="688.6612,-163.5041 678.131,-162.3355 685.6341,-169.8158 688.6612,-163.5041"/>
<text text-anchor="middle" x="889" y="-229.8" font-family="Times,serif" font-size="14.00" fill="#000000">of_participant</text>
</g>
<!-- diagnosis -->
<g id="node7" class="node">
<title>diagnosis</title>
<path fill="none" stroke="#000000" d="M836,-869.5C836,-869.5 1201,-869.5 1201,-869.5 1207,-869.5 1213,-875.5 1213,-881.5 1213,-881.5 1213,-1248.5 1213,-1248.5 1213,-1254.5 1207,-1260.5 1201,-1260.5 1201,-1260.5 836,-1260.5 836,-1260.5 830,-1260.5 824,-1254.5 824,-1248.5 824,-1248.5 824,-881.5 824,-881.5 824,-875.5 830,-869.5 836,-869.5"/>
<text text-anchor="middle" x="866" y="-1061.3" font-family="Times,serif" font-size="14.00" fill="#000000">diagnosis</text>
<polyline fill="none" stroke="#000000" points="908,-869.5 908,-1260.5 "/>
<text text-anchor="middle" x="918.5" y="-1061.3" font-family="Times,serif" font-size="14.00" fill="#000000"> </text>
<polyline fill="none" stroke="#000000" points="929,-869.5 929,-1260.5 "/>
<text text-anchor="middle" x="1060.5" y="-1245.3" font-family="Times,serif" font-size="14.00" fill="#000000">age_at_diagnosis</text>
<polyline fill="none" stroke="#000000" points="929,-1237.5 1192,-1237.5 "/>
<text text-anchor="middle" x="1060.5" y="-1222.3" font-family="Times,serif" font-size="14.00" fill="#000000">anatomic_site</text>
<polyline fill="none" stroke="#000000" points="929,-1214.5 1192,-1214.5 "/>
<text text-anchor="middle" x="1060.5" y="-1199.3" font-family="Times,serif" font-size="14.00" fill="#000000">diagnosis</text>
<polyline fill="none" stroke="#000000" points="929,-1191.5 1192,-1191.5 "/>
<text text-anchor="middle" x="1060.5" y="-1176.3" font-family="Times,serif" font-size="14.00" fill="#000000">diagnosis_basis</text>
<polyline fill="none" stroke="#000000" points="929,-1168.5 1192,-1168.5 "/>
<text text-anchor="middle" x="1060.5" y="-1153.3" font-family="Times,serif" font-size="14.00" fill="#000000">diagnosis_classification_system</text>
<polyline fill="none" stroke="#000000" points="929,-1145.5 1192,-1145.5 "/>
<text text-anchor="middle" x="1060.5" y="-1130.3" font-family="Times,serif" font-size="14.00" fill="#000000">diagnosis_comment</text>
<polyline fill="none" stroke="#000000" points="929,-1122.5 1192,-1122.5 "/>
<text text-anchor="middle" x="1060.5" y="-1107.3" font-family="Times,serif" font-size="14.00" fill="#000000">diagnosis_id</text>
<polyline fill="none" stroke="#000000" points="929,-1099.5 1192,-1099.5 "/>
<text text-anchor="middle" x="1060.5" y="-1084.3" font-family="Times,serif" font-size="14.00" fill="#000000">disease_phase</text>
<polyline fill="none" stroke="#000000" points="929,-1076.5 1192,-1076.5 "/>
<text text-anchor="middle" x="1060.5" y="-1061.3" font-family="Times,serif" font-size="14.00" fill="#000000">id</text>
<polyline fill="none" stroke="#000000" points="929,-1053.5 1192,-1053.5 "/>
<text text-anchor="middle" x="1060.5" y="-1038.3" font-family="Times,serif" font-size="14.00" fill="#000000">laterality</text>
<polyline fill="none" stroke="#000000" points="929,-1030.5 1192,-1030.5 "/>
<text text-anchor="middle" x="1060.5" y="-1015.3" font-family="Times,serif" font-size="14.00" fill="#000000">toronto_childhood_cancer_staging</text>
<polyline fill="none" stroke="#000000" points="929,-1007.5 1192,-1007.5 "/>
<text text-anchor="middle" x="1060.5" y="-992.3" font-family="Times,serif" font-size="14.00" fill="#000000">tumor_classification</text>
<polyline fill="none" stroke="#000000" points="929,-984.5 1192,-984.5 "/>
<text text-anchor="middle" x="1060.5" y="-969.3" font-family="Times,serif" font-size="14.00" fill="#000000">tumor_grade</text>
<polyline fill="none" stroke="#000000" points="929,-961.5 1192,-961.5 "/>
<text text-anchor="middle" x="1060.5" y="-946.3" font-family="Times,serif" font-size="14.00" fill="#000000">tumor_stage_clinical_m</text>
<polyline fill="none" stroke="#000000" points="929,-938.5 1192,-938.5 "/>
<text text-anchor="middle" x="1060.5" y="-923.3" font-family="Times,serif" font-size="14.00" fill="#000000">tumor_stage_clinical_n</text>
<polyline fill="none" stroke="#000000" points="929,-915.5 1192,-915.5 "/>
<text text-anchor="middle" x="1060.5" y="-900.3" font-family="Times,serif" font-size="14.00" fill="#000000">tumor_stage_clinical_t</text>
<polyline fill="none" stroke="#000000" points="929,-892.5 1192,-892.5 "/>
<text text-anchor="middle" x="1060.5" y="-877.3" font-family="Times,serif" font-size="14.00" fill="#000000">year_of_diagnosis</text>
<polyline fill="none" stroke="#000000" points="1192,-869.5 1192,-1260.5 "/>
<text text-anchor="middle" x="1202.5" y="-1061.3" font-family="Times,serif" font-size="14.00" fill="#000000"> </text>
</g>
<!-- diagnosis&#45;&gt;sample -->
<g id="edge10" class="edge">
<title>diagnosis&#45;&gt;sample</title>
<path fill="none" stroke="#000000" d="M966.2456,-869.4266C956.9845,-834.765 947.756,-800.2251 939.7582,-770.2917"/>
<polygon fill="#000000" stroke="#000000" points="943.0576,-769.0811 937.0949,-760.3235 936.2949,-770.8881 943.0576,-769.0811"/>
<text text-anchor="middle" x="1006" y="-839.8" font-family="Times,serif" font-size="14.00" fill="#000000">of_diagnosis</text>
</g>
<!-- diagnosis&#45;&gt;participant -->
<g id="edge11" class="edge">
<title>diagnosis&#45;&gt;participant</title>
<path fill="none" stroke="#000000" d="M1082.4805,-869.1751C1086.7177,-851.9889 1090.488,-834.7613 1093.5,-818 1118.2205,-680.4331 1121.4733,-515.4267 1121.2635,-430.7384"/>
<polygon fill="#000000" stroke="#000000" points="1124.7628,-430.5537 1121.2205,-420.5686 1117.7629,-430.5833 1124.7628,-430.5537"/>
<text text-anchor="middle" x="1164" y="-675.8" font-family="Times,serif" font-size="14.00" fill="#000000">of_diagnosis</text>
</g>
<!-- survival -->
<g id="node8" class="node">
<title>survival</title>
<path fill="none" stroke="#000000" d="M1240,-587.5C1240,-587.5 1601,-587.5 1601,-587.5 1607,-587.5 1613,-593.5 1613,-599.5 1613,-599.5 1613,-759.5 1613,-759.5 1613,-765.5 1607,-771.5 1601,-771.5 1601,-771.5 1240,-771.5 1240,-771.5 1234,-771.5 1228,-765.5 1228,-759.5 1228,-759.5 1228,-599.5 1228,-599.5 1228,-593.5 1234,-587.5 1240,-587.5"/>
<text text-anchor="middle" x="1265" y="-675.8" font-family="Times,serif" font-size="14.00" fill="#000000">survival</text>
<polyline fill="none" stroke="#000000" points="1302,-587.5 1302,-771.5 "/>
<text text-anchor="middle" x="1312.5" y="-675.8" font-family="Times,serif" font-size="14.00" fill="#000000"> </text>
<polyline fill="none" stroke="#000000" points="1323,-587.5 1323,-771.5 "/>
<text text-anchor="middle" x="1457.5" y="-756.3" font-family="Times,serif" font-size="14.00" fill="#000000">age_at_event_free_survival_status</text>
<polyline fill="none" stroke="#000000" points="1323,-748.5 1592,-748.5 "/>
<text text-anchor="middle" x="1457.5" y="-733.3" font-family="Times,serif" font-size="14.00" fill="#000000">age_at_last_known_survival_status</text>
<polyline fill="none" stroke="#000000" points="1323,-725.5 1592,-725.5 "/>
<text text-anchor="middle" x="1457.5" y="-710.3" font-family="Times,serif" font-size="14.00" fill="#000000">cause_of_death</text>
<polyline fill="none" stroke="#000000" points="1323,-702.5 1592,-702.5 "/>
<text text-anchor="middle" x="1457.5" y="-687.3" font-family="Times,serif" font-size="14.00" fill="#000000">event_free_survival_status</text>
<polyline fill="none" stroke="#000000" points="1323,-679.5 1592,-679.5 "/>
<text text-anchor="middle" x="1457.5" y="-664.3" font-family="Times,serif" font-size="14.00" fill="#000000">first_event</text>
<polyline fill="none" stroke="#000000" points="1323,-656.5 1592,-656.5 "/>
<text text-anchor="middle" x="1457.5" y="-641.3" font-family="Times,serif" font-size="14.00" fill="#000000">id</text>
<polyline fill="none" stroke="#000000" points="1323,-633.5 1592,-633.5 "/>
<text text-anchor="middle" x="1457.5" y="-618.3" font-family="Times,serif" font-size="14.00" fill="#000000">last_known_survival_status</text>
<polyline fill="none" stroke="#000000" points="1323,-610.5 1592,-610.5 "/>
<text text-anchor="middle" x="1457.5" y="-595.3" font-family="Times,serif" font-size="14.00" fill="#000000">survival_id</text>
<polyline fill="none" stroke="#000000" points="1592,-587.5 1592,-771.5 "/>
<text text-anchor="middle" x="1602.5" y="-675.8" font-family="Times,serif" font-size="14.00" fill="#000000"> </text>
</g>
<!-- survival&#45;&gt;participant -->
<g id="edge4" class="edge">
<title>survival&#45;&gt;participant</title>
<path fill="none" stroke="#000000" d="M1329.676,-587.1622C1278.3803,-535.0116 1216.0889,-471.6821 1172.8894,-427.7626"/>
<polygon fill="#000000" stroke="#000000" points="1175.365,-425.2882 1165.8573,-420.6133 1170.3745,-430.1969 1175.365,-425.2882"/>
<text text-anchor="middle" x="1302" y="-511.8" font-family="Times,serif" font-size="14.00" fill="#000000">of_survival</text>
</g>
<!-- synonym -->
<g id="node9" class="node">
<title>synonym</title>
<path fill="none" stroke="#000000" d="M12,-599C12,-599 313,-599 313,-599 319,-599 325,-605 325,-611 325,-611 325,-748 325,-748 325,-754 319,-760 313,-760 313,-760 12,-760 12,-760 6,-760 0,-754 0,-748 0,-748 0,-611 0,-611 0,-605 6,-599 12,-599"/>
<text text-anchor="middle" x="40" y="-675.8" font-family="Times,serif" font-size="14.00" fill="#000000">synonym</text>
<polyline fill="none" stroke="#000000" points="80,-599 80,-760 "/>
<text text-anchor="middle" x="90.5" y="-675.8" font-family="Times,serif" font-size="14.00" fill="#000000"> </text>
<polyline fill="none" stroke="#000000" points="101,-599 101,-760 "/>
<text text-anchor="middle" x="202.5" y="-744.8" font-family="Times,serif" font-size="14.00" fill="#000000">associated_id</text>
<polyline fill="none" stroke="#000000" points="101,-737 304,-737 "/>
<text text-anchor="middle" x="202.5" y="-721.8" font-family="Times,serif" font-size="14.00" fill="#000000">data_location</text>
<polyline fill="none" stroke="#000000" points="101,-714 304,-714 "/>
<text text-anchor="middle" x="202.5" y="-698.8" font-family="Times,serif" font-size="14.00" fill="#000000">domain_category</text>
<polyline fill="none" stroke="#000000" points="101,-691 304,-691 "/>
<text text-anchor="middle" x="202.5" y="-675.8" font-family="Times,serif" font-size="14.00" fill="#000000">domain_description</text>
<polyline fill="none" stroke="#000000" points="101,-668 304,-668 "/>
<text text-anchor="middle" x="202.5" y="-652.8" font-family="Times,serif" font-size="14.00" fill="#000000">id</text>
<polyline fill="none" stroke="#000000" points="101,-645 304,-645 "/>
<text text-anchor="middle" x="202.5" y="-629.8" font-family="Times,serif" font-size="14.00" fill="#000000">repository_of_synonym_id</text>
<polyline fill="none" stroke="#000000" points="101,-622 304,-622 "/>
<text text-anchor="middle" x="202.5" y="-606.8" font-family="Times,serif" font-size="14.00" fill="#000000">synonym_id</text>
<polyline fill="none" stroke="#000000" points="304,-599 304,-760 "/>
<text text-anchor="middle" x="314.5" y="-675.8" font-family="Times,serif" font-size="14.00" fill="#000000"> </text>
</g>
<!-- synonym&#45;&gt;study -->
<g id="edge8" class="edge">
<title>synonym&#45;&gt;study</title>
<path fill="none" stroke="#000000" d="M174.8256,-598.614C192.1062,-507.7907 230.9335,-359.9389 311.5,-259 342.0592,-220.7135 384.7944,-189.1351 426.0304,-164.6982"/>
<polygon fill="#000000" stroke="#000000" points="427.9204,-167.6478 434.802,-159.5921 424.3988,-161.5981 427.9204,-167.6478"/>
<text text-anchor="middle" x="354" y="-370.8" font-family="Times,serif" font-size="14.00" fill="#000000">of_synonym</text>
</g>
<!-- synonym&#45;&gt;participant -->
<g id="edge7" class="edge">
<title>synonym&#45;&gt;participant</title>
<path fill="none" stroke="#000000" d="M243.3764,-598.9255C270.0569,-576.7033 301.2203,-554.9052 333.5,-541 490.8095,-473.2357 547.8116,-524.9126 715.5,-490 805.5966,-471.242 905.0013,-443.0088 982.7816,-419.1522"/>
<polygon fill="#000000" stroke="#000000" points="984.1134,-422.4044 992.6405,-416.1163 982.0533,-415.7144 984.1134,-422.4044"/>
<text text-anchor="middle" x="483" y="-511.8" font-family="Times,serif" font-size="14.00" fill="#000000">of_synonym</text>
</g>
<!-- genetic_analysis -->
<g id="node10" class="node">
<title>genetic_analysis</title>
<path fill="none" stroke="#000000" d="M1643,-553C1643,-553 1986,-553 1986,-553 1992,-553 1998,-559 1998,-565 1998,-565 1998,-794 1998,-794 1998,-800 1992,-806 1986,-806 1986,-806 1643,-806 1643,-806 1637,-806 1631,-800 1631,-794 1631,-794 1631,-565 1631,-565 1631,-559 1637,-553 1643,-553"/>
<text text-anchor="middle" x="1698.5" y="-675.8" font-family="Times,serif" font-size="14.00" fill="#000000">genetic_analysis</text>
<polyline fill="none" stroke="#000000" points="1766,-553 1766,-806 "/>
<text text-anchor="middle" x="1776.5" y="-675.8" font-family="Times,serif" font-size="14.00" fill="#000000"> </text>
<polyline fill="none" stroke="#000000" points="1787,-553 1787,-806 "/>
<text text-anchor="middle" x="1882" y="-790.8" font-family="Times,serif" font-size="14.00" fill="#000000">age_at_genetic_analysis</text>
<polyline fill="none" stroke="#000000" points="1787,-783 1977,-783 "/>
<text text-anchor="middle" x="1882" y="-767.8" font-family="Times,serif" font-size="14.00" fill="#000000">allelic_ratio</text>
<polyline fill="none" stroke="#000000" points="1787,-760 1977,-760 "/>
<text text-anchor="middle" x="1882" y="-744.8" font-family="Times,serif" font-size="14.00" fill="#000000">alteration</text>
<polyline fill="none" stroke="#000000" points="1787,-737 1977,-737 "/>
<text text-anchor="middle" x="1882" y="-721.8" font-family="Times,serif" font-size="14.00" fill="#000000">dna_index_numeric</text>
<polyline fill="none" stroke="#000000" points="1787,-714 1977,-714 "/>
<text text-anchor="middle" x="1882" y="-698.8" font-family="Times,serif" font-size="14.00" fill="#000000">genetic_analysis_id</text>
<polyline fill="none" stroke="#000000" points="1787,-691 1977,-691 "/>
<text text-anchor="middle" x="1882" y="-675.8" font-family="Times,serif" font-size="14.00" fill="#000000">hgvs_coding</text>
<polyline fill="none" stroke="#000000" points="1787,-668 1977,-668 "/>
<text text-anchor="middle" x="1882" y="-652.8" font-family="Times,serif" font-size="14.00" fill="#000000">hgvs_protein</text>
<polyline fill="none" stroke="#000000" points="1787,-645 1977,-645 "/>
<text text-anchor="middle" x="1882" y="-629.8" font-family="Times,serif" font-size="14.00" fill="#000000">id</text>
<polyline fill="none" stroke="#000000" points="1787,-622 1977,-622 "/>
<text text-anchor="middle" x="1882" y="-606.8" font-family="Times,serif" font-size="14.00" fill="#000000">iscn</text>
<polyline fill="none" stroke="#000000" points="1787,-599 1977,-599 "/>
<text text-anchor="middle" x="1882" y="-583.8" font-family="Times,serif" font-size="14.00" fill="#000000">status</text>
<polyline fill="none" stroke="#000000" points="1787,-576 1977,-576 "/>
<text text-anchor="middle" x="1882" y="-560.8" font-family="Times,serif" font-size="14.00" fill="#000000">vaf_numeric</text>
<polyline fill="none" stroke="#000000" points="1977,-553 1977,-806 "/>
<text text-anchor="middle" x="1987.5" y="-675.8" font-family="Times,serif" font-size="14.00" fill="#000000"> </text>
</g>
<!-- genetic_analysis&#45;&gt;participant -->
<g id="edge6" class="edge">
<title>genetic_analysis&#45;&gt;participant</title>
<path fill="none" stroke="#000000" d="M1643.5835,-552.9589C1636.2255,-548.7552 1628.8478,-544.7477 1621.5,-541 1504.435,-481.2915 1361.3501,-436.2382 1258.1098,-408.153"/>
<polygon fill="#000000" stroke="#000000" points="1258.8122,-404.7174 1248.2454,-405.4882 1256.9865,-411.4751 1258.8122,-404.7174"/>
<text text-anchor="middle" x="1653.5" y="-511.8" font-family="Times,serif" font-size="14.00" fill="#000000">of_genetic_analysis</text>
</g>
<!-- laboratory_test -->
<g id="node11" class="node">
<title>laboratory_test</title>
<path fill="none" stroke="#000000" d="M2028,-541.5C2028,-541.5 2319,-541.5 2319,-541.5 2325,-541.5 2331,-547.5 2331,-553.5 2331,-553.5 2331,-805.5 2331,-805.5 2331,-811.5 2325,-817.5 2319,-817.5 2319,-817.5 2028,-817.5 2028,-817.5 2022,-817.5 2016,-811.5 2016,-805.5 2016,-805.5 2016,-553.5 2016,-553.5 2016,-547.5 2022,-541.5 2028,-541.5"/>
<text text-anchor="middle" x="2079" y="-675.8" font-family="Times,serif" font-size="14.00" fill="#000000">laboratory_test</text>
<polyline fill="none" stroke="#000000" points="2142,-541.5 2142,-817.5 "/>
<text text-anchor="middle" x="2152.5" y="-675.8" font-family="Times,serif" font-size="14.00" fill="#000000"> </text>
<polyline fill="none" stroke="#000000" points="2163,-541.5 2163,-817.5 "/>
<text text-anchor="middle" x="2236.5" y="-802.3" font-family="Times,serif" font-size="14.00" fill="#000000">age_at_lab</text>
<polyline fill="none" stroke="#000000" points="2163,-794.5 2310,-794.5 "/>
<text text-anchor="middle" x="2236.5" y="-779.3" font-family="Times,serif" font-size="14.00" fill="#000000">id</text>
<polyline fill="none" stroke="#000000" points="2163,-771.5 2310,-771.5 "/>
<text text-anchor="middle" x="2236.5" y="-756.3" font-family="Times,serif" font-size="14.00" fill="#000000">laboratory_test_id</text>
<polyline fill="none" stroke="#000000" points="2163,-748.5 2310,-748.5 "/>
<text text-anchor="middle" x="2236.5" y="-733.3" font-family="Times,serif" font-size="14.00" fill="#000000">method</text>
<polyline fill="none" stroke="#000000" points="2163,-725.5 2310,-725.5 "/>
<text text-anchor="middle" x="2236.5" y="-710.3" font-family="Times,serif" font-size="14.00" fill="#000000">result</text>
<polyline fill="none" stroke="#000000" points="2163,-702.5 2310,-702.5 "/>
<text text-anchor="middle" x="2236.5" y="-687.3" font-family="Times,serif" font-size="14.00" fill="#000000">result_modifier</text>
<polyline fill="none" stroke="#000000" points="2163,-679.5 2310,-679.5 "/>
<text text-anchor="middle" x="2236.5" y="-664.3" font-family="Times,serif" font-size="14.00" fill="#000000">result_numeric</text>
<polyline fill="none" stroke="#000000" points="2163,-656.5 2310,-656.5 "/>
<text text-anchor="middle" x="2236.5" y="-641.3" font-family="Times,serif" font-size="14.00" fill="#000000">result_text</text>
<polyline fill="none" stroke="#000000" points="2163,-633.5 2310,-633.5 "/>
<text text-anchor="middle" x="2236.5" y="-618.3" font-family="Times,serif" font-size="14.00" fill="#000000">result_unit</text>
<polyline fill="none" stroke="#000000" points="2163,-610.5 2310,-610.5 "/>
<text text-anchor="middle" x="2236.5" y="-595.3" font-family="Times,serif" font-size="14.00" fill="#000000">sensitivity</text>
<polyline fill="none" stroke="#000000" points="2163,-587.5 2310,-587.5 "/>
<text text-anchor="middle" x="2236.5" y="-572.3" font-family="Times,serif" font-size="14.00" fill="#000000">specimen</text>
<polyline fill="none" stroke="#000000" points="2163,-564.5 2310,-564.5 "/>
<text text-anchor="middle" x="2236.5" y="-549.3" font-family="Times,serif" font-size="14.00" fill="#000000">test</text>
<polyline fill="none" stroke="#000000" points="2310,-541.5 2310,-817.5 "/>
<text text-anchor="middle" x="2320.5" y="-675.8" font-family="Times,serif" font-size="14.00" fill="#000000"> </text>
</g>
<!-- laboratory_test&#45;&gt;participant -->
<g id="edge12" class="edge">
<title>laboratory_test&#45;&gt;participant</title>
<path fill="none" stroke="#000000" d="M2015.8761,-545.1315C2013.0938,-543.699 2010.301,-542.3201 2007.5,-541 1876.6176,-479.3126 1472.9021,-419.9713 1258.1536,-391.6994"/>
<polygon fill="#000000" stroke="#000000" points="1258.4425,-388.2074 1248.0721,-390.3767 1257.5318,-395.1479 1258.4425,-388.2074"/>
<text text-anchor="middle" x="2021" y="-511.8" font-family="Times,serif" font-size="14.00" fill="#000000">of_laboratory_test</text>
</g>
</g>
</svg>
