<svg width="1616pt" height="1574pt"
 viewBox="0.00 0.00 1615.50 1574.00" xmlns="http://www.w3.org/2000/svg" xmlns:xlink="http://www.w3.org/1999/xlink">
<g id="graph0" class="graph" transform="scale(1 1) rotate(0) translate(4 1570)">
<title>Perl</title>
<polygon fill="#ffffff" stroke="transparent" points="-4,4 -4,-1570 1611.5,-1570 1611.5,4 -4,4"/>
<!-- participant -->
<g id="node1" class="node">
<title>participant</title>
<path fill="none" stroke="#000000" d="M503,-449.5C503,-449.5 807,-449.5 807,-449.5 813,-449.5 819,-455.5 819,-461.5 819,-461.5 819,-552.5 819,-552.5 819,-558.5 813,-564.5 807,-564.5 807,-564.5 503,-564.5 503,-564.5 497,-564.5 491,-558.5 491,-552.5 491,-552.5 491,-461.5 491,-461.5 491,-455.5 497,-449.5 503,-449.5"/>
<text text-anchor="middle" x="539" y="-503.3" font-family="Times,serif" font-size="14.00" fill="#000000">participant</text>
<polyline fill="none" stroke="#000000" points="587,-449.5 587,-564.5 "/>
<text text-anchor="middle" x="597.5" y="-503.3" font-family="Times,serif" font-size="14.00" fill="#000000"> </text>
<polyline fill="none" stroke="#000000" points="608,-449.5 608,-564.5 "/>
<text text-anchor="middle" x="703" y="-549.3" font-family="Times,serif" font-size="14.00" fill="#000000">alternate_participant_id</text>
<polyline fill="none" stroke="#000000" points="608,-541.5 798,-541.5 "/>
<text text-anchor="middle" x="703" y="-526.3" font-family="Times,serif" font-size="14.00" fill="#000000">ethnicity</text>
<polyline fill="none" stroke="#000000" points="608,-518.5 798,-518.5 "/>
<text text-anchor="middle" x="703" y="-503.3" font-family="Times,serif" font-size="14.00" fill="#000000">gender</text>
<polyline fill="none" stroke="#000000" points="608,-495.5 798,-495.5 "/>
<text text-anchor="middle" x="703" y="-480.3" font-family="Times,serif" font-size="14.00" fill="#000000">participant_id</text>
<polyline fill="none" stroke="#000000" points="608,-472.5 798,-472.5 "/>
<text text-anchor="middle" x="703" y="-457.3" font-family="Times,serif" font-size="14.00" fill="#000000">race</text>
<polyline fill="none" stroke="#000000" points="798,-449.5 798,-564.5 "/>
<text text-anchor="middle" x="808.5" y="-503.3" font-family="Times,serif" font-size="14.00" fill="#000000"> </text>
</g>
<!-- study_arm -->
<g id="node3" class="node">
<title>study_arm</title>
<path fill="none" stroke="#000000" d="M621.5,-328.5C621.5,-328.5 918.5,-328.5 918.5,-328.5 924.5,-328.5 930.5,-334.5 930.5,-340.5 930.5,-340.5 930.5,-385.5 930.5,-385.5 930.5,-391.5 924.5,-397.5 918.5,-397.5 918.5,-397.5 621.5,-397.5 621.5,-397.5 615.5,-397.5 609.5,-391.5 609.5,-385.5 609.5,-385.5 609.5,-340.5 609.5,-340.5 609.5,-334.5 615.5,-328.5 621.5,-328.5"/>
<text text-anchor="middle" x="655.5" y="-359.3" font-family="Times,serif" font-size="14.00" fill="#000000">study_arm</text>
<polyline fill="none" stroke="#000000" points="701.5,-328.5 701.5,-397.5 "/>
<text text-anchor="middle" x="712" y="-359.3" font-family="Times,serif" font-size="14.00" fill="#000000"> </text>
<polyline fill="none" stroke="#000000" points="722.5,-328.5 722.5,-397.5 "/>
<text text-anchor="middle" x="816" y="-382.3" font-family="Times,serif" font-size="14.00" fill="#000000">clinical_trial_arm</text>
<polyline fill="none" stroke="#000000" points="722.5,-374.5 909.5,-374.5 "/>
<text text-anchor="middle" x="816" y="-359.3" font-family="Times,serif" font-size="14.00" fill="#000000">clinical_trial_identifier</text>
<polyline fill="none" stroke="#000000" points="722.5,-351.5 909.5,-351.5 "/>
<text text-anchor="middle" x="816" y="-336.3" font-family="Times,serif" font-size="14.00" fill="#000000">clinical_trial_repository</text>
<polyline fill="none" stroke="#000000" points="909.5,-328.5 909.5,-397.5 "/>
<text text-anchor="middle" x="920" y="-359.3" font-family="Times,serif" font-size="14.00" fill="#000000"> </text>
</g>
<!-- participant&#45;&gt;study_arm -->
<g id="edge2" class="edge">
<title>participant&#45;&gt;study_arm</title>
<path fill="none" stroke="#000000" d="M701.1123,-449.2594C712.8132,-434.6079 725.1694,-419.1357 736.1367,-405.4028"/>
<polygon fill="#000000" stroke="#000000" points="738.9126,-407.5355 742.4181,-397.5374 733.4428,-403.1672 738.9126,-407.5355"/>
<text text-anchor="middle" x="776.5" y="-419.8" font-family="Times,serif" font-size="14.00" fill="#000000">of_participant</text>
</g>
<!-- study -->
<g id="node6" class="node">
<title>study</title>
<path fill="none" stroke="#000000" d="M435,-.5C435,-.5 825,-.5 825,-.5 831,-.5 837,-6.5 837,-12.5 837,-12.5 837,-264.5 837,-264.5 837,-270.5 831,-276.5 825,-276.5 825,-276.5 435,-276.5 435,-276.5 429,-276.5 423,-270.5 423,-264.5 423,-264.5 423,-12.5 423,-12.5 423,-6.5 429,-.5 435,-.5"/>
<text text-anchor="middle" x="451" y="-134.8" font-family="Times,serif" font-size="14.00" fill="#000000">study</text>
<polyline fill="none" stroke="#000000" points="479,-.5 479,-276.5 "/>
<text text-anchor="middle" x="489.5" y="-134.8" font-family="Times,serif" font-size="14.00" fill="#000000"> </text>
<polyline fill="none" stroke="#000000" points="500,-.5 500,-276.5 "/>
<text text-anchor="middle" x="658" y="-261.3" font-family="Times,serif" font-size="14.00" fill="#000000">acl</text>
<polyline fill="none" stroke="#000000" points="500,-253.5 816,-253.5 "/>
<text text-anchor="middle" x="658" y="-238.3" font-family="Times,serif" font-size="14.00" fill="#000000">consent</text>
<polyline fill="none" stroke="#000000" points="500,-230.5 816,-230.5 "/>
<text text-anchor="middle" x="658" y="-215.3" font-family="Times,serif" font-size="14.00" fill="#000000">consent_shorthand</text>
<polyline fill="none" stroke="#000000" points="500,-207.5 816,-207.5 "/>
<text text-anchor="middle" x="658" y="-192.3" font-family="Times,serif" font-size="14.00" fill="#000000">experimental_strategy_and_data_subtype</text>
<polyline fill="none" stroke="#000000" points="500,-184.5 816,-184.5 "/>
<text text-anchor="middle" x="658" y="-169.3" font-family="Times,serif" font-size="14.00" fill="#000000">external_url</text>
<polyline fill="none" stroke="#000000" points="500,-161.5 816,-161.5 "/>
<text text-anchor="middle" x="658" y="-146.3" font-family="Times,serif" font-size="14.00" fill="#000000">phs_accession</text>
<polyline fill="none" stroke="#000000" points="500,-138.5 816,-138.5 "/>
<text text-anchor="middle" x="658" y="-123.3" font-family="Times,serif" font-size="14.00" fill="#000000">size_of_data_being_uploaded</text>
<polyline fill="none" stroke="#000000" points="500,-115.5 816,-115.5 "/>
<text text-anchor="middle" x="658" y="-100.3" font-family="Times,serif" font-size="14.00" fill="#000000">study_acronym</text>
<polyline fill="none" stroke="#000000" points="500,-92.5 816,-92.5 "/>
<text text-anchor="middle" x="658" y="-77.3" font-family="Times,serif" font-size="14.00" fill="#000000">study_data_types</text>
<polyline fill="none" stroke="#000000" points="500,-69.5 816,-69.5 "/>
<text text-anchor="middle" x="658" y="-54.3" font-family="Times,serif" font-size="14.00" fill="#000000">study_description</text>
<polyline fill="none" stroke="#000000" points="500,-46.5 816,-46.5 "/>
<text text-anchor="middle" x="658" y="-31.3" font-family="Times,serif" font-size="14.00" fill="#000000">study_name</text>
<polyline fill="none" stroke="#000000" points="500,-23.5 816,-23.5 "/>
<text text-anchor="middle" x="658" y="-8.3" font-family="Times,serif" font-size="14.00" fill="#000000">study_short_title</text>
<polyline fill="none" stroke="#000000" points="816,-.5 816,-276.5 "/>
<text text-anchor="middle" x="826.5" y="-134.8" font-family="Times,serif" font-size="14.00" fill="#000000"> </text>
</g>
<!-- participant&#45;&gt;study -->
<g id="edge1" class="edge">
<title>participant&#45;&gt;study</title>
<path fill="none" stroke="#000000" d="M544.0672,-449.421C526.3103,-435.0996 510.3851,-417.999 500,-398 481.2147,-361.8246 487.2823,-322.5999 504.3719,-285.8653"/>
<polygon fill="#000000" stroke="#000000" points="507.6652,-287.1002 508.9457,-276.583 501.3861,-284.0061 507.6652,-287.1002"/>
<text text-anchor="middle" x="550.5" y="-359.3" font-family="Times,serif" font-size="14.00" fill="#000000">of_participant</text>
</g>
<!-- diagnosis -->
<g id="node2" class="node">
<title>diagnosis</title>
<path fill="none" stroke="#000000" d="M806,-616.5C806,-616.5 1180,-616.5 1180,-616.5 1186,-616.5 1192,-622.5 1192,-628.5 1192,-628.5 1192,-1064.5 1192,-1064.5 1192,-1070.5 1186,-1076.5 1180,-1076.5 1180,-1076.5 806,-1076.5 806,-1076.5 800,-1076.5 794,-1070.5 794,-1064.5 794,-1064.5 794,-628.5 794,-628.5 794,-622.5 800,-616.5 806,-616.5"/>
<text text-anchor="middle" x="836" y="-842.8" font-family="Times,serif" font-size="14.00" fill="#000000">diagnosis</text>
<polyline fill="none" stroke="#000000" points="878,-616.5 878,-1076.5 "/>
<text text-anchor="middle" x="888.5" y="-842.8" font-family="Times,serif" font-size="14.00" fill="#000000"> </text>
<polyline fill="none" stroke="#000000" points="899,-616.5 899,-1076.5 "/>
<text text-anchor="middle" x="1035" y="-1061.3" font-family="Times,serif" font-size="14.00" fill="#000000">age_at_diagnosis</text>
<polyline fill="none" stroke="#000000" points="899,-1053.5 1171,-1053.5 "/>
<text text-anchor="middle" x="1035" y="-1038.3" font-family="Times,serif" font-size="14.00" fill="#000000">days_to_last_followup</text>
<polyline fill="none" stroke="#000000" points="899,-1030.5 1171,-1030.5 "/>
<text text-anchor="middle" x="1035" y="-1015.3" font-family="Times,serif" font-size="14.00" fill="#000000">days_to_last_known_disease_status</text>
<polyline fill="none" stroke="#000000" points="899,-1007.5 1171,-1007.5 "/>
<text text-anchor="middle" x="1035" y="-992.3" font-family="Times,serif" font-size="14.00" fill="#000000">days_to_recurrence</text>
<polyline fill="none" stroke="#000000" points="899,-984.5 1171,-984.5 "/>
<text text-anchor="middle" x="1035" y="-969.3" font-family="Times,serif" font-size="14.00" fill="#000000">diagnosis_finer_resolution</text>
<polyline fill="none" stroke="#000000" points="899,-961.5 1171,-961.5 "/>
<text text-anchor="middle" x="1035" y="-946.3" font-family="Times,serif" font-size="14.00" fill="#000000">diagnosis_icd_cm</text>
<polyline fill="none" stroke="#000000" points="899,-938.5 1171,-938.5 "/>
<text text-anchor="middle" x="1035" y="-923.3" font-family="Times,serif" font-size="14.00" fill="#000000">diagnosis_icd_o</text>
<polyline fill="none" stroke="#000000" points="899,-915.5 1171,-915.5 "/>
<text text-anchor="middle" x="1035" y="-900.3" font-family="Times,serif" font-size="14.00" fill="#000000">diagnosis_id</text>
<polyline fill="none" stroke="#000000" points="899,-892.5 1171,-892.5 "/>
<text text-anchor="middle" x="1035" y="-877.3" font-family="Times,serif" font-size="14.00" fill="#000000">disease_phase</text>
<polyline fill="none" stroke="#000000" points="899,-869.5 1171,-869.5 "/>
<text text-anchor="middle" x="1035" y="-854.3" font-family="Times,serif" font-size="14.00" fill="#000000">last_known_disease_status</text>
<polyline fill="none" stroke="#000000" points="899,-846.5 1171,-846.5 "/>
<text text-anchor="middle" x="1035" y="-831.3" font-family="Times,serif" font-size="14.00" fill="#000000">primary_site</text>
<polyline fill="none" stroke="#000000" points="899,-823.5 1171,-823.5 "/>
<text text-anchor="middle" x="1035" y="-808.3" font-family="Times,serif" font-size="14.00" fill="#000000">progression_or_recurrence</text>
<polyline fill="none" stroke="#000000" points="899,-800.5 1171,-800.5 "/>
<text text-anchor="middle" x="1035" y="-785.3" font-family="Times,serif" font-size="14.00" fill="#000000">site_of_resection_or_biopsy</text>
<polyline fill="none" stroke="#000000" points="899,-777.5 1171,-777.5 "/>
<text text-anchor="middle" x="1035" y="-762.3" font-family="Times,serif" font-size="14.00" fill="#000000">tissue_or_organ_of_origin</text>
<polyline fill="none" stroke="#000000" points="899,-754.5 1171,-754.5 "/>
<text text-anchor="middle" x="1035" y="-739.3" font-family="Times,serif" font-size="14.00" fill="#000000">tumor_grade</text>
<polyline fill="none" stroke="#000000" points="899,-731.5 1171,-731.5 "/>
<text text-anchor="middle" x="1035" y="-716.3" font-family="Times,serif" font-size="14.00" fill="#000000">tumor_morphology</text>
<polyline fill="none" stroke="#000000" points="899,-708.5 1171,-708.5 "/>
<text text-anchor="middle" x="1035" y="-693.3" font-family="Times,serif" font-size="14.00" fill="#000000">tumor_stage_clinical_m</text>
<polyline fill="none" stroke="#000000" points="899,-685.5 1171,-685.5 "/>
<text text-anchor="middle" x="1035" y="-670.3" font-family="Times,serif" font-size="14.00" fill="#000000">tumor_stage_clinical_n</text>
<polyline fill="none" stroke="#000000" points="899,-662.5 1171,-662.5 "/>
<text text-anchor="middle" x="1035" y="-647.3" font-family="Times,serif" font-size="14.00" fill="#000000">tumor_stage_clinical_t</text>
<polyline fill="none" stroke="#000000" points="899,-639.5 1171,-639.5 "/>
<text text-anchor="middle" x="1035" y="-624.3" font-family="Times,serif" font-size="14.00" fill="#000000">vital_status</text>
<polyline fill="none" stroke="#000000" points="1171,-616.5 1171,-1076.5 "/>
<text text-anchor="middle" x="1181.5" y="-842.8" font-family="Times,serif" font-size="14.00" fill="#000000"> </text>
</g>
<!-- diagnosis&#45;&gt;participant -->
<g id="edge9" class="edge">
<title>diagnosis&#45;&gt;participant</title>
<path fill="none" stroke="#000000" d="M861.5326,-616.209C850.9267,-604.3366 839.7415,-593.1461 828,-583 822.8301,-578.5326 817.3563,-574.289 811.6622,-570.2625"/>
<polygon fill="#000000" stroke="#000000" points="813.4155,-567.2229 803.1719,-564.5176 809.4927,-573.0204 813.4155,-567.2229"/>
<text text-anchor="middle" x="884.5" y="-586.8" font-family="Times,serif" font-size="14.00" fill="#000000">of_diagnosis</text>
</g>
<!-- study_arm&#45;&gt;study -->
<g id="edge10" class="edge">
<title>study_arm&#45;&gt;study</title>
<path fill="none" stroke="#000000" d="M748.4318,-328.4139C740.7305,-316.0643 731.4952,-301.2547 721.6236,-285.425"/>
<polygon fill="#000000" stroke="#000000" points="724.341,-283.1681 716.0796,-276.5349 718.4013,-286.8722 724.341,-283.1681"/>
<text text-anchor="middle" x="784.5" y="-298.8" font-family="Times,serif" font-size="14.00" fill="#000000">of_study_arm</text>
</g>
<!-- clinical_measure_file -->
<g id="node4" class="node">
<title>clinical_measure_file</title>
<path fill="none" stroke="#000000" d="M12,-720C12,-720 364,-720 364,-720 370,-720 376,-726 376,-732 376,-732 376,-961 376,-961 376,-967 370,-973 364,-973 364,-973 12,-973 12,-973 6,-973 0,-967 0,-961 0,-961 0,-732 0,-732 0,-726 6,-720 12,-720"/>
<text text-anchor="middle" x="83.5" y="-842.8" font-family="Times,serif" font-size="14.00" fill="#000000">clinical_measure_file</text>
<polyline fill="none" stroke="#000000" points="167,-720 167,-973 "/>
<text text-anchor="middle" x="177.5" y="-842.8" font-family="Times,serif" font-size="14.00" fill="#000000"> </text>
<polyline fill="none" stroke="#000000" points="188,-720 188,-973 "/>
<text text-anchor="middle" x="271.5" y="-957.8" font-family="Times,serif" font-size="14.00" fill="#000000">checksum_algorithm</text>
<polyline fill="none" stroke="#000000" points="188,-950 355,-950 "/>
<text text-anchor="middle" x="271.5" y="-934.8" font-family="Times,serif" font-size="14.00" fill="#000000">checksum_value</text>
<polyline fill="none" stroke="#000000" points="188,-927 355,-927 "/>
<text text-anchor="middle" x="271.5" y="-911.8" font-family="Times,serif" font-size="14.00" fill="#000000">dcf_indexd_guid</text>
<polyline fill="none" stroke="#000000" points="188,-904 355,-904 "/>
<text text-anchor="middle" x="271.5" y="-888.8" font-family="Times,serif" font-size="14.00" fill="#000000">file_description</text>
<polyline fill="none" stroke="#000000" points="188,-881 355,-881 "/>
<text text-anchor="middle" x="271.5" y="-865.8" font-family="Times,serif" font-size="14.00" fill="#000000">file_mapping_level</text>
<polyline fill="none" stroke="#000000" points="188,-858 355,-858 "/>
<text text-anchor="middle" x="271.5" y="-842.8" font-family="Times,serif" font-size="14.00" fill="#000000">file_name</text>
<polyline fill="none" stroke="#000000" points="188,-835 355,-835 "/>
<text text-anchor="middle" x="271.5" y="-819.8" font-family="Times,serif" font-size="14.00" fill="#000000">file_size</text>
<polyline fill="none" stroke="#000000" points="188,-812 355,-812 "/>
<text text-anchor="middle" x="271.5" y="-796.8" font-family="Times,serif" font-size="14.00" fill="#000000">file_type</text>
<polyline fill="none" stroke="#000000" points="188,-789 355,-789 "/>
<text text-anchor="middle" x="271.5" y="-773.8" font-family="Times,serif" font-size="14.00" fill="#000000">file_url_in_cds</text>
<polyline fill="none" stroke="#000000" points="188,-766 355,-766 "/>
<text text-anchor="middle" x="271.5" y="-750.8" font-family="Times,serif" font-size="14.00" fill="#000000">md5sum</text>
<polyline fill="none" stroke="#000000" points="188,-743 355,-743 "/>
<text text-anchor="middle" x="271.5" y="-727.8" font-family="Times,serif" font-size="14.00" fill="#000000">participant_list</text>
<polyline fill="none" stroke="#000000" points="355,-720 355,-973 "/>
<text text-anchor="middle" x="365.5" y="-842.8" font-family="Times,serif" font-size="14.00" fill="#000000"> </text>
</g>
<!-- clinical_measure_file&#45;&gt;participant -->
<g id="edge8" class="edge">
<title>clinical_measure_file&#45;&gt;participant</title>
<path fill="none" stroke="#000000" d="M252.7804,-719.9065C283.7052,-670.7151 324.9744,-617.9135 375,-583 406.3762,-561.1022 443.7851,-545.5081 480.884,-534.4049"/>
<polygon fill="#000000" stroke="#000000" points="482.1824,-537.673 490.8178,-531.5346 480.2392,-530.9481 482.1824,-537.673"/>
<text text-anchor="middle" x="504.5" y="-586.8" font-family="Times,serif" font-size="14.00" fill="#000000">of_clinical_measure_file_participant</text>
</g>
<!-- clinical_measure_file&#45;&gt;study -->
<g id="edge7" class="edge">
<title>clinical_measure_file&#45;&gt;study</title>
<path fill="none" stroke="#000000" d="M214.4488,-719.6705C237.1237,-629.8822 275.8268,-509.324 336,-416 366.6776,-368.4214 407.2088,-323.277 448.3392,-283.756"/>
<polygon fill="#000000" stroke="#000000" points="450.9228,-286.1289 455.7523,-276.6988 446.0962,-281.0589 450.9228,-286.1289"/>
<text text-anchor="middle" x="422" y="-419.8" font-family="Times,serif" font-size="14.00" fill="#000000">of_clinical_measure_file</text>
</g>
<!-- therapeutic_procedure -->
<g id="node5" class="node">
<title>therapeutic_procedure</title>
<path fill="none" stroke="#000000" d="M406.5,-789C406.5,-789 763.5,-789 763.5,-789 769.5,-789 775.5,-795 775.5,-801 775.5,-801 775.5,-892 775.5,-892 775.5,-898 769.5,-904 763.5,-904 763.5,-904 406.5,-904 406.5,-904 400.5,-904 394.5,-898 394.5,-892 394.5,-892 394.5,-801 394.5,-801 394.5,-795 400.5,-789 406.5,-789"/>
<text text-anchor="middle" x="485" y="-842.8" font-family="Times,serif" font-size="14.00" fill="#000000">therapeutic_procedure</text>
<polyline fill="none" stroke="#000000" points="575.5,-789 575.5,-904 "/>
<text text-anchor="middle" x="586" y="-842.8" font-family="Times,serif" font-size="14.00" fill="#000000"> </text>
<polyline fill="none" stroke="#000000" points="596.5,-789 596.5,-904 "/>
<text text-anchor="middle" x="675.5" y="-888.8" font-family="Times,serif" font-size="14.00" fill="#000000">days_to_treatment</text>
<polyline fill="none" stroke="#000000" points="596.5,-881 754.5,-881 "/>
<text text-anchor="middle" x="675.5" y="-865.8" font-family="Times,serif" font-size="14.00" fill="#000000">therapeutic_agents</text>
<polyline fill="none" stroke="#000000" points="596.5,-858 754.5,-858 "/>
<text text-anchor="middle" x="675.5" y="-842.8" font-family="Times,serif" font-size="14.00" fill="#000000">treatment_id</text>
<polyline fill="none" stroke="#000000" points="596.5,-835 754.5,-835 "/>
<text text-anchor="middle" x="675.5" y="-819.8" font-family="Times,serif" font-size="14.00" fill="#000000">treatment_outcome</text>
<polyline fill="none" stroke="#000000" points="596.5,-812 754.5,-812 "/>
<text text-anchor="middle" x="675.5" y="-796.8" font-family="Times,serif" font-size="14.00" fill="#000000">treatment_type</text>
<polyline fill="none" stroke="#000000" points="754.5,-789 754.5,-904 "/>
<text text-anchor="middle" x="765" y="-842.8" font-family="Times,serif" font-size="14.00" fill="#000000"> </text>
</g>
<!-- therapeutic_procedure&#45;&gt;participant -->
<g id="edge3" class="edge">
<title>therapeutic_procedure&#45;&gt;participant</title>
<path fill="none" stroke="#000000" d="M596.8745,-788.9085C609.1115,-729.5591 628.175,-637.1013 641.1052,-574.3898"/>
<polygon fill="#000000" stroke="#000000" points="644.5342,-575.0908 643.1258,-564.59 637.6784,-573.6772 644.5342,-575.0908"/>
<text text-anchor="middle" x="731" y="-586.8" font-family="Times,serif" font-size="14.00" fill="#000000">of_therapeutic_procedure</text>
</g>
<!-- sample -->
<g id="node7" class="node">
<title>sample</title>
<path fill="none" stroke="#000000" d="M1222,-766C1222,-766 1536,-766 1536,-766 1542,-766 1548,-772 1548,-778 1548,-778 1548,-915 1548,-915 1548,-921 1542,-927 1536,-927 1536,-927 1222,-927 1222,-927 1216,-927 1210,-921 1210,-915 1210,-915 1210,-778 1210,-778 1210,-772 1216,-766 1222,-766"/>
<text text-anchor="middle" x="1244" y="-842.8" font-family="Times,serif" font-size="14.00" fill="#000000">sample</text>
<polyline fill="none" stroke="#000000" points="1278,-766 1278,-927 "/>
<text text-anchor="middle" x="1288.5" y="-842.8" font-family="Times,serif" font-size="14.00" fill="#000000"> </text>
<polyline fill="none" stroke="#000000" points="1299,-766 1299,-927 "/>
<text text-anchor="middle" x="1413" y="-911.8" font-family="Times,serif" font-size="14.00" fill="#000000">alternate_sample_id</text>
<polyline fill="none" stroke="#000000" points="1299,-904 1527,-904 "/>
<text text-anchor="middle" x="1413" y="-888.8" font-family="Times,serif" font-size="14.00" fill="#000000">participant_age_at_collection</text>
<polyline fill="none" stroke="#000000" points="1299,-881 1527,-881 "/>
<text text-anchor="middle" x="1413" y="-865.8" font-family="Times,serif" font-size="14.00" fill="#000000">sample_anatomic_site</text>
<polyline fill="none" stroke="#000000" points="1299,-858 1527,-858 "/>
<text text-anchor="middle" x="1413" y="-842.8" font-family="Times,serif" font-size="14.00" fill="#000000">sample_description</text>
<polyline fill="none" stroke="#000000" points="1299,-835 1527,-835 "/>
<text text-anchor="middle" x="1413" y="-819.8" font-family="Times,serif" font-size="14.00" fill="#000000">sample_id</text>
<polyline fill="none" stroke="#000000" points="1299,-812 1527,-812 "/>
<text text-anchor="middle" x="1413" y="-796.8" font-family="Times,serif" font-size="14.00" fill="#000000">sample_tumor_status</text>
<polyline fill="none" stroke="#000000" points="1299,-789 1527,-789 "/>
<text text-anchor="middle" x="1413" y="-773.8" font-family="Times,serif" font-size="14.00" fill="#000000">sample_type</text>
<polyline fill="none" stroke="#000000" points="1527,-766 1527,-927 "/>
<text text-anchor="middle" x="1537.5" y="-842.8" font-family="Times,serif" font-size="14.00" fill="#000000"> </text>
</g>
<!-- sample&#45;&gt;participant -->
<g id="edge5" class="edge">
<title>sample&#45;&gt;participant</title>
<path fill="none" stroke="#000000" d="M1336.853,-765.9303C1306.0205,-715.0296 1259.4365,-652.2415 1201,-616 1139.7923,-578.0399 964.8294,-547.3387 829.2885,-528.3084"/>
<polygon fill="#000000" stroke="#000000" points="829.5764,-524.8148 819.1892,-526.9017 828.6107,-531.7478 829.5764,-524.8148"/>
<text text-anchor="middle" x="1196.5" y="-586.8" font-family="Times,serif" font-size="14.00" fill="#000000">of_sample</text>
</g>
<!-- sample&#45;&gt;study -->
<g id="edge6" class="edge">
<title>sample&#45;&gt;study</title>
<path fill="none" stroke="#000000" d="M1344.9673,-765.7634C1319.721,-711.0671 1281.9708,-638.8612 1237,-583 1129.6086,-449.602 973.0003,-336.2508 845.7582,-257.4032"/>
<polygon fill="#000000" stroke="#000000" points="847.3834,-254.2934 837.0347,-252.023 843.7088,-260.2514 847.3834,-254.2934"/>
<text text-anchor="middle" x="1117.5" y="-419.8" font-family="Times,serif" font-size="14.00" fill="#000000">of_sample</text>
</g>
<!-- sample_diagnosis -->
<g id="node8" class="node">
<title>sample_diagnosis</title>
<path fill="none" stroke="#000000" d="M1162.5,-1128.5C1162.5,-1128.5 1595.5,-1128.5 1595.5,-1128.5 1601.5,-1128.5 1607.5,-1134.5 1607.5,-1140.5 1607.5,-1140.5 1607.5,-1553.5 1607.5,-1553.5 1607.5,-1559.5 1601.5,-1565.5 1595.5,-1565.5 1595.5,-1565.5 1162.5,-1565.5 1162.5,-1565.5 1156.5,-1565.5 1150.5,-1559.5 1150.5,-1553.5 1150.5,-1553.5 1150.5,-1140.5 1150.5,-1140.5 1150.5,-1134.5 1156.5,-1128.5 1162.5,-1128.5"/>
<text text-anchor="middle" x="1222" y="-1343.3" font-family="Times,serif" font-size="14.00" fill="#000000">sample_diagnosis</text>
<polyline fill="none" stroke="#000000" points="1293.5,-1128.5 1293.5,-1565.5 "/>
<text text-anchor="middle" x="1304" y="-1343.3" font-family="Times,serif" font-size="14.00" fill="#000000"> </text>
<polyline fill="none" stroke="#000000" points="1314.5,-1128.5 1314.5,-1565.5 "/>
<text text-anchor="middle" x="1450.5" y="-1550.3" font-family="Times,serif" font-size="14.00" fill="#000000">age_at_diagnosis</text>
<polyline fill="none" stroke="#000000" points="1314.5,-1542.5 1586.5,-1542.5 "/>
<text text-anchor="middle" x="1450.5" y="-1527.3" font-family="Times,serif" font-size="14.00" fill="#000000">days_to_last_followup</text>
<polyline fill="none" stroke="#000000" points="1314.5,-1519.5 1586.5,-1519.5 "/>
<text text-anchor="middle" x="1450.5" y="-1504.3" font-family="Times,serif" font-size="14.00" fill="#000000">days_to_last_known_disease_status</text>
<polyline fill="none" stroke="#000000" points="1314.5,-1496.5 1586.5,-1496.5 "/>
<text text-anchor="middle" x="1450.5" y="-1481.3" font-family="Times,serif" font-size="14.00" fill="#000000">days_to_recurrence</text>
<polyline fill="none" stroke="#000000" points="1314.5,-1473.5 1586.5,-1473.5 "/>
<text text-anchor="middle" x="1450.5" y="-1458.3" font-family="Times,serif" font-size="14.00" fill="#000000">diagnosis_finer_resolution</text>
<polyline fill="none" stroke="#000000" points="1314.5,-1450.5 1586.5,-1450.5 "/>
<text text-anchor="middle" x="1450.5" y="-1435.3" font-family="Times,serif" font-size="14.00" fill="#000000">diagnosis_icd_cm</text>
<polyline fill="none" stroke="#000000" points="1314.5,-1427.5 1586.5,-1427.5 "/>
<text text-anchor="middle" x="1450.5" y="-1412.3" font-family="Times,serif" font-size="14.00" fill="#000000">diagnosis_icd_o</text>
<polyline fill="none" stroke="#000000" points="1314.5,-1404.5 1586.5,-1404.5 "/>
<text text-anchor="middle" x="1450.5" y="-1389.3" font-family="Times,serif" font-size="14.00" fill="#000000">last_known_disease_status</text>
<polyline fill="none" stroke="#000000" points="1314.5,-1381.5 1586.5,-1381.5 "/>
<text text-anchor="middle" x="1450.5" y="-1366.3" font-family="Times,serif" font-size="14.00" fill="#000000">primary_site</text>
<polyline fill="none" stroke="#000000" points="1314.5,-1358.5 1586.5,-1358.5 "/>
<text text-anchor="middle" x="1450.5" y="-1343.3" font-family="Times,serif" font-size="14.00" fill="#000000">progression_or_recurrence</text>
<polyline fill="none" stroke="#000000" points="1314.5,-1335.5 1586.5,-1335.5 "/>
<text text-anchor="middle" x="1450.5" y="-1320.3" font-family="Times,serif" font-size="14.00" fill="#000000">sample_diagnosis_id</text>
<polyline fill="none" stroke="#000000" points="1314.5,-1312.5 1586.5,-1312.5 "/>
<text text-anchor="middle" x="1450.5" y="-1297.3" font-family="Times,serif" font-size="14.00" fill="#000000">site_of_resection_or_biopsy</text>
<polyline fill="none" stroke="#000000" points="1314.5,-1289.5 1586.5,-1289.5 "/>
<text text-anchor="middle" x="1450.5" y="-1274.3" font-family="Times,serif" font-size="14.00" fill="#000000">tissue_or_organ_of_origin</text>
<polyline fill="none" stroke="#000000" points="1314.5,-1266.5 1586.5,-1266.5 "/>
<text text-anchor="middle" x="1450.5" y="-1251.3" font-family="Times,serif" font-size="14.00" fill="#000000">tumor_classification</text>
<polyline fill="none" stroke="#000000" points="1314.5,-1243.5 1586.5,-1243.5 "/>
<text text-anchor="middle" x="1450.5" y="-1228.3" font-family="Times,serif" font-size="14.00" fill="#000000">tumor_grade</text>
<polyline fill="none" stroke="#000000" points="1314.5,-1220.5 1586.5,-1220.5 "/>
<text text-anchor="middle" x="1450.5" y="-1205.3" font-family="Times,serif" font-size="14.00" fill="#000000">tumor_morphology</text>
<polyline fill="none" stroke="#000000" points="1314.5,-1197.5 1586.5,-1197.5 "/>
<text text-anchor="middle" x="1450.5" y="-1182.3" font-family="Times,serif" font-size="14.00" fill="#000000">tumor_stage_clinical_m</text>
<polyline fill="none" stroke="#000000" points="1314.5,-1174.5 1586.5,-1174.5 "/>
<text text-anchor="middle" x="1450.5" y="-1159.3" font-family="Times,serif" font-size="14.00" fill="#000000">tumor_stage_clinical_n</text>
<polyline fill="none" stroke="#000000" points="1314.5,-1151.5 1586.5,-1151.5 "/>
<text text-anchor="middle" x="1450.5" y="-1136.3" font-family="Times,serif" font-size="14.00" fill="#000000">tumor_stage_clinical_t</text>
<polyline fill="none" stroke="#000000" points="1586.5,-1128.5 1586.5,-1565.5 "/>
<text text-anchor="middle" x="1597" y="-1343.3" font-family="Times,serif" font-size="14.00" fill="#000000"> </text>
</g>
<!-- sample_diagnosis&#45;&gt;sample -->
<g id="edge4" class="edge">
<title>sample_diagnosis&#45;&gt;sample</title>
<path fill="none" stroke="#000000" d="M1379,-1128.2015C1379,-1060.9864 1379,-990.6956 1379,-937.1415"/>
<polygon fill="#000000" stroke="#000000" points="1382.5001,-937.0008 1379,-927.0008 1375.5001,-937.0008 1382.5001,-937.0008"/>
<text text-anchor="middle" x="1453" y="-1098.8" font-family="Times,serif" font-size="14.00" fill="#000000">of_sample_diagnosis</text>
</g>
</g>
</svg>
