<svg width="2318pt" height="1528pt"
 viewBox="0.00 0.00 2317.85 1528.00" xmlns="http://www.w3.org/2000/svg" xmlns:xlink="http://www.w3.org/1999/xlink">
<g id="graph0" class="graph" transform="scale(1 1) rotate(0) translate(4 1524)">
<title>Perl</title>
<polygon fill="#ffffff" stroke="transparent" points="-4,4 -4,-1524 2313.8513,-1524 2313.8513,4 -4,4"/>
<!-- study -->
<g id="node1" class="node">
<title>study</title>
<path fill="none" stroke="#000000" d="M1782.8513,-.5C1782.8513,-.5 2001.8513,-.5 2001.8513,-.5 2007.8513,-.5 2013.8513,-6.5 2013.8513,-12.5 2013.8513,-12.5 2013.8513,-149.5 2013.8513,-149.5 2013.8513,-155.5 2007.8513,-161.5 2001.8513,-161.5 2001.8513,-161.5 1782.8513,-161.5 1782.8513,-161.5 1776.8513,-161.5 1770.8513,-155.5 1770.8513,-149.5 1770.8513,-149.5 1770.8513,-12.5 1770.8513,-12.5 1770.8513,-6.5 1776.8513,-.5 1782.8513,-.5"/>
<text text-anchor="middle" x="1798.8513" y="-77.3" font-family="Times,serif" font-size="14.00" fill="#000000">study</text>
<polyline fill="none" stroke="#000000" points="1826.8513,-.5 1826.8513,-161.5 "/>
<text text-anchor="middle" x="1837.3513" y="-77.3" font-family="Times,serif" font-size="14.00" fill="#000000"> </text>
<polyline fill="none" stroke="#000000" points="1847.8513,-.5 1847.8513,-161.5 "/>
<text text-anchor="middle" x="1920.3513" y="-146.3" font-family="Times,serif" font-size="14.00" fill="#000000">dbgap_accession</text>
<polyline fill="none" stroke="#000000" points="1847.8513,-138.5 1992.8513,-138.5 "/>
<text text-anchor="middle" x="1920.3513" y="-123.3" font-family="Times,serif" font-size="14.00" fill="#000000">external_url</text>
<polyline fill="none" stroke="#000000" points="1847.8513,-115.5 1992.8513,-115.5 "/>
<text text-anchor="middle" x="1920.3513" y="-100.3" font-family="Times,serif" font-size="14.00" fill="#000000">id</text>
<polyline fill="none" stroke="#000000" points="1847.8513,-92.5 1992.8513,-92.5 "/>
<text text-anchor="middle" x="1920.3513" y="-77.3" font-family="Times,serif" font-size="14.00" fill="#000000">study_description</text>
<polyline fill="none" stroke="#000000" points="1847.8513,-69.5 1992.8513,-69.5 "/>
<text text-anchor="middle" x="1920.3513" y="-54.3" font-family="Times,serif" font-size="14.00" fill="#000000">study_id</text>
<polyline fill="none" stroke="#000000" points="1847.8513,-46.5 1992.8513,-46.5 "/>
<text text-anchor="middle" x="1920.3513" y="-31.3" font-family="Times,serif" font-size="14.00" fill="#000000">study_name</text>
<polyline fill="none" stroke="#000000" points="1847.8513,-23.5 1992.8513,-23.5 "/>
<text text-anchor="middle" x="1920.3513" y="-8.3" font-family="Times,serif" font-size="14.00" fill="#000000">study_status</text>
<polyline fill="none" stroke="#000000" points="1992.8513,-.5 1992.8513,-161.5 "/>
<text text-anchor="middle" x="2003.3513" y="-77.3" font-family="Times,serif" font-size="14.00" fill="#000000"> </text>
</g>
<!-- participant -->
<g id="node2" class="node">
<title>participant</title>
<path fill="none" stroke="#000000" d="M1209.8513,-495.5C1209.8513,-495.5 1440.8513,-495.5 1440.8513,-495.5 1446.8513,-495.5 1452.8513,-501.5 1452.8513,-507.5 1452.8513,-507.5 1452.8513,-575.5 1452.8513,-575.5 1452.8513,-581.5 1446.8513,-587.5 1440.8513,-587.5 1440.8513,-587.5 1209.8513,-587.5 1209.8513,-587.5 1203.8513,-587.5 1197.8513,-581.5 1197.8513,-575.5 1197.8513,-575.5 1197.8513,-507.5 1197.8513,-507.5 1197.8513,-501.5 1203.8513,-495.5 1209.8513,-495.5"/>
<text text-anchor="middle" x="1245.8513" y="-537.8" font-family="Times,serif" font-size="14.00" fill="#000000">participant</text>
<polyline fill="none" stroke="#000000" points="1293.8513,-495.5 1293.8513,-587.5 "/>
<text text-anchor="middle" x="1304.3513" y="-537.8" font-family="Times,serif" font-size="14.00" fill="#000000"> </text>
<polyline fill="none" stroke="#000000" points="1314.8513,-495.5 1314.8513,-587.5 "/>
<text text-anchor="middle" x="1373.3513" y="-572.3" font-family="Times,serif" font-size="14.00" fill="#000000">id</text>
<polyline fill="none" stroke="#000000" points="1314.8513,-564.5 1431.8513,-564.5 "/>
<text text-anchor="middle" x="1373.3513" y="-549.3" font-family="Times,serif" font-size="14.00" fill="#000000">participant_id</text>
<polyline fill="none" stroke="#000000" points="1314.8513,-541.5 1431.8513,-541.5 "/>
<text text-anchor="middle" x="1373.3513" y="-526.3" font-family="Times,serif" font-size="14.00" fill="#000000">race</text>
<polyline fill="none" stroke="#000000" points="1314.8513,-518.5 1431.8513,-518.5 "/>
<text text-anchor="middle" x="1373.3513" y="-503.3" font-family="Times,serif" font-size="14.00" fill="#000000">sex_at_birth</text>
<polyline fill="none" stroke="#000000" points="1431.8513,-495.5 1431.8513,-587.5 "/>
<text text-anchor="middle" x="1442.3513" y="-537.8" font-family="Times,serif" font-size="14.00" fill="#000000"> </text>
</g>
<!-- consent_group -->
<g id="node4" class="node">
<title>consent_group</title>
<path fill="none" stroke="#000000" d="M1296.8513,-271C1296.8513,-271 1621.8513,-271 1621.8513,-271 1627.8513,-271 1633.8513,-277 1633.8513,-283 1633.8513,-283 1633.8513,-374 1633.8513,-374 1633.8513,-380 1627.8513,-386 1621.8513,-386 1621.8513,-386 1296.8513,-386 1296.8513,-386 1290.8513,-386 1284.8513,-380 1284.8513,-374 1284.8513,-374 1284.8513,-283 1284.8513,-283 1284.8513,-277 1290.8513,-271 1296.8513,-271"/>
<text text-anchor="middle" x="1345.8513" y="-324.8" font-family="Times,serif" font-size="14.00" fill="#000000">consent_group</text>
<polyline fill="none" stroke="#000000" points="1406.8513,-271 1406.8513,-386 "/>
<text text-anchor="middle" x="1417.3513" y="-324.8" font-family="Times,serif" font-size="14.00" fill="#000000"> </text>
<polyline fill="none" stroke="#000000" points="1427.8513,-271 1427.8513,-386 "/>
<text text-anchor="middle" x="1520.3513" y="-370.8" font-family="Times,serif" font-size="14.00" fill="#000000">consent_group_id</text>
<polyline fill="none" stroke="#000000" points="1427.8513,-363 1612.8513,-363 "/>
<text text-anchor="middle" x="1520.3513" y="-347.8" font-family="Times,serif" font-size="14.00" fill="#000000">consent_group_name</text>
<polyline fill="none" stroke="#000000" points="1427.8513,-340 1612.8513,-340 "/>
<text text-anchor="middle" x="1520.3513" y="-324.8" font-family="Times,serif" font-size="14.00" fill="#000000">consent_group_number</text>
<polyline fill="none" stroke="#000000" points="1427.8513,-317 1612.8513,-317 "/>
<text text-anchor="middle" x="1520.3513" y="-301.8" font-family="Times,serif" font-size="14.00" fill="#000000">consent_group_suffix</text>
<polyline fill="none" stroke="#000000" points="1427.8513,-294 1612.8513,-294 "/>
<text text-anchor="middle" x="1520.3513" y="-278.8" font-family="Times,serif" font-size="14.00" fill="#000000">id</text>
<polyline fill="none" stroke="#000000" points="1612.8513,-271 1612.8513,-386 "/>
<text text-anchor="middle" x="1623.3513" y="-324.8" font-family="Times,serif" font-size="14.00" fill="#000000"> </text>
</g>
<!-- participant&#45;&gt;consent_group -->
<g id="edge13" class="edge">
<title>participant&#45;&gt;consent_group</title>
<path fill="none" stroke="#000000" d="M1354.4273,-495.2822C1372.94,-465.8552 1397.2126,-427.2727 1417.7488,-394.6293"/>
<polygon fill="#000000" stroke="#000000" points="1420.7954,-396.3593 1423.1579,-386.0312 1414.8704,-392.6318 1420.7954,-396.3593"/>
<text text-anchor="middle" x="1423.8513" y="-465.8" font-family="Times,serif" font-size="14.00" fill="#000000">of_participant</text>
</g>
<!-- diagnosis -->
<g id="node3" class="node">
<title>diagnosis</title>
<path fill="none" stroke="#000000" d="M174.8513,-1013.5C174.8513,-1013.5 539.8513,-1013.5 539.8513,-1013.5 545.8513,-1013.5 551.8513,-1019.5 551.8513,-1025.5 551.8513,-1025.5 551.8513,-1415.5 551.8513,-1415.5 551.8513,-1421.5 545.8513,-1427.5 539.8513,-1427.5 539.8513,-1427.5 174.8513,-1427.5 174.8513,-1427.5 168.8513,-1427.5 162.8513,-1421.5 162.8513,-1415.5 162.8513,-1415.5 162.8513,-1025.5 162.8513,-1025.5 162.8513,-1019.5 168.8513,-1013.5 174.8513,-1013.5"/>
<text text-anchor="middle" x="204.8513" y="-1216.8" font-family="Times,serif" font-size="14.00" fill="#000000">diagnosis</text>
<polyline fill="none" stroke="#000000" points="246.8513,-1013.5 246.8513,-1427.5 "/>
<text text-anchor="middle" x="257.3513" y="-1216.8" font-family="Times,serif" font-size="14.00" fill="#000000"> </text>
<polyline fill="none" stroke="#000000" points="267.8513,-1013.5 267.8513,-1427.5 "/>
<text text-anchor="middle" x="399.3513" y="-1412.3" font-family="Times,serif" font-size="14.00" fill="#000000">age_at_diagnosis</text>
<polyline fill="none" stroke="#000000" points="267.8513,-1404.5 530.8513,-1404.5 "/>
<text text-anchor="middle" x="399.3513" y="-1389.3" font-family="Times,serif" font-size="14.00" fill="#000000">anatomic_site</text>
<polyline fill="none" stroke="#000000" points="267.8513,-1381.5 530.8513,-1381.5 "/>
<text text-anchor="middle" x="399.3513" y="-1366.3" font-family="Times,serif" font-size="14.00" fill="#000000">diagnosis</text>
<polyline fill="none" stroke="#000000" points="267.8513,-1358.5 530.8513,-1358.5 "/>
<text text-anchor="middle" x="399.3513" y="-1343.3" font-family="Times,serif" font-size="14.00" fill="#000000">diagnosis_basis</text>
<polyline fill="none" stroke="#000000" points="267.8513,-1335.5 530.8513,-1335.5 "/>
<text text-anchor="middle" x="399.3513" y="-1320.3" font-family="Times,serif" font-size="14.00" fill="#000000">diagnosis_category</text>
<polyline fill="none" stroke="#000000" points="267.8513,-1312.5 530.8513,-1312.5 "/>
<text text-anchor="middle" x="399.3513" y="-1297.3" font-family="Times,serif" font-size="14.00" fill="#000000">diagnosis_classification_system</text>
<polyline fill="none" stroke="#000000" points="267.8513,-1289.5 530.8513,-1289.5 "/>
<text text-anchor="middle" x="399.3513" y="-1274.3" font-family="Times,serif" font-size="14.00" fill="#000000">diagnosis_comment</text>
<polyline fill="none" stroke="#000000" points="267.8513,-1266.5 530.8513,-1266.5 "/>
<text text-anchor="middle" x="399.3513" y="-1251.3" font-family="Times,serif" font-size="14.00" fill="#000000">diagnosis_id</text>
<polyline fill="none" stroke="#000000" points="267.8513,-1243.5 530.8513,-1243.5 "/>
<text text-anchor="middle" x="399.3513" y="-1228.3" font-family="Times,serif" font-size="14.00" fill="#000000">disease_phase</text>
<polyline fill="none" stroke="#000000" points="267.8513,-1220.5 530.8513,-1220.5 "/>
<text text-anchor="middle" x="399.3513" y="-1205.3" font-family="Times,serif" font-size="14.00" fill="#000000">id</text>
<polyline fill="none" stroke="#000000" points="267.8513,-1197.5 530.8513,-1197.5 "/>
<text text-anchor="middle" x="399.3513" y="-1182.3" font-family="Times,serif" font-size="14.00" fill="#000000">laterality</text>
<polyline fill="none" stroke="#000000" points="267.8513,-1174.5 530.8513,-1174.5 "/>
<text text-anchor="middle" x="399.3513" y="-1159.3" font-family="Times,serif" font-size="14.00" fill="#000000">toronto_childhood_cancer_staging</text>
<polyline fill="none" stroke="#000000" points="267.8513,-1151.5 530.8513,-1151.5 "/>
<text text-anchor="middle" x="399.3513" y="-1136.3" font-family="Times,serif" font-size="14.00" fill="#000000">tumor_classification</text>
<polyline fill="none" stroke="#000000" points="267.8513,-1128.5 530.8513,-1128.5 "/>
<text text-anchor="middle" x="399.3513" y="-1113.3" font-family="Times,serif" font-size="14.00" fill="#000000">tumor_grade</text>
<polyline fill="none" stroke="#000000" points="267.8513,-1105.5 530.8513,-1105.5 "/>
<text text-anchor="middle" x="399.3513" y="-1090.3" font-family="Times,serif" font-size="14.00" fill="#000000">tumor_stage_clinical_m</text>
<polyline fill="none" stroke="#000000" points="267.8513,-1082.5 530.8513,-1082.5 "/>
<text text-anchor="middle" x="399.3513" y="-1067.3" font-family="Times,serif" font-size="14.00" fill="#000000">tumor_stage_clinical_n</text>
<polyline fill="none" stroke="#000000" points="267.8513,-1059.5 530.8513,-1059.5 "/>
<text text-anchor="middle" x="399.3513" y="-1044.3" font-family="Times,serif" font-size="14.00" fill="#000000">tumor_stage_clinical_t</text>
<polyline fill="none" stroke="#000000" points="267.8513,-1036.5 530.8513,-1036.5 "/>
<text text-anchor="middle" x="399.3513" y="-1021.3" font-family="Times,serif" font-size="14.00" fill="#000000">year_of_diagnosis</text>
<polyline fill="none" stroke="#000000" points="530.8513,-1013.5 530.8513,-1427.5 "/>
<text text-anchor="middle" x="541.3513" y="-1216.8" font-family="Times,serif" font-size="14.00" fill="#000000"> </text>
</g>
<!-- diagnosis&#45;&gt;participant -->
<g id="edge8" class="edge">
<title>diagnosis&#45;&gt;participant</title>
<path fill="none" stroke="#000000" d="M162.7697,-1049.5094C44.3872,-925.285 -64.5374,-758.6636 46.3513,-639 84.7101,-597.6057 864.4575,-560.6262 1187.2693,-547.0301"/>
<polygon fill="#000000" stroke="#000000" points="1187.7778,-550.5119 1197.6222,-546.5955 1187.4841,-543.5181 1187.7778,-550.5119"/>
<text text-anchor="middle" x="90.8513" y="-750.8" font-family="Times,serif" font-size="14.00" fill="#000000">of_diagnosis</text>
</g>
<!-- sample -->
<g id="node11" class="node">
<title>sample</title>
<path fill="none" stroke="#000000" d="M963.3513,-651C963.3513,-651 1277.3513,-651 1277.3513,-651 1283.3513,-651 1289.3513,-657 1289.3513,-663 1289.3513,-663 1289.3513,-846 1289.3513,-846 1289.3513,-852 1283.3513,-858 1277.3513,-858 1277.3513,-858 963.3513,-858 963.3513,-858 957.3513,-858 951.3513,-852 951.3513,-846 951.3513,-846 951.3513,-663 951.3513,-663 951.3513,-657 957.3513,-651 963.3513,-651"/>
<text text-anchor="middle" x="985.3513" y="-750.8" font-family="Times,serif" font-size="14.00" fill="#000000">sample</text>
<polyline fill="none" stroke="#000000" points="1019.3513,-651 1019.3513,-858 "/>
<text text-anchor="middle" x="1029.8513" y="-750.8" font-family="Times,serif" font-size="14.00" fill="#000000"> </text>
<polyline fill="none" stroke="#000000" points="1040.3513,-651 1040.3513,-858 "/>
<text text-anchor="middle" x="1154.3513" y="-842.8" font-family="Times,serif" font-size="14.00" fill="#000000">anatomic_site</text>
<polyline fill="none" stroke="#000000" points="1040.3513,-835 1268.3513,-835 "/>
<text text-anchor="middle" x="1154.3513" y="-819.8" font-family="Times,serif" font-size="14.00" fill="#000000">id</text>
<polyline fill="none" stroke="#000000" points="1040.3513,-812 1268.3513,-812 "/>
<text text-anchor="middle" x="1154.3513" y="-796.8" font-family="Times,serif" font-size="14.00" fill="#000000">participant_age_at_collection</text>
<polyline fill="none" stroke="#000000" points="1040.3513,-789 1268.3513,-789 "/>
<text text-anchor="middle" x="1154.3513" y="-773.8" font-family="Times,serif" font-size="14.00" fill="#000000">percent_necrosis</text>
<polyline fill="none" stroke="#000000" points="1040.3513,-766 1268.3513,-766 "/>
<text text-anchor="middle" x="1154.3513" y="-750.8" font-family="Times,serif" font-size="14.00" fill="#000000">percent_tumor</text>
<polyline fill="none" stroke="#000000" points="1040.3513,-743 1268.3513,-743 "/>
<text text-anchor="middle" x="1154.3513" y="-727.8" font-family="Times,serif" font-size="14.00" fill="#000000">sample_description</text>
<polyline fill="none" stroke="#000000" points="1040.3513,-720 1268.3513,-720 "/>
<text text-anchor="middle" x="1154.3513" y="-704.8" font-family="Times,serif" font-size="14.00" fill="#000000">sample_id</text>
<polyline fill="none" stroke="#000000" points="1040.3513,-697 1268.3513,-697 "/>
<text text-anchor="middle" x="1154.3513" y="-681.8" font-family="Times,serif" font-size="14.00" fill="#000000">sample_tumor_status</text>
<polyline fill="none" stroke="#000000" points="1040.3513,-674 1268.3513,-674 "/>
<text text-anchor="middle" x="1154.3513" y="-658.8" font-family="Times,serif" font-size="14.00" fill="#000000">tumor_classification</text>
<polyline fill="none" stroke="#000000" points="1268.3513,-651 1268.3513,-858 "/>
<text text-anchor="middle" x="1278.8513" y="-750.8" font-family="Times,serif" font-size="14.00" fill="#000000"> </text>
</g>
<!-- diagnosis&#45;&gt;sample -->
<g id="edge7" class="edge">
<title>diagnosis&#45;&gt;sample</title>
<path fill="none" stroke="#000000" d="M551.9795,-1105.8337C666,-1038.1249 812.4792,-950.2207 941.3513,-870 944.7854,-867.8623 948.2529,-865.6964 951.7445,-863.5087"/>
<polygon fill="#000000" stroke="#000000" points="953.8618,-866.312 960.4683,-858.0292 950.1386,-860.3843 953.8618,-866.312"/>
<text text-anchor="middle" x="954.8513" y="-891.8" font-family="Times,serif" font-size="14.00" fill="#000000">of_diagnosis</text>
</g>
<!-- consent_group&#45;&gt;study -->
<g id="edge2" class="edge">
<title>consent_group&#45;&gt;study</title>
<path fill="none" stroke="#000000" d="M1560.0512,-270.9406C1620.0691,-236.6347 1696.911,-192.7124 1761.5814,-155.7472"/>
<polygon fill="#000000" stroke="#000000" points="1763.678,-158.5803 1770.6229,-150.5791 1760.2042,-152.503 1763.678,-158.5803"/>
<text text-anchor="middle" x="1778.8513" y="-183.8" font-family="Times,serif" font-size="14.00" fill="#000000">of_consent_group</text>
</g>
<!-- laboratory_test -->
<g id="node5" class="node">
<title>laboratory_test</title>
<path fill="none" stroke="#000000" d="M1341.3513,-1094C1341.3513,-1094 1673.3513,-1094 1673.3513,-1094 1679.3513,-1094 1685.3513,-1100 1685.3513,-1106 1685.3513,-1106 1685.3513,-1335 1685.3513,-1335 1685.3513,-1341 1679.3513,-1347 1673.3513,-1347 1673.3513,-1347 1341.3513,-1347 1341.3513,-1347 1335.3513,-1347 1329.3513,-1341 1329.3513,-1335 1329.3513,-1335 1329.3513,-1106 1329.3513,-1106 1329.3513,-1100 1335.3513,-1094 1341.3513,-1094"/>
<text text-anchor="middle" x="1392.3513" y="-1216.8" font-family="Times,serif" font-size="14.00" fill="#000000">laboratory_test</text>
<polyline fill="none" stroke="#000000" points="1455.3513,-1094 1455.3513,-1347 "/>
<text text-anchor="middle" x="1465.8513" y="-1216.8" font-family="Times,serif" font-size="14.00" fill="#000000"> </text>
<polyline fill="none" stroke="#000000" points="1476.3513,-1094 1476.3513,-1347 "/>
<text text-anchor="middle" x="1570.3513" y="-1331.8" font-family="Times,serif" font-size="14.00" fill="#000000">age_at_laboratory_test</text>
<polyline fill="none" stroke="#000000" points="1476.3513,-1324 1664.3513,-1324 "/>
<text text-anchor="middle" x="1570.3513" y="-1308.8" font-family="Times,serif" font-size="14.00" fill="#000000">id</text>
<polyline fill="none" stroke="#000000" points="1476.3513,-1301 1664.3513,-1301 "/>
<text text-anchor="middle" x="1570.3513" y="-1285.8" font-family="Times,serif" font-size="14.00" fill="#000000">laboratory_test_id</text>
<polyline fill="none" stroke="#000000" points="1476.3513,-1278 1664.3513,-1278 "/>
<text text-anchor="middle" x="1570.3513" y="-1262.8" font-family="Times,serif" font-size="14.00" fill="#000000">laboratory_test_method</text>
<polyline fill="none" stroke="#000000" points="1476.3513,-1255 1664.3513,-1255 "/>
<text text-anchor="middle" x="1570.3513" y="-1239.8" font-family="Times,serif" font-size="14.00" fill="#000000">laboratory_test_name</text>
<polyline fill="none" stroke="#000000" points="1476.3513,-1232 1664.3513,-1232 "/>
<text text-anchor="middle" x="1570.3513" y="-1216.8" font-family="Times,serif" font-size="14.00" fill="#000000">sensitivity</text>
<polyline fill="none" stroke="#000000" points="1476.3513,-1209 1664.3513,-1209 "/>
<text text-anchor="middle" x="1570.3513" y="-1193.8" font-family="Times,serif" font-size="14.00" fill="#000000">specimen</text>
<polyline fill="none" stroke="#000000" points="1476.3513,-1186 1664.3513,-1186 "/>
<text text-anchor="middle" x="1570.3513" y="-1170.8" font-family="Times,serif" font-size="14.00" fill="#000000">test_result_modifier</text>
<polyline fill="none" stroke="#000000" points="1476.3513,-1163 1664.3513,-1163 "/>
<text text-anchor="middle" x="1570.3513" y="-1147.8" font-family="Times,serif" font-size="14.00" fill="#000000">test_result_numeric</text>
<polyline fill="none" stroke="#000000" points="1476.3513,-1140 1664.3513,-1140 "/>
<text text-anchor="middle" x="1570.3513" y="-1124.8" font-family="Times,serif" font-size="14.00" fill="#000000">test_result_text</text>
<polyline fill="none" stroke="#000000" points="1476.3513,-1117 1664.3513,-1117 "/>
<text text-anchor="middle" x="1570.3513" y="-1101.8" font-family="Times,serif" font-size="14.00" fill="#000000">test_result_unit</text>
<polyline fill="none" stroke="#000000" points="1664.3513,-1094 1664.3513,-1347 "/>
<text text-anchor="middle" x="1674.8513" y="-1216.8" font-family="Times,serif" font-size="14.00" fill="#000000"> </text>
</g>
<!-- laboratory_test&#45;&gt;participant -->
<g id="edge6" class="edge">
<title>laboratory_test&#45;&gt;participant</title>
<path fill="none" stroke="#000000" d="M1511.8247,-1093.9519C1514.8507,-946.5814 1512.2072,-713.7738 1469.3513,-639 1459.2879,-621.4417 1444.6218,-606.3937 1428.4533,-593.7452"/>
<polygon fill="#000000" stroke="#000000" points="1430.5131,-590.9151 1420.4089,-587.7282 1426.3203,-596.5206 1430.5131,-590.9151"/>
<text text-anchor="middle" x="1574.8513" y="-750.8" font-family="Times,serif" font-size="14.00" fill="#000000">of_laboratory_test</text>
</g>
<!-- laboratory_test&#45;&gt;sample -->
<g id="edge5" class="edge">
<title>laboratory_test&#45;&gt;sample</title>
<path fill="none" stroke="#000000" d="M1440.332,-1093.778C1407.8437,-1037.9539 1365.9884,-973.3128 1320.3513,-921 1303.4961,-901.6794 1284.2855,-882.7426 1264.592,-864.9689"/>
<polygon fill="#000000" stroke="#000000" points="1266.816,-862.2626 1257.0245,-858.2156 1262.1551,-867.4853 1266.816,-862.2626"/>
<text text-anchor="middle" x="1366.8513" y="-891.8" font-family="Times,serif" font-size="14.00" fill="#000000">of_laboratory_test</text>
</g>
<!-- treatment -->
<g id="node6" class="node">
<title>treatment</title>
<path fill="none" stroke="#000000" d="M1663.3513,-639.5C1663.3513,-639.5 1955.3513,-639.5 1955.3513,-639.5 1961.3513,-639.5 1967.3513,-645.5 1967.3513,-651.5 1967.3513,-651.5 1967.3513,-857.5 1967.3513,-857.5 1967.3513,-863.5 1961.3513,-869.5 1955.3513,-869.5 1955.3513,-869.5 1663.3513,-869.5 1663.3513,-869.5 1657.3513,-869.5 1651.3513,-863.5 1651.3513,-857.5 1651.3513,-857.5 1651.3513,-651.5 1651.3513,-651.5 1651.3513,-645.5 1657.3513,-639.5 1663.3513,-639.5"/>
<text text-anchor="middle" x="1695.8513" y="-750.8" font-family="Times,serif" font-size="14.00" fill="#000000">treatment</text>
<polyline fill="none" stroke="#000000" points="1740.3513,-639.5 1740.3513,-869.5 "/>
<text text-anchor="middle" x="1750.8513" y="-750.8" font-family="Times,serif" font-size="14.00" fill="#000000"> </text>
<polyline fill="none" stroke="#000000" points="1761.3513,-639.5 1761.3513,-869.5 "/>
<text text-anchor="middle" x="1853.8513" y="-854.3" font-family="Times,serif" font-size="14.00" fill="#000000">age_at_treatment_end</text>
<polyline fill="none" stroke="#000000" points="1761.3513,-846.5 1946.3513,-846.5 "/>
<text text-anchor="middle" x="1853.8513" y="-831.3" font-family="Times,serif" font-size="14.00" fill="#000000">age_at_treatment_start</text>
<polyline fill="none" stroke="#000000" points="1761.3513,-823.5 1946.3513,-823.5 "/>
<text text-anchor="middle" x="1853.8513" y="-808.3" font-family="Times,serif" font-size="14.00" fill="#000000">dose</text>
<polyline fill="none" stroke="#000000" points="1761.3513,-800.5 1946.3513,-800.5 "/>
<text text-anchor="middle" x="1853.8513" y="-785.3" font-family="Times,serif" font-size="14.00" fill="#000000">dose_frequency</text>
<polyline fill="none" stroke="#000000" points="1761.3513,-777.5 1946.3513,-777.5 "/>
<text text-anchor="middle" x="1853.8513" y="-762.3" font-family="Times,serif" font-size="14.00" fill="#000000">dose_route</text>
<polyline fill="none" stroke="#000000" points="1761.3513,-754.5 1946.3513,-754.5 "/>
<text text-anchor="middle" x="1853.8513" y="-739.3" font-family="Times,serif" font-size="14.00" fill="#000000">dose_unit</text>
<polyline fill="none" stroke="#000000" points="1761.3513,-731.5 1946.3513,-731.5 "/>
<text text-anchor="middle" x="1853.8513" y="-716.3" font-family="Times,serif" font-size="14.00" fill="#000000">id</text>
<polyline fill="none" stroke="#000000" points="1761.3513,-708.5 1946.3513,-708.5 "/>
<text text-anchor="middle" x="1853.8513" y="-693.3" font-family="Times,serif" font-size="14.00" fill="#000000">treatment_agent</text>
<polyline fill="none" stroke="#000000" points="1761.3513,-685.5 1946.3513,-685.5 "/>
<text text-anchor="middle" x="1853.8513" y="-670.3" font-family="Times,serif" font-size="14.00" fill="#000000">treatment_id</text>
<polyline fill="none" stroke="#000000" points="1761.3513,-662.5 1946.3513,-662.5 "/>
<text text-anchor="middle" x="1853.8513" y="-647.3" font-family="Times,serif" font-size="14.00" fill="#000000">treatment_type</text>
<polyline fill="none" stroke="#000000" points="1946.3513,-639.5 1946.3513,-869.5 "/>
<text text-anchor="middle" x="1956.8513" y="-750.8" font-family="Times,serif" font-size="14.00" fill="#000000"> </text>
</g>
<!-- treatment&#45;&gt;participant -->
<g id="edge9" class="edge">
<title>treatment&#45;&gt;participant</title>
<path fill="none" stroke="#000000" d="M1651.011,-645.8354C1646.4503,-643.4618 1641.8919,-641.1773 1637.3513,-639 1582.3202,-612.6124 1518.4648,-591.1887 1462.9107,-575.2152"/>
<polygon fill="#000000" stroke="#000000" points="1463.5735,-571.765 1452.9975,-572.397 1461.6593,-578.4982 1463.5735,-571.765"/>
<text text-anchor="middle" x="1636.3513" y="-609.8" font-family="Times,serif" font-size="14.00" fill="#000000">of_treatment</text>
</g>
<!-- genetic_analysis -->
<g id="node7" class="node">
<title>genetic_analysis</title>
<path fill="none" stroke="#000000" d="M915.3513,-921.5C915.3513,-921.5 1299.3513,-921.5 1299.3513,-921.5 1305.3513,-921.5 1311.3513,-927.5 1311.3513,-933.5 1311.3513,-933.5 1311.3513,-1507.5 1311.3513,-1507.5 1311.3513,-1513.5 1305.3513,-1519.5 1299.3513,-1519.5 1299.3513,-1519.5 915.3513,-1519.5 915.3513,-1519.5 909.3513,-1519.5 903.3513,-1513.5 903.3513,-1507.5 903.3513,-1507.5 903.3513,-933.5 903.3513,-933.5 903.3513,-927.5 909.3513,-921.5 915.3513,-921.5"/>
<text text-anchor="middle" x="970.8513" y="-1216.8" font-family="Times,serif" font-size="14.00" fill="#000000">genetic_analysis</text>
<polyline fill="none" stroke="#000000" points="1038.3513,-921.5 1038.3513,-1519.5 "/>
<text text-anchor="middle" x="1048.8513" y="-1216.8" font-family="Times,serif" font-size="14.00" fill="#000000"> </text>
<polyline fill="none" stroke="#000000" points="1059.3513,-921.5 1059.3513,-1519.5 "/>
<text text-anchor="middle" x="1174.8513" y="-1504.3" font-family="Times,serif" font-size="14.00" fill="#000000">age_at_genetic_analysis</text>
<polyline fill="none" stroke="#000000" points="1059.3513,-1496.5 1290.3513,-1496.5 "/>
<text text-anchor="middle" x="1174.8513" y="-1481.3" font-family="Times,serif" font-size="14.00" fill="#000000">allelic_ratio</text>
<polyline fill="none" stroke="#000000" points="1059.3513,-1473.5 1290.3513,-1473.5 "/>
<text text-anchor="middle" x="1174.8513" y="-1458.3" font-family="Times,serif" font-size="14.00" fill="#000000">alteration</text>
<polyline fill="none" stroke="#000000" points="1059.3513,-1450.5 1290.3513,-1450.5 "/>
<text text-anchor="middle" x="1174.8513" y="-1435.3" font-family="Times,serif" font-size="14.00" fill="#000000">alteration_effect</text>
<polyline fill="none" stroke="#000000" points="1059.3513,-1427.5 1290.3513,-1427.5 "/>
<text text-anchor="middle" x="1174.8513" y="-1412.3" font-family="Times,serif" font-size="14.00" fill="#000000">alteration_type</text>
<polyline fill="none" stroke="#000000" points="1059.3513,-1404.5 1290.3513,-1404.5 "/>
<text text-anchor="middle" x="1174.8513" y="-1389.3" font-family="Times,serif" font-size="14.00" fill="#000000">chromosome</text>
<polyline fill="none" stroke="#000000" points="1059.3513,-1381.5 1290.3513,-1381.5 "/>
<text text-anchor="middle" x="1174.8513" y="-1366.3" font-family="Times,serif" font-size="14.00" fill="#000000">cytoband</text>
<polyline fill="none" stroke="#000000" points="1059.3513,-1358.5 1290.3513,-1358.5 "/>
<text text-anchor="middle" x="1174.8513" y="-1343.3" font-family="Times,serif" font-size="14.00" fill="#000000">dna_index_numeric</text>
<polyline fill="none" stroke="#000000" points="1059.3513,-1335.5 1290.3513,-1335.5 "/>
<text text-anchor="middle" x="1174.8513" y="-1320.3" font-family="Times,serif" font-size="14.00" fill="#000000">exon</text>
<polyline fill="none" stroke="#000000" points="1059.3513,-1312.5 1290.3513,-1312.5 "/>
<text text-anchor="middle" x="1174.8513" y="-1297.3" font-family="Times,serif" font-size="14.00" fill="#000000">fusion_partner_exon</text>
<polyline fill="none" stroke="#000000" points="1059.3513,-1289.5 1290.3513,-1289.5 "/>
<text text-anchor="middle" x="1174.8513" y="-1274.3" font-family="Times,serif" font-size="14.00" fill="#000000">fusion_partner_gene</text>
<polyline fill="none" stroke="#000000" points="1059.3513,-1266.5 1290.3513,-1266.5 "/>
<text text-anchor="middle" x="1174.8513" y="-1251.3" font-family="Times,serif" font-size="14.00" fill="#000000">fusion_partner_transcript</text>
<polyline fill="none" stroke="#000000" points="1059.3513,-1243.5 1290.3513,-1243.5 "/>
<text text-anchor="middle" x="1174.8513" y="-1228.3" font-family="Times,serif" font-size="14.00" fill="#000000">gene_symbol</text>
<polyline fill="none" stroke="#000000" points="1059.3513,-1220.5 1290.3513,-1220.5 "/>
<text text-anchor="middle" x="1174.8513" y="-1205.3" font-family="Times,serif" font-size="14.00" fill="#000000">genetic_analysis_id</text>
<polyline fill="none" stroke="#000000" points="1059.3513,-1197.5 1290.3513,-1197.5 "/>
<text text-anchor="middle" x="1174.8513" y="-1182.3" font-family="Times,serif" font-size="14.00" fill="#000000">genomic_source_category</text>
<polyline fill="none" stroke="#000000" points="1059.3513,-1174.5 1290.3513,-1174.5 "/>
<text text-anchor="middle" x="1174.8513" y="-1159.3" font-family="Times,serif" font-size="14.00" fill="#000000">hgvs_coding</text>
<polyline fill="none" stroke="#000000" points="1059.3513,-1151.5 1290.3513,-1151.5 "/>
<text text-anchor="middle" x="1174.8513" y="-1136.3" font-family="Times,serif" font-size="14.00" fill="#000000">hgvs_genome</text>
<polyline fill="none" stroke="#000000" points="1059.3513,-1128.5 1290.3513,-1128.5 "/>
<text text-anchor="middle" x="1174.8513" y="-1113.3" font-family="Times,serif" font-size="14.00" fill="#000000">hgvs_protein</text>
<polyline fill="none" stroke="#000000" points="1059.3513,-1105.5 1290.3513,-1105.5 "/>
<text text-anchor="middle" x="1174.8513" y="-1090.3" font-family="Times,serif" font-size="14.00" fill="#000000">id</text>
<polyline fill="none" stroke="#000000" points="1059.3513,-1082.5 1290.3513,-1082.5 "/>
<text text-anchor="middle" x="1174.8513" y="-1067.3" font-family="Times,serif" font-size="14.00" fill="#000000">iscn</text>
<polyline fill="none" stroke="#000000" points="1059.3513,-1059.5 1290.3513,-1059.5 "/>
<text text-anchor="middle" x="1174.8513" y="-1044.3" font-family="Times,serif" font-size="14.00" fill="#000000">method</text>
<polyline fill="none" stroke="#000000" points="1059.3513,-1036.5 1290.3513,-1036.5 "/>
<text text-anchor="middle" x="1174.8513" y="-1021.3" font-family="Times,serif" font-size="14.00" fill="#000000">reference_genome</text>
<polyline fill="none" stroke="#000000" points="1059.3513,-1013.5 1290.3513,-1013.5 "/>
<text text-anchor="middle" x="1174.8513" y="-998.3" font-family="Times,serif" font-size="14.00" fill="#000000">reported_significance</text>
<polyline fill="none" stroke="#000000" points="1059.3513,-990.5 1290.3513,-990.5 "/>
<text text-anchor="middle" x="1174.8513" y="-975.3" font-family="Times,serif" font-size="14.00" fill="#000000">reported_significance_system</text>
<polyline fill="none" stroke="#000000" points="1059.3513,-967.5 1290.3513,-967.5 "/>
<text text-anchor="middle" x="1174.8513" y="-952.3" font-family="Times,serif" font-size="14.00" fill="#000000">result</text>
<polyline fill="none" stroke="#000000" points="1059.3513,-944.5 1290.3513,-944.5 "/>
<text text-anchor="middle" x="1174.8513" y="-929.3" font-family="Times,serif" font-size="14.00" fill="#000000">+ 6 properties</text>
<polyline fill="none" stroke="#000000" points="1290.3513,-921.5 1290.3513,-1519.5 "/>
<text text-anchor="middle" x="1300.8513" y="-1216.8" font-family="Times,serif" font-size="14.00" fill="#000000"> </text>
</g>
<!-- genetic_analysis&#45;&gt;participant -->
<g id="edge4" class="edge">
<title>genetic_analysis&#45;&gt;participant</title>
<path fill="none" stroke="#000000" d="M1280.5395,-921.4168C1287.2253,-904.3007 1293.2404,-887.097 1298.3513,-870 1313.1149,-820.6121 1320.4709,-678.0418 1323.5336,-597.9045"/>
<polygon fill="#000000" stroke="#000000" points="1327.0463,-597.6254 1323.9204,-587.5022 1320.0511,-597.3652 1327.0463,-597.6254"/>
<text text-anchor="middle" x="1392.3513" y="-750.8" font-family="Times,serif" font-size="14.00" fill="#000000">of_genetic_analysis</text>
</g>
<!-- genetic_analysis&#45;&gt;sample -->
<g id="edge3" class="edge">
<title>genetic_analysis&#45;&gt;sample</title>
<path fill="none" stroke="#000000" d="M1115.6947,-921.4205C1116.2065,-903.0727 1116.7017,-885.3209 1117.1661,-868.6741"/>
<polygon fill="#000000" stroke="#000000" points="1120.6709,-868.5502 1117.4512,-858.4565 1113.6736,-868.355 1120.6709,-868.5502"/>
<text text-anchor="middle" x="1187.3513" y="-891.8" font-family="Times,serif" font-size="14.00" fill="#000000">of_genetic_analysis</text>
</g>
<!-- treatment_response -->
<g id="node8" class="node">
<title>treatment_response</title>
<path fill="none" stroke="#000000" d="M156.8513,-685.5C156.8513,-685.5 517.8513,-685.5 517.8513,-685.5 523.8513,-685.5 529.8513,-691.5 529.8513,-697.5 529.8513,-697.5 529.8513,-811.5 529.8513,-811.5 529.8513,-817.5 523.8513,-823.5 517.8513,-823.5 517.8513,-823.5 156.8513,-823.5 156.8513,-823.5 150.8513,-823.5 144.8513,-817.5 144.8513,-811.5 144.8513,-811.5 144.8513,-697.5 144.8513,-697.5 144.8513,-691.5 150.8513,-685.5 156.8513,-685.5"/>
<text text-anchor="middle" x="225.3513" y="-750.8" font-family="Times,serif" font-size="14.00" fill="#000000">treatment_response</text>
<polyline fill="none" stroke="#000000" points="305.8513,-685.5 305.8513,-823.5 "/>
<text text-anchor="middle" x="316.3513" y="-750.8" font-family="Times,serif" font-size="14.00" fill="#000000"> </text>
<polyline fill="none" stroke="#000000" points="326.8513,-685.5 326.8513,-823.5 "/>
<text text-anchor="middle" x="417.8513" y="-808.3" font-family="Times,serif" font-size="14.00" fill="#000000">age_at_response</text>
<polyline fill="none" stroke="#000000" points="326.8513,-800.5 508.8513,-800.5 "/>
<text text-anchor="middle" x="417.8513" y="-785.3" font-family="Times,serif" font-size="14.00" fill="#000000">id</text>
<polyline fill="none" stroke="#000000" points="326.8513,-777.5 508.8513,-777.5 "/>
<text text-anchor="middle" x="417.8513" y="-762.3" font-family="Times,serif" font-size="14.00" fill="#000000">response</text>
<polyline fill="none" stroke="#000000" points="326.8513,-754.5 508.8513,-754.5 "/>
<text text-anchor="middle" x="417.8513" y="-739.3" font-family="Times,serif" font-size="14.00" fill="#000000">response_category</text>
<polyline fill="none" stroke="#000000" points="326.8513,-731.5 508.8513,-731.5 "/>
<text text-anchor="middle" x="417.8513" y="-716.3" font-family="Times,serif" font-size="14.00" fill="#000000">response_system</text>
<polyline fill="none" stroke="#000000" points="326.8513,-708.5 508.8513,-708.5 "/>
<text text-anchor="middle" x="417.8513" y="-693.3" font-family="Times,serif" font-size="14.00" fill="#000000">treatment_response_id</text>
<polyline fill="none" stroke="#000000" points="508.8513,-685.5 508.8513,-823.5 "/>
<text text-anchor="middle" x="519.3513" y="-750.8" font-family="Times,serif" font-size="14.00" fill="#000000"> </text>
</g>
<!-- treatment_response&#45;&gt;participant -->
<g id="edge1" class="edge">
<title>treatment_response&#45;&gt;participant</title>
<path fill="none" stroke="#000000" d="M439.5068,-685.361C470.1211,-667.5719 504.5681,-650.2857 538.3513,-639 655.4937,-599.8671 994.9951,-567.6963 1187.6424,-551.9501"/>
<polygon fill="#000000" stroke="#000000" points="1188.1568,-555.4199 1197.8401,-551.1207 1187.5893,-548.443 1188.1568,-555.4199"/>
<text text-anchor="middle" x="768.3513" y="-609.8" font-family="Times,serif" font-size="14.00" fill="#000000">of_treatment_response</text>
</g>
<!-- survival -->
<g id="node9" class="node">
<title>survival</title>
<path fill="none" stroke="#000000" d="M559.8513,-662.5C559.8513,-662.5 920.8513,-662.5 920.8513,-662.5 926.8513,-662.5 932.8513,-668.5 932.8513,-674.5 932.8513,-674.5 932.8513,-834.5 932.8513,-834.5 932.8513,-840.5 926.8513,-846.5 920.8513,-846.5 920.8513,-846.5 559.8513,-846.5 559.8513,-846.5 553.8513,-846.5 547.8513,-840.5 547.8513,-834.5 547.8513,-834.5 547.8513,-674.5 547.8513,-674.5 547.8513,-668.5 553.8513,-662.5 559.8513,-662.5"/>
<text text-anchor="middle" x="584.8513" y="-750.8" font-family="Times,serif" font-size="14.00" fill="#000000">survival</text>
<polyline fill="none" stroke="#000000" points="621.8513,-662.5 621.8513,-846.5 "/>
<text text-anchor="middle" x="632.3513" y="-750.8" font-family="Times,serif" font-size="14.00" fill="#000000"> </text>
<polyline fill="none" stroke="#000000" points="642.8513,-662.5 642.8513,-846.5 "/>
<text text-anchor="middle" x="777.3513" y="-831.3" font-family="Times,serif" font-size="14.00" fill="#000000">age_at_event_free_survival_status</text>
<polyline fill="none" stroke="#000000" points="642.8513,-823.5 911.8513,-823.5 "/>
<text text-anchor="middle" x="777.3513" y="-808.3" font-family="Times,serif" font-size="14.00" fill="#000000">age_at_last_known_survival_status</text>
<polyline fill="none" stroke="#000000" points="642.8513,-800.5 911.8513,-800.5 "/>
<text text-anchor="middle" x="777.3513" y="-785.3" font-family="Times,serif" font-size="14.00" fill="#000000">cause_of_death</text>
<polyline fill="none" stroke="#000000" points="642.8513,-777.5 911.8513,-777.5 "/>
<text text-anchor="middle" x="777.3513" y="-762.3" font-family="Times,serif" font-size="14.00" fill="#000000">event_free_survival_status</text>
<polyline fill="none" stroke="#000000" points="642.8513,-754.5 911.8513,-754.5 "/>
<text text-anchor="middle" x="777.3513" y="-739.3" font-family="Times,serif" font-size="14.00" fill="#000000">first_event</text>
<polyline fill="none" stroke="#000000" points="642.8513,-731.5 911.8513,-731.5 "/>
<text text-anchor="middle" x="777.3513" y="-716.3" font-family="Times,serif" font-size="14.00" fill="#000000">id</text>
<polyline fill="none" stroke="#000000" points="642.8513,-708.5 911.8513,-708.5 "/>
<text text-anchor="middle" x="777.3513" y="-693.3" font-family="Times,serif" font-size="14.00" fill="#000000">last_known_survival_status</text>
<polyline fill="none" stroke="#000000" points="642.8513,-685.5 911.8513,-685.5 "/>
<text text-anchor="middle" x="777.3513" y="-670.3" font-family="Times,serif" font-size="14.00" fill="#000000">survival_id</text>
<polyline fill="none" stroke="#000000" points="911.8513,-662.5 911.8513,-846.5 "/>
<text text-anchor="middle" x="922.3513" y="-750.8" font-family="Times,serif" font-size="14.00" fill="#000000"> </text>
</g>
<!-- survival&#45;&gt;participant -->
<g id="edge11" class="edge">
<title>survival&#45;&gt;participant</title>
<path fill="none" stroke="#000000" d="M891.1941,-662.4856C908.1384,-653.8937 925.405,-645.854 942.3513,-639 1021.1842,-607.1154 1113.4532,-583.2513 1187.6723,-567.1149"/>
<polygon fill="#000000" stroke="#000000" points="1188.5171,-570.5134 1197.5572,-564.9882 1187.0447,-563.67 1188.5171,-570.5134"/>
<text text-anchor="middle" x="1073.8513" y="-609.8" font-family="Times,serif" font-size="14.00" fill="#000000">of_survival</text>
</g>
<!-- reference_file -->
<g id="node10" class="node">
<title>reference_file</title>
<path fill="none" stroke="#000000" d="M1753.8513,-213.5C1753.8513,-213.5 2030.8513,-213.5 2030.8513,-213.5 2036.8513,-213.5 2042.8513,-219.5 2042.8513,-225.5 2042.8513,-225.5 2042.8513,-431.5 2042.8513,-431.5 2042.8513,-437.5 2036.8513,-443.5 2030.8513,-443.5 2030.8513,-443.5 1753.8513,-443.5 1753.8513,-443.5 1747.8513,-443.5 1741.8513,-437.5 1741.8513,-431.5 1741.8513,-431.5 1741.8513,-225.5 1741.8513,-225.5 1741.8513,-219.5 1747.8513,-213.5 1753.8513,-213.5"/>
<text text-anchor="middle" x="1799.8513" y="-324.8" font-family="Times,serif" font-size="14.00" fill="#000000">reference_file</text>
<polyline fill="none" stroke="#000000" points="1857.8513,-213.5 1857.8513,-443.5 "/>
<text text-anchor="middle" x="1868.3513" y="-324.8" font-family="Times,serif" font-size="14.00" fill="#000000"> </text>
<polyline fill="none" stroke="#000000" points="1878.8513,-213.5 1878.8513,-443.5 "/>
<text text-anchor="middle" x="1950.3513" y="-428.3" font-family="Times,serif" font-size="14.00" fill="#000000">dcf_indexd_guid</text>
<polyline fill="none" stroke="#000000" points="1878.8513,-420.5 2021.8513,-420.5 "/>
<text text-anchor="middle" x="1950.3513" y="-405.3" font-family="Times,serif" font-size="14.00" fill="#000000">file_category</text>
<polyline fill="none" stroke="#000000" points="1878.8513,-397.5 2021.8513,-397.5 "/>
<text text-anchor="middle" x="1950.3513" y="-382.3" font-family="Times,serif" font-size="14.00" fill="#000000">file_description</text>
<polyline fill="none" stroke="#000000" points="1878.8513,-374.5 2021.8513,-374.5 "/>
<text text-anchor="middle" x="1950.3513" y="-359.3" font-family="Times,serif" font-size="14.00" fill="#000000">file_name</text>
<polyline fill="none" stroke="#000000" points="1878.8513,-351.5 2021.8513,-351.5 "/>
<text text-anchor="middle" x="1950.3513" y="-336.3" font-family="Times,serif" font-size="14.00" fill="#000000">file_size</text>
<polyline fill="none" stroke="#000000" points="1878.8513,-328.5 2021.8513,-328.5 "/>
<text text-anchor="middle" x="1950.3513" y="-313.3" font-family="Times,serif" font-size="14.00" fill="#000000">file_type</text>
<polyline fill="none" stroke="#000000" points="1878.8513,-305.5 2021.8513,-305.5 "/>
<text text-anchor="middle" x="1950.3513" y="-290.3" font-family="Times,serif" font-size="14.00" fill="#000000">id</text>
<polyline fill="none" stroke="#000000" points="1878.8513,-282.5 2021.8513,-282.5 "/>
<text text-anchor="middle" x="1950.3513" y="-267.3" font-family="Times,serif" font-size="14.00" fill="#000000">md5sum</text>
<polyline fill="none" stroke="#000000" points="1878.8513,-259.5 2021.8513,-259.5 "/>
<text text-anchor="middle" x="1950.3513" y="-244.3" font-family="Times,serif" font-size="14.00" fill="#000000">reference_file_id</text>
<polyline fill="none" stroke="#000000" points="1878.8513,-236.5 2021.8513,-236.5 "/>
<text text-anchor="middle" x="1950.3513" y="-221.3" font-family="Times,serif" font-size="14.00" fill="#000000">reference_file_url</text>
<polyline fill="none" stroke="#000000" points="2021.8513,-213.5 2021.8513,-443.5 "/>
<text text-anchor="middle" x="2032.3513" y="-324.8" font-family="Times,serif" font-size="14.00" fill="#000000"> </text>
</g>
<!-- reference_file&#45;&gt;study -->
<g id="edge10" class="edge">
<title>reference_file&#45;&gt;study</title>
<path fill="none" stroke="#000000" d="M1892.3513,-213.4448C1892.3513,-199.4621 1892.3513,-185.3307 1892.3513,-171.7693"/>
<polygon fill="#000000" stroke="#000000" points="1895.8514,-171.5218 1892.3513,-161.5218 1888.8514,-171.5219 1895.8514,-171.5218"/>
<text text-anchor="middle" x="1952.8513" y="-183.8" font-family="Times,serif" font-size="14.00" fill="#000000">of_reference_file</text>
</g>
<!-- sample&#45;&gt;participant -->
<g id="edge12" class="edge">
<title>sample&#45;&gt;participant</title>
<path fill="none" stroke="#000000" d="M1196.9677,-650.8018C1210.1213,-635.189 1224.1485,-619.735 1238.3513,-606 1242.5074,-601.9807 1246.9204,-597.9964 1251.4685,-594.0966"/>
<polygon fill="#000000" stroke="#000000" points="1253.7924,-596.716 1259.2287,-587.6222 1249.308,-591.341 1253.7924,-596.716"/>
<text text-anchor="middle" x="1274.8513" y="-609.8" font-family="Times,serif" font-size="14.00" fill="#000000">of_sample</text>
</g>
<!-- synonym -->
<g id="node12" class="node">
<title>synonym</title>
<path fill="none" stroke="#000000" d="M1996.8513,-674C1996.8513,-674 2297.8513,-674 2297.8513,-674 2303.8513,-674 2309.8513,-680 2309.8513,-686 2309.8513,-686 2309.8513,-823 2309.8513,-823 2309.8513,-829 2303.8513,-835 2297.8513,-835 2297.8513,-835 1996.8513,-835 1996.8513,-835 1990.8513,-835 1984.8513,-829 1984.8513,-823 1984.8513,-823 1984.8513,-686 1984.8513,-686 1984.8513,-680 1990.8513,-674 1996.8513,-674"/>
<text text-anchor="middle" x="2024.8513" y="-750.8" font-family="Times,serif" font-size="14.00" fill="#000000">synonym</text>
<polyline fill="none" stroke="#000000" points="2064.8513,-674 2064.8513,-835 "/>
<text text-anchor="middle" x="2075.3513" y="-750.8" font-family="Times,serif" font-size="14.00" fill="#000000"> </text>
<polyline fill="none" stroke="#000000" points="2085.8513,-674 2085.8513,-835 "/>
<text text-anchor="middle" x="2187.3513" y="-819.8" font-family="Times,serif" font-size="14.00" fill="#000000">associated_id</text>
<polyline fill="none" stroke="#000000" points="2085.8513,-812 2288.8513,-812 "/>
<text text-anchor="middle" x="2187.3513" y="-796.8" font-family="Times,serif" font-size="14.00" fill="#000000">data_location</text>
<polyline fill="none" stroke="#000000" points="2085.8513,-789 2288.8513,-789 "/>
<text text-anchor="middle" x="2187.3513" y="-773.8" font-family="Times,serif" font-size="14.00" fill="#000000">domain_category</text>
<polyline fill="none" stroke="#000000" points="2085.8513,-766 2288.8513,-766 "/>
<text text-anchor="middle" x="2187.3513" y="-750.8" font-family="Times,serif" font-size="14.00" fill="#000000">domain_description</text>
<polyline fill="none" stroke="#000000" points="2085.8513,-743 2288.8513,-743 "/>
<text text-anchor="middle" x="2187.3513" y="-727.8" font-family="Times,serif" font-size="14.00" fill="#000000">id</text>
<polyline fill="none" stroke="#000000" points="2085.8513,-720 2288.8513,-720 "/>
<text text-anchor="middle" x="2187.3513" y="-704.8" font-family="Times,serif" font-size="14.00" fill="#000000">repository_of_synonym_id</text>
<polyline fill="none" stroke="#000000" points="2085.8513,-697 2288.8513,-697 "/>
<text text-anchor="middle" x="2187.3513" y="-681.8" font-family="Times,serif" font-size="14.00" fill="#000000">synonym_id</text>
<polyline fill="none" stroke="#000000" points="2288.8513,-674 2288.8513,-835 "/>
<text text-anchor="middle" x="2299.3513" y="-750.8" font-family="Times,serif" font-size="14.00" fill="#000000"> </text>
</g>
<!-- synonym&#45;&gt;study -->
<g id="edge14" class="edge">
<title>synonym&#45;&gt;study</title>
<path fill="none" stroke="#000000" d="M2148.6827,-673.6454C2147.1838,-563.0797 2132.3763,-361.5129 2052.3513,-213 2043.7755,-197.0849 2032.4101,-182.3355 2019.6789,-168.9066"/>
<polygon fill="#000000" stroke="#000000" points="2021.9825,-166.2574 2012.4746,-161.583 2016.9922,-171.1664 2021.9825,-166.2574"/>
<text text-anchor="middle" x="2174.8513" y="-465.8" font-family="Times,serif" font-size="14.00" fill="#000000">of_synonym</text>
</g>
<!-- synonym&#45;&gt;participant -->
<g id="edge15" class="edge">
<title>synonym&#45;&gt;participant</title>
<path fill="none" stroke="#000000" d="M2043.3301,-673.7145C2022.0917,-660.3142 1999.2186,-647.9052 1976.3513,-639 1885.3429,-603.559 1625.6625,-571.9804 1463.1107,-554.9053"/>
<polygon fill="#000000" stroke="#000000" points="1463.3404,-551.4103 1453.0308,-553.8519 1462.6128,-558.3724 1463.3404,-551.4103"/>
<text text-anchor="middle" x="1954.8513" y="-609.8" font-family="Times,serif" font-size="14.00" fill="#000000">of_synonym</text>
</g>
</g>
</svg>
