<svg width="2304pt" height="1528pt"
 viewBox="0.00 0.00 2304.00 1528.00" xmlns="http://www.w3.org/2000/svg" xmlns:xlink="http://www.w3.org/1999/xlink">
<g id="graph0" class="graph" transform="scale(1 1) rotate(0) translate(4 1524)">
<title>Perl</title>
<polygon fill="#ffffff" stroke="transparent" points="-4,4 -4,-1524 2300,-1524 2300,4 -4,4"/>
<!-- survival -->
<g id="node1" class="node">
<title>survival</title>
<path fill="none" stroke="#000000" d="M1923,-662.5C1923,-662.5 2284,-662.5 2284,-662.5 2290,-662.5 2296,-668.5 2296,-674.5 2296,-674.5 2296,-834.5 2296,-834.5 2296,-840.5 2290,-846.5 2284,-846.5 2284,-846.5 1923,-846.5 1923,-846.5 1917,-846.5 1911,-840.5 1911,-834.5 1911,-834.5 1911,-674.5 1911,-674.5 1911,-668.5 1917,-662.5 1923,-662.5"/>
<text text-anchor="middle" x="1948" y="-750.8" font-family="Times,serif" font-size="14.00" fill="#000000">survival</text>
<polyline fill="none" stroke="#000000" points="1985,-662.5 1985,-846.5 "/>
<text text-anchor="middle" x="1995.5" y="-750.8" font-family="Times,serif" font-size="14.00" fill="#000000"> </text>
<polyline fill="none" stroke="#000000" points="2006,-662.5 2006,-846.5 "/>
<text text-anchor="middle" x="2140.5" y="-831.3" font-family="Times,serif" font-size="14.00" fill="#000000">age_at_event_free_survival_status</text>
<polyline fill="none" stroke="#000000" points="2006,-823.5 2275,-823.5 "/>
<text text-anchor="middle" x="2140.5" y="-808.3" font-family="Times,serif" font-size="14.00" fill="#000000">age_at_last_known_survival_status</text>
<polyline fill="none" stroke="#000000" points="2006,-800.5 2275,-800.5 "/>
<text text-anchor="middle" x="2140.5" y="-785.3" font-family="Times,serif" font-size="14.00" fill="#000000">cause_of_death</text>
<polyline fill="none" stroke="#000000" points="2006,-777.5 2275,-777.5 "/>
<text text-anchor="middle" x="2140.5" y="-762.3" font-family="Times,serif" font-size="14.00" fill="#000000">event_free_survival_status</text>
<polyline fill="none" stroke="#000000" points="2006,-754.5 2275,-754.5 "/>
<text text-anchor="middle" x="2140.5" y="-739.3" font-family="Times,serif" font-size="14.00" fill="#000000">first_event</text>
<polyline fill="none" stroke="#000000" points="2006,-731.5 2275,-731.5 "/>
<text text-anchor="middle" x="2140.5" y="-716.3" font-family="Times,serif" font-size="14.00" fill="#000000">id</text>
<polyline fill="none" stroke="#000000" points="2006,-708.5 2275,-708.5 "/>
<text text-anchor="middle" x="2140.5" y="-693.3" font-family="Times,serif" font-size="14.00" fill="#000000">last_known_survival_status</text>
<polyline fill="none" stroke="#000000" points="2006,-685.5 2275,-685.5 "/>
<text text-anchor="middle" x="2140.5" y="-670.3" font-family="Times,serif" font-size="14.00" fill="#000000">survival_id</text>
<polyline fill="none" stroke="#000000" points="2275,-662.5 2275,-846.5 "/>
<text text-anchor="middle" x="2285.5" y="-750.8" font-family="Times,serif" font-size="14.00" fill="#000000"> </text>
</g>
<!-- participant -->
<g id="node2" class="node">
<title>participant</title>
<path fill="none" stroke="#000000" d="M822,-495.5C822,-495.5 1053,-495.5 1053,-495.5 1059,-495.5 1065,-501.5 1065,-507.5 1065,-507.5 1065,-575.5 1065,-575.5 1065,-581.5 1059,-587.5 1053,-587.5 1053,-587.5 822,-587.5 822,-587.5 816,-587.5 810,-581.5 810,-575.5 810,-575.5 810,-507.5 810,-507.5 810,-501.5 816,-495.5 822,-495.5"/>
<text text-anchor="middle" x="858" y="-537.8" font-family="Times,serif" font-size="14.00" fill="#000000">participant</text>
<polyline fill="none" stroke="#000000" points="906,-495.5 906,-587.5 "/>
<text text-anchor="middle" x="916.5" y="-537.8" font-family="Times,serif" font-size="14.00" fill="#000000"> </text>
<polyline fill="none" stroke="#000000" points="927,-495.5 927,-587.5 "/>
<text text-anchor="middle" x="985.5" y="-572.3" font-family="Times,serif" font-size="14.00" fill="#000000">id</text>
<polyline fill="none" stroke="#000000" points="927,-564.5 1044,-564.5 "/>
<text text-anchor="middle" x="985.5" y="-549.3" font-family="Times,serif" font-size="14.00" fill="#000000">participant_id</text>
<polyline fill="none" stroke="#000000" points="927,-541.5 1044,-541.5 "/>
<text text-anchor="middle" x="985.5" y="-526.3" font-family="Times,serif" font-size="14.00" fill="#000000">race</text>
<polyline fill="none" stroke="#000000" points="927,-518.5 1044,-518.5 "/>
<text text-anchor="middle" x="985.5" y="-503.3" font-family="Times,serif" font-size="14.00" fill="#000000">sex_at_birth</text>
<polyline fill="none" stroke="#000000" points="1044,-495.5 1044,-587.5 "/>
<text text-anchor="middle" x="1054.5" y="-537.8" font-family="Times,serif" font-size="14.00" fill="#000000"> </text>
</g>
<!-- survival&#45;&gt;participant -->
<g id="edge15" class="edge">
<title>survival&#45;&gt;participant</title>
<path fill="none" stroke="#000000" d="M1958.0189,-662.3887C1939.4913,-653.3531 1920.392,-645.2395 1901.5,-639 1751.6854,-589.5203 1303.8207,-560.2027 1075.1445,-548.0668"/>
<polygon fill="#000000" stroke="#000000" points="1075.2633,-544.5683 1065.0929,-547.5369 1074.8948,-551.5586 1075.2633,-544.5683"/>
<text text-anchor="middle" x="1864" y="-609.8" font-family="Times,serif" font-size="14.00" fill="#000000">of_survival</text>
</g>
<!-- consent_group -->
<g id="node10" class="node">
<title>consent_group</title>
<path fill="none" stroke="#000000" d="M726,-271C726,-271 1051,-271 1051,-271 1057,-271 1063,-277 1063,-283 1063,-283 1063,-374 1063,-374 1063,-380 1057,-386 1051,-386 1051,-386 726,-386 726,-386 720,-386 714,-380 714,-374 714,-374 714,-283 714,-283 714,-277 720,-271 726,-271"/>
<text text-anchor="middle" x="775" y="-324.8" font-family="Times,serif" font-size="14.00" fill="#000000">consent_group</text>
<polyline fill="none" stroke="#000000" points="836,-271 836,-386 "/>
<text text-anchor="middle" x="846.5" y="-324.8" font-family="Times,serif" font-size="14.00" fill="#000000"> </text>
<polyline fill="none" stroke="#000000" points="857,-271 857,-386 "/>
<text text-anchor="middle" x="949.5" y="-370.8" font-family="Times,serif" font-size="14.00" fill="#000000">consent_group_id</text>
<polyline fill="none" stroke="#000000" points="857,-363 1042,-363 "/>
<text text-anchor="middle" x="949.5" y="-347.8" font-family="Times,serif" font-size="14.00" fill="#000000">consent_group_name</text>
<polyline fill="none" stroke="#000000" points="857,-340 1042,-340 "/>
<text text-anchor="middle" x="949.5" y="-324.8" font-family="Times,serif" font-size="14.00" fill="#000000">consent_group_number</text>
<polyline fill="none" stroke="#000000" points="857,-317 1042,-317 "/>
<text text-anchor="middle" x="949.5" y="-301.8" font-family="Times,serif" font-size="14.00" fill="#000000">consent_group_suffix</text>
<polyline fill="none" stroke="#000000" points="857,-294 1042,-294 "/>
<text text-anchor="middle" x="949.5" y="-278.8" font-family="Times,serif" font-size="14.00" fill="#000000">id</text>
<polyline fill="none" stroke="#000000" points="1042,-271 1042,-386 "/>
<text text-anchor="middle" x="1052.5" y="-324.8" font-family="Times,serif" font-size="14.00" fill="#000000"> </text>
</g>
<!-- participant&#45;&gt;consent_group -->
<g id="edge11" class="edge">
<title>participant&#45;&gt;consent_group</title>
<path fill="none" stroke="#000000" d="M926.8677,-495.2822C920.1846,-466.2309 911.4486,-428.2563 904.0011,-395.8824"/>
<polygon fill="#000000" stroke="#000000" points="907.3878,-394.992 901.7349,-386.0312 900.566,-396.5614 907.3878,-394.992"/>
<text text-anchor="middle" x="973" y="-465.8" font-family="Times,serif" font-size="14.00" fill="#000000">of_participant</text>
</g>
<!-- treatment_response -->
<g id="node3" class="node">
<title>treatment_response</title>
<path fill="none" stroke="#000000" d="M355,-685.5C355,-685.5 716,-685.5 716,-685.5 722,-685.5 728,-691.5 728,-697.5 728,-697.5 728,-811.5 728,-811.5 728,-817.5 722,-823.5 716,-823.5 716,-823.5 355,-823.5 355,-823.5 349,-823.5 343,-817.5 343,-811.5 343,-811.5 343,-697.5 343,-697.5 343,-691.5 349,-685.5 355,-685.5"/>
<text text-anchor="middle" x="423.5" y="-750.8" font-family="Times,serif" font-size="14.00" fill="#000000">treatment_response</text>
<polyline fill="none" stroke="#000000" points="504,-685.5 504,-823.5 "/>
<text text-anchor="middle" x="514.5" y="-750.8" font-family="Times,serif" font-size="14.00" fill="#000000"> </text>
<polyline fill="none" stroke="#000000" points="525,-685.5 525,-823.5 "/>
<text text-anchor="middle" x="616" y="-808.3" font-family="Times,serif" font-size="14.00" fill="#000000">age_at_response</text>
<polyline fill="none" stroke="#000000" points="525,-800.5 707,-800.5 "/>
<text text-anchor="middle" x="616" y="-785.3" font-family="Times,serif" font-size="14.00" fill="#000000">id</text>
<polyline fill="none" stroke="#000000" points="525,-777.5 707,-777.5 "/>
<text text-anchor="middle" x="616" y="-762.3" font-family="Times,serif" font-size="14.00" fill="#000000">response</text>
<polyline fill="none" stroke="#000000" points="525,-754.5 707,-754.5 "/>
<text text-anchor="middle" x="616" y="-739.3" font-family="Times,serif" font-size="14.00" fill="#000000">response_category</text>
<polyline fill="none" stroke="#000000" points="525,-731.5 707,-731.5 "/>
<text text-anchor="middle" x="616" y="-716.3" font-family="Times,serif" font-size="14.00" fill="#000000">response_system</text>
<polyline fill="none" stroke="#000000" points="525,-708.5 707,-708.5 "/>
<text text-anchor="middle" x="616" y="-693.3" font-family="Times,serif" font-size="14.00" fill="#000000">treatment_response_id</text>
<polyline fill="none" stroke="#000000" points="707,-685.5 707,-823.5 "/>
<text text-anchor="middle" x="717.5" y="-750.8" font-family="Times,serif" font-size="14.00" fill="#000000"> </text>
</g>
<!-- treatment_response&#45;&gt;participant -->
<g id="edge14" class="edge">
<title>treatment_response&#45;&gt;participant</title>
<path fill="none" stroke="#000000" d="M542.8027,-685.3538C549.323,-656.8868 561.5684,-625.9671 584.5,-606 616.5885,-578.0598 714.9295,-561.5729 799.6882,-552.2714"/>
<polygon fill="#000000" stroke="#000000" points="800.117,-555.7456 809.6871,-551.2001 799.3712,-548.7854 800.117,-555.7456"/>
<text text-anchor="middle" x="667.5" y="-609.8" font-family="Times,serif" font-size="14.00" fill="#000000">of_treatment_response</text>
</g>
<!-- laboratory_test -->
<g id="node4" class="node">
<title>laboratory_test</title>
<path fill="none" stroke="#000000" d="M542.5,-1094C542.5,-1094 874.5,-1094 874.5,-1094 880.5,-1094 886.5,-1100 886.5,-1106 886.5,-1106 886.5,-1335 886.5,-1335 886.5,-1341 880.5,-1347 874.5,-1347 874.5,-1347 542.5,-1347 542.5,-1347 536.5,-1347 530.5,-1341 530.5,-1335 530.5,-1335 530.5,-1106 530.5,-1106 530.5,-1100 536.5,-1094 542.5,-1094"/>
<text text-anchor="middle" x="593.5" y="-1216.8" font-family="Times,serif" font-size="14.00" fill="#000000">laboratory_test</text>
<polyline fill="none" stroke="#000000" points="656.5,-1094 656.5,-1347 "/>
<text text-anchor="middle" x="667" y="-1216.8" font-family="Times,serif" font-size="14.00" fill="#000000"> </text>
<polyline fill="none" stroke="#000000" points="677.5,-1094 677.5,-1347 "/>
<text text-anchor="middle" x="771.5" y="-1331.8" font-family="Times,serif" font-size="14.00" fill="#000000">age_at_laboratory_test</text>
<polyline fill="none" stroke="#000000" points="677.5,-1324 865.5,-1324 "/>
<text text-anchor="middle" x="771.5" y="-1308.8" font-family="Times,serif" font-size="14.00" fill="#000000">id</text>
<polyline fill="none" stroke="#000000" points="677.5,-1301 865.5,-1301 "/>
<text text-anchor="middle" x="771.5" y="-1285.8" font-family="Times,serif" font-size="14.00" fill="#000000">laboratory_test_id</text>
<polyline fill="none" stroke="#000000" points="677.5,-1278 865.5,-1278 "/>
<text text-anchor="middle" x="771.5" y="-1262.8" font-family="Times,serif" font-size="14.00" fill="#000000">laboratory_test_method</text>
<polyline fill="none" stroke="#000000" points="677.5,-1255 865.5,-1255 "/>
<text text-anchor="middle" x="771.5" y="-1239.8" font-family="Times,serif" font-size="14.00" fill="#000000">laboratory_test_name</text>
<polyline fill="none" stroke="#000000" points="677.5,-1232 865.5,-1232 "/>
<text text-anchor="middle" x="771.5" y="-1216.8" font-family="Times,serif" font-size="14.00" fill="#000000">sensitivity</text>
<polyline fill="none" stroke="#000000" points="677.5,-1209 865.5,-1209 "/>
<text text-anchor="middle" x="771.5" y="-1193.8" font-family="Times,serif" font-size="14.00" fill="#000000">specimen</text>
<polyline fill="none" stroke="#000000" points="677.5,-1186 865.5,-1186 "/>
<text text-anchor="middle" x="771.5" y="-1170.8" font-family="Times,serif" font-size="14.00" fill="#000000">test_result_modifier</text>
<polyline fill="none" stroke="#000000" points="677.5,-1163 865.5,-1163 "/>
<text text-anchor="middle" x="771.5" y="-1147.8" font-family="Times,serif" font-size="14.00" fill="#000000">test_result_numeric</text>
<polyline fill="none" stroke="#000000" points="677.5,-1140 865.5,-1140 "/>
<text text-anchor="middle" x="771.5" y="-1124.8" font-family="Times,serif" font-size="14.00" fill="#000000">test_result_text</text>
<polyline fill="none" stroke="#000000" points="677.5,-1117 865.5,-1117 "/>
<text text-anchor="middle" x="771.5" y="-1101.8" font-family="Times,serif" font-size="14.00" fill="#000000">test_result_unit</text>
<polyline fill="none" stroke="#000000" points="865.5,-1094 865.5,-1347 "/>
<text text-anchor="middle" x="876" y="-1216.8" font-family="Times,serif" font-size="14.00" fill="#000000"> </text>
</g>
<!-- laboratory_test&#45;&gt;participant -->
<g id="edge2" class="edge">
<title>laboratory_test&#45;&gt;participant</title>
<path fill="none" stroke="#000000" d="M715.4161,-1093.9084C725.5029,-946.189 748.316,-712.7296 794.5,-639 805.4663,-621.4931 820.8558,-606.3575 837.502,-593.5821"/>
<polygon fill="#000000" stroke="#000000" points="839.7841,-596.2482 845.7608,-587.5001 835.6332,-590.6117 839.7841,-596.2482"/>
<text text-anchor="middle" x="860" y="-750.8" font-family="Times,serif" font-size="14.00" fill="#000000">of_laboratory_test</text>
</g>
<!-- sample -->
<g id="node8" class="node">
<title>sample</title>
<path fill="none" stroke="#000000" d="M1107.5,-651C1107.5,-651 1421.5,-651 1421.5,-651 1427.5,-651 1433.5,-657 1433.5,-663 1433.5,-663 1433.5,-846 1433.5,-846 1433.5,-852 1427.5,-858 1421.5,-858 1421.5,-858 1107.5,-858 1107.5,-858 1101.5,-858 1095.5,-852 1095.5,-846 1095.5,-846 1095.5,-663 1095.5,-663 1095.5,-657 1101.5,-651 1107.5,-651"/>
<text text-anchor="middle" x="1129.5" y="-750.8" font-family="Times,serif" font-size="14.00" fill="#000000">sample</text>
<polyline fill="none" stroke="#000000" points="1163.5,-651 1163.5,-858 "/>
<text text-anchor="middle" x="1174" y="-750.8" font-family="Times,serif" font-size="14.00" fill="#000000"> </text>
<polyline fill="none" stroke="#000000" points="1184.5,-651 1184.5,-858 "/>
<text text-anchor="middle" x="1298.5" y="-842.8" font-family="Times,serif" font-size="14.00" fill="#000000">anatomic_site</text>
<polyline fill="none" stroke="#000000" points="1184.5,-835 1412.5,-835 "/>
<text text-anchor="middle" x="1298.5" y="-819.8" font-family="Times,serif" font-size="14.00" fill="#000000">id</text>
<polyline fill="none" stroke="#000000" points="1184.5,-812 1412.5,-812 "/>
<text text-anchor="middle" x="1298.5" y="-796.8" font-family="Times,serif" font-size="14.00" fill="#000000">participant_age_at_collection</text>
<polyline fill="none" stroke="#000000" points="1184.5,-789 1412.5,-789 "/>
<text text-anchor="middle" x="1298.5" y="-773.8" font-family="Times,serif" font-size="14.00" fill="#000000">percent_necrosis</text>
<polyline fill="none" stroke="#000000" points="1184.5,-766 1412.5,-766 "/>
<text text-anchor="middle" x="1298.5" y="-750.8" font-family="Times,serif" font-size="14.00" fill="#000000">percent_tumor</text>
<polyline fill="none" stroke="#000000" points="1184.5,-743 1412.5,-743 "/>
<text text-anchor="middle" x="1298.5" y="-727.8" font-family="Times,serif" font-size="14.00" fill="#000000">sample_description</text>
<polyline fill="none" stroke="#000000" points="1184.5,-720 1412.5,-720 "/>
<text text-anchor="middle" x="1298.5" y="-704.8" font-family="Times,serif" font-size="14.00" fill="#000000">sample_id</text>
<polyline fill="none" stroke="#000000" points="1184.5,-697 1412.5,-697 "/>
<text text-anchor="middle" x="1298.5" y="-681.8" font-family="Times,serif" font-size="14.00" fill="#000000">sample_tumor_status</text>
<polyline fill="none" stroke="#000000" points="1184.5,-674 1412.5,-674 "/>
<text text-anchor="middle" x="1298.5" y="-658.8" font-family="Times,serif" font-size="14.00" fill="#000000">tumor_classification</text>
<polyline fill="none" stroke="#000000" points="1412.5,-651 1412.5,-858 "/>
<text text-anchor="middle" x="1423" y="-750.8" font-family="Times,serif" font-size="14.00" fill="#000000"> </text>
</g>
<!-- laboratory_test&#45;&gt;sample -->
<g id="edge1" class="edge">
<title>laboratory_test&#45;&gt;sample</title>
<path fill="none" stroke="#000000" d="M760.8036,-1093.9299C791.728,-1033.4913 836.5041,-964.9371 895.5,-921 964.2472,-869.8006 1003.069,-904.5851 1081.5,-870 1086.8403,-867.6451 1092.2064,-865.1507 1097.5755,-862.5424"/>
<polygon fill="#000000" stroke="#000000" points="1099.2144,-865.6363 1106.61,-858.0497 1096.0976,-859.3685 1099.2144,-865.6363"/>
<text text-anchor="middle" x="1068" y="-891.8" font-family="Times,serif" font-size="14.00" fill="#000000">of_laboratory_test</text>
</g>
<!-- synonym -->
<g id="node5" class="node">
<title>synonym</title>
<path fill="none" stroke="#000000" d="M12,-674C12,-674 313,-674 313,-674 319,-674 325,-680 325,-686 325,-686 325,-823 325,-823 325,-829 319,-835 313,-835 313,-835 12,-835 12,-835 6,-835 0,-829 0,-823 0,-823 0,-686 0,-686 0,-680 6,-674 12,-674"/>
<text text-anchor="middle" x="40" y="-750.8" font-family="Times,serif" font-size="14.00" fill="#000000">synonym</text>
<polyline fill="none" stroke="#000000" points="80,-674 80,-835 "/>
<text text-anchor="middle" x="90.5" y="-750.8" font-family="Times,serif" font-size="14.00" fill="#000000"> </text>
<polyline fill="none" stroke="#000000" points="101,-674 101,-835 "/>
<text text-anchor="middle" x="202.5" y="-819.8" font-family="Times,serif" font-size="14.00" fill="#000000">associated_id</text>
<polyline fill="none" stroke="#000000" points="101,-812 304,-812 "/>
<text text-anchor="middle" x="202.5" y="-796.8" font-family="Times,serif" font-size="14.00" fill="#000000">data_location</text>
<polyline fill="none" stroke="#000000" points="101,-789 304,-789 "/>
<text text-anchor="middle" x="202.5" y="-773.8" font-family="Times,serif" font-size="14.00" fill="#000000">domain_category</text>
<polyline fill="none" stroke="#000000" points="101,-766 304,-766 "/>
<text text-anchor="middle" x="202.5" y="-750.8" font-family="Times,serif" font-size="14.00" fill="#000000">domain_description</text>
<polyline fill="none" stroke="#000000" points="101,-743 304,-743 "/>
<text text-anchor="middle" x="202.5" y="-727.8" font-family="Times,serif" font-size="14.00" fill="#000000">id</text>
<polyline fill="none" stroke="#000000" points="101,-720 304,-720 "/>
<text text-anchor="middle" x="202.5" y="-704.8" font-family="Times,serif" font-size="14.00" fill="#000000">repository_of_synonym_id</text>
<polyline fill="none" stroke="#000000" points="101,-697 304,-697 "/>
<text text-anchor="middle" x="202.5" y="-681.8" font-family="Times,serif" font-size="14.00" fill="#000000">synonym_id</text>
<polyline fill="none" stroke="#000000" points="304,-674 304,-835 "/>
<text text-anchor="middle" x="314.5" y="-750.8" font-family="Times,serif" font-size="14.00" fill="#000000"> </text>
</g>
<!-- synonym&#45;&gt;participant -->
<g id="edge13" class="edge">
<title>synonym&#45;&gt;participant</title>
<path fill="none" stroke="#000000" d="M268.8782,-673.7486C289.5389,-660.6781 311.5999,-648.3783 333.5,-639 415.1686,-604.0268 648.0062,-573.1283 799.5807,-555.9124"/>
<polygon fill="#000000" stroke="#000000" points="800.3532,-559.3475 809.8973,-554.7475 799.5677,-552.3917 800.3532,-559.3475"/>
<text text-anchor="middle" x="487" y="-609.8" font-family="Times,serif" font-size="14.00" fill="#000000">of_synonym</text>
</g>
<!-- study -->
<g id="node9" class="node">
<title>study</title>
<path fill="none" stroke="#000000" d="M387,-.5C387,-.5 606,-.5 606,-.5 612,-.5 618,-6.5 618,-12.5 618,-12.5 618,-149.5 618,-149.5 618,-155.5 612,-161.5 606,-161.5 606,-161.5 387,-161.5 387,-161.5 381,-161.5 375,-155.5 375,-149.5 375,-149.5 375,-12.5 375,-12.5 375,-6.5 381,-.5 387,-.5"/>
<text text-anchor="middle" x="403" y="-77.3" font-family="Times,serif" font-size="14.00" fill="#000000">study</text>
<polyline fill="none" stroke="#000000" points="431,-.5 431,-161.5 "/>
<text text-anchor="middle" x="441.5" y="-77.3" font-family="Times,serif" font-size="14.00" fill="#000000"> </text>
<polyline fill="none" stroke="#000000" points="452,-.5 452,-161.5 "/>
<text text-anchor="middle" x="524.5" y="-146.3" font-family="Times,serif" font-size="14.00" fill="#000000">dbgap_accession</text>
<polyline fill="none" stroke="#000000" points="452,-138.5 597,-138.5 "/>
<text text-anchor="middle" x="524.5" y="-123.3" font-family="Times,serif" font-size="14.00" fill="#000000">external_url</text>
<polyline fill="none" stroke="#000000" points="452,-115.5 597,-115.5 "/>
<text text-anchor="middle" x="524.5" y="-100.3" font-family="Times,serif" font-size="14.00" fill="#000000">id</text>
<polyline fill="none" stroke="#000000" points="452,-92.5 597,-92.5 "/>
<text text-anchor="middle" x="524.5" y="-77.3" font-family="Times,serif" font-size="14.00" fill="#000000">study_description</text>
<polyline fill="none" stroke="#000000" points="452,-69.5 597,-69.5 "/>
<text text-anchor="middle" x="524.5" y="-54.3" font-family="Times,serif" font-size="14.00" fill="#000000">study_id</text>
<polyline fill="none" stroke="#000000" points="452,-46.5 597,-46.5 "/>
<text text-anchor="middle" x="524.5" y="-31.3" font-family="Times,serif" font-size="14.00" fill="#000000">study_name</text>
<polyline fill="none" stroke="#000000" points="452,-23.5 597,-23.5 "/>
<text text-anchor="middle" x="524.5" y="-8.3" font-family="Times,serif" font-size="14.00" fill="#000000">study_status</text>
<polyline fill="none" stroke="#000000" points="597,-.5 597,-161.5 "/>
<text text-anchor="middle" x="607.5" y="-77.3" font-family="Times,serif" font-size="14.00" fill="#000000"> </text>
</g>
<!-- synonym&#45;&gt;study -->
<g id="edge12" class="edge">
<title>synonym&#45;&gt;study</title>
<path fill="none" stroke="#000000" d="M173.7976,-673.8954C192.5157,-562.2856 238.1205,-358.0574 336.5,-213 347.1717,-197.2649 360.247,-182.4057 374.2807,-168.7303"/>
<polygon fill="#000000" stroke="#000000" points="376.8559,-171.1116 381.699,-161.6885 372.0366,-166.0346 376.8559,-171.1116"/>
<text text-anchor="middle" x="265" y="-465.8" font-family="Times,serif" font-size="14.00" fill="#000000">of_synonym</text>
</g>
<!-- reference_file -->
<g id="node6" class="node">
<title>reference_file</title>
<path fill="none" stroke="#000000" d="M358,-213.5C358,-213.5 635,-213.5 635,-213.5 641,-213.5 647,-219.5 647,-225.5 647,-225.5 647,-431.5 647,-431.5 647,-437.5 641,-443.5 635,-443.5 635,-443.5 358,-443.5 358,-443.5 352,-443.5 346,-437.5 346,-431.5 346,-431.5 346,-225.5 346,-225.5 346,-219.5 352,-213.5 358,-213.5"/>
<text text-anchor="middle" x="404" y="-324.8" font-family="Times,serif" font-size="14.00" fill="#000000">reference_file</text>
<polyline fill="none" stroke="#000000" points="462,-213.5 462,-443.5 "/>
<text text-anchor="middle" x="472.5" y="-324.8" font-family="Times,serif" font-size="14.00" fill="#000000"> </text>
<polyline fill="none" stroke="#000000" points="483,-213.5 483,-443.5 "/>
<text text-anchor="middle" x="554.5" y="-428.3" font-family="Times,serif" font-size="14.00" fill="#000000">dcf_indexd_guid</text>
<polyline fill="none" stroke="#000000" points="483,-420.5 626,-420.5 "/>
<text text-anchor="middle" x="554.5" y="-405.3" font-family="Times,serif" font-size="14.00" fill="#000000">file_category</text>
<polyline fill="none" stroke="#000000" points="483,-397.5 626,-397.5 "/>
<text text-anchor="middle" x="554.5" y="-382.3" font-family="Times,serif" font-size="14.00" fill="#000000">file_description</text>
<polyline fill="none" stroke="#000000" points="483,-374.5 626,-374.5 "/>
<text text-anchor="middle" x="554.5" y="-359.3" font-family="Times,serif" font-size="14.00" fill="#000000">file_name</text>
<polyline fill="none" stroke="#000000" points="483,-351.5 626,-351.5 "/>
<text text-anchor="middle" x="554.5" y="-336.3" font-family="Times,serif" font-size="14.00" fill="#000000">file_size</text>
<polyline fill="none" stroke="#000000" points="483,-328.5 626,-328.5 "/>
<text text-anchor="middle" x="554.5" y="-313.3" font-family="Times,serif" font-size="14.00" fill="#000000">file_type</text>
<polyline fill="none" stroke="#000000" points="483,-305.5 626,-305.5 "/>
<text text-anchor="middle" x="554.5" y="-290.3" font-family="Times,serif" font-size="14.00" fill="#000000">id</text>
<polyline fill="none" stroke="#000000" points="483,-282.5 626,-282.5 "/>
<text text-anchor="middle" x="554.5" y="-267.3" font-family="Times,serif" font-size="14.00" fill="#000000">md5sum</text>
<polyline fill="none" stroke="#000000" points="483,-259.5 626,-259.5 "/>
<text text-anchor="middle" x="554.5" y="-244.3" font-family="Times,serif" font-size="14.00" fill="#000000">reference_file_id</text>
<polyline fill="none" stroke="#000000" points="483,-236.5 626,-236.5 "/>
<text text-anchor="middle" x="554.5" y="-221.3" font-family="Times,serif" font-size="14.00" fill="#000000">reference_file_url</text>
<polyline fill="none" stroke="#000000" points="626,-213.5 626,-443.5 "/>
<text text-anchor="middle" x="636.5" y="-324.8" font-family="Times,serif" font-size="14.00" fill="#000000"> </text>
</g>
<!-- reference_file&#45;&gt;study -->
<g id="edge5" class="edge">
<title>reference_file&#45;&gt;study</title>
<path fill="none" stroke="#000000" d="M496.5,-213.4448C496.5,-199.4621 496.5,-185.3307 496.5,-171.7693"/>
<polygon fill="#000000" stroke="#000000" points="500.0001,-171.5218 496.5,-161.5218 493.0001,-171.5219 500.0001,-171.5218"/>
<text text-anchor="middle" x="557" y="-183.8" font-family="Times,serif" font-size="14.00" fill="#000000">of_reference_file</text>
</g>
<!-- genetic_analysis -->
<g id="node7" class="node">
<title>genetic_analysis</title>
<path fill="none" stroke="#000000" d="M916.5,-921.5C916.5,-921.5 1300.5,-921.5 1300.5,-921.5 1306.5,-921.5 1312.5,-927.5 1312.5,-933.5 1312.5,-933.5 1312.5,-1507.5 1312.5,-1507.5 1312.5,-1513.5 1306.5,-1519.5 1300.5,-1519.5 1300.5,-1519.5 916.5,-1519.5 916.5,-1519.5 910.5,-1519.5 904.5,-1513.5 904.5,-1507.5 904.5,-1507.5 904.5,-933.5 904.5,-933.5 904.5,-927.5 910.5,-921.5 916.5,-921.5"/>
<text text-anchor="middle" x="972" y="-1216.8" font-family="Times,serif" font-size="14.00" fill="#000000">genetic_analysis</text>
<polyline fill="none" stroke="#000000" points="1039.5,-921.5 1039.5,-1519.5 "/>
<text text-anchor="middle" x="1050" y="-1216.8" font-family="Times,serif" font-size="14.00" fill="#000000"> </text>
<polyline fill="none" stroke="#000000" points="1060.5,-921.5 1060.5,-1519.5 "/>
<text text-anchor="middle" x="1176" y="-1504.3" font-family="Times,serif" font-size="14.00" fill="#000000">age_at_genetic_analysis</text>
<polyline fill="none" stroke="#000000" points="1060.5,-1496.5 1291.5,-1496.5 "/>
<text text-anchor="middle" x="1176" y="-1481.3" font-family="Times,serif" font-size="14.00" fill="#000000">allelic_ratio</text>
<polyline fill="none" stroke="#000000" points="1060.5,-1473.5 1291.5,-1473.5 "/>
<text text-anchor="middle" x="1176" y="-1458.3" font-family="Times,serif" font-size="14.00" fill="#000000">alteration</text>
<polyline fill="none" stroke="#000000" points="1060.5,-1450.5 1291.5,-1450.5 "/>
<text text-anchor="middle" x="1176" y="-1435.3" font-family="Times,serif" font-size="14.00" fill="#000000">alteration_effect</text>
<polyline fill="none" stroke="#000000" points="1060.5,-1427.5 1291.5,-1427.5 "/>
<text text-anchor="middle" x="1176" y="-1412.3" font-family="Times,serif" font-size="14.00" fill="#000000">alteration_type</text>
<polyline fill="none" stroke="#000000" points="1060.5,-1404.5 1291.5,-1404.5 "/>
<text text-anchor="middle" x="1176" y="-1389.3" font-family="Times,serif" font-size="14.00" fill="#000000">chromosome</text>
<polyline fill="none" stroke="#000000" points="1060.5,-1381.5 1291.5,-1381.5 "/>
<text text-anchor="middle" x="1176" y="-1366.3" font-family="Times,serif" font-size="14.00" fill="#000000">cytoband</text>
<polyline fill="none" stroke="#000000" points="1060.5,-1358.5 1291.5,-1358.5 "/>
<text text-anchor="middle" x="1176" y="-1343.3" font-family="Times,serif" font-size="14.00" fill="#000000">dna_index_numeric</text>
<polyline fill="none" stroke="#000000" points="1060.5,-1335.5 1291.5,-1335.5 "/>
<text text-anchor="middle" x="1176" y="-1320.3" font-family="Times,serif" font-size="14.00" fill="#000000">exon</text>
<polyline fill="none" stroke="#000000" points="1060.5,-1312.5 1291.5,-1312.5 "/>
<text text-anchor="middle" x="1176" y="-1297.3" font-family="Times,serif" font-size="14.00" fill="#000000">fusion_partner_exon</text>
<polyline fill="none" stroke="#000000" points="1060.5,-1289.5 1291.5,-1289.5 "/>
<text text-anchor="middle" x="1176" y="-1274.3" font-family="Times,serif" font-size="14.00" fill="#000000">fusion_partner_gene</text>
<polyline fill="none" stroke="#000000" points="1060.5,-1266.5 1291.5,-1266.5 "/>
<text text-anchor="middle" x="1176" y="-1251.3" font-family="Times,serif" font-size="14.00" fill="#000000">fusion_partner_transcript</text>
<polyline fill="none" stroke="#000000" points="1060.5,-1243.5 1291.5,-1243.5 "/>
<text text-anchor="middle" x="1176" y="-1228.3" font-family="Times,serif" font-size="14.00" fill="#000000">gene_symbol</text>
<polyline fill="none" stroke="#000000" points="1060.5,-1220.5 1291.5,-1220.5 "/>
<text text-anchor="middle" x="1176" y="-1205.3" font-family="Times,serif" font-size="14.00" fill="#000000">genetic_analysis_id</text>
<polyline fill="none" stroke="#000000" points="1060.5,-1197.5 1291.5,-1197.5 "/>
<text text-anchor="middle" x="1176" y="-1182.3" font-family="Times,serif" font-size="14.00" fill="#000000">genomic_source_category</text>
<polyline fill="none" stroke="#000000" points="1060.5,-1174.5 1291.5,-1174.5 "/>
<text text-anchor="middle" x="1176" y="-1159.3" font-family="Times,serif" font-size="14.00" fill="#000000">hgvs_coding</text>
<polyline fill="none" stroke="#000000" points="1060.5,-1151.5 1291.5,-1151.5 "/>
<text text-anchor="middle" x="1176" y="-1136.3" font-family="Times,serif" font-size="14.00" fill="#000000">hgvs_genome</text>
<polyline fill="none" stroke="#000000" points="1060.5,-1128.5 1291.5,-1128.5 "/>
<text text-anchor="middle" x="1176" y="-1113.3" font-family="Times,serif" font-size="14.00" fill="#000000">hgvs_protein</text>
<polyline fill="none" stroke="#000000" points="1060.5,-1105.5 1291.5,-1105.5 "/>
<text text-anchor="middle" x="1176" y="-1090.3" font-family="Times,serif" font-size="14.00" fill="#000000">id</text>
<polyline fill="none" stroke="#000000" points="1060.5,-1082.5 1291.5,-1082.5 "/>
<text text-anchor="middle" x="1176" y="-1067.3" font-family="Times,serif" font-size="14.00" fill="#000000">iscn</text>
<polyline fill="none" stroke="#000000" points="1060.5,-1059.5 1291.5,-1059.5 "/>
<text text-anchor="middle" x="1176" y="-1044.3" font-family="Times,serif" font-size="14.00" fill="#000000">method</text>
<polyline fill="none" stroke="#000000" points="1060.5,-1036.5 1291.5,-1036.5 "/>
<text text-anchor="middle" x="1176" y="-1021.3" font-family="Times,serif" font-size="14.00" fill="#000000">reference_genome</text>
<polyline fill="none" stroke="#000000" points="1060.5,-1013.5 1291.5,-1013.5 "/>
<text text-anchor="middle" x="1176" y="-998.3" font-family="Times,serif" font-size="14.00" fill="#000000">reported_significance</text>
<polyline fill="none" stroke="#000000" points="1060.5,-990.5 1291.5,-990.5 "/>
<text text-anchor="middle" x="1176" y="-975.3" font-family="Times,serif" font-size="14.00" fill="#000000">reported_significance_system</text>
<polyline fill="none" stroke="#000000" points="1060.5,-967.5 1291.5,-967.5 "/>
<text text-anchor="middle" x="1176" y="-952.3" font-family="Times,serif" font-size="14.00" fill="#000000">result</text>
<polyline fill="none" stroke="#000000" points="1060.5,-944.5 1291.5,-944.5 "/>
<text text-anchor="middle" x="1176" y="-929.3" font-family="Times,serif" font-size="14.00" fill="#000000">+ 6 properties</text>
<polyline fill="none" stroke="#000000" points="1291.5,-921.5 1291.5,-1519.5 "/>
<text text-anchor="middle" x="1302" y="-1216.8" font-family="Times,serif" font-size="14.00" fill="#000000"> </text>
</g>
<!-- genetic_analysis&#45;&gt;participant -->
<g id="edge9" class="edge">
<title>genetic_analysis&#45;&gt;participant</title>
<path fill="none" stroke="#000000" d="M960.8027,-921.2051C955.3161,-904.1078 950.4764,-886.9697 946.5,-870 924.6004,-776.541 927.5991,-664.0359 932.2281,-597.8886"/>
<polygon fill="#000000" stroke="#000000" points="935.7359,-597.9109 932.9814,-587.6804 928.7548,-597.3957 935.7359,-597.9109"/>
<text text-anchor="middle" x="1016.5" y="-750.8" font-family="Times,serif" font-size="14.00" fill="#000000">of_genetic_analysis</text>
</g>
<!-- genetic_analysis&#45;&gt;sample -->
<g id="edge10" class="edge">
<title>genetic_analysis&#45;&gt;sample</title>
<path fill="none" stroke="#000000" d="M1142.6212,-921.4277C1146.4876,-909.9997 1150.7664,-898.8151 1155.5,-888 1158.6212,-880.8689 1162.2336,-873.8085 1166.2053,-866.8781"/>
<polygon fill="#000000" stroke="#000000" points="1169.2831,-868.551 1171.4183,-858.1735 1163.2777,-864.9544 1169.2831,-868.551"/>
<text text-anchor="middle" x="1225.5" y="-891.8" font-family="Times,serif" font-size="14.00" fill="#000000">of_genetic_analysis</text>
</g>
<!-- sample&#45;&gt;participant -->
<g id="edge6" class="edge">
<title>sample&#45;&gt;participant</title>
<path fill="none" stroke="#000000" d="M1105.3106,-650.8078C1074.5324,-630.7597 1043.5505,-610.5787 1016.7314,-593.1094"/>
<polygon fill="#000000" stroke="#000000" points="1018.4652,-590.0618 1008.1757,-587.5365 1014.6446,-595.9272 1018.4652,-590.0618"/>
<text text-anchor="middle" x="1090" y="-609.8" font-family="Times,serif" font-size="14.00" fill="#000000">of_sample</text>
</g>
<!-- consent_group&#45;&gt;study -->
<g id="edge3" class="edge">
<title>consent_group&#45;&gt;study</title>
<path fill="none" stroke="#000000" d="M797.0881,-270.7846C746.411,-238.7882 682.5416,-198.4625 626.7233,-163.22"/>
<polygon fill="#000000" stroke="#000000" points="628.5178,-160.2138 618.1935,-157.8346 624.7806,-166.1328 628.5178,-160.2138"/>
<text text-anchor="middle" x="733" y="-183.8" font-family="Times,serif" font-size="14.00" fill="#000000">of_consent_group</text>
</g>
<!-- diagnosis -->
<g id="node11" class="node">
<title>diagnosis</title>
<path fill="none" stroke="#000000" d="M1343,-1013.5C1343,-1013.5 1708,-1013.5 1708,-1013.5 1714,-1013.5 1720,-1019.5 1720,-1025.5 1720,-1025.5 1720,-1415.5 1720,-1415.5 1720,-1421.5 1714,-1427.5 1708,-1427.5 1708,-1427.5 1343,-1427.5 1343,-1427.5 1337,-1427.5 1331,-1421.5 1331,-1415.5 1331,-1415.5 1331,-1025.5 1331,-1025.5 1331,-1019.5 1337,-1013.5 1343,-1013.5"/>
<text text-anchor="middle" x="1373" y="-1216.8" font-family="Times,serif" font-size="14.00" fill="#000000">diagnosis</text>
<polyline fill="none" stroke="#000000" points="1415,-1013.5 1415,-1427.5 "/>
<text text-anchor="middle" x="1425.5" y="-1216.8" font-family="Times,serif" font-size="14.00" fill="#000000"> </text>
<polyline fill="none" stroke="#000000" points="1436,-1013.5 1436,-1427.5 "/>
<text text-anchor="middle" x="1567.5" y="-1412.3" font-family="Times,serif" font-size="14.00" fill="#000000">age_at_diagnosis</text>
<polyline fill="none" stroke="#000000" points="1436,-1404.5 1699,-1404.5 "/>
<text text-anchor="middle" x="1567.5" y="-1389.3" font-family="Times,serif" font-size="14.00" fill="#000000">anatomic_site</text>
<polyline fill="none" stroke="#000000" points="1436,-1381.5 1699,-1381.5 "/>
<text text-anchor="middle" x="1567.5" y="-1366.3" font-family="Times,serif" font-size="14.00" fill="#000000">diagnosis</text>
<polyline fill="none" stroke="#000000" points="1436,-1358.5 1699,-1358.5 "/>
<text text-anchor="middle" x="1567.5" y="-1343.3" font-family="Times,serif" font-size="14.00" fill="#000000">diagnosis_basis</text>
<polyline fill="none" stroke="#000000" points="1436,-1335.5 1699,-1335.5 "/>
<text text-anchor="middle" x="1567.5" y="-1320.3" font-family="Times,serif" font-size="14.00" fill="#000000">diagnosis_category</text>
<polyline fill="none" stroke="#000000" points="1436,-1312.5 1699,-1312.5 "/>
<text text-anchor="middle" x="1567.5" y="-1297.3" font-family="Times,serif" font-size="14.00" fill="#000000">diagnosis_classification_system</text>
<polyline fill="none" stroke="#000000" points="1436,-1289.5 1699,-1289.5 "/>
<text text-anchor="middle" x="1567.5" y="-1274.3" font-family="Times,serif" font-size="14.00" fill="#000000">diagnosis_comment</text>
<polyline fill="none" stroke="#000000" points="1436,-1266.5 1699,-1266.5 "/>
<text text-anchor="middle" x="1567.5" y="-1251.3" font-family="Times,serif" font-size="14.00" fill="#000000">diagnosis_id</text>
<polyline fill="none" stroke="#000000" points="1436,-1243.5 1699,-1243.5 "/>
<text text-anchor="middle" x="1567.5" y="-1228.3" font-family="Times,serif" font-size="14.00" fill="#000000">disease_phase</text>
<polyline fill="none" stroke="#000000" points="1436,-1220.5 1699,-1220.5 "/>
<text text-anchor="middle" x="1567.5" y="-1205.3" font-family="Times,serif" font-size="14.00" fill="#000000">id</text>
<polyline fill="none" stroke="#000000" points="1436,-1197.5 1699,-1197.5 "/>
<text text-anchor="middle" x="1567.5" y="-1182.3" font-family="Times,serif" font-size="14.00" fill="#000000">laterality</text>
<polyline fill="none" stroke="#000000" points="1436,-1174.5 1699,-1174.5 "/>
<text text-anchor="middle" x="1567.5" y="-1159.3" font-family="Times,serif" font-size="14.00" fill="#000000">toronto_childhood_cancer_staging</text>
<polyline fill="none" stroke="#000000" points="1436,-1151.5 1699,-1151.5 "/>
<text text-anchor="middle" x="1567.5" y="-1136.3" font-family="Times,serif" font-size="14.00" fill="#000000">tumor_classification</text>
<polyline fill="none" stroke="#000000" points="1436,-1128.5 1699,-1128.5 "/>
<text text-anchor="middle" x="1567.5" y="-1113.3" font-family="Times,serif" font-size="14.00" fill="#000000">tumor_grade</text>
<polyline fill="none" stroke="#000000" points="1436,-1105.5 1699,-1105.5 "/>
<text text-anchor="middle" x="1567.5" y="-1090.3" font-family="Times,serif" font-size="14.00" fill="#000000">tumor_stage_clinical_m</text>
<polyline fill="none" stroke="#000000" points="1436,-1082.5 1699,-1082.5 "/>
<text text-anchor="middle" x="1567.5" y="-1067.3" font-family="Times,serif" font-size="14.00" fill="#000000">tumor_stage_clinical_n</text>
<polyline fill="none" stroke="#000000" points="1436,-1059.5 1699,-1059.5 "/>
<text text-anchor="middle" x="1567.5" y="-1044.3" font-family="Times,serif" font-size="14.00" fill="#000000">tumor_stage_clinical_t</text>
<polyline fill="none" stroke="#000000" points="1436,-1036.5 1699,-1036.5 "/>
<text text-anchor="middle" x="1567.5" y="-1021.3" font-family="Times,serif" font-size="14.00" fill="#000000">year_of_diagnosis</text>
<polyline fill="none" stroke="#000000" points="1699,-1013.5 1699,-1427.5 "/>
<text text-anchor="middle" x="1709.5" y="-1216.8" font-family="Times,serif" font-size="14.00" fill="#000000"> </text>
</g>
<!-- diagnosis&#45;&gt;participant -->
<g id="edge7" class="edge">
<title>diagnosis&#45;&gt;participant</title>
<path fill="none" stroke="#000000" d="M1497.301,-1013.1181C1474.569,-847.5244 1445.8458,-642.5138 1442.5,-639 1393.1026,-587.1236 1207.2591,-561.975 1075.4049,-550.4286"/>
<polygon fill="#000000" stroke="#000000" points="1075.4757,-546.9218 1065.213,-549.5536 1074.8769,-553.8962 1075.4757,-546.9218"/>
<text text-anchor="middle" x="1521" y="-750.8" font-family="Times,serif" font-size="14.00" fill="#000000">of_diagnosis</text>
</g>
<!-- diagnosis&#45;&gt;sample -->
<g id="edge8" class="edge">
<title>diagnosis&#45;&gt;sample</title>
<path fill="none" stroke="#000000" d="M1409.5016,-1013.3918C1381.3527,-963.1335 1352.2925,-911.2482 1327.6472,-867.2456"/>
<polygon fill="#000000" stroke="#000000" points="1330.5584,-865.2808 1322.6181,-858.2664 1324.4511,-868.7015 1330.5584,-865.2808"/>
<text text-anchor="middle" x="1387" y="-891.8" font-family="Times,serif" font-size="14.00" fill="#000000">of_diagnosis</text>
</g>
<!-- treatment -->
<g id="node12" class="node">
<title>treatment</title>
<path fill="none" stroke="#000000" d="M1588.5,-639.5C1588.5,-639.5 1880.5,-639.5 1880.5,-639.5 1886.5,-639.5 1892.5,-645.5 1892.5,-651.5 1892.5,-651.5 1892.5,-857.5 1892.5,-857.5 1892.5,-863.5 1886.5,-869.5 1880.5,-869.5 1880.5,-869.5 1588.5,-869.5 1588.5,-869.5 1582.5,-869.5 1576.5,-863.5 1576.5,-857.5 1576.5,-857.5 1576.5,-651.5 1576.5,-651.5 1576.5,-645.5 1582.5,-639.5 1588.5,-639.5"/>
<text text-anchor="middle" x="1621" y="-750.8" font-family="Times,serif" font-size="14.00" fill="#000000">treatment</text>
<polyline fill="none" stroke="#000000" points="1665.5,-639.5 1665.5,-869.5 "/>
<text text-anchor="middle" x="1676" y="-750.8" font-family="Times,serif" font-size="14.00" fill="#000000"> </text>
<polyline fill="none" stroke="#000000" points="1686.5,-639.5 1686.5,-869.5 "/>
<text text-anchor="middle" x="1779" y="-854.3" font-family="Times,serif" font-size="14.00" fill="#000000">age_at_treatment_end</text>
<polyline fill="none" stroke="#000000" points="1686.5,-846.5 1871.5,-846.5 "/>
<text text-anchor="middle" x="1779" y="-831.3" font-family="Times,serif" font-size="14.00" fill="#000000">age_at_treatment_start</text>
<polyline fill="none" stroke="#000000" points="1686.5,-823.5 1871.5,-823.5 "/>
<text text-anchor="middle" x="1779" y="-808.3" font-family="Times,serif" font-size="14.00" fill="#000000">dose</text>
<polyline fill="none" stroke="#000000" points="1686.5,-800.5 1871.5,-800.5 "/>
<text text-anchor="middle" x="1779" y="-785.3" font-family="Times,serif" font-size="14.00" fill="#000000">dose_frequency</text>
<polyline fill="none" stroke="#000000" points="1686.5,-777.5 1871.5,-777.5 "/>
<text text-anchor="middle" x="1779" y="-762.3" font-family="Times,serif" font-size="14.00" fill="#000000">dose_route</text>
<polyline fill="none" stroke="#000000" points="1686.5,-754.5 1871.5,-754.5 "/>
<text text-anchor="middle" x="1779" y="-739.3" font-family="Times,serif" font-size="14.00" fill="#000000">dose_unit</text>
<polyline fill="none" stroke="#000000" points="1686.5,-731.5 1871.5,-731.5 "/>
<text text-anchor="middle" x="1779" y="-716.3" font-family="Times,serif" font-size="14.00" fill="#000000">id</text>
<polyline fill="none" stroke="#000000" points="1686.5,-708.5 1871.5,-708.5 "/>
<text text-anchor="middle" x="1779" y="-693.3" font-family="Times,serif" font-size="14.00" fill="#000000">treatment_agent</text>
<polyline fill="none" stroke="#000000" points="1686.5,-685.5 1871.5,-685.5 "/>
<text text-anchor="middle" x="1779" y="-670.3" font-family="Times,serif" font-size="14.00" fill="#000000">treatment_id</text>
<polyline fill="none" stroke="#000000" points="1686.5,-662.5 1871.5,-662.5 "/>
<text text-anchor="middle" x="1779" y="-647.3" font-family="Times,serif" font-size="14.00" fill="#000000">treatment_type</text>
<polyline fill="none" stroke="#000000" points="1871.5,-639.5 1871.5,-869.5 "/>
<text text-anchor="middle" x="1882" y="-750.8" font-family="Times,serif" font-size="14.00" fill="#000000"> </text>
</g>
<!-- treatment&#45;&gt;participant -->
<g id="edge4" class="edge">
<title>treatment&#45;&gt;participant</title>
<path fill="none" stroke="#000000" d="M1576.3556,-646.666C1571.7178,-644.0321 1567.0931,-641.4707 1562.5,-639 1528.9893,-620.974 1520.3051,-615.6586 1483.5,-606 1347.4149,-570.2879 1187.0303,-554.3172 1075.4429,-547.1939"/>
<polygon fill="#000000" stroke="#000000" points="1075.3352,-543.6805 1065.137,-546.5523 1074.9002,-550.667 1075.3352,-543.6805"/>
<text text-anchor="middle" x="1573.5" y="-609.8" font-family="Times,serif" font-size="14.00" fill="#000000">of_treatment</text>
</g>
</g>
</svg>
