<svg width="2299pt" height="1528pt"
 viewBox="0.00 0.00 2298.50 1528.00" xmlns="http://www.w3.org/2000/svg" xmlns:xlink="http://www.w3.org/1999/xlink">
<g id="graph0" class="graph" transform="scale(1 1) rotate(0) translate(4 1524)">
<title>Perl</title>
<polygon fill="#ffffff" stroke="transparent" points="-4,4 -4,-1524 2294.5,-1524 2294.5,4 -4,4"/>
<!-- reference_file -->
<g id="node1" class="node">
<title>reference_file</title>
<path fill="none" stroke="#000000" d="M1051.5,-213.5C1051.5,-213.5 1328.5,-213.5 1328.5,-213.5 1334.5,-213.5 1340.5,-219.5 1340.5,-225.5 1340.5,-225.5 1340.5,-431.5 1340.5,-431.5 1340.5,-437.5 1334.5,-443.5 1328.5,-443.5 1328.5,-443.5 1051.5,-443.5 1051.5,-443.5 1045.5,-443.5 1039.5,-437.5 1039.5,-431.5 1039.5,-431.5 1039.5,-225.5 1039.5,-225.5 1039.5,-219.5 1045.5,-213.5 1051.5,-213.5"/>
<text text-anchor="middle" x="1097.5" y="-324.8" font-family="Times,serif" font-size="14.00" fill="#000000">reference_file</text>
<polyline fill="none" stroke="#000000" points="1155.5,-213.5 1155.5,-443.5 "/>
<text text-anchor="middle" x="1166" y="-324.8" font-family="Times,serif" font-size="14.00" fill="#000000"> </text>
<polyline fill="none" stroke="#000000" points="1176.5,-213.5 1176.5,-443.5 "/>
<text text-anchor="middle" x="1248" y="-428.3" font-family="Times,serif" font-size="14.00" fill="#000000">dcf_indexd_guid</text>
<polyline fill="none" stroke="#000000" points="1176.5,-420.5 1319.5,-420.5 "/>
<text text-anchor="middle" x="1248" y="-405.3" font-family="Times,serif" font-size="14.00" fill="#000000">file_category</text>
<polyline fill="none" stroke="#000000" points="1176.5,-397.5 1319.5,-397.5 "/>
<text text-anchor="middle" x="1248" y="-382.3" font-family="Times,serif" font-size="14.00" fill="#000000">file_description</text>
<polyline fill="none" stroke="#000000" points="1176.5,-374.5 1319.5,-374.5 "/>
<text text-anchor="middle" x="1248" y="-359.3" font-family="Times,serif" font-size="14.00" fill="#000000">file_name</text>
<polyline fill="none" stroke="#000000" points="1176.5,-351.5 1319.5,-351.5 "/>
<text text-anchor="middle" x="1248" y="-336.3" font-family="Times,serif" font-size="14.00" fill="#000000">file_size</text>
<polyline fill="none" stroke="#000000" points="1176.5,-328.5 1319.5,-328.5 "/>
<text text-anchor="middle" x="1248" y="-313.3" font-family="Times,serif" font-size="14.00" fill="#000000">file_type</text>
<polyline fill="none" stroke="#000000" points="1176.5,-305.5 1319.5,-305.5 "/>
<text text-anchor="middle" x="1248" y="-290.3" font-family="Times,serif" font-size="14.00" fill="#000000">id</text>
<polyline fill="none" stroke="#000000" points="1176.5,-282.5 1319.5,-282.5 "/>
<text text-anchor="middle" x="1248" y="-267.3" font-family="Times,serif" font-size="14.00" fill="#000000">md5sum</text>
<polyline fill="none" stroke="#000000" points="1176.5,-259.5 1319.5,-259.5 "/>
<text text-anchor="middle" x="1248" y="-244.3" font-family="Times,serif" font-size="14.00" fill="#000000">reference_file_id</text>
<polyline fill="none" stroke="#000000" points="1176.5,-236.5 1319.5,-236.5 "/>
<text text-anchor="middle" x="1248" y="-221.3" font-family="Times,serif" font-size="14.00" fill="#000000">reference_file_url</text>
<polyline fill="none" stroke="#000000" points="1319.5,-213.5 1319.5,-443.5 "/>
<text text-anchor="middle" x="1330" y="-324.8" font-family="Times,serif" font-size="14.00" fill="#000000"> </text>
</g>
<!-- study -->
<g id="node9" class="node">
<title>study</title>
<path fill="none" stroke="#000000" d="M1423.5,-.5C1423.5,-.5 1642.5,-.5 1642.5,-.5 1648.5,-.5 1654.5,-6.5 1654.5,-12.5 1654.5,-12.5 1654.5,-149.5 1654.5,-149.5 1654.5,-155.5 1648.5,-161.5 1642.5,-161.5 1642.5,-161.5 1423.5,-161.5 1423.5,-161.5 1417.5,-161.5 1411.5,-155.5 1411.5,-149.5 1411.5,-149.5 1411.5,-12.5 1411.5,-12.5 1411.5,-6.5 1417.5,-.5 1423.5,-.5"/>
<text text-anchor="middle" x="1439.5" y="-77.3" font-family="Times,serif" font-size="14.00" fill="#000000">study</text>
<polyline fill="none" stroke="#000000" points="1467.5,-.5 1467.5,-161.5 "/>
<text text-anchor="middle" x="1478" y="-77.3" font-family="Times,serif" font-size="14.00" fill="#000000"> </text>
<polyline fill="none" stroke="#000000" points="1488.5,-.5 1488.5,-161.5 "/>
<text text-anchor="middle" x="1561" y="-146.3" font-family="Times,serif" font-size="14.00" fill="#000000">dbgap_accession</text>
<polyline fill="none" stroke="#000000" points="1488.5,-138.5 1633.5,-138.5 "/>
<text text-anchor="middle" x="1561" y="-123.3" font-family="Times,serif" font-size="14.00" fill="#000000">external_url</text>
<polyline fill="none" stroke="#000000" points="1488.5,-115.5 1633.5,-115.5 "/>
<text text-anchor="middle" x="1561" y="-100.3" font-family="Times,serif" font-size="14.00" fill="#000000">id</text>
<polyline fill="none" stroke="#000000" points="1488.5,-92.5 1633.5,-92.5 "/>
<text text-anchor="middle" x="1561" y="-77.3" font-family="Times,serif" font-size="14.00" fill="#000000">study_description</text>
<polyline fill="none" stroke="#000000" points="1488.5,-69.5 1633.5,-69.5 "/>
<text text-anchor="middle" x="1561" y="-54.3" font-family="Times,serif" font-size="14.00" fill="#000000">study_id</text>
<polyline fill="none" stroke="#000000" points="1488.5,-46.5 1633.5,-46.5 "/>
<text text-anchor="middle" x="1561" y="-31.3" font-family="Times,serif" font-size="14.00" fill="#000000">study_name</text>
<polyline fill="none" stroke="#000000" points="1488.5,-23.5 1633.5,-23.5 "/>
<text text-anchor="middle" x="1561" y="-8.3" font-family="Times,serif" font-size="14.00" fill="#000000">study_status</text>
<polyline fill="none" stroke="#000000" points="1633.5,-.5 1633.5,-161.5 "/>
<text text-anchor="middle" x="1644" y="-77.3" font-family="Times,serif" font-size="14.00" fill="#000000"> </text>
</g>
<!-- reference_file&#45;&gt;study -->
<g id="edge4" class="edge">
<title>reference_file&#45;&gt;study</title>
<path fill="none" stroke="#000000" d="M1340.7422,-219.6806C1343.8553,-217.4341 1346.944,-215.2052 1350,-213 1370.3319,-198.3287 1391.9361,-182.7424 1412.9055,-167.6159"/>
<polygon fill="#000000" stroke="#000000" points="1415.1556,-170.3084 1421.2182,-161.6195 1411.0604,-164.6313 1415.1556,-170.3084"/>
<text text-anchor="middle" x="1455.5" y="-183.8" font-family="Times,serif" font-size="14.00" fill="#000000">of_reference_file</text>
</g>
<!-- genetic_analysis -->
<g id="node2" class="node">
<title>genetic_analysis</title>
<path fill="none" stroke="#000000" d="M189,-921.5C189,-921.5 573,-921.5 573,-921.5 579,-921.5 585,-927.5 585,-933.5 585,-933.5 585,-1507.5 585,-1507.5 585,-1513.5 579,-1519.5 573,-1519.5 573,-1519.5 189,-1519.5 189,-1519.5 183,-1519.5 177,-1513.5 177,-1507.5 177,-1507.5 177,-933.5 177,-933.5 177,-927.5 183,-921.5 189,-921.5"/>
<text text-anchor="middle" x="244.5" y="-1216.8" font-family="Times,serif" font-size="14.00" fill="#000000">genetic_analysis</text>
<polyline fill="none" stroke="#000000" points="312,-921.5 312,-1519.5 "/>
<text text-anchor="middle" x="322.5" y="-1216.8" font-family="Times,serif" font-size="14.00" fill="#000000"> </text>
<polyline fill="none" stroke="#000000" points="333,-921.5 333,-1519.5 "/>
<text text-anchor="middle" x="448.5" y="-1504.3" font-family="Times,serif" font-size="14.00" fill="#000000">age_at_genetic_analysis</text>
<polyline fill="none" stroke="#000000" points="333,-1496.5 564,-1496.5 "/>
<text text-anchor="middle" x="448.5" y="-1481.3" font-family="Times,serif" font-size="14.00" fill="#000000">allelic_ratio</text>
<polyline fill="none" stroke="#000000" points="333,-1473.5 564,-1473.5 "/>
<text text-anchor="middle" x="448.5" y="-1458.3" font-family="Times,serif" font-size="14.00" fill="#000000">alteration</text>
<polyline fill="none" stroke="#000000" points="333,-1450.5 564,-1450.5 "/>
<text text-anchor="middle" x="448.5" y="-1435.3" font-family="Times,serif" font-size="14.00" fill="#000000">chromosome</text>
<polyline fill="none" stroke="#000000" points="333,-1427.5 564,-1427.5 "/>
<text text-anchor="middle" x="448.5" y="-1412.3" font-family="Times,serif" font-size="14.00" fill="#000000">chromosome_location</text>
<polyline fill="none" stroke="#000000" points="333,-1404.5 564,-1404.5 "/>
<text text-anchor="middle" x="448.5" y="-1389.3" font-family="Times,serif" font-size="14.00" fill="#000000">cytoband</text>
<polyline fill="none" stroke="#000000" points="333,-1381.5 564,-1381.5 "/>
<text text-anchor="middle" x="448.5" y="-1366.3" font-family="Times,serif" font-size="14.00" fill="#000000">dna_index_numeric</text>
<polyline fill="none" stroke="#000000" points="333,-1358.5 564,-1358.5 "/>
<text text-anchor="middle" x="448.5" y="-1343.3" font-family="Times,serif" font-size="14.00" fill="#000000">exon</text>
<polyline fill="none" stroke="#000000" points="333,-1335.5 564,-1335.5 "/>
<text text-anchor="middle" x="448.5" y="-1320.3" font-family="Times,serif" font-size="14.00" fill="#000000">fusion_partner_exon</text>
<polyline fill="none" stroke="#000000" points="333,-1312.5 564,-1312.5 "/>
<text text-anchor="middle" x="448.5" y="-1297.3" font-family="Times,serif" font-size="14.00" fill="#000000">fusion_partner_gene</text>
<polyline fill="none" stroke="#000000" points="333,-1289.5 564,-1289.5 "/>
<text text-anchor="middle" x="448.5" y="-1274.3" font-family="Times,serif" font-size="14.00" fill="#000000">fusion_partner_transcript</text>
<polyline fill="none" stroke="#000000" points="333,-1266.5 564,-1266.5 "/>
<text text-anchor="middle" x="448.5" y="-1251.3" font-family="Times,serif" font-size="14.00" fill="#000000">gene_symbol</text>
<polyline fill="none" stroke="#000000" points="333,-1243.5 564,-1243.5 "/>
<text text-anchor="middle" x="448.5" y="-1228.3" font-family="Times,serif" font-size="14.00" fill="#000000">genetic_analysis_id</text>
<polyline fill="none" stroke="#000000" points="333,-1220.5 564,-1220.5 "/>
<text text-anchor="middle" x="448.5" y="-1205.3" font-family="Times,serif" font-size="14.00" fill="#000000">genomic_source_category</text>
<polyline fill="none" stroke="#000000" points="333,-1197.5 564,-1197.5 "/>
<text text-anchor="middle" x="448.5" y="-1182.3" font-family="Times,serif" font-size="14.00" fill="#000000">hgvs_coding</text>
<polyline fill="none" stroke="#000000" points="333,-1174.5 564,-1174.5 "/>
<text text-anchor="middle" x="448.5" y="-1159.3" font-family="Times,serif" font-size="14.00" fill="#000000">hgvs_genome</text>
<polyline fill="none" stroke="#000000" points="333,-1151.5 564,-1151.5 "/>
<text text-anchor="middle" x="448.5" y="-1136.3" font-family="Times,serif" font-size="14.00" fill="#000000">hgvs_protein</text>
<polyline fill="none" stroke="#000000" points="333,-1128.5 564,-1128.5 "/>
<text text-anchor="middle" x="448.5" y="-1113.3" font-family="Times,serif" font-size="14.00" fill="#000000">id</text>
<polyline fill="none" stroke="#000000" points="333,-1105.5 564,-1105.5 "/>
<text text-anchor="middle" x="448.5" y="-1090.3" font-family="Times,serif" font-size="14.00" fill="#000000">karyotype</text>
<polyline fill="none" stroke="#000000" points="333,-1082.5 564,-1082.5 "/>
<text text-anchor="middle" x="448.5" y="-1067.3" font-family="Times,serif" font-size="14.00" fill="#000000">reference_genome</text>
<polyline fill="none" stroke="#000000" points="333,-1059.5 564,-1059.5 "/>
<text text-anchor="middle" x="448.5" y="-1044.3" font-family="Times,serif" font-size="14.00" fill="#000000">reported_significance</text>
<polyline fill="none" stroke="#000000" points="333,-1036.5 564,-1036.5 "/>
<text text-anchor="middle" x="448.5" y="-1021.3" font-family="Times,serif" font-size="14.00" fill="#000000">reported_significance_system</text>
<polyline fill="none" stroke="#000000" points="333,-1013.5 564,-1013.5 "/>
<text text-anchor="middle" x="448.5" y="-998.3" font-family="Times,serif" font-size="14.00" fill="#000000">result</text>
<polyline fill="none" stroke="#000000" points="333,-990.5 564,-990.5 "/>
<text text-anchor="middle" x="448.5" y="-975.3" font-family="Times,serif" font-size="14.00" fill="#000000">status</text>
<polyline fill="none" stroke="#000000" points="333,-967.5 564,-967.5 "/>
<text text-anchor="middle" x="448.5" y="-952.3" font-family="Times,serif" font-size="14.00" fill="#000000">test</text>
<polyline fill="none" stroke="#000000" points="333,-944.5 564,-944.5 "/>
<text text-anchor="middle" x="448.5" y="-929.3" font-family="Times,serif" font-size="14.00" fill="#000000">+ 2 properties</text>
<polyline fill="none" stroke="#000000" points="564,-921.5 564,-1519.5 "/>
<text text-anchor="middle" x="574.5" y="-1216.8" font-family="Times,serif" font-size="14.00" fill="#000000"> </text>
</g>
<!-- sample -->
<g id="node10" class="node">
<title>sample</title>
<path fill="none" stroke="#000000" d="M522,-651C522,-651 836,-651 836,-651 842,-651 848,-657 848,-663 848,-663 848,-846 848,-846 848,-852 842,-858 836,-858 836,-858 522,-858 522,-858 516,-858 510,-852 510,-846 510,-846 510,-663 510,-663 510,-657 516,-651 522,-651"/>
<text text-anchor="middle" x="544" y="-750.8" font-family="Times,serif" font-size="14.00" fill="#000000">sample</text>
<polyline fill="none" stroke="#000000" points="578,-651 578,-858 "/>
<text text-anchor="middle" x="588.5" y="-750.8" font-family="Times,serif" font-size="14.00" fill="#000000"> </text>
<polyline fill="none" stroke="#000000" points="599,-651 599,-858 "/>
<text text-anchor="middle" x="713" y="-842.8" font-family="Times,serif" font-size="14.00" fill="#000000">anatomic_site</text>
<polyline fill="none" stroke="#000000" points="599,-835 827,-835 "/>
<text text-anchor="middle" x="713" y="-819.8" font-family="Times,serif" font-size="14.00" fill="#000000">id</text>
<polyline fill="none" stroke="#000000" points="599,-812 827,-812 "/>
<text text-anchor="middle" x="713" y="-796.8" font-family="Times,serif" font-size="14.00" fill="#000000">participant_age_at_collection</text>
<polyline fill="none" stroke="#000000" points="599,-789 827,-789 "/>
<text text-anchor="middle" x="713" y="-773.8" font-family="Times,serif" font-size="14.00" fill="#000000">percent_necrosis</text>
<polyline fill="none" stroke="#000000" points="599,-766 827,-766 "/>
<text text-anchor="middle" x="713" y="-750.8" font-family="Times,serif" font-size="14.00" fill="#000000">percent_tumor</text>
<polyline fill="none" stroke="#000000" points="599,-743 827,-743 "/>
<text text-anchor="middle" x="713" y="-727.8" font-family="Times,serif" font-size="14.00" fill="#000000">sample_description</text>
<polyline fill="none" stroke="#000000" points="599,-720 827,-720 "/>
<text text-anchor="middle" x="713" y="-704.8" font-family="Times,serif" font-size="14.00" fill="#000000">sample_id</text>
<polyline fill="none" stroke="#000000" points="599,-697 827,-697 "/>
<text text-anchor="middle" x="713" y="-681.8" font-family="Times,serif" font-size="14.00" fill="#000000">sample_tumor_status</text>
<polyline fill="none" stroke="#000000" points="599,-674 827,-674 "/>
<text text-anchor="middle" x="713" y="-658.8" font-family="Times,serif" font-size="14.00" fill="#000000">tumor_classification</text>
<polyline fill="none" stroke="#000000" points="827,-651 827,-858 "/>
<text text-anchor="middle" x="837.5" y="-750.8" font-family="Times,serif" font-size="14.00" fill="#000000"> </text>
</g>
<!-- genetic_analysis&#45;&gt;sample -->
<g id="edge14" class="edge">
<title>genetic_analysis&#45;&gt;sample</title>
<path fill="none" stroke="#000000" d="M557.066,-921.3668C564.3837,-910.0434 571.711,-898.8863 579,-888 583.6899,-880.9955 588.6062,-873.8578 593.6367,-866.7079"/>
<polygon fill="#000000" stroke="#000000" points="596.6582,-868.4977 599.588,-858.316 590.9483,-864.4484 596.6582,-868.4977"/>
<text text-anchor="middle" x="649" y="-891.8" font-family="Times,serif" font-size="14.00" fill="#000000">of_genetic_analysis</text>
</g>
<!-- participant -->
<g id="node11" class="node">
<title>participant</title>
<path fill="none" stroke="#000000" d="M1068.5,-495.5C1068.5,-495.5 1299.5,-495.5 1299.5,-495.5 1305.5,-495.5 1311.5,-501.5 1311.5,-507.5 1311.5,-507.5 1311.5,-575.5 1311.5,-575.5 1311.5,-581.5 1305.5,-587.5 1299.5,-587.5 1299.5,-587.5 1068.5,-587.5 1068.5,-587.5 1062.5,-587.5 1056.5,-581.5 1056.5,-575.5 1056.5,-575.5 1056.5,-507.5 1056.5,-507.5 1056.5,-501.5 1062.5,-495.5 1068.5,-495.5"/>
<text text-anchor="middle" x="1104.5" y="-537.8" font-family="Times,serif" font-size="14.00" fill="#000000">participant</text>
<polyline fill="none" stroke="#000000" points="1152.5,-495.5 1152.5,-587.5 "/>
<text text-anchor="middle" x="1163" y="-537.8" font-family="Times,serif" font-size="14.00" fill="#000000"> </text>
<polyline fill="none" stroke="#000000" points="1173.5,-495.5 1173.5,-587.5 "/>
<text text-anchor="middle" x="1232" y="-572.3" font-family="Times,serif" font-size="14.00" fill="#000000">id</text>
<polyline fill="none" stroke="#000000" points="1173.5,-564.5 1290.5,-564.5 "/>
<text text-anchor="middle" x="1232" y="-549.3" font-family="Times,serif" font-size="14.00" fill="#000000">participant_id</text>
<polyline fill="none" stroke="#000000" points="1173.5,-541.5 1290.5,-541.5 "/>
<text text-anchor="middle" x="1232" y="-526.3" font-family="Times,serif" font-size="14.00" fill="#000000">race</text>
<polyline fill="none" stroke="#000000" points="1173.5,-518.5 1290.5,-518.5 "/>
<text text-anchor="middle" x="1232" y="-503.3" font-family="Times,serif" font-size="14.00" fill="#000000">sex_at_birth</text>
<polyline fill="none" stroke="#000000" points="1290.5,-495.5 1290.5,-587.5 "/>
<text text-anchor="middle" x="1301" y="-537.8" font-family="Times,serif" font-size="14.00" fill="#000000"> </text>
</g>
<!-- genetic_analysis&#45;&gt;participant -->
<g id="edge15" class="edge">
<title>genetic_analysis&#45;&gt;participant</title>
<path fill="none" stroke="#000000" d="M333.9896,-921.1798C322.5401,-801.5374 322.8397,-681.948 361,-639 405.6486,-588.7497 823.6774,-559.9074 1046.1651,-547.9956"/>
<polygon fill="#000000" stroke="#000000" points="1046.4826,-551.4838 1056.2829,-547.4584 1046.1113,-544.4936 1046.4826,-551.4838"/>
<text text-anchor="middle" x="431" y="-750.8" font-family="Times,serif" font-size="14.00" fill="#000000">of_genetic_analysis</text>
</g>
<!-- diagnosis -->
<g id="node3" class="node">
<title>diagnosis</title>
<path fill="none" stroke="#000000" d="M644.5,-1013.5C644.5,-1013.5 1009.5,-1013.5 1009.5,-1013.5 1015.5,-1013.5 1021.5,-1019.5 1021.5,-1025.5 1021.5,-1025.5 1021.5,-1415.5 1021.5,-1415.5 1021.5,-1421.5 1015.5,-1427.5 1009.5,-1427.5 1009.5,-1427.5 644.5,-1427.5 644.5,-1427.5 638.5,-1427.5 632.5,-1421.5 632.5,-1415.5 632.5,-1415.5 632.5,-1025.5 632.5,-1025.5 632.5,-1019.5 638.5,-1013.5 644.5,-1013.5"/>
<text text-anchor="middle" x="674.5" y="-1216.8" font-family="Times,serif" font-size="14.00" fill="#000000">diagnosis</text>
<polyline fill="none" stroke="#000000" points="716.5,-1013.5 716.5,-1427.5 "/>
<text text-anchor="middle" x="727" y="-1216.8" font-family="Times,serif" font-size="14.00" fill="#000000"> </text>
<polyline fill="none" stroke="#000000" points="737.5,-1013.5 737.5,-1427.5 "/>
<text text-anchor="middle" x="869" y="-1412.3" font-family="Times,serif" font-size="14.00" fill="#000000">age_at_diagnosis</text>
<polyline fill="none" stroke="#000000" points="737.5,-1404.5 1000.5,-1404.5 "/>
<text text-anchor="middle" x="869" y="-1389.3" font-family="Times,serif" font-size="14.00" fill="#000000">anatomic_site</text>
<polyline fill="none" stroke="#000000" points="737.5,-1381.5 1000.5,-1381.5 "/>
<text text-anchor="middle" x="869" y="-1366.3" font-family="Times,serif" font-size="14.00" fill="#000000">diagnosis</text>
<polyline fill="none" stroke="#000000" points="737.5,-1358.5 1000.5,-1358.5 "/>
<text text-anchor="middle" x="869" y="-1343.3" font-family="Times,serif" font-size="14.00" fill="#000000">diagnosis_basis</text>
<polyline fill="none" stroke="#000000" points="737.5,-1335.5 1000.5,-1335.5 "/>
<text text-anchor="middle" x="869" y="-1320.3" font-family="Times,serif" font-size="14.00" fill="#000000">diagnosis_category</text>
<polyline fill="none" stroke="#000000" points="737.5,-1312.5 1000.5,-1312.5 "/>
<text text-anchor="middle" x="869" y="-1297.3" font-family="Times,serif" font-size="14.00" fill="#000000">diagnosis_classification_system</text>
<polyline fill="none" stroke="#000000" points="737.5,-1289.5 1000.5,-1289.5 "/>
<text text-anchor="middle" x="869" y="-1274.3" font-family="Times,serif" font-size="14.00" fill="#000000">diagnosis_comment</text>
<polyline fill="none" stroke="#000000" points="737.5,-1266.5 1000.5,-1266.5 "/>
<text text-anchor="middle" x="869" y="-1251.3" font-family="Times,serif" font-size="14.00" fill="#000000">diagnosis_id</text>
<polyline fill="none" stroke="#000000" points="737.5,-1243.5 1000.5,-1243.5 "/>
<text text-anchor="middle" x="869" y="-1228.3" font-family="Times,serif" font-size="14.00" fill="#000000">disease_phase</text>
<polyline fill="none" stroke="#000000" points="737.5,-1220.5 1000.5,-1220.5 "/>
<text text-anchor="middle" x="869" y="-1205.3" font-family="Times,serif" font-size="14.00" fill="#000000">id</text>
<polyline fill="none" stroke="#000000" points="737.5,-1197.5 1000.5,-1197.5 "/>
<text text-anchor="middle" x="869" y="-1182.3" font-family="Times,serif" font-size="14.00" fill="#000000">laterality</text>
<polyline fill="none" stroke="#000000" points="737.5,-1174.5 1000.5,-1174.5 "/>
<text text-anchor="middle" x="869" y="-1159.3" font-family="Times,serif" font-size="14.00" fill="#000000">toronto_childhood_cancer_staging</text>
<polyline fill="none" stroke="#000000" points="737.5,-1151.5 1000.5,-1151.5 "/>
<text text-anchor="middle" x="869" y="-1136.3" font-family="Times,serif" font-size="14.00" fill="#000000">tumor_classification</text>
<polyline fill="none" stroke="#000000" points="737.5,-1128.5 1000.5,-1128.5 "/>
<text text-anchor="middle" x="869" y="-1113.3" font-family="Times,serif" font-size="14.00" fill="#000000">tumor_grade</text>
<polyline fill="none" stroke="#000000" points="737.5,-1105.5 1000.5,-1105.5 "/>
<text text-anchor="middle" x="869" y="-1090.3" font-family="Times,serif" font-size="14.00" fill="#000000">tumor_stage_clinical_m</text>
<polyline fill="none" stroke="#000000" points="737.5,-1082.5 1000.5,-1082.5 "/>
<text text-anchor="middle" x="869" y="-1067.3" font-family="Times,serif" font-size="14.00" fill="#000000">tumor_stage_clinical_n</text>
<polyline fill="none" stroke="#000000" points="737.5,-1059.5 1000.5,-1059.5 "/>
<text text-anchor="middle" x="869" y="-1044.3" font-family="Times,serif" font-size="14.00" fill="#000000">tumor_stage_clinical_t</text>
<polyline fill="none" stroke="#000000" points="737.5,-1036.5 1000.5,-1036.5 "/>
<text text-anchor="middle" x="869" y="-1021.3" font-family="Times,serif" font-size="14.00" fill="#000000">year_of_diagnosis</text>
<polyline fill="none" stroke="#000000" points="1000.5,-1013.5 1000.5,-1427.5 "/>
<text text-anchor="middle" x="1011" y="-1216.8" font-family="Times,serif" font-size="14.00" fill="#000000"> </text>
</g>
<!-- diagnosis&#45;&gt;sample -->
<g id="edge8" class="edge">
<title>diagnosis&#45;&gt;sample</title>
<path fill="none" stroke="#000000" d="M761.2232,-1013.3918C745.3613,-963.4483 728.9891,-911.8981 715.0705,-868.0733"/>
<polygon fill="#000000" stroke="#000000" points="718.3187,-866.7378 711.9559,-858.2664 711.6471,-868.8567 718.3187,-866.7378"/>
<text text-anchor="middle" x="767.5" y="-891.8" font-family="Times,serif" font-size="14.00" fill="#000000">of_diagnosis</text>
</g>
<!-- diagnosis&#45;&gt;participant -->
<g id="edge7" class="edge">
<title>diagnosis&#45;&gt;participant</title>
<path fill="none" stroke="#000000" d="M845.2629,-1013.1939C860.2801,-852.2228 880.9774,-653.8595 893,-639 913.5607,-613.5878 981.2633,-590.1371 1046.194,-572.6056"/>
<polygon fill="#000000" stroke="#000000" points="1047.4008,-575.9064 1056.1649,-569.953 1045.6012,-569.1416 1047.4008,-575.9064"/>
<text text-anchor="middle" x="937.5" y="-750.8" font-family="Times,serif" font-size="14.00" fill="#000000">of_diagnosis</text>
</g>
<!-- consent_group -->
<g id="node4" class="node">
<title>consent_group</title>
<path fill="none" stroke="#000000" d="M1370.5,-271C1370.5,-271 1695.5,-271 1695.5,-271 1701.5,-271 1707.5,-277 1707.5,-283 1707.5,-283 1707.5,-374 1707.5,-374 1707.5,-380 1701.5,-386 1695.5,-386 1695.5,-386 1370.5,-386 1370.5,-386 1364.5,-386 1358.5,-380 1358.5,-374 1358.5,-374 1358.5,-283 1358.5,-283 1358.5,-277 1364.5,-271 1370.5,-271"/>
<text text-anchor="middle" x="1419.5" y="-324.8" font-family="Times,serif" font-size="14.00" fill="#000000">consent_group</text>
<polyline fill="none" stroke="#000000" points="1480.5,-271 1480.5,-386 "/>
<text text-anchor="middle" x="1491" y="-324.8" font-family="Times,serif" font-size="14.00" fill="#000000"> </text>
<polyline fill="none" stroke="#000000" points="1501.5,-271 1501.5,-386 "/>
<text text-anchor="middle" x="1594" y="-370.8" font-family="Times,serif" font-size="14.00" fill="#000000">consent_group_id</text>
<polyline fill="none" stroke="#000000" points="1501.5,-363 1686.5,-363 "/>
<text text-anchor="middle" x="1594" y="-347.8" font-family="Times,serif" font-size="14.00" fill="#000000">consent_group_name</text>
<polyline fill="none" stroke="#000000" points="1501.5,-340 1686.5,-340 "/>
<text text-anchor="middle" x="1594" y="-324.8" font-family="Times,serif" font-size="14.00" fill="#000000">consent_group_number</text>
<polyline fill="none" stroke="#000000" points="1501.5,-317 1686.5,-317 "/>
<text text-anchor="middle" x="1594" y="-301.8" font-family="Times,serif" font-size="14.00" fill="#000000">consent_group_suffix</text>
<polyline fill="none" stroke="#000000" points="1501.5,-294 1686.5,-294 "/>
<text text-anchor="middle" x="1594" y="-278.8" font-family="Times,serif" font-size="14.00" fill="#000000">id</text>
<polyline fill="none" stroke="#000000" points="1686.5,-271 1686.5,-386 "/>
<text text-anchor="middle" x="1697" y="-324.8" font-family="Times,serif" font-size="14.00" fill="#000000"> </text>
</g>
<!-- consent_group&#45;&gt;study -->
<g id="edge9" class="edge">
<title>consent_group&#45;&gt;study</title>
<path fill="none" stroke="#000000" d="M1533,-270.7846C1533,-241.3997 1533,-204.9895 1533,-171.9435"/>
<polygon fill="#000000" stroke="#000000" points="1536.5001,-171.8072 1533,-161.8073 1529.5001,-171.8073 1536.5001,-171.8072"/>
<text text-anchor="middle" x="1596.5" y="-183.8" font-family="Times,serif" font-size="14.00" fill="#000000">of_consent_group</text>
</g>
<!-- survival -->
<g id="node5" class="node">
<title>survival</title>
<path fill="none" stroke="#000000" d="M1574.5,-662.5C1574.5,-662.5 1935.5,-662.5 1935.5,-662.5 1941.5,-662.5 1947.5,-668.5 1947.5,-674.5 1947.5,-674.5 1947.5,-834.5 1947.5,-834.5 1947.5,-840.5 1941.5,-846.5 1935.5,-846.5 1935.5,-846.5 1574.5,-846.5 1574.5,-846.5 1568.5,-846.5 1562.5,-840.5 1562.5,-834.5 1562.5,-834.5 1562.5,-674.5 1562.5,-674.5 1562.5,-668.5 1568.5,-662.5 1574.5,-662.5"/>
<text text-anchor="middle" x="1599.5" y="-750.8" font-family="Times,serif" font-size="14.00" fill="#000000">survival</text>
<polyline fill="none" stroke="#000000" points="1636.5,-662.5 1636.5,-846.5 "/>
<text text-anchor="middle" x="1647" y="-750.8" font-family="Times,serif" font-size="14.00" fill="#000000"> </text>
<polyline fill="none" stroke="#000000" points="1657.5,-662.5 1657.5,-846.5 "/>
<text text-anchor="middle" x="1792" y="-831.3" font-family="Times,serif" font-size="14.00" fill="#000000">age_at_event_free_survival_status</text>
<polyline fill="none" stroke="#000000" points="1657.5,-823.5 1926.5,-823.5 "/>
<text text-anchor="middle" x="1792" y="-808.3" font-family="Times,serif" font-size="14.00" fill="#000000">age_at_last_known_survival_status</text>
<polyline fill="none" stroke="#000000" points="1657.5,-800.5 1926.5,-800.5 "/>
<text text-anchor="middle" x="1792" y="-785.3" font-family="Times,serif" font-size="14.00" fill="#000000">cause_of_death</text>
<polyline fill="none" stroke="#000000" points="1657.5,-777.5 1926.5,-777.5 "/>
<text text-anchor="middle" x="1792" y="-762.3" font-family="Times,serif" font-size="14.00" fill="#000000">event_free_survival_status</text>
<polyline fill="none" stroke="#000000" points="1657.5,-754.5 1926.5,-754.5 "/>
<text text-anchor="middle" x="1792" y="-739.3" font-family="Times,serif" font-size="14.00" fill="#000000">first_event</text>
<polyline fill="none" stroke="#000000" points="1657.5,-731.5 1926.5,-731.5 "/>
<text text-anchor="middle" x="1792" y="-716.3" font-family="Times,serif" font-size="14.00" fill="#000000">id</text>
<polyline fill="none" stroke="#000000" points="1657.5,-708.5 1926.5,-708.5 "/>
<text text-anchor="middle" x="1792" y="-693.3" font-family="Times,serif" font-size="14.00" fill="#000000">last_known_survival_status</text>
<polyline fill="none" stroke="#000000" points="1657.5,-685.5 1926.5,-685.5 "/>
<text text-anchor="middle" x="1792" y="-670.3" font-family="Times,serif" font-size="14.00" fill="#000000">survival_id</text>
<polyline fill="none" stroke="#000000" points="1926.5,-662.5 1926.5,-846.5 "/>
<text text-anchor="middle" x="1937" y="-750.8" font-family="Times,serif" font-size="14.00" fill="#000000"> </text>
</g>
<!-- survival&#45;&gt;participant -->
<g id="edge6" class="edge">
<title>survival&#45;&gt;participant</title>
<path fill="none" stroke="#000000" d="M1599.3076,-662.4301C1582.2698,-653.9271 1564.9547,-645.9217 1548,-639 1475.4045,-609.363 1390.9974,-586.1054 1321.7515,-569.7502"/>
<polygon fill="#000000" stroke="#000000" points="1322.1824,-566.2566 1311.6481,-567.3873 1320.5883,-573.0727 1322.1824,-566.2566"/>
<text text-anchor="middle" x="1539.5" y="-609.8" font-family="Times,serif" font-size="14.00" fill="#000000">of_survival</text>
</g>
<!-- treatment -->
<g id="node6" class="node">
<title>treatment</title>
<path fill="none" stroke="#000000" d="M12,-639.5C12,-639.5 304,-639.5 304,-639.5 310,-639.5 316,-645.5 316,-651.5 316,-651.5 316,-857.5 316,-857.5 316,-863.5 310,-869.5 304,-869.5 304,-869.5 12,-869.5 12,-869.5 6,-869.5 0,-863.5 0,-857.5 0,-857.5 0,-651.5 0,-651.5 0,-645.5 6,-639.5 12,-639.5"/>
<text text-anchor="middle" x="44.5" y="-750.8" font-family="Times,serif" font-size="14.00" fill="#000000">treatment</text>
<polyline fill="none" stroke="#000000" points="89,-639.5 89,-869.5 "/>
<text text-anchor="middle" x="99.5" y="-750.8" font-family="Times,serif" font-size="14.00" fill="#000000"> </text>
<polyline fill="none" stroke="#000000" points="110,-639.5 110,-869.5 "/>
<text text-anchor="middle" x="202.5" y="-854.3" font-family="Times,serif" font-size="14.00" fill="#000000">age_at_treatment_end</text>
<polyline fill="none" stroke="#000000" points="110,-846.5 295,-846.5 "/>
<text text-anchor="middle" x="202.5" y="-831.3" font-family="Times,serif" font-size="14.00" fill="#000000">age_at_treatment_start</text>
<polyline fill="none" stroke="#000000" points="110,-823.5 295,-823.5 "/>
<text text-anchor="middle" x="202.5" y="-808.3" font-family="Times,serif" font-size="14.00" fill="#000000">dose</text>
<polyline fill="none" stroke="#000000" points="110,-800.5 295,-800.5 "/>
<text text-anchor="middle" x="202.5" y="-785.3" font-family="Times,serif" font-size="14.00" fill="#000000">dose_frequency</text>
<polyline fill="none" stroke="#000000" points="110,-777.5 295,-777.5 "/>
<text text-anchor="middle" x="202.5" y="-762.3" font-family="Times,serif" font-size="14.00" fill="#000000">dose_route</text>
<polyline fill="none" stroke="#000000" points="110,-754.5 295,-754.5 "/>
<text text-anchor="middle" x="202.5" y="-739.3" font-family="Times,serif" font-size="14.00" fill="#000000">dose_unit</text>
<polyline fill="none" stroke="#000000" points="110,-731.5 295,-731.5 "/>
<text text-anchor="middle" x="202.5" y="-716.3" font-family="Times,serif" font-size="14.00" fill="#000000">id</text>
<polyline fill="none" stroke="#000000" points="110,-708.5 295,-708.5 "/>
<text text-anchor="middle" x="202.5" y="-693.3" font-family="Times,serif" font-size="14.00" fill="#000000">treatment_agent</text>
<polyline fill="none" stroke="#000000" points="110,-685.5 295,-685.5 "/>
<text text-anchor="middle" x="202.5" y="-670.3" font-family="Times,serif" font-size="14.00" fill="#000000">treatment_id</text>
<polyline fill="none" stroke="#000000" points="110,-662.5 295,-662.5 "/>
<text text-anchor="middle" x="202.5" y="-647.3" font-family="Times,serif" font-size="14.00" fill="#000000">treatment_type</text>
<polyline fill="none" stroke="#000000" points="295,-639.5 295,-869.5 "/>
<text text-anchor="middle" x="305.5" y="-750.8" font-family="Times,serif" font-size="14.00" fill="#000000"> </text>
</g>
<!-- treatment&#45;&gt;participant -->
<g id="edge13" class="edge">
<title>treatment&#45;&gt;participant</title>
<path fill="none" stroke="#000000" d="M208.3527,-639.2838C218.4079,-626.2468 230.219,-614.5861 244,-606 310.3294,-564.6742 801.441,-549.1045 1046.1829,-543.8663"/>
<polygon fill="#000000" stroke="#000000" points="1046.2927,-547.3649 1056.2165,-543.6544 1046.1448,-540.3664 1046.2927,-547.3649"/>
<text text-anchor="middle" x="291" y="-609.8" font-family="Times,serif" font-size="14.00" fill="#000000">of_treatment</text>
</g>
<!-- synonym -->
<g id="node7" class="node">
<title>synonym</title>
<path fill="none" stroke="#000000" d="M1977.5,-674C1977.5,-674 2278.5,-674 2278.5,-674 2284.5,-674 2290.5,-680 2290.5,-686 2290.5,-686 2290.5,-823 2290.5,-823 2290.5,-829 2284.5,-835 2278.5,-835 2278.5,-835 1977.5,-835 1977.5,-835 1971.5,-835 1965.5,-829 1965.5,-823 1965.5,-823 1965.5,-686 1965.5,-686 1965.5,-680 1971.5,-674 1977.5,-674"/>
<text text-anchor="middle" x="2005.5" y="-750.8" font-family="Times,serif" font-size="14.00" fill="#000000">synonym</text>
<polyline fill="none" stroke="#000000" points="2045.5,-674 2045.5,-835 "/>
<text text-anchor="middle" x="2056" y="-750.8" font-family="Times,serif" font-size="14.00" fill="#000000"> </text>
<polyline fill="none" stroke="#000000" points="2066.5,-674 2066.5,-835 "/>
<text text-anchor="middle" x="2168" y="-819.8" font-family="Times,serif" font-size="14.00" fill="#000000">associated_id</text>
<polyline fill="none" stroke="#000000" points="2066.5,-812 2269.5,-812 "/>
<text text-anchor="middle" x="2168" y="-796.8" font-family="Times,serif" font-size="14.00" fill="#000000">data_location</text>
<polyline fill="none" stroke="#000000" points="2066.5,-789 2269.5,-789 "/>
<text text-anchor="middle" x="2168" y="-773.8" font-family="Times,serif" font-size="14.00" fill="#000000">domain_category</text>
<polyline fill="none" stroke="#000000" points="2066.5,-766 2269.5,-766 "/>
<text text-anchor="middle" x="2168" y="-750.8" font-family="Times,serif" font-size="14.00" fill="#000000">domain_description</text>
<polyline fill="none" stroke="#000000" points="2066.5,-743 2269.5,-743 "/>
<text text-anchor="middle" x="2168" y="-727.8" font-family="Times,serif" font-size="14.00" fill="#000000">id</text>
<polyline fill="none" stroke="#000000" points="2066.5,-720 2269.5,-720 "/>
<text text-anchor="middle" x="2168" y="-704.8" font-family="Times,serif" font-size="14.00" fill="#000000">repository_of_synonym_id</text>
<polyline fill="none" stroke="#000000" points="2066.5,-697 2269.5,-697 "/>
<text text-anchor="middle" x="2168" y="-681.8" font-family="Times,serif" font-size="14.00" fill="#000000">synonym_id</text>
<polyline fill="none" stroke="#000000" points="2269.5,-674 2269.5,-835 "/>
<text text-anchor="middle" x="2280" y="-750.8" font-family="Times,serif" font-size="14.00" fill="#000000"> </text>
</g>
<!-- synonym&#45;&gt;study -->
<g id="edge3" class="edge">
<title>synonym&#45;&gt;study</title>
<path fill="none" stroke="#000000" d="M2077.8061,-673.7256C2006.2559,-562.3656 1866.9022,-358.9179 1717,-213 1700.4846,-196.9235 1681.8838,-181.2877 1663.019,-166.7339"/>
<polygon fill="#000000" stroke="#000000" points="1664.9985,-163.8419 1654.9233,-160.5647 1660.7557,-169.4096 1664.9985,-163.8419"/>
<text text-anchor="middle" x="1981.5" y="-465.8" font-family="Times,serif" font-size="14.00" fill="#000000">of_synonym</text>
</g>
<!-- synonym&#45;&gt;participant -->
<g id="edge2" class="edge">
<title>synonym&#45;&gt;participant</title>
<path fill="none" stroke="#000000" d="M2025.0723,-673.8726C2003.5586,-660.2844 1980.3044,-647.7655 1957,-639 1843.8144,-596.4276 1511.6514,-565.7614 1321.6105,-551.1375"/>
<polygon fill="#000000" stroke="#000000" points="1321.7859,-547.6408 1311.548,-550.368 1321.252,-554.6204 1321.7859,-547.6408"/>
<text text-anchor="middle" x="1923.5" y="-609.8" font-family="Times,serif" font-size="14.00" fill="#000000">of_synonym</text>
</g>
<!-- laboratory_test -->
<g id="node8" class="node">
<title>laboratory_test</title>
<path fill="none" stroke="#000000" d="M1150,-1094C1150,-1094 1482,-1094 1482,-1094 1488,-1094 1494,-1100 1494,-1106 1494,-1106 1494,-1335 1494,-1335 1494,-1341 1488,-1347 1482,-1347 1482,-1347 1150,-1347 1150,-1347 1144,-1347 1138,-1341 1138,-1335 1138,-1335 1138,-1106 1138,-1106 1138,-1100 1144,-1094 1150,-1094"/>
<text text-anchor="middle" x="1201" y="-1216.8" font-family="Times,serif" font-size="14.00" fill="#000000">laboratory_test</text>
<polyline fill="none" stroke="#000000" points="1264,-1094 1264,-1347 "/>
<text text-anchor="middle" x="1274.5" y="-1216.8" font-family="Times,serif" font-size="14.00" fill="#000000"> </text>
<polyline fill="none" stroke="#000000" points="1285,-1094 1285,-1347 "/>
<text text-anchor="middle" x="1379" y="-1331.8" font-family="Times,serif" font-size="14.00" fill="#000000">age_at_laboratory_test</text>
<polyline fill="none" stroke="#000000" points="1285,-1324 1473,-1324 "/>
<text text-anchor="middle" x="1379" y="-1308.8" font-family="Times,serif" font-size="14.00" fill="#000000">id</text>
<polyline fill="none" stroke="#000000" points="1285,-1301 1473,-1301 "/>
<text text-anchor="middle" x="1379" y="-1285.8" font-family="Times,serif" font-size="14.00" fill="#000000">laboratory_test_id</text>
<polyline fill="none" stroke="#000000" points="1285,-1278 1473,-1278 "/>
<text text-anchor="middle" x="1379" y="-1262.8" font-family="Times,serif" font-size="14.00" fill="#000000">laboratory_test_method</text>
<polyline fill="none" stroke="#000000" points="1285,-1255 1473,-1255 "/>
<text text-anchor="middle" x="1379" y="-1239.8" font-family="Times,serif" font-size="14.00" fill="#000000">laboratory_test_name</text>
<polyline fill="none" stroke="#000000" points="1285,-1232 1473,-1232 "/>
<text text-anchor="middle" x="1379" y="-1216.8" font-family="Times,serif" font-size="14.00" fill="#000000">sensitivity</text>
<polyline fill="none" stroke="#000000" points="1285,-1209 1473,-1209 "/>
<text text-anchor="middle" x="1379" y="-1193.8" font-family="Times,serif" font-size="14.00" fill="#000000">specimen</text>
<polyline fill="none" stroke="#000000" points="1285,-1186 1473,-1186 "/>
<text text-anchor="middle" x="1379" y="-1170.8" font-family="Times,serif" font-size="14.00" fill="#000000">test_result_modifier</text>
<polyline fill="none" stroke="#000000" points="1285,-1163 1473,-1163 "/>
<text text-anchor="middle" x="1379" y="-1147.8" font-family="Times,serif" font-size="14.00" fill="#000000">test_result_numeric</text>
<polyline fill="none" stroke="#000000" points="1285,-1140 1473,-1140 "/>
<text text-anchor="middle" x="1379" y="-1124.8" font-family="Times,serif" font-size="14.00" fill="#000000">test_result_text</text>
<polyline fill="none" stroke="#000000" points="1285,-1117 1473,-1117 "/>
<text text-anchor="middle" x="1379" y="-1101.8" font-family="Times,serif" font-size="14.00" fill="#000000">test_result_unit</text>
<polyline fill="none" stroke="#000000" points="1473,-1094 1473,-1347 "/>
<text text-anchor="middle" x="1483.5" y="-1216.8" font-family="Times,serif" font-size="14.00" fill="#000000"> </text>
</g>
<!-- laboratory_test&#45;&gt;sample -->
<g id="edge10" class="edge">
<title>laboratory_test&#45;&gt;sample</title>
<path fill="none" stroke="#000000" d="M1220.8686,-1093.8802C1170.071,-1033.9887 1103.0207,-965.9293 1030,-921 963.5413,-880.1083 932.9646,-902.4487 862,-870 856.9283,-867.681 851.8295,-865.2425 846.7238,-862.7064"/>
<polygon fill="#000000" stroke="#000000" points="848.0317,-859.4452 837.5304,-858.0403 844.8636,-865.6873 848.0317,-859.4452"/>
<text text-anchor="middle" x="1056.5" y="-891.8" font-family="Times,serif" font-size="14.00" fill="#000000">of_laboratory_test</text>
</g>
<!-- laboratory_test&#45;&gt;participant -->
<g id="edge11" class="edge">
<title>laboratory_test&#45;&gt;participant</title>
<path fill="none" stroke="#000000" d="M1366.0185,-1093.8284C1405.9174,-972.7354 1446.0521,-787.1924 1386,-639 1374.057,-609.528 1349.1787,-588.9374 1320.8329,-574.561"/>
<polygon fill="#000000" stroke="#000000" points="1322.0515,-571.2642 1311.5199,-570.1084 1319.032,-577.5795 1322.0515,-571.2642"/>
<text text-anchor="middle" x="1481.5" y="-750.8" font-family="Times,serif" font-size="14.00" fill="#000000">of_laboratory_test</text>
</g>
<!-- sample&#45;&gt;participant -->
<g id="edge12" class="edge">
<title>sample&#45;&gt;participant</title>
<path fill="none" stroke="#000000" d="M744.8961,-650.6288C760.0801,-633.4003 777.5636,-617.4469 797,-606 838.5512,-581.5288 952.5256,-564.3961 1046.0994,-553.9701"/>
<polygon fill="#000000" stroke="#000000" points="1046.6838,-557.427 1056.2424,-552.8571 1045.9202,-550.4688 1046.6838,-557.427"/>
<text text-anchor="middle" x="833.5" y="-609.8" font-family="Times,serif" font-size="14.00" fill="#000000">of_sample</text>
</g>
<!-- participant&#45;&gt;consent_group -->
<g id="edge1" class="edge">
<title>participant&#45;&gt;consent_group</title>
<path fill="none" stroke="#000000" d="M1263.6772,-495.3949C1291.1424,-479.3188 1322.0255,-461.0375 1350,-444 1377.5058,-427.248 1407.1101,-408.7642 1434.3233,-391.5868"/>
<polygon fill="#000000" stroke="#000000" points="1436.4856,-394.3607 1443.069,-386.0595 1432.7458,-388.4434 1436.4856,-394.3607"/>
<text text-anchor="middle" x="1368.5" y="-465.8" font-family="Times,serif" font-size="14.00" fill="#000000">of_participant</text>
</g>
<!-- treatment_response -->
<g id="node12" class="node">
<title>treatment_response</title>
<path fill="none" stroke="#000000" d="M1003.5,-685.5C1003.5,-685.5 1364.5,-685.5 1364.5,-685.5 1370.5,-685.5 1376.5,-691.5 1376.5,-697.5 1376.5,-697.5 1376.5,-811.5 1376.5,-811.5 1376.5,-817.5 1370.5,-823.5 1364.5,-823.5 1364.5,-823.5 1003.5,-823.5 1003.5,-823.5 997.5,-823.5 991.5,-817.5 991.5,-811.5 991.5,-811.5 991.5,-697.5 991.5,-697.5 991.5,-691.5 997.5,-685.5 1003.5,-685.5"/>
<text text-anchor="middle" x="1072" y="-750.8" font-family="Times,serif" font-size="14.00" fill="#000000">treatment_response</text>
<polyline fill="none" stroke="#000000" points="1152.5,-685.5 1152.5,-823.5 "/>
<text text-anchor="middle" x="1163" y="-750.8" font-family="Times,serif" font-size="14.00" fill="#000000"> </text>
<polyline fill="none" stroke="#000000" points="1173.5,-685.5 1173.5,-823.5 "/>
<text text-anchor="middle" x="1264.5" y="-808.3" font-family="Times,serif" font-size="14.00" fill="#000000">age_at_response</text>
<polyline fill="none" stroke="#000000" points="1173.5,-800.5 1355.5,-800.5 "/>
<text text-anchor="middle" x="1264.5" y="-785.3" font-family="Times,serif" font-size="14.00" fill="#000000">id</text>
<polyline fill="none" stroke="#000000" points="1173.5,-777.5 1355.5,-777.5 "/>
<text text-anchor="middle" x="1264.5" y="-762.3" font-family="Times,serif" font-size="14.00" fill="#000000">response</text>
<polyline fill="none" stroke="#000000" points="1173.5,-754.5 1355.5,-754.5 "/>
<text text-anchor="middle" x="1264.5" y="-739.3" font-family="Times,serif" font-size="14.00" fill="#000000">response_category</text>
<polyline fill="none" stroke="#000000" points="1173.5,-731.5 1355.5,-731.5 "/>
<text text-anchor="middle" x="1264.5" y="-716.3" font-family="Times,serif" font-size="14.00" fill="#000000">response_system</text>
<polyline fill="none" stroke="#000000" points="1173.5,-708.5 1355.5,-708.5 "/>
<text text-anchor="middle" x="1264.5" y="-693.3" font-family="Times,serif" font-size="14.00" fill="#000000">treatment_response_id</text>
<polyline fill="none" stroke="#000000" points="1355.5,-685.5 1355.5,-823.5 "/>
<text text-anchor="middle" x="1366" y="-750.8" font-family="Times,serif" font-size="14.00" fill="#000000"> </text>
</g>
<!-- treatment_response&#45;&gt;participant -->
<g id="edge5" class="edge">
<title>treatment_response&#45;&gt;participant</title>
<path fill="none" stroke="#000000" d="M1184,-685.345C1184,-657.1412 1184,-624.9366 1184,-598.1595"/>
<polygon fill="#000000" stroke="#000000" points="1187.5001,-597.805 1184,-587.805 1180.5001,-597.805 1187.5001,-597.805"/>
<text text-anchor="middle" x="1267" y="-609.8" font-family="Times,serif" font-size="14.00" fill="#000000">of_treatment_response</text>
</g>
</g>
</svg>
