<svg width="2330pt" height="1223pt"
 viewBox="0.00 0.00 2330.00 1223.00" xmlns="http://www.w3.org/2000/svg" xmlns:xlink="http://www.w3.org/1999/xlink">
<g id="graph0" class="graph" transform="scale(1 1) rotate(0) translate(4 1219)">
<title>Perl</title>
<polygon fill="#ffffff" stroke="transparent" points="-4,4 -4,-1219 2326,-1219 2326,4 -4,4"/>
<!-- diagnosis -->
<g id="node1" class="node">
<title>diagnosis</title>
<path fill="none" stroke="#000000" d="M89.5,-823.5C89.5,-823.5 454.5,-823.5 454.5,-823.5 460.5,-823.5 466.5,-829.5 466.5,-835.5 466.5,-835.5 466.5,-1202.5 466.5,-1202.5 466.5,-1208.5 460.5,-1214.5 454.5,-1214.5 454.5,-1214.5 89.5,-1214.5 89.5,-1214.5 83.5,-1214.5 77.5,-1208.5 77.5,-1202.5 77.5,-1202.5 77.5,-835.5 77.5,-835.5 77.5,-829.5 83.5,-823.5 89.5,-823.5"/>
<text text-anchor="middle" x="119.5" y="-1015.3" font-family="Times,serif" font-size="14.00" fill="#000000">diagnosis</text>
<polyline fill="none" stroke="#000000" points="161.5,-823.5 161.5,-1214.5 "/>
<text text-anchor="middle" x="172" y="-1015.3" font-family="Times,serif" font-size="14.00" fill="#000000"> </text>
<polyline fill="none" stroke="#000000" points="182.5,-823.5 182.5,-1214.5 "/>
<text text-anchor="middle" x="314" y="-1199.3" font-family="Times,serif" font-size="14.00" fill="#000000">age_at_diagnosis</text>
<polyline fill="none" stroke="#000000" points="182.5,-1191.5 445.5,-1191.5 "/>
<text text-anchor="middle" x="314" y="-1176.3" font-family="Times,serif" font-size="14.00" fill="#000000">anatomic_site</text>
<polyline fill="none" stroke="#000000" points="182.5,-1168.5 445.5,-1168.5 "/>
<text text-anchor="middle" x="314" y="-1153.3" font-family="Times,serif" font-size="14.00" fill="#000000">diagnosis</text>
<polyline fill="none" stroke="#000000" points="182.5,-1145.5 445.5,-1145.5 "/>
<text text-anchor="middle" x="314" y="-1130.3" font-family="Times,serif" font-size="14.00" fill="#000000">diagnosis_basis</text>
<polyline fill="none" stroke="#000000" points="182.5,-1122.5 445.5,-1122.5 "/>
<text text-anchor="middle" x="314" y="-1107.3" font-family="Times,serif" font-size="14.00" fill="#000000">diagnosis_classification_system</text>
<polyline fill="none" stroke="#000000" points="182.5,-1099.5 445.5,-1099.5 "/>
<text text-anchor="middle" x="314" y="-1084.3" font-family="Times,serif" font-size="14.00" fill="#000000">diagnosis_comment</text>
<polyline fill="none" stroke="#000000" points="182.5,-1076.5 445.5,-1076.5 "/>
<text text-anchor="middle" x="314" y="-1061.3" font-family="Times,serif" font-size="14.00" fill="#000000">diagnosis_id</text>
<polyline fill="none" stroke="#000000" points="182.5,-1053.5 445.5,-1053.5 "/>
<text text-anchor="middle" x="314" y="-1038.3" font-family="Times,serif" font-size="14.00" fill="#000000">disease_phase</text>
<polyline fill="none" stroke="#000000" points="182.5,-1030.5 445.5,-1030.5 "/>
<text text-anchor="middle" x="314" y="-1015.3" font-family="Times,serif" font-size="14.00" fill="#000000">id</text>
<polyline fill="none" stroke="#000000" points="182.5,-1007.5 445.5,-1007.5 "/>
<text text-anchor="middle" x="314" y="-992.3" font-family="Times,serif" font-size="14.00" fill="#000000">laterality</text>
<polyline fill="none" stroke="#000000" points="182.5,-984.5 445.5,-984.5 "/>
<text text-anchor="middle" x="314" y="-969.3" font-family="Times,serif" font-size="14.00" fill="#000000">toronto_childhood_cancer_staging</text>
<polyline fill="none" stroke="#000000" points="182.5,-961.5 445.5,-961.5 "/>
<text text-anchor="middle" x="314" y="-946.3" font-family="Times,serif" font-size="14.00" fill="#000000">tumor_classification</text>
<polyline fill="none" stroke="#000000" points="182.5,-938.5 445.5,-938.5 "/>
<text text-anchor="middle" x="314" y="-923.3" font-family="Times,serif" font-size="14.00" fill="#000000">tumor_grade</text>
<polyline fill="none" stroke="#000000" points="182.5,-915.5 445.5,-915.5 "/>
<text text-anchor="middle" x="314" y="-900.3" font-family="Times,serif" font-size="14.00" fill="#000000">tumor_stage_clinical_m</text>
<polyline fill="none" stroke="#000000" points="182.5,-892.5 445.5,-892.5 "/>
<text text-anchor="middle" x="314" y="-877.3" font-family="Times,serif" font-size="14.00" fill="#000000">tumor_stage_clinical_n</text>
<polyline fill="none" stroke="#000000" points="182.5,-869.5 445.5,-869.5 "/>
<text text-anchor="middle" x="314" y="-854.3" font-family="Times,serif" font-size="14.00" fill="#000000">tumor_stage_clinical_t</text>
<polyline fill="none" stroke="#000000" points="182.5,-846.5 445.5,-846.5 "/>
<text text-anchor="middle" x="314" y="-831.3" font-family="Times,serif" font-size="14.00" fill="#000000">year_of_diagnosis</text>
<polyline fill="none" stroke="#000000" points="445.5,-823.5 445.5,-1214.5 "/>
<text text-anchor="middle" x="456" y="-1015.3" font-family="Times,serif" font-size="14.00" fill="#000000"> </text>
</g>
<!-- sample -->
<g id="node4" class="node">
<title>sample</title>
<path fill="none" stroke="#000000" d="M12,-553C12,-553 326,-553 326,-553 332,-553 338,-559 338,-565 338,-565 338,-702 338,-702 338,-708 332,-714 326,-714 326,-714 12,-714 12,-714 6,-714 0,-708 0,-702 0,-702 0,-565 0,-565 0,-559 6,-553 12,-553"/>
<text text-anchor="middle" x="34" y="-629.8" font-family="Times,serif" font-size="14.00" fill="#000000">sample</text>
<polyline fill="none" stroke="#000000" points="68,-553 68,-714 "/>
<text text-anchor="middle" x="78.5" y="-629.8" font-family="Times,serif" font-size="14.00" fill="#000000"> </text>
<polyline fill="none" stroke="#000000" points="89,-553 89,-714 "/>
<text text-anchor="middle" x="203" y="-698.8" font-family="Times,serif" font-size="14.00" fill="#000000">anatomic_site</text>
<polyline fill="none" stroke="#000000" points="89,-691 317,-691 "/>
<text text-anchor="middle" x="203" y="-675.8" font-family="Times,serif" font-size="14.00" fill="#000000">id</text>
<polyline fill="none" stroke="#000000" points="89,-668 317,-668 "/>
<text text-anchor="middle" x="203" y="-652.8" font-family="Times,serif" font-size="14.00" fill="#000000">participant_age_at_collection</text>
<polyline fill="none" stroke="#000000" points="89,-645 317,-645 "/>
<text text-anchor="middle" x="203" y="-629.8" font-family="Times,serif" font-size="14.00" fill="#000000">sample_description</text>
<polyline fill="none" stroke="#000000" points="89,-622 317,-622 "/>
<text text-anchor="middle" x="203" y="-606.8" font-family="Times,serif" font-size="14.00" fill="#000000">sample_id</text>
<polyline fill="none" stroke="#000000" points="89,-599 317,-599 "/>
<text text-anchor="middle" x="203" y="-583.8" font-family="Times,serif" font-size="14.00" fill="#000000">sample_tumor_status</text>
<polyline fill="none" stroke="#000000" points="89,-576 317,-576 "/>
<text text-anchor="middle" x="203" y="-560.8" font-family="Times,serif" font-size="14.00" fill="#000000">tumor_classification</text>
<polyline fill="none" stroke="#000000" points="317,-553 317,-714 "/>
<text text-anchor="middle" x="327.5" y="-629.8" font-family="Times,serif" font-size="14.00" fill="#000000"> </text>
</g>
<!-- diagnosis&#45;&gt;sample -->
<g id="edge2" class="edge">
<title>diagnosis&#45;&gt;sample</title>
<path fill="none" stroke="#000000" d="M219.7456,-823.4266C210.4845,-788.765 201.256,-754.2251 193.2582,-724.2917"/>
<polygon fill="#000000" stroke="#000000" points="196.5576,-723.0811 190.5949,-714.3235 189.7949,-724.8881 196.5576,-723.0811"/>
<text text-anchor="middle" x="259.5" y="-793.8" font-family="Times,serif" font-size="14.00" fill="#000000">of_diagnosis</text>
</g>
<!-- participant -->
<g id="node9" class="node">
<title>participant</title>
<path fill="none" stroke="#000000" d="M742.5,-294C742.5,-294 973.5,-294 973.5,-294 979.5,-294 985.5,-300 985.5,-306 985.5,-306 985.5,-374 985.5,-374 985.5,-380 979.5,-386 973.5,-386 973.5,-386 742.5,-386 742.5,-386 736.5,-386 730.5,-380 730.5,-374 730.5,-374 730.5,-306 730.5,-306 730.5,-300 736.5,-294 742.5,-294"/>
<text text-anchor="middle" x="778.5" y="-336.3" font-family="Times,serif" font-size="14.00" fill="#000000">participant</text>
<polyline fill="none" stroke="#000000" points="826.5,-294 826.5,-386 "/>
<text text-anchor="middle" x="837" y="-336.3" font-family="Times,serif" font-size="14.00" fill="#000000"> </text>
<polyline fill="none" stroke="#000000" points="847.5,-294 847.5,-386 "/>
<text text-anchor="middle" x="906" y="-370.8" font-family="Times,serif" font-size="14.00" fill="#000000">id</text>
<polyline fill="none" stroke="#000000" points="847.5,-363 964.5,-363 "/>
<text text-anchor="middle" x="906" y="-347.8" font-family="Times,serif" font-size="14.00" fill="#000000">participant_id</text>
<polyline fill="none" stroke="#000000" points="847.5,-340 964.5,-340 "/>
<text text-anchor="middle" x="906" y="-324.8" font-family="Times,serif" font-size="14.00" fill="#000000">race</text>
<polyline fill="none" stroke="#000000" points="847.5,-317 964.5,-317 "/>
<text text-anchor="middle" x="906" y="-301.8" font-family="Times,serif" font-size="14.00" fill="#000000">sex_at_birth</text>
<polyline fill="none" stroke="#000000" points="964.5,-294 964.5,-386 "/>
<text text-anchor="middle" x="975" y="-336.3" font-family="Times,serif" font-size="14.00" fill="#000000"> </text>
</g>
<!-- diagnosis&#45;&gt;participant -->
<g id="edge3" class="edge">
<title>diagnosis&#45;&gt;participant</title>
<path fill="none" stroke="#000000" d="M334.6479,-823.2677C339.1892,-806.0224 343.3928,-788.758 347,-772 360.0623,-711.3167 343.3777,-542.7824 383,-495 426.6001,-442.4205 596.3166,-395.8738 720.4817,-367.8358"/>
<polygon fill="#000000" stroke="#000000" points="721.4729,-371.2005 730.4657,-365.5988 719.9424,-364.3699 721.4729,-371.2005"/>
<text text-anchor="middle" x="427.5" y="-629.8" font-family="Times,serif" font-size="14.00" fill="#000000">of_diagnosis</text>
</g>
<!-- treatment_response -->
<g id="node2" class="node">
<title>treatment_response</title>
<path fill="none" stroke="#000000" d="M493.5,-564.5C493.5,-564.5 854.5,-564.5 854.5,-564.5 860.5,-564.5 866.5,-570.5 866.5,-576.5 866.5,-576.5 866.5,-690.5 866.5,-690.5 866.5,-696.5 860.5,-702.5 854.5,-702.5 854.5,-702.5 493.5,-702.5 493.5,-702.5 487.5,-702.5 481.5,-696.5 481.5,-690.5 481.5,-690.5 481.5,-576.5 481.5,-576.5 481.5,-570.5 487.5,-564.5 493.5,-564.5"/>
<text text-anchor="middle" x="562" y="-629.8" font-family="Times,serif" font-size="14.00" fill="#000000">treatment_response</text>
<polyline fill="none" stroke="#000000" points="642.5,-564.5 642.5,-702.5 "/>
<text text-anchor="middle" x="653" y="-629.8" font-family="Times,serif" font-size="14.00" fill="#000000"> </text>
<polyline fill="none" stroke="#000000" points="663.5,-564.5 663.5,-702.5 "/>
<text text-anchor="middle" x="754.5" y="-687.3" font-family="Times,serif" font-size="14.00" fill="#000000">age_at_response</text>
<polyline fill="none" stroke="#000000" points="663.5,-679.5 845.5,-679.5 "/>
<text text-anchor="middle" x="754.5" y="-664.3" font-family="Times,serif" font-size="14.00" fill="#000000">id</text>
<polyline fill="none" stroke="#000000" points="663.5,-656.5 845.5,-656.5 "/>
<text text-anchor="middle" x="754.5" y="-641.3" font-family="Times,serif" font-size="14.00" fill="#000000">response</text>
<polyline fill="none" stroke="#000000" points="663.5,-633.5 845.5,-633.5 "/>
<text text-anchor="middle" x="754.5" y="-618.3" font-family="Times,serif" font-size="14.00" fill="#000000">response_category</text>
<polyline fill="none" stroke="#000000" points="663.5,-610.5 845.5,-610.5 "/>
<text text-anchor="middle" x="754.5" y="-595.3" font-family="Times,serif" font-size="14.00" fill="#000000">response_system</text>
<polyline fill="none" stroke="#000000" points="663.5,-587.5 845.5,-587.5 "/>
<text text-anchor="middle" x="754.5" y="-572.3" font-family="Times,serif" font-size="14.00" fill="#000000">treatment_response_id</text>
<polyline fill="none" stroke="#000000" points="845.5,-564.5 845.5,-702.5 "/>
<text text-anchor="middle" x="856" y="-629.8" font-family="Times,serif" font-size="14.00" fill="#000000"> </text>
</g>
<!-- treatment_response&#45;&gt;participant -->
<g id="edge5" class="edge">
<title>treatment_response&#45;&gt;participant</title>
<path fill="none" stroke="#000000" d="M709.7695,-564.3446C726.8171,-532.6246 748.0329,-494.8518 769,-462 783.5066,-439.2706 800.722,-415.1132 816.1282,-394.3437"/>
<polygon fill="#000000" stroke="#000000" points="818.9825,-396.3711 822.1573,-386.2631 813.372,-392.185 818.9825,-396.3711"/>
<text text-anchor="middle" x="852" y="-465.8" font-family="Times,serif" font-size="14.00" fill="#000000">of_treatment_response</text>
</g>
<!-- laboratory_test -->
<g id="node3" class="node">
<title>laboratory_test</title>
<path fill="none" stroke="#000000" d="M896.5,-495.5C896.5,-495.5 1187.5,-495.5 1187.5,-495.5 1193.5,-495.5 1199.5,-501.5 1199.5,-507.5 1199.5,-507.5 1199.5,-759.5 1199.5,-759.5 1199.5,-765.5 1193.5,-771.5 1187.5,-771.5 1187.5,-771.5 896.5,-771.5 896.5,-771.5 890.5,-771.5 884.5,-765.5 884.5,-759.5 884.5,-759.5 884.5,-507.5 884.5,-507.5 884.5,-501.5 890.5,-495.5 896.5,-495.5"/>
<text text-anchor="middle" x="947.5" y="-629.8" font-family="Times,serif" font-size="14.00" fill="#000000">laboratory_test</text>
<polyline fill="none" stroke="#000000" points="1010.5,-495.5 1010.5,-771.5 "/>
<text text-anchor="middle" x="1021" y="-629.8" font-family="Times,serif" font-size="14.00" fill="#000000"> </text>
<polyline fill="none" stroke="#000000" points="1031.5,-495.5 1031.5,-771.5 "/>
<text text-anchor="middle" x="1105" y="-756.3" font-family="Times,serif" font-size="14.00" fill="#000000">age_at_lab</text>
<polyline fill="none" stroke="#000000" points="1031.5,-748.5 1178.5,-748.5 "/>
<text text-anchor="middle" x="1105" y="-733.3" font-family="Times,serif" font-size="14.00" fill="#000000">id</text>
<polyline fill="none" stroke="#000000" points="1031.5,-725.5 1178.5,-725.5 "/>
<text text-anchor="middle" x="1105" y="-710.3" font-family="Times,serif" font-size="14.00" fill="#000000">laboratory_test_id</text>
<polyline fill="none" stroke="#000000" points="1031.5,-702.5 1178.5,-702.5 "/>
<text text-anchor="middle" x="1105" y="-687.3" font-family="Times,serif" font-size="14.00" fill="#000000">method</text>
<polyline fill="none" stroke="#000000" points="1031.5,-679.5 1178.5,-679.5 "/>
<text text-anchor="middle" x="1105" y="-664.3" font-family="Times,serif" font-size="14.00" fill="#000000">result</text>
<polyline fill="none" stroke="#000000" points="1031.5,-656.5 1178.5,-656.5 "/>
<text text-anchor="middle" x="1105" y="-641.3" font-family="Times,serif" font-size="14.00" fill="#000000">result_modifier</text>
<polyline fill="none" stroke="#000000" points="1031.5,-633.5 1178.5,-633.5 "/>
<text text-anchor="middle" x="1105" y="-618.3" font-family="Times,serif" font-size="14.00" fill="#000000">result_numeric</text>
<polyline fill="none" stroke="#000000" points="1031.5,-610.5 1178.5,-610.5 "/>
<text text-anchor="middle" x="1105" y="-595.3" font-family="Times,serif" font-size="14.00" fill="#000000">result_text</text>
<polyline fill="none" stroke="#000000" points="1031.5,-587.5 1178.5,-587.5 "/>
<text text-anchor="middle" x="1105" y="-572.3" font-family="Times,serif" font-size="14.00" fill="#000000">result_unit</text>
<polyline fill="none" stroke="#000000" points="1031.5,-564.5 1178.5,-564.5 "/>
<text text-anchor="middle" x="1105" y="-549.3" font-family="Times,serif" font-size="14.00" fill="#000000">sensitivity</text>
<polyline fill="none" stroke="#000000" points="1031.5,-541.5 1178.5,-541.5 "/>
<text text-anchor="middle" x="1105" y="-526.3" font-family="Times,serif" font-size="14.00" fill="#000000">specimen</text>
<polyline fill="none" stroke="#000000" points="1031.5,-518.5 1178.5,-518.5 "/>
<text text-anchor="middle" x="1105" y="-503.3" font-family="Times,serif" font-size="14.00" fill="#000000">test</text>
<polyline fill="none" stroke="#000000" points="1178.5,-495.5 1178.5,-771.5 "/>
<text text-anchor="middle" x="1189" y="-629.8" font-family="Times,serif" font-size="14.00" fill="#000000"> </text>
</g>
<!-- laboratory_test&#45;&gt;participant -->
<g id="edge4" class="edge">
<title>laboratory_test&#45;&gt;participant</title>
<path fill="none" stroke="#000000" d="M955.3879,-495.3443C933.0027,-459.6375 910.1907,-423.2499 892.2774,-394.6761"/>
<polygon fill="#000000" stroke="#000000" points="895.1583,-392.6822 886.8812,-386.0686 889.2275,-396.4004 895.1583,-392.6822"/>
<text text-anchor="middle" x="1004.5" y="-465.8" font-family="Times,serif" font-size="14.00" fill="#000000">of_laboratory_test</text>
</g>
<!-- study -->
<g id="node6" class="node">
<title>study</title>
<path fill="none" stroke="#000000" d="M748.5,-.5C748.5,-.5 967.5,-.5 967.5,-.5 973.5,-.5 979.5,-6.5 979.5,-12.5 979.5,-12.5 979.5,-172.5 979.5,-172.5 979.5,-178.5 973.5,-184.5 967.5,-184.5 967.5,-184.5 748.5,-184.5 748.5,-184.5 742.5,-184.5 736.5,-178.5 736.5,-172.5 736.5,-172.5 736.5,-12.5 736.5,-12.5 736.5,-6.5 742.5,-.5 748.5,-.5"/>
<text text-anchor="middle" x="764.5" y="-88.8" font-family="Times,serif" font-size="14.00" fill="#000000">study</text>
<polyline fill="none" stroke="#000000" points="792.5,-.5 792.5,-184.5 "/>
<text text-anchor="middle" x="803" y="-88.8" font-family="Times,serif" font-size="14.00" fill="#000000"> </text>
<polyline fill="none" stroke="#000000" points="813.5,-.5 813.5,-184.5 "/>
<text text-anchor="middle" x="886" y="-169.3" font-family="Times,serif" font-size="14.00" fill="#000000">consent</text>
<polyline fill="none" stroke="#000000" points="813.5,-161.5 958.5,-161.5 "/>
<text text-anchor="middle" x="886" y="-146.3" font-family="Times,serif" font-size="14.00" fill="#000000">consent_number</text>
<polyline fill="none" stroke="#000000" points="813.5,-138.5 958.5,-138.5 "/>
<text text-anchor="middle" x="886" y="-123.3" font-family="Times,serif" font-size="14.00" fill="#000000">dbgap_accession</text>
<polyline fill="none" stroke="#000000" points="813.5,-115.5 958.5,-115.5 "/>
<text text-anchor="middle" x="886" y="-100.3" font-family="Times,serif" font-size="14.00" fill="#000000">external_url</text>
<polyline fill="none" stroke="#000000" points="813.5,-92.5 958.5,-92.5 "/>
<text text-anchor="middle" x="886" y="-77.3" font-family="Times,serif" font-size="14.00" fill="#000000">id</text>
<polyline fill="none" stroke="#000000" points="813.5,-69.5 958.5,-69.5 "/>
<text text-anchor="middle" x="886" y="-54.3" font-family="Times,serif" font-size="14.00" fill="#000000">study_description</text>
<polyline fill="none" stroke="#000000" points="813.5,-46.5 958.5,-46.5 "/>
<text text-anchor="middle" x="886" y="-31.3" font-family="Times,serif" font-size="14.00" fill="#000000">study_id</text>
<polyline fill="none" stroke="#000000" points="813.5,-23.5 958.5,-23.5 "/>
<text text-anchor="middle" x="886" y="-8.3" font-family="Times,serif" font-size="14.00" fill="#000000">study_name</text>
<polyline fill="none" stroke="#000000" points="958.5,-.5 958.5,-184.5 "/>
<text text-anchor="middle" x="969" y="-88.8" font-family="Times,serif" font-size="14.00" fill="#000000"> </text>
</g>
<!-- sample&#45;&gt;study -->
<g id="edge8" class="edge">
<title>sample&#45;&gt;study</title>
<path fill="none" stroke="#000000" d="M204.0505,-552.8326C219.9805,-522.0918 240.9213,-488.1876 266,-462 400.0009,-322.0742 597.5887,-212.7822 727.0368,-150.4512"/>
<polygon fill="#000000" stroke="#000000" points="728.7303,-153.5209 736.2375,-146.0448 725.7067,-147.2076 728.7303,-153.5209"/>
<text text-anchor="middle" x="595.5" y="-336.3" font-family="Times,serif" font-size="14.00" fill="#000000">of_sample</text>
</g>
<!-- sample&#45;&gt;participant -->
<g id="edge7" class="edge">
<title>sample&#45;&gt;participant</title>
<path fill="none" stroke="#000000" d="M207.3248,-552.6689C226.7968,-519.8179 253.4999,-484.3971 287,-462 356.7121,-415.3928 574.8131,-378.0713 720.383,-357.5001"/>
<polygon fill="#000000" stroke="#000000" points="720.883,-360.9643 730.2997,-356.1087 719.9104,-354.0322 720.883,-360.9643"/>
<text text-anchor="middle" x="323.5" y="-465.8" font-family="Times,serif" font-size="14.00" fill="#000000">of_sample</text>
</g>
<!-- survival -->
<g id="node5" class="node">
<title>survival</title>
<path fill="none" stroke="#000000" d="M1229.5,-541.5C1229.5,-541.5 1590.5,-541.5 1590.5,-541.5 1596.5,-541.5 1602.5,-547.5 1602.5,-553.5 1602.5,-553.5 1602.5,-713.5 1602.5,-713.5 1602.5,-719.5 1596.5,-725.5 1590.5,-725.5 1590.5,-725.5 1229.5,-725.5 1229.5,-725.5 1223.5,-725.5 1217.5,-719.5 1217.5,-713.5 1217.5,-713.5 1217.5,-553.5 1217.5,-553.5 1217.5,-547.5 1223.5,-541.5 1229.5,-541.5"/>
<text text-anchor="middle" x="1254.5" y="-629.8" font-family="Times,serif" font-size="14.00" fill="#000000">survival</text>
<polyline fill="none" stroke="#000000" points="1291.5,-541.5 1291.5,-725.5 "/>
<text text-anchor="middle" x="1302" y="-629.8" font-family="Times,serif" font-size="14.00" fill="#000000"> </text>
<polyline fill="none" stroke="#000000" points="1312.5,-541.5 1312.5,-725.5 "/>
<text text-anchor="middle" x="1447" y="-710.3" font-family="Times,serif" font-size="14.00" fill="#000000">age_at_event_free_survival_status</text>
<polyline fill="none" stroke="#000000" points="1312.5,-702.5 1581.5,-702.5 "/>
<text text-anchor="middle" x="1447" y="-687.3" font-family="Times,serif" font-size="14.00" fill="#000000">age_at_last_known_survival_status</text>
<polyline fill="none" stroke="#000000" points="1312.5,-679.5 1581.5,-679.5 "/>
<text text-anchor="middle" x="1447" y="-664.3" font-family="Times,serif" font-size="14.00" fill="#000000">cause_of_death</text>
<polyline fill="none" stroke="#000000" points="1312.5,-656.5 1581.5,-656.5 "/>
<text text-anchor="middle" x="1447" y="-641.3" font-family="Times,serif" font-size="14.00" fill="#000000">event_free_survival_status</text>
<polyline fill="none" stroke="#000000" points="1312.5,-633.5 1581.5,-633.5 "/>
<text text-anchor="middle" x="1447" y="-618.3" font-family="Times,serif" font-size="14.00" fill="#000000">first_event</text>
<polyline fill="none" stroke="#000000" points="1312.5,-610.5 1581.5,-610.5 "/>
<text text-anchor="middle" x="1447" y="-595.3" font-family="Times,serif" font-size="14.00" fill="#000000">id</text>
<polyline fill="none" stroke="#000000" points="1312.5,-587.5 1581.5,-587.5 "/>
<text text-anchor="middle" x="1447" y="-572.3" font-family="Times,serif" font-size="14.00" fill="#000000">last_known_survival_status</text>
<polyline fill="none" stroke="#000000" points="1312.5,-564.5 1581.5,-564.5 "/>
<text text-anchor="middle" x="1447" y="-549.3" font-family="Times,serif" font-size="14.00" fill="#000000">survival_id</text>
<polyline fill="none" stroke="#000000" points="1581.5,-541.5 1581.5,-725.5 "/>
<text text-anchor="middle" x="1592" y="-629.8" font-family="Times,serif" font-size="14.00" fill="#000000"> </text>
</g>
<!-- survival&#45;&gt;participant -->
<g id="edge1" class="edge">
<title>survival&#45;&gt;participant</title>
<path fill="none" stroke="#000000" d="M1290.7908,-541.4628C1264.5322,-524.1792 1236.1328,-507.6054 1208,-495 1152.0269,-469.9203 1133.7003,-476.0659 1074,-462 1038.5268,-453.6422 1027.0184,-459.4268 994,-444 966.0567,-430.9444 938.4219,-411.3857 915.4365,-392.7409"/>
<polygon fill="#000000" stroke="#000000" points="917.4476,-389.8626 907.5073,-386.1962 912.9916,-395.2612 917.4476,-389.8626"/>
<text text-anchor="middle" x="1193.5" y="-465.8" font-family="Times,serif" font-size="14.00" fill="#000000">of_survival</text>
</g>
<!-- reference_file -->
<g id="node7" class="node">
<title>reference_file</title>
<path fill="none" stroke="#000000" d="M1015.5,-236.5C1015.5,-236.5 1292.5,-236.5 1292.5,-236.5 1298.5,-236.5 1304.5,-242.5 1304.5,-248.5 1304.5,-248.5 1304.5,-431.5 1304.5,-431.5 1304.5,-437.5 1298.5,-443.5 1292.5,-443.5 1292.5,-443.5 1015.5,-443.5 1015.5,-443.5 1009.5,-443.5 1003.5,-437.5 1003.5,-431.5 1003.5,-431.5 1003.5,-248.5 1003.5,-248.5 1003.5,-242.5 1009.5,-236.5 1015.5,-236.5"/>
<text text-anchor="middle" x="1061.5" y="-336.3" font-family="Times,serif" font-size="14.00" fill="#000000">reference_file</text>
<polyline fill="none" stroke="#000000" points="1119.5,-236.5 1119.5,-443.5 "/>
<text text-anchor="middle" x="1130" y="-336.3" font-family="Times,serif" font-size="14.00" fill="#000000"> </text>
<polyline fill="none" stroke="#000000" points="1140.5,-236.5 1140.5,-443.5 "/>
<text text-anchor="middle" x="1212" y="-428.3" font-family="Times,serif" font-size="14.00" fill="#000000">dcf_indexd_guid</text>
<polyline fill="none" stroke="#000000" points="1140.5,-420.5 1283.5,-420.5 "/>
<text text-anchor="middle" x="1212" y="-405.3" font-family="Times,serif" font-size="14.00" fill="#000000">file_category</text>
<polyline fill="none" stroke="#000000" points="1140.5,-397.5 1283.5,-397.5 "/>
<text text-anchor="middle" x="1212" y="-382.3" font-family="Times,serif" font-size="14.00" fill="#000000">file_description</text>
<polyline fill="none" stroke="#000000" points="1140.5,-374.5 1283.5,-374.5 "/>
<text text-anchor="middle" x="1212" y="-359.3" font-family="Times,serif" font-size="14.00" fill="#000000">file_name</text>
<polyline fill="none" stroke="#000000" points="1140.5,-351.5 1283.5,-351.5 "/>
<text text-anchor="middle" x="1212" y="-336.3" font-family="Times,serif" font-size="14.00" fill="#000000">file_size</text>
<polyline fill="none" stroke="#000000" points="1140.5,-328.5 1283.5,-328.5 "/>
<text text-anchor="middle" x="1212" y="-313.3" font-family="Times,serif" font-size="14.00" fill="#000000">file_type</text>
<polyline fill="none" stroke="#000000" points="1140.5,-305.5 1283.5,-305.5 "/>
<text text-anchor="middle" x="1212" y="-290.3" font-family="Times,serif" font-size="14.00" fill="#000000">md5sum</text>
<polyline fill="none" stroke="#000000" points="1140.5,-282.5 1283.5,-282.5 "/>
<text text-anchor="middle" x="1212" y="-267.3" font-family="Times,serif" font-size="14.00" fill="#000000">reference_file_id</text>
<polyline fill="none" stroke="#000000" points="1140.5,-259.5 1283.5,-259.5 "/>
<text text-anchor="middle" x="1212" y="-244.3" font-family="Times,serif" font-size="14.00" fill="#000000">reference_file_url</text>
<polyline fill="none" stroke="#000000" points="1283.5,-236.5 1283.5,-443.5 "/>
<text text-anchor="middle" x="1294" y="-336.3" font-family="Times,serif" font-size="14.00" fill="#000000"> </text>
</g>
<!-- reference_file&#45;&gt;study -->
<g id="edge9" class="edge">
<title>reference_file&#45;&gt;study</title>
<path fill="none" stroke="#000000" d="M1030.1844,-236.4718C1012.3249,-221.5386 993.9825,-206.2016 976.2356,-191.3625"/>
<polygon fill="#000000" stroke="#000000" points="978.0442,-188.3125 968.1274,-184.5829 973.5539,-193.6826 978.0442,-188.3125"/>
<text text-anchor="middle" x="1066.5" y="-206.8" font-family="Times,serif" font-size="14.00" fill="#000000">of_reference_file</text>
</g>
<!-- genetic_analysis -->
<g id="node8" class="node">
<title>genetic_analysis</title>
<path fill="none" stroke="#000000" d="M1632.5,-507C1632.5,-507 1975.5,-507 1975.5,-507 1981.5,-507 1987.5,-513 1987.5,-519 1987.5,-519 1987.5,-748 1987.5,-748 1987.5,-754 1981.5,-760 1975.5,-760 1975.5,-760 1632.5,-760 1632.5,-760 1626.5,-760 1620.5,-754 1620.5,-748 1620.5,-748 1620.5,-519 1620.5,-519 1620.5,-513 1626.5,-507 1632.5,-507"/>
<text text-anchor="middle" x="1688" y="-629.8" font-family="Times,serif" font-size="14.00" fill="#000000">genetic_analysis</text>
<polyline fill="none" stroke="#000000" points="1755.5,-507 1755.5,-760 "/>
<text text-anchor="middle" x="1766" y="-629.8" font-family="Times,serif" font-size="14.00" fill="#000000"> </text>
<polyline fill="none" stroke="#000000" points="1776.5,-507 1776.5,-760 "/>
<text text-anchor="middle" x="1871.5" y="-744.8" font-family="Times,serif" font-size="14.00" fill="#000000">age_at_genetic_analysis</text>
<polyline fill="none" stroke="#000000" points="1776.5,-737 1966.5,-737 "/>
<text text-anchor="middle" x="1871.5" y="-721.8" font-family="Times,serif" font-size="14.00" fill="#000000">allelic_ratio</text>
<polyline fill="none" stroke="#000000" points="1776.5,-714 1966.5,-714 "/>
<text text-anchor="middle" x="1871.5" y="-698.8" font-family="Times,serif" font-size="14.00" fill="#000000">alteration</text>
<polyline fill="none" stroke="#000000" points="1776.5,-691 1966.5,-691 "/>
<text text-anchor="middle" x="1871.5" y="-675.8" font-family="Times,serif" font-size="14.00" fill="#000000">dna_index_numeric</text>
<polyline fill="none" stroke="#000000" points="1776.5,-668 1966.5,-668 "/>
<text text-anchor="middle" x="1871.5" y="-652.8" font-family="Times,serif" font-size="14.00" fill="#000000">genetic_analysis_id</text>
<polyline fill="none" stroke="#000000" points="1776.5,-645 1966.5,-645 "/>
<text text-anchor="middle" x="1871.5" y="-629.8" font-family="Times,serif" font-size="14.00" fill="#000000">hgvs_coding</text>
<polyline fill="none" stroke="#000000" points="1776.5,-622 1966.5,-622 "/>
<text text-anchor="middle" x="1871.5" y="-606.8" font-family="Times,serif" font-size="14.00" fill="#000000">hgvs_protein</text>
<polyline fill="none" stroke="#000000" points="1776.5,-599 1966.5,-599 "/>
<text text-anchor="middle" x="1871.5" y="-583.8" font-family="Times,serif" font-size="14.00" fill="#000000">id</text>
<polyline fill="none" stroke="#000000" points="1776.5,-576 1966.5,-576 "/>
<text text-anchor="middle" x="1871.5" y="-560.8" font-family="Times,serif" font-size="14.00" fill="#000000">iscn</text>
<polyline fill="none" stroke="#000000" points="1776.5,-553 1966.5,-553 "/>
<text text-anchor="middle" x="1871.5" y="-537.8" font-family="Times,serif" font-size="14.00" fill="#000000">status</text>
<polyline fill="none" stroke="#000000" points="1776.5,-530 1966.5,-530 "/>
<text text-anchor="middle" x="1871.5" y="-514.8" font-family="Times,serif" font-size="14.00" fill="#000000">vaf_numeric</text>
<polyline fill="none" stroke="#000000" points="1966.5,-507 1966.5,-760 "/>
<text text-anchor="middle" x="1977" y="-629.8" font-family="Times,serif" font-size="14.00" fill="#000000"> </text>
</g>
<!-- genetic_analysis&#45;&gt;participant -->
<g id="edge11" class="edge">
<title>genetic_analysis&#45;&gt;participant</title>
<path fill="none" stroke="#000000" d="M1638.6356,-506.9057C1629.5164,-502.457 1620.2801,-498.4426 1611,-495 1454.5501,-436.9624 1403.3213,-475.4971 1237,-462 1183.0295,-457.6203 1044.6119,-463.2468 994,-444 964.047,-432.6094 935.2019,-412.3674 911.844,-392.7497"/>
<polygon fill="#000000" stroke="#000000" points="914.0064,-389.9932 904.1393,-386.1343 909.4463,-395.3042 914.0064,-389.9932"/>
<text text-anchor="middle" x="1621" y="-465.8" font-family="Times,serif" font-size="14.00" fill="#000000">of_genetic_analysis</text>
</g>
<!-- participant&#45;&gt;study -->
<g id="edge6" class="edge">
<title>participant&#45;&gt;study</title>
<path fill="none" stroke="#000000" d="M858,-293.7375C858,-265.8494 858,-229.176 858,-194.7844"/>
<polygon fill="#000000" stroke="#000000" points="861.5001,-194.677 858,-184.677 854.5001,-194.6771 861.5001,-194.677"/>
<text text-anchor="middle" x="908.5" y="-206.8" font-family="Times,serif" font-size="14.00" fill="#000000">of_participant</text>
</g>
<!-- treatment -->
<g id="node10" class="node">
<title>treatment</title>
<path fill="none" stroke="#000000" d="M2018,-564.5C2018,-564.5 2310,-564.5 2310,-564.5 2316,-564.5 2322,-570.5 2322,-576.5 2322,-576.5 2322,-690.5 2322,-690.5 2322,-696.5 2316,-702.5 2310,-702.5 2310,-702.5 2018,-702.5 2018,-702.5 2012,-702.5 2006,-696.5 2006,-690.5 2006,-690.5 2006,-576.5 2006,-576.5 2006,-570.5 2012,-564.5 2018,-564.5"/>
<text text-anchor="middle" x="2050.5" y="-629.8" font-family="Times,serif" font-size="14.00" fill="#000000">treatment</text>
<polyline fill="none" stroke="#000000" points="2095,-564.5 2095,-702.5 "/>
<text text-anchor="middle" x="2105.5" y="-629.8" font-family="Times,serif" font-size="14.00" fill="#000000"> </text>
<polyline fill="none" stroke="#000000" points="2116,-564.5 2116,-702.5 "/>
<text text-anchor="middle" x="2208.5" y="-687.3" font-family="Times,serif" font-size="14.00" fill="#000000">age_at_treatment_end</text>
<polyline fill="none" stroke="#000000" points="2116,-679.5 2301,-679.5 "/>
<text text-anchor="middle" x="2208.5" y="-664.3" font-family="Times,serif" font-size="14.00" fill="#000000">age_at_treatment_start</text>
<polyline fill="none" stroke="#000000" points="2116,-656.5 2301,-656.5 "/>
<text text-anchor="middle" x="2208.5" y="-641.3" font-family="Times,serif" font-size="14.00" fill="#000000">id</text>
<polyline fill="none" stroke="#000000" points="2116,-633.5 2301,-633.5 "/>
<text text-anchor="middle" x="2208.5" y="-618.3" font-family="Times,serif" font-size="14.00" fill="#000000">treatment_agent</text>
<polyline fill="none" stroke="#000000" points="2116,-610.5 2301,-610.5 "/>
<text text-anchor="middle" x="2208.5" y="-595.3" font-family="Times,serif" font-size="14.00" fill="#000000">treatment_id</text>
<polyline fill="none" stroke="#000000" points="2116,-587.5 2301,-587.5 "/>
<text text-anchor="middle" x="2208.5" y="-572.3" font-family="Times,serif" font-size="14.00" fill="#000000">treatment_type</text>
<polyline fill="none" stroke="#000000" points="2301,-564.5 2301,-702.5 "/>
<text text-anchor="middle" x="2311.5" y="-629.8" font-family="Times,serif" font-size="14.00" fill="#000000"> </text>
</g>
<!-- treatment&#45;&gt;participant -->
<g id="edge10" class="edge">
<title>treatment&#45;&gt;participant</title>
<path fill="none" stroke="#000000" d="M2099.0455,-564.4204C2070.3637,-538.2445 2034.6324,-510.9377 1997,-495 1872.6693,-442.3446 1829.7159,-471.0741 1695,-462 1617.2616,-456.7637 1067.4735,-469.9291 994,-444 963.4031,-433.2023 934.1718,-412.7034 910.7047,-392.74"/>
<polygon fill="#000000" stroke="#000000" points="912.8128,-389.9346 902.9736,-386.0051 908.2147,-395.2127 912.8128,-389.9346"/>
<text text-anchor="middle" x="1989" y="-465.8" font-family="Times,serif" font-size="14.00" fill="#000000">of_treatment</text>
</g>
</g>
</svg>
