<svg width="622pt" height="701pt"
 viewBox="0.00 0.00 622.00 701.00" xmlns="http://www.w3.org/2000/svg" xmlns:xlink="http://www.w3.org/1999/xlink">
<g id="graph0" class="graph" transform="scale(1 1) rotate(0) translate(4 697)">
<title>Perl</title>
<polygon fill="#ffffff" stroke="transparent" points="-4,4 -4,-697 618,-697 618,4 -4,4"/>
<!-- participant -->
<g id="node1" class="node">
<title>participant</title>
<path fill="none" stroke="#000000" d="M248,-88.5C248,-88.5 542,-88.5 542,-88.5 548,-88.5 554,-94.5 554,-100.5 554,-100.5 554,-352.5 554,-352.5 554,-358.5 548,-364.5 542,-364.5 542,-364.5 248,-364.5 248,-364.5 242,-364.5 236,-358.5 236,-352.5 236,-352.5 236,-100.5 236,-100.5 236,-94.5 242,-88.5 248,-88.5"/>
<text text-anchor="middle" x="284" y="-222.8" font-family="Times,serif" font-size="14.00" fill="#000000">participant</text>
<polyline fill="none" stroke="#000000" points="332,-88.5 332,-364.5 "/>
<text text-anchor="middle" x="342.5" y="-222.8" font-family="Times,serif" font-size="14.00" fill="#000000"> </text>
<polyline fill="none" stroke="#000000" points="353,-88.5 353,-364.5 "/>
<text text-anchor="middle" x="443" y="-349.3" font-family="Times,serif" font-size="14.00" fill="#000000">harmonized_cde</text>
<polyline fill="none" stroke="#000000" points="353,-341.5 533,-341.5 "/>
<text text-anchor="middle" x="443" y="-326.3" font-family="Times,serif" font-size="14.00" fill="#000000">harmonized_term</text>
<polyline fill="none" stroke="#000000" points="353,-318.5 533,-318.5 "/>
<text text-anchor="middle" x="443" y="-303.3" font-family="Times,serif" font-size="14.00" fill="#000000">harmonized_value</text>
<polyline fill="none" stroke="#000000" points="353,-295.5 533,-295.5 "/>
<text text-anchor="middle" x="443" y="-280.3" font-family="Times,serif" font-size="14.00" fill="#000000">harmonized_value_id</text>
<polyline fill="none" stroke="#000000" points="353,-272.5 533,-272.5 "/>
<text text-anchor="middle" x="443" y="-257.3" font-family="Times,serif" font-size="14.00" fill="#000000">participant_id</text>
<polyline fill="none" stroke="#000000" points="353,-249.5 533,-249.5 "/>
<text text-anchor="middle" x="443" y="-234.3" font-family="Times,serif" font-size="14.00" fill="#000000">source_data_file_guid</text>
<polyline fill="none" stroke="#000000" points="353,-226.5 533,-226.5 "/>
<text text-anchor="middle" x="443" y="-211.3" font-family="Times,serif" font-size="14.00" fill="#000000">source_data_file_name</text>
<polyline fill="none" stroke="#000000" points="353,-203.5 533,-203.5 "/>
<text text-anchor="middle" x="443" y="-188.3" font-family="Times,serif" font-size="14.00" fill="#000000">source_dataset</text>
<polyline fill="none" stroke="#000000" points="353,-180.5 533,-180.5 "/>
<text text-anchor="middle" x="443" y="-165.3" font-family="Times,serif" font-size="14.00" fill="#000000">source_field_name</text>
<polyline fill="none" stroke="#000000" points="353,-157.5 533,-157.5 "/>
<text text-anchor="middle" x="443" y="-142.3" font-family="Times,serif" font-size="14.00" fill="#000000">source_value</text>
<polyline fill="none" stroke="#000000" points="353,-134.5 533,-134.5 "/>
<text text-anchor="middle" x="443" y="-119.3" font-family="Times,serif" font-size="14.00" fill="#000000">transformation_logic</text>
<polyline fill="none" stroke="#000000" points="353,-111.5 533,-111.5 "/>
<text text-anchor="middle" x="443" y="-96.3" font-family="Times,serif" font-size="14.00" fill="#000000">version</text>
<polyline fill="none" stroke="#000000" points="533,-88.5 533,-364.5 "/>
<text text-anchor="middle" x="543.5" y="-222.8" font-family="Times,serif" font-size="14.00" fill="#000000"> </text>
</g>
<!-- study -->
<g id="node3" class="node">
<title>study</title>
<path fill="none" stroke="#000000" d="M85.5,-.5C85.5,-.5 236.5,-.5 236.5,-.5 242.5,-.5 248.5,-6.5 248.5,-12.5 248.5,-12.5 248.5,-24.5 248.5,-24.5 248.5,-30.5 242.5,-36.5 236.5,-36.5 236.5,-36.5 85.5,-36.5 85.5,-36.5 79.5,-36.5 73.5,-30.5 73.5,-24.5 73.5,-24.5 73.5,-12.5 73.5,-12.5 73.5,-6.5 79.5,-.5 85.5,-.5"/>
<text text-anchor="middle" x="101.5" y="-14.8" font-family="Times,serif" font-size="14.00" fill="#000000">study</text>
<polyline fill="none" stroke="#000000" points="129.5,-.5 129.5,-36.5 "/>
<text text-anchor="middle" x="140" y="-14.8" font-family="Times,serif" font-size="14.00" fill="#000000"> </text>
<polyline fill="none" stroke="#000000" points="150.5,-.5 150.5,-36.5 "/>
<text text-anchor="middle" x="189" y="-14.8" font-family="Times,serif" font-size="14.00" fill="#000000">study_id</text>
<polyline fill="none" stroke="#000000" points="227.5,-.5 227.5,-36.5 "/>
<text text-anchor="middle" x="238" y="-14.8" font-family="Times,serif" font-size="14.00" fill="#000000"> </text>
</g>
<!-- participant&#45;&gt;study -->
<g id="edge1" class="edge">
<title>participant&#45;&gt;study</title>
<path fill="none" stroke="#000000" d="M239.5696,-88.3396C220.3758,-71.2785 202.7344,-55.5972 189.0518,-43.4349"/>
<polygon fill="#000000" stroke="#000000" points="191.2708,-40.7245 181.4714,-36.6968 186.6202,-45.9564 191.2708,-40.7245"/>
<text text-anchor="middle" x="268.5" y="-58.8" font-family="Times,serif" font-size="14.00" fill="#000000">of_participant</text>
</g>
<!-- sample -->
<g id="node2" class="node">
<title>sample</title>
<path fill="none" stroke="#000000" d="M12,-416.5C12,-416.5 278,-416.5 278,-416.5 284,-416.5 290,-422.5 290,-428.5 290,-428.5 290,-680.5 290,-680.5 290,-686.5 284,-692.5 278,-692.5 278,-692.5 12,-692.5 12,-692.5 6,-692.5 0,-686.5 0,-680.5 0,-680.5 0,-428.5 0,-428.5 0,-422.5 6,-416.5 12,-416.5"/>
<text text-anchor="middle" x="34" y="-550.8" font-family="Times,serif" font-size="14.00" fill="#000000">sample</text>
<polyline fill="none" stroke="#000000" points="68,-416.5 68,-692.5 "/>
<text text-anchor="middle" x="78.5" y="-550.8" font-family="Times,serif" font-size="14.00" fill="#000000"> </text>
<polyline fill="none" stroke="#000000" points="89,-416.5 89,-692.5 "/>
<text text-anchor="middle" x="179" y="-677.3" font-family="Times,serif" font-size="14.00" fill="#000000">harmonized_cde</text>
<polyline fill="none" stroke="#000000" points="89,-669.5 269,-669.5 "/>
<text text-anchor="middle" x="179" y="-654.3" font-family="Times,serif" font-size="14.00" fill="#000000">harmonized_term</text>
<polyline fill="none" stroke="#000000" points="89,-646.5 269,-646.5 "/>
<text text-anchor="middle" x="179" y="-631.3" font-family="Times,serif" font-size="14.00" fill="#000000">harmonized_value</text>
<polyline fill="none" stroke="#000000" points="89,-623.5 269,-623.5 "/>
<text text-anchor="middle" x="179" y="-608.3" font-family="Times,serif" font-size="14.00" fill="#000000">harmonized_value_id</text>
<polyline fill="none" stroke="#000000" points="89,-600.5 269,-600.5 "/>
<text text-anchor="middle" x="179" y="-585.3" font-family="Times,serif" font-size="14.00" fill="#000000">sample_id</text>
<polyline fill="none" stroke="#000000" points="89,-577.5 269,-577.5 "/>
<text text-anchor="middle" x="179" y="-562.3" font-family="Times,serif" font-size="14.00" fill="#000000">source_data_file_guid</text>
<polyline fill="none" stroke="#000000" points="89,-554.5 269,-554.5 "/>
<text text-anchor="middle" x="179" y="-539.3" font-family="Times,serif" font-size="14.00" fill="#000000">source_data_file_name</text>
<polyline fill="none" stroke="#000000" points="89,-531.5 269,-531.5 "/>
<text text-anchor="middle" x="179" y="-516.3" font-family="Times,serif" font-size="14.00" fill="#000000">source_dataset</text>
<polyline fill="none" stroke="#000000" points="89,-508.5 269,-508.5 "/>
<text text-anchor="middle" x="179" y="-493.3" font-family="Times,serif" font-size="14.00" fill="#000000">source_field_name</text>
<polyline fill="none" stroke="#000000" points="89,-485.5 269,-485.5 "/>
<text text-anchor="middle" x="179" y="-470.3" font-family="Times,serif" font-size="14.00" fill="#000000">source_value</text>
<polyline fill="none" stroke="#000000" points="89,-462.5 269,-462.5 "/>
<text text-anchor="middle" x="179" y="-447.3" font-family="Times,serif" font-size="14.00" fill="#000000">transformation_logic</text>
<polyline fill="none" stroke="#000000" points="89,-439.5 269,-439.5 "/>
<text text-anchor="middle" x="179" y="-424.3" font-family="Times,serif" font-size="14.00" fill="#000000">version</text>
<polyline fill="none" stroke="#000000" points="269,-416.5 269,-692.5 "/>
<text text-anchor="middle" x="279.5" y="-550.8" font-family="Times,serif" font-size="14.00" fill="#000000"> </text>
</g>
<!-- sample&#45;&gt;participant -->
<g id="edge3" class="edge">
<title>sample&#45;&gt;participant</title>
<path fill="none" stroke="#000000" d="M250.2979,-416.3491C261.2758,-401.9462 272.4616,-387.2704 283.5051,-372.7813"/>
<polygon fill="#000000" stroke="#000000" points="286.3452,-374.8288 289.6236,-364.7539 280.778,-370.5854 286.3452,-374.8288"/>
<text text-anchor="middle" x="306.5" y="-386.8" font-family="Times,serif" font-size="14.00" fill="#000000">of_sample</text>
</g>
<!-- sample&#45;&gt;study -->
<g id="edge2" class="edge">
<title>sample&#45;&gt;study</title>
<path fill="none" stroke="#000000" d="M144.7315,-416.3453C145.2721,-323.4431 147.3939,-198.2724 154,-88 154.8077,-74.5177 156.2375,-59.6119 157.5953,-47.0731"/>
<polygon fill="#000000" stroke="#000000" points="161.1156,-47.0866 158.7525,-36.7587 154.1593,-46.3061 161.1156,-47.0866"/>
<text text-anchor="middle" x="190.5" y="-222.8" font-family="Times,serif" font-size="14.00" fill="#000000">of_sample</text>
</g>
<!-- diagnosis -->
<g id="node4" class="node">
<title>diagnosis</title>
<path fill="none" stroke="#000000" d="M320,-416.5C320,-416.5 602,-416.5 602,-416.5 608,-416.5 614,-422.5 614,-428.5 614,-428.5 614,-680.5 614,-680.5 614,-686.5 608,-692.5 602,-692.5 602,-692.5 320,-692.5 320,-692.5 314,-692.5 308,-686.5 308,-680.5 308,-680.5 308,-428.5 308,-428.5 308,-422.5 314,-416.5 320,-416.5"/>
<text text-anchor="middle" x="350" y="-550.8" font-family="Times,serif" font-size="14.00" fill="#000000">diagnosis</text>
<polyline fill="none" stroke="#000000" points="392,-416.5 392,-692.5 "/>
<text text-anchor="middle" x="402.5" y="-550.8" font-family="Times,serif" font-size="14.00" fill="#000000"> </text>
<polyline fill="none" stroke="#000000" points="413,-416.5 413,-692.5 "/>
<text text-anchor="middle" x="503" y="-677.3" font-family="Times,serif" font-size="14.00" fill="#000000">diagnosis_id</text>
<polyline fill="none" stroke="#000000" points="413,-669.5 593,-669.5 "/>
<text text-anchor="middle" x="503" y="-654.3" font-family="Times,serif" font-size="14.00" fill="#000000">harmonized_cde</text>
<polyline fill="none" stroke="#000000" points="413,-646.5 593,-646.5 "/>
<text text-anchor="middle" x="503" y="-631.3" font-family="Times,serif" font-size="14.00" fill="#000000">harmonized_term</text>
<polyline fill="none" stroke="#000000" points="413,-623.5 593,-623.5 "/>
<text text-anchor="middle" x="503" y="-608.3" font-family="Times,serif" font-size="14.00" fill="#000000">harmonized_value</text>
<polyline fill="none" stroke="#000000" points="413,-600.5 593,-600.5 "/>
<text text-anchor="middle" x="503" y="-585.3" font-family="Times,serif" font-size="14.00" fill="#000000">harmonized_value_id</text>
<polyline fill="none" stroke="#000000" points="413,-577.5 593,-577.5 "/>
<text text-anchor="middle" x="503" y="-562.3" font-family="Times,serif" font-size="14.00" fill="#000000">source_data_file_guid</text>
<polyline fill="none" stroke="#000000" points="413,-554.5 593,-554.5 "/>
<text text-anchor="middle" x="503" y="-539.3" font-family="Times,serif" font-size="14.00" fill="#000000">source_data_file_name</text>
<polyline fill="none" stroke="#000000" points="413,-531.5 593,-531.5 "/>
<text text-anchor="middle" x="503" y="-516.3" font-family="Times,serif" font-size="14.00" fill="#000000">source_dataset</text>
<polyline fill="none" stroke="#000000" points="413,-508.5 593,-508.5 "/>
<text text-anchor="middle" x="503" y="-493.3" font-family="Times,serif" font-size="14.00" fill="#000000">source_field_name</text>
<polyline fill="none" stroke="#000000" points="413,-485.5 593,-485.5 "/>
<text text-anchor="middle" x="503" y="-470.3" font-family="Times,serif" font-size="14.00" fill="#000000">source_value</text>
<polyline fill="none" stroke="#000000" points="413,-462.5 593,-462.5 "/>
<text text-anchor="middle" x="503" y="-447.3" font-family="Times,serif" font-size="14.00" fill="#000000">transformation_logic</text>
<polyline fill="none" stroke="#000000" points="413,-439.5 593,-439.5 "/>
<text text-anchor="middle" x="503" y="-424.3" font-family="Times,serif" font-size="14.00" fill="#000000">version</text>
<polyline fill="none" stroke="#000000" points="593,-416.5 593,-692.5 "/>
<text text-anchor="middle" x="603.5" y="-550.8" font-family="Times,serif" font-size="14.00" fill="#000000"> </text>
</g>
<!-- diagnosis&#45;&gt;participant -->
<g id="edge4" class="edge">
<title>diagnosis&#45;&gt;participant</title>
<path fill="none" stroke="#000000" d="M433.2013,-416.3491C430.4374,-402.613 427.6235,-388.6287 424.8398,-374.7948"/>
<polygon fill="#000000" stroke="#000000" points="428.2233,-373.8669 422.8194,-364.7539 421.3609,-375.2479 428.2233,-373.8669"/>
<text text-anchor="middle" x="472.5" y="-386.8" font-family="Times,serif" font-size="14.00" fill="#000000">of_diagnosis</text>
</g>
</g>
</svg>
